<svg width="16" height="16" viewBox="0 0 16 16" fill="none" xmlns="http://www.w3.org/2000/svg">
<path d="M8.00006 16C6.89339 16 5.85339 15.79 4.88006 15.37C3.90673 14.95 3.06006 14.38 2.34006 13.66C1.62006 12.94 1.05006 12.0933 0.630061 11.12C0.210061 10.1467 6.10352e-05 9.10667 6.10352e-05 8C6.10352e-05 6.89333 0.210061 5.85333 0.630061 4.88C1.05006 3.90667 1.62006 3.06 2.34006 2.34C3.06006 1.62 3.90673 1.05 4.88006 0.63C5.85339 0.21 6.89339 0 8.00006 0C9.10673 0 10.1467 0.21 11.1201 0.63C12.0934 1.05 12.9401 1.62 13.6601 2.34C14.3801 3.06 14.9501 3.90667 15.3701 4.88C15.7901 5.85333 16.0001 6.89333 16.0001 8C16.0001 8.36 15.9801 8.71333 15.9401 9.06C15.9001 9.40667 15.8334 9.74667 15.7401 10.08C15.5534 9.86667 15.3367 9.68667 15.0901 9.54C14.8434 9.39333 14.5734 9.29333 14.2801 9.24C14.3201 9.04 14.3501 8.83667 14.3701 8.63C14.3901 8.42333 14.4001 8.21333 14.4001 8C14.4001 6.21333 13.7801 4.7 12.5401 3.46C11.3001 2.22 9.78673 1.6 8.00006 1.6C6.21339 1.6 4.70006 2.22 3.46006 3.46C2.22006 4.7 1.60006 6.21333 1.60006 8C1.60006 9.78667 2.22006 11.3 3.46006 12.54C4.70006 13.78 6.21339 14.4 8.00006 14.4C8.68006 14.4 9.33006 14.3 9.95006 14.1C10.5701 13.9 11.1401 13.62 11.6601 13.26C11.8201 13.4867 12.0167 13.6867 12.2501 13.86C12.4834 14.0333 12.7334 14.1667 13.0001 14.26C12.3201 14.8067 11.5567 15.2333 10.7101 15.54C9.86339 15.8467 8.96006 16 8.00006 16ZM13.8001 12.8C13.5201 12.8 13.2834 12.7033 13.0901 12.51C12.8967 12.3167 12.8001 12.08 12.8001 11.8C12.8001 11.52 12.8967 11.2833 13.0901 11.09C13.2834 10.8967 13.5201 10.8 13.8001 10.8C14.0801 10.8 14.3167 10.8967 14.5101 11.09C14.7034 11.2833 14.8001 11.52 14.8001 11.8C14.8001 12.08 14.7034 12.3167 14.5101 12.51C14.3167 12.7033 14.0801 12.8 13.8001 12.8ZM8.80006 7.68L11.2001 10.08C11.3467 10.2267 11.4201 10.4133 11.4201 10.64C11.4201 10.8667 11.3467 11.0533 11.2001 11.2C11.0534 11.3467 10.8667 11.42 10.6401 11.42C10.4134 11.42 10.2267 11.3467 10.0801 11.2L7.44006 8.56C7.36006 8.48 7.30006 8.39 7.26006 8.29C7.22006 8.19 7.20006 8.08667 7.20006 7.98V4.8C7.20006 4.57333 7.27673 4.38333 7.43006 4.23C7.58339 4.07667 7.77339 4 8.00006 4C8.22673 4 8.41673 4.07667 8.57006 4.23C8.72339 4.38333 8.80006 4.57333 8.80006 4.8V7.68Z" fill="#333333" fill-opacity="0.3"/>
</svg>
