<svg width="18" height="10" viewBox="0 0 18 10" fill="#525252" xmlns="http://www.w3.org/2000/svg">
<g clip-path="url(#clip0_144_1646)">
<path fill-rule="evenodd" clip-rule="evenodd" d="M1.09971 0.339253C0.940921 0.506547 0.852615 0.728234 0.853027 0.958555C0.853438 1.18888 0.942535 1.41025 1.10193 1.57698L8.12314 8.80404C8.27792 8.96582 8.46408 9.09453 8.67031 9.18234C8.87654 9.27015 9.09853 9.31522 9.32278 9.31482C9.54703 9.31443 9.76886 9.26856 9.97477 9.18002C10.1807 9.09148 10.3664 8.96211 10.5206 8.79979L17.5676 1.49533C17.8935 1.15657 17.8967 0.608719 17.5739 0.266042C17.4969 0.183076 17.4037 0.11676 17.3 0.0712106C17.1963 0.0256616 17.0843 0.0018524 16.971 0.00126078C16.8577 0.000669168 16.7454 0.0233077 16.6412 0.0677715C16.5371 0.112235 16.4432 0.177575 16.3654 0.259733L9.91769 6.94426C9.84059 7.02549 9.74771 7.09023 9.64472 7.13454C9.54172 7.17885 9.43076 7.20181 9.31858 7.202C9.2064 7.2022 9.09536 7.17965 8.9922 7.1357C8.88905 7.09176 8.79594 7.02735 8.71855 6.94639L2.29801 0.337971C2.22069 0.257038 2.12766 0.192644 2.02457 0.14871C1.92149 0.104776 1.81051 0.0822214 1.69841 0.0824204C1.5863 0.0826194 1.4754 0.105568 1.37247 0.149868C1.26955 0.194168 1.17674 0.258047 1.09971 0.339253Z" fill="#0F4DA2"/>
</g>
<defs>
<clipPath id="clip0_144_1646">
<rect width="9.29986" height="16.961" fill="white" transform="matrix(-0.00178637 -0.999998 0.999998 -0.00177539 0.868164 9.33008)"/>
</clipPath>
</defs>
</svg>
