<svg width="17" height="10" viewBox="0 0 17 10" fill="none" xmlns="http://www.w3.org/2000/svg">
<g clip-path="url(#clip0_442_3586)">
<path fill-rule="evenodd" clip-rule="evenodd" d="M0.246646 0.339497C0.0883402 0.506791 0.000306642 0.728478 0.000716816 0.958799C0.00112699 1.18912 0.0899496 1.41049 0.24885 1.57722L7.24846 8.80429C7.40276 8.96607 7.58835 9.09477 7.79394 9.18258C7.99954 9.27039 8.22085 9.31547 8.44441 9.31507C8.66797 9.31467 8.88911 9.26881 9.09439 9.18027C9.29968 9.09173 9.48481 8.96236 9.63852 8.80003L16.6638 1.49557C16.9887 1.15681 16.992 0.608962 16.6701 0.266286C16.5934 0.18332 16.5005 0.117004 16.3971 0.0714545C16.2937 0.025906 16.1821 0.00209701 16.0691 0.00150475C15.9561 0.000913445 15.8442 0.0235517 15.7404 0.0680159C15.6365 0.112479 15.5429 0.177819 15.4653 0.259977L9.03749 6.94451C8.96063 7.02574 8.86804 7.09048 8.76536 7.13479C8.66268 7.1791 8.55205 7.20205 8.44022 7.20225C8.32839 7.20245 8.21769 7.17989 8.11485 7.13595C8.01201 7.092 7.91919 7.02759 7.84204 6.94664L1.44125 0.338215C1.36418 0.257282 1.27143 0.192888 1.16866 0.148954C1.06589 0.10502 0.955258 0.0824654 0.843494 0.0826644C0.73173 0.0828634 0.621176 0.105812 0.518566 0.150112C0.415956 0.194412 0.323436 0.258291 0.246646 0.339497Z" fill="#525252"/>
</g>
<defs>
<clipPath id="clip0_442_3586">
<rect width="9.29986" height="16.9088" fill="white" transform="translate(0.015625 9.33008) rotate(-90.102)"/>
</clipPath>
</defs>
</svg>
