<svg width="75" height="75" viewBox="0 0 75 75" fill="none" xmlns="http://www.w3.org/2000/svg">
<path d="M35.3704 65.8769C51.807 65.8769 65.1314 52.349 65.1314 35.6616C65.1314 18.9741 51.807 5.44629 35.3704 5.44629C18.9338 5.44629 5.60938 18.9741 5.60938 35.6616C5.60938 52.349 18.9338 65.8769 35.3704 65.8769Z" fill="#F5F5F5"/>
<path d="M53.4795 65.0602L53.0195 64.2987C53.2627 64.15 53.5088 63.9908 53.752 63.8287L54.2295 64.5723C53.9805 64.7434 53.7285 64.9055 53.4795 65.0602ZM55.4601 63.7306L54.9488 63.0033C55.1847 62.8322 55.4147 62.6627 55.649 62.4827L56.1779 63.1966C55.9318 63.384 55.6857 63.567 55.4601 63.7306ZM57.3439 62.2596L56.7858 61.5696C57.0114 61.3822 57.2341 61.1918 57.4494 61.0029L58.0251 61.6766C57.8039 61.8759 57.5754 62.0722 57.3439 62.2596ZM59.1253 60.6668L58.5217 60.0287C58.7327 59.8265 58.9421 59.6212 59.1458 59.416L59.7654 60.0496C59.5559 60.2548 59.3406 60.466 59.1253 60.6727V60.6668ZM60.7953 58.9549L60.1507 58.3496C60.347 58.1325 60.5433 57.9124 60.7367 57.6937L61.3973 58.2886C61.1981 58.5132 60.9974 58.7393 60.7953 58.9609V58.9549ZM62.3466 57.1301L61.661 56.5709C61.8427 56.3433 62.0228 56.1098 62.1972 55.8778L62.8959 56.4192C62.7157 56.6631 62.5312 56.9055 62.3466 57.136V57.1301ZM63.7705 55.1966L63.0483 54.6984C63.2138 54.4589 63.3779 54.2135 63.5361 53.9696L64.2685 54.4604C64.1074 54.7103 63.9389 54.9631 63.7705 55.2085V55.1966ZM65.0596 53.1739L64.3052 52.7159C64.4517 52.463 64.5981 52.2072 64.7446 51.9544L65.5108 52.3931C65.3628 52.6653 65.2119 52.9271 65.0596 53.1873V53.1739ZM66.2081 51.065L65.4244 50.6605C65.5547 50.4017 65.6836 50.1355 65.8067 49.8707L66.6007 50.2544C66.4732 50.537 66.3414 50.8077 66.2081 51.0769V51.065ZM67.2086 48.8787L66.3985 48.5322C66.5113 48.2615 66.6212 47.9878 66.7252 47.7172L67.5441 48.0429C67.443 48.3314 67.3243 48.614 67.2086 48.8906V48.8787ZM68.0539 46.6434L67.2218 46.3459C67.2599 46.2329 67.2965 46.1213 67.3331 46.0083L68.1681 46.2894L68.0539 46.6434Z" fill="#A9AFC4"/>
<!-- <path style="mix-blend-mode:multiply" d="M48.5231 49.0168C55.788 41.6411 55.788 29.6826 48.5231 22.3069C41.2583 14.9311 29.4796 14.9311 22.2147 22.3069C14.9499 29.6826 14.9499 41.6411 22.2147 49.0168C29.4796 56.3926 41.2583 56.3926 48.5231 49.0168Z" fill="url(#paint0_linear_385_670)"/> -->
<path style="mix-blend-mode:multiply" d="M56.4222 24.2111C56.4214 24.8938 56.2874 25.5696 56.0281 26.1996C56.2876 26.8289 56.4215 27.5043 56.4222 28.1865V31.3901C56.4215 32.0724 56.2876 32.7478 56.0281 33.3771C56.2874 34.007 56.4214 34.6828 56.4222 35.3656V38.5677C56.4215 39.2504 56.2876 39.9263 56.0281 40.5561C56.2877 41.186 56.4216 41.8618 56.4222 42.5446V45.7511C56.4212 46.8895 56.0492 47.9956 55.3642 48.8968C54.6792 49.7981 53.7197 50.4439 52.6354 50.7335V60.1509C51.4671 61.0112 50.2387 61.7841 48.9599 62.4636H44.845V50.7275C43.8684 50.4663 42.991 49.9147 42.3254 49.1436C42.2743 49.6513 42.1494 50.1485 41.9547 50.619C42.2158 51.2484 42.3498 51.9245 42.3488 52.6074V55.8095C42.3475 56.9455 41.9769 58.0493 41.2946 58.9496C40.6123 59.8499 39.6564 60.4965 38.5752 60.7889V65.6969C35.982 65.9859 33.3627 65.9264 30.7848 65.5199V60.7948C29.6982 60.5067 28.7361 59.8612 28.0489 58.9593C27.3617 58.0574 26.9881 56.9498 26.9863 55.8095V52.6074C26.9866 51.9245 27.1211 51.2485 27.3819 50.619C27.1212 49.9894 26.9867 49.3134 26.9863 48.6305V45.4284C26.9866 44.7455 27.1211 44.0695 27.3819 43.4399C27.1212 42.8104 26.9867 42.1344 26.9863 41.4515V38.2494C26.9869 37.5665 27.1214 36.8905 27.3819 36.2609C27.1209 35.6314 26.9864 34.9554 26.9863 34.2724V31.0718C26.9876 29.9314 27.361 28.8236 28.0483 27.9216C28.7356 27.0196 29.6979 26.3743 30.7848 26.0865V25.1213L33.2298 18.0761C33.3283 17.793 33.5108 17.5478 33.7521 17.3742C33.9934 17.2006 34.2817 17.1071 34.5775 17.1064H34.7445C35.039 17.1063 35.3264 17.1987 35.5672 17.371C35.808 17.5432 35.9904 17.787 36.0893 18.0687L38.5796 25.1153V26.0925C39.5517 26.3559 40.4249 26.9061 41.089 27.6734C41.1403 27.1664 41.2647 26.6699 41.4581 26.1996C41.1988 25.5696 41.0648 24.8938 41.0641 24.2111V21.009C41.0656 19.8708 41.4376 18.7651 42.1222 17.8637C42.8068 16.9624 43.7655 16.316 44.8494 16.0252V15.0599L47.3046 7.97461C48.5039 8.50768 49.6671 9.12079 50.7867 9.80989L52.6354 15.0525V16.0252C53.7195 16.3158 54.6786 16.962 55.3635 17.8634C56.0483 18.7647 56.4205 19.8706 56.4222 21.009V24.2111Z" fill="url(#paint1_linear_385_670)"/>
<path d="M35.3704 66.3244C18.7188 66.3244 5.16992 52.5687 5.16992 35.6615C5.16992 18.7542 18.7188 5 35.3704 5C52.022 5 65.5724 18.7542 65.5724 35.6615C65.5724 52.362 51.8799 66.3244 35.3704 66.3244ZM35.3704 5.89236C19.2023 5.89236 6.04887 19.2465 6.04887 35.6615C6.04887 52.0764 19.2023 65.432 35.3704 65.432C51.3379 65.432 64.6935 51.9292 64.6935 35.6615C64.6935 19.2465 51.5386 5.89236 35.3704 5.89236Z" fill="#5E6175"/>
<path d="M53.9742 24.211V21.0089C53.9742 20.3021 53.6976 19.6242 53.2053 19.1244C52.713 18.6245 52.0453 18.3438 51.3491 18.3438H46.1326C45.4363 18.3438 44.7686 18.6245 44.2763 19.1244C43.784 19.6242 43.5074 20.3021 43.5074 21.0089V24.211C43.507 24.5867 43.5851 24.9583 43.7367 25.301C43.8882 25.6438 44.1096 25.9501 44.3864 26.1995C44.1096 26.4486 43.8881 26.7545 43.7366 27.0971C43.585 27.4396 43.5069 27.811 43.5074 28.1865V31.3886C43.5069 31.7643 43.585 32.1358 43.7365 32.4786C43.888 32.8214 44.1095 33.1277 44.3864 33.377C44.1095 33.6264 43.888 33.9326 43.7365 34.2754C43.585 34.6182 43.5069 34.9898 43.5074 35.3655V38.5676C43.5069 38.9433 43.585 39.3149 43.7365 39.6577C43.888 40.0005 44.1095 40.3067 44.3864 40.5561C44.1095 40.8054 43.888 41.1116 43.7365 41.4544C43.585 41.7972 43.5069 42.1688 43.5074 42.5445V45.7511C43.5072 46.1012 43.575 46.4479 43.7068 46.7714C43.8387 47.095 44.032 47.389 44.2758 47.6366C44.5196 47.8842 44.809 48.0807 45.1276 48.2147C45.4462 48.3488 45.7877 48.4177 46.1326 48.4177H51.3491C52.0454 48.4173 52.7131 48.1362 53.2054 47.6362C53.6977 47.1361 53.9742 46.4581 53.9742 45.7511V42.5445C53.9747 42.1688 53.8966 41.7972 53.7451 41.4544C53.5936 41.1116 53.3721 40.8054 53.0953 40.5561C53.3721 40.3067 53.5936 40.0005 53.7451 39.6577C53.8966 39.3149 53.9747 38.9433 53.9742 38.5676V35.3655C53.9747 34.9898 53.8966 34.6182 53.7451 34.2754C53.5936 33.9326 53.3721 33.6264 53.0953 33.377C53.3721 33.1277 53.5936 32.8214 53.7451 32.4786C53.8966 32.1358 53.9747 31.7643 53.9742 31.3886V28.1865C53.9747 27.811 53.8966 27.4396 53.7451 27.0971C53.5935 26.7545 53.372 26.4486 53.0953 26.1995C53.372 25.9501 53.5935 25.6438 53.745 25.301C53.8965 24.9583 53.9746 24.5867 53.9742 24.211ZM39.9023 34.2738V31.0718C39.9023 30.7216 39.8344 30.375 39.7023 30.0515C39.5703 29.7281 39.3768 29.4342 39.1329 29.1867C38.889 28.9392 38.5994 28.7429 38.2808 28.609C37.9621 28.4752 37.6206 28.4064 37.2757 28.4066H32.0607C31.7159 28.4066 31.3746 28.4755 31.0561 28.6095C30.7376 28.7434 30.4482 28.9397 30.2044 29.1872C29.9607 29.4347 29.7673 29.7285 29.6354 30.0518C29.5034 30.3752 29.4355 30.7218 29.4355 31.0718V34.2738C29.4354 34.6495 29.5136 35.021 29.6651 35.3637C29.8166 35.7064 30.038 36.0127 30.3145 36.2623C30.0378 36.5115 29.8164 36.8175 29.6649 37.16C29.5134 37.5025 29.4352 37.8738 29.4355 38.2493V41.4514C29.4352 41.8271 29.5134 42.1986 29.6649 42.5414C29.8164 42.8841 30.0378 43.1904 30.3145 43.4399C30.0378 43.6893 29.8164 43.9956 29.6649 44.3384C29.5134 44.6811 29.4352 45.0526 29.4355 45.4283V48.6304C29.4354 49.0061 29.5136 49.3775 29.6651 49.7203C29.8166 50.063 30.038 50.3693 30.3145 50.6189C30.0377 50.8683 29.8163 51.1745 29.6648 51.5173C29.5132 51.8601 29.4351 52.2316 29.4355 52.6074V55.808C29.4354 56.1581 29.5031 56.5048 29.635 56.8283C29.7668 57.1519 29.9601 57.4458 30.2039 57.6935C30.4477 57.9411 30.7371 58.1376 31.0557 58.2716C31.3743 58.4056 31.7158 58.4746 32.0607 58.4746H37.2757C37.9723 58.4746 38.6404 58.1937 39.133 57.6936C39.6256 57.1935 39.9023 56.5152 39.9023 55.808V52.6074C39.9026 52.2317 39.8245 51.8602 39.673 51.5174C39.5215 51.1746 39.3 50.8684 39.0234 50.6189C39.2998 50.3692 39.5211 50.0629 39.6726 49.7202C39.8241 49.3775 39.9024 49.0061 39.9023 48.6304V45.4283C39.9025 45.0526 39.8243 44.6812 39.6728 44.3384C39.5213 43.9957 39.3 43.6894 39.0234 43.4399C39.3 43.1903 39.5213 42.8841 39.6728 42.5413C39.8243 42.1986 39.9025 41.8271 39.9023 41.4514V38.2493C39.9025 37.8738 39.8243 37.5026 39.6728 37.1601C39.5213 36.8176 39.2999 36.5116 39.0234 36.2623C39.2998 36.0127 39.5211 35.7064 39.6726 35.3636C39.8241 35.0209 39.9024 34.6495 39.9023 34.2738Z" fill="#E1830E"/>
<path d="M51.3471 48.8579H46.1306C45.3195 48.8547 44.5425 48.5265 43.9686 47.9447C43.3946 47.3628 43.0703 46.5744 43.066 45.751V42.5444C43.0666 41.8177 43.318 41.1141 43.7765 40.5559C43.3184 39.9976 43.0671 39.2942 43.066 38.5675V35.3654C43.0671 34.6387 43.3184 33.9353 43.7765 33.3769C43.3182 32.8187 43.0669 32.1152 43.066 31.3884V28.1864C43.0668 27.4601 43.3182 26.757 43.7765 26.1994C43.3184 25.641 43.0671 24.9376 43.066 24.2109V21.0088C43.0668 20.1839 43.3899 19.3929 43.9645 18.8096C44.539 18.2263 45.3181 17.8982 46.1306 17.8975H51.3471C52.1597 17.8982 52.9387 18.2263 53.5133 18.8096C54.0878 19.3929 54.411 20.1839 54.4117 21.0088V24.2109C54.4107 24.9376 54.1593 25.641 53.7012 26.1994C54.1595 26.757 54.4109 27.4601 54.4117 28.1864V31.3884C54.4107 32.1151 54.1593 32.8185 53.7012 33.3769C54.1593 33.9353 54.4107 34.6387 54.4117 35.3654V38.5675C54.4107 39.2942 54.1593 39.9976 53.7012 40.5559C54.1598 41.1141 54.4112 41.8177 54.4117 42.5444V45.751C54.4075 46.5744 54.0831 47.3628 53.5092 47.9447C52.9353 48.5265 52.1582 48.8547 51.3471 48.8579ZM46.1306 18.7898C45.5511 18.7902 44.9954 19.0241 44.5856 19.4402C44.1758 19.8562 43.9454 20.4204 43.945 21.0088V24.2109C43.946 24.5235 44.0117 24.8324 44.1379 25.1176C44.2641 25.4028 44.4479 25.6578 44.6774 25.8662L45.0466 26.1994L44.6774 26.5325C44.4475 26.7403 44.2634 26.995 44.1372 27.28C44.011 27.565 43.9455 27.8739 43.945 28.1864V31.3884C43.9455 31.7012 44.011 32.0102 44.1372 32.2955C44.2634 32.5807 44.4475 32.8357 44.6774 33.0438L45.0466 33.3769L44.6789 33.7041C44.4494 33.9125 44.2656 34.1676 44.1394 34.4528C44.0132 34.7379 43.9475 35.0468 43.9464 35.3594V38.5675C43.9475 38.8801 44.0132 39.189 44.1394 39.4742C44.2656 39.7593 44.4494 40.0144 44.6789 40.2228L45.0481 40.5559L44.6789 40.8891C44.4489 41.0971 44.2648 41.3521 44.1386 41.6374C44.0124 41.9226 43.9469 42.2317 43.9464 42.5444V45.751C43.9468 46.3395 44.1772 46.9038 44.5869 47.3201C44.9967 47.7364 45.5524 47.9707 46.1321 47.9715H51.3486C51.9273 47.9679 52.4813 47.7328 52.8903 47.317C53.2992 46.9013 53.5301 46.3385 53.5328 45.751V42.5444C53.5323 42.2317 53.4668 41.9226 53.3406 41.6374C53.2144 41.3521 53.0303 41.0971 52.8003 40.8891L52.4312 40.5559L52.8003 40.2228C53.0298 40.0144 53.2137 39.7593 53.3398 39.4742C53.466 39.189 53.5318 38.8801 53.5328 38.5675V35.3654C53.5318 35.0528 53.466 34.7439 53.3398 34.4587C53.2137 34.1735 53.0298 33.9185 52.8003 33.7101L52.4312 33.3769L52.8003 33.0438C53.0303 32.8357 53.2144 32.5807 53.3406 32.2955C53.4668 32.0102 53.5323 31.7012 53.5328 31.3884V28.1864C53.5323 27.8739 53.4668 27.565 53.3405 27.28C53.2143 26.995 53.0302 26.7403 52.8003 26.5325L52.4312 26.1994L52.8003 25.8662C53.0298 25.6578 53.2137 25.4028 53.3398 25.1176C53.466 24.8324 53.5318 24.5235 53.5328 24.2109V21.0088C53.532 20.4205 53.3015 19.8566 52.8918 19.4406C52.482 19.0246 51.9266 18.7906 51.3471 18.7898H46.1306ZM37.2738 58.9192H32.0587C31.2462 58.9184 30.4671 58.5904 29.8926 58.007C29.318 57.4237 28.9949 56.6328 28.9941 55.8079V52.6073C28.9947 51.8805 29.2461 51.1769 29.7046 50.6188C29.2465 50.0604 28.9952 49.357 28.9941 48.6303V45.4282C28.9952 44.7015 29.2465 43.9981 29.7046 43.4398C29.2465 42.8814 28.9952 42.178 28.9941 41.4513V38.2492C28.9952 37.5225 29.2465 36.8191 29.7046 36.2607C29.2463 35.7031 28.9949 35 28.9941 34.2737V31.0717C28.9949 30.2467 29.318 29.4558 29.8926 28.8725C30.4671 28.2891 31.2462 27.9611 32.0587 27.9603H37.2738C38.0859 27.963 38.8639 28.2917 39.4383 28.8745C40.0127 29.4574 40.3368 30.2472 40.3398 31.0717V34.2737C40.3393 35.0003 40.0873 35.7036 39.6279 36.2607C40.087 36.8186 40.339 37.5222 40.3398 38.2492V41.4513C40.339 42.1783 40.087 42.8819 39.6279 43.4398C40.087 43.9976 40.339 44.7013 40.3398 45.4282V48.6303C40.339 49.3573 40.087 50.0609 39.6279 50.6188C40.0875 51.1764 40.3395 51.8802 40.3398 52.6073V55.8079C40.3368 56.6323 40.0127 57.4221 39.4383 58.005C38.8639 58.5878 38.0859 58.9165 37.2738 58.9192ZM32.0587 28.8527C31.4792 28.8531 30.9235 29.087 30.5137 29.503C30.1039 29.9191 29.8735 30.4833 29.8731 31.0717V34.2737C29.8741 34.5864 29.9399 34.8953 30.066 35.1804C30.1922 35.4656 30.376 35.7207 30.6055 35.9291L30.9732 36.2607L30.6055 36.5939C30.376 36.8023 30.1922 37.0573 30.066 37.3425C29.9399 37.6277 29.8741 37.9366 29.8731 38.2492V41.4513C29.8736 41.764 29.9391 42.0731 30.0653 42.3583C30.1915 42.6436 30.3756 42.8986 30.6055 43.1066L30.9732 43.4398L30.6055 43.7729C30.376 43.9813 30.1922 44.2364 30.066 44.5215C29.9399 44.8067 29.8741 45.1156 29.8731 45.4282V48.6303C29.8741 48.9429 29.9399 49.2518 30.066 49.537C30.1922 49.8222 30.376 50.0772 30.6055 50.2856L30.9732 50.6188L30.607 50.9564C30.377 51.1644 30.1928 51.4194 30.0666 51.7046C29.9404 51.9899 29.8749 52.299 29.8745 52.6117V55.8123C29.8749 56.4007 30.1053 56.9649 30.5151 57.381C30.9249 57.797 31.4806 58.0309 32.0602 58.0313H37.2753C37.8554 58.0305 38.4116 57.7959 38.8214 57.3789C39.2313 56.962 39.4613 56.3969 39.4609 55.8079V52.6073C39.4602 52.2952 39.3945 51.9869 39.2683 51.7024C39.1421 51.4179 38.9581 51.1637 38.7284 50.9564L38.3607 50.6232L38.7284 50.2901C38.9585 50.0821 39.1426 49.8271 39.2688 49.5419C39.3951 49.2566 39.4605 48.9475 39.4609 48.6348V45.4282C39.4605 45.1155 39.3951 44.8064 39.2688 44.5211C39.1426 44.2359 38.9585 43.9809 38.7284 43.7729L38.3607 43.4398L38.7284 43.1066C38.9585 42.8987 39.1427 42.6437 39.269 42.3584C39.3952 42.0732 39.4606 41.764 39.4609 41.4513V38.2492C39.4605 37.9365 39.3951 37.6274 39.2688 37.3421C39.1426 37.0568 38.9585 36.8019 38.7284 36.5939L38.3607 36.2607L38.7284 35.935C38.9585 35.727 39.1426 35.472 39.2688 35.1868C39.3951 34.9015 39.4605 34.5924 39.4609 34.2797V31.0717C39.4601 30.4831 39.2294 29.9189 38.8194 29.5029C38.4093 29.0869 37.8535 28.8531 37.2738 28.8527H32.0587Z" fill="#5E6175"/>
<path d="M49.8059 25.7534H44.3887V26.6458H49.8059V25.7534Z" fill="#5E6175"/>
<path d="M53.0935 32.9309H47.0977V33.8233H53.0935V32.9309Z" fill="#5E6175"/>
<path d="M48.7409 40.1099H44.3887V41.0022H48.7409V40.1099Z" fill="#5E6175"/>
<path d="M39.0202 35.8145H34.668V36.7068H39.0202V35.8145Z" fill="#5E6175"/>
<path d="M39.0208 42.9937H33.2344V43.886H39.0208V42.9937Z" fill="#5E6175"/>
<path d="M34.6686 50.1726H30.3164V51.065H34.6686V50.1726Z" fill="#5E6175"/>
<path d="M36.1276 58.4746H33.2344V70.8858H36.1276V58.4746Z" fill="#F5F5F5"/>
<path d="M36.1276 28.4065H33.2344V25.5465L34.6685 21.4119L36.1276 25.5465V28.4065Z" fill="#F5F5F5"/>
<path d="M50.1862 18.3437H47.293V15.4837L48.7271 11.3491L50.1862 15.4837V18.3437Z" fill="#F5F5F5"/>
<path d="M50.1862 48.4119H47.293V59.9724H50.1862V48.4119Z" fill="#F5F5F5"/>
<path d="M36.5651 71.3321H32.793V58.027H36.5651V71.3321ZM33.6719 70.4397H35.6862V58.9193H33.6719V70.4397ZM36.5651 28.8528H32.793V25.4708L34.6637 20.0779L36.568 25.4693L36.5651 28.8528ZM33.6719 27.9604H35.6862V25.6239L34.6695 22.7446L33.6719 25.6239V27.9604ZM50.6253 18.79H46.8531V15.4109L48.7238 10.0181L50.6282 15.4094L50.6253 18.79ZM47.7321 17.8976H49.7463V15.5596L48.7311 12.6788L47.7321 15.5596V17.8976ZM50.6253 60.4185H46.8531V47.9656H50.6253V60.4185ZM47.7321 59.5262H49.7463V48.858H47.7321V59.5262Z" fill="#5E6175"/>
<path d="M16.7676 19.4502C18.4036 19.4502 19.9727 20.11 21.1295 21.2845C22.2864 22.4591 22.9363 24.0521 22.9363 25.7131C22.9363 27.3741 22.2864 28.9671 21.1295 30.1416C19.9727 31.3161 18.4036 31.9759 16.7676 31.9759V19.4502Z" fill="#F5F5F5"/>
<path d="M16.7656 32.422H16.3262V19.0039H16.7656C18.5182 19.0039 20.1991 19.7107 21.4383 20.9689C22.6776 22.2271 23.3738 23.9336 23.3738 25.713C23.3738 27.4923 22.6776 29.1988 21.4383 30.457C20.1991 31.7152 18.5182 32.422 16.7656 32.422ZM17.2051 19.9126V31.5133C18.6462 31.4033 19.9931 30.7445 20.976 29.6689C21.9588 28.5932 22.505 27.1802 22.505 25.713C22.505 24.2457 21.9588 22.8327 20.976 21.7571C19.9931 20.6814 18.6462 20.0226 17.2051 19.9126Z" fill="#5E6175"/>
<path d="M16.7676 21.9653C17.2585 21.9554 17.7463 22.045 18.2027 22.2288C18.6591 22.4127 19.0747 22.6871 19.4253 23.0361C19.7759 23.385 20.0545 23.8015 20.2446 24.261C20.4347 24.7206 20.5327 25.214 20.5327 25.7125C20.5327 26.211 20.4347 26.7044 20.2446 27.164C20.0545 27.6236 19.7759 28.04 19.4253 28.3889C19.0747 28.7379 18.6591 29.0123 18.2027 29.1962C17.7463 29.38 17.2585 29.4696 16.7676 29.4597V21.9653Z" fill="#E1830E"/>
<path d="M16.7656 29.9057H16.3262V21.5191H16.7656C17.3146 21.5086 17.8601 21.6093 18.3703 21.8153C18.8804 22.0213 19.345 22.3285 19.7369 22.7189C20.1288 23.1094 20.44 23.5752 20.6525 24.0892C20.865 24.6031 20.9745 25.155 20.9745 25.7124C20.9745 26.2698 20.865 26.8217 20.6525 27.3356C20.44 27.8496 20.1288 28.3154 19.7369 28.7059C19.345 29.0963 18.8804 29.4035 18.3703 29.6095C17.8601 29.8155 17.3146 29.9162 16.7656 29.9057ZM17.2051 22.4412V28.9851C17.9851 28.8781 18.7004 28.4875 19.2183 27.8859C19.7362 27.2842 20.0217 26.5122 20.0217 25.7131C20.0217 24.9141 19.7362 24.1421 19.2183 23.5404C18.7004 22.9387 17.9851 22.5482 17.2051 22.4412Z" fill="#5E6175"/>
<path d="M19.6178 28.1494L16.3262 26.0672V25.3578L19.6178 23.2756L20.0822 24.0327L17.4278 25.7118L20.0822 27.3924L19.6178 28.1494Z" fill="#5E6175"/>
<path d="M26.7539 22.5812C25.6307 21.3681 25.0185 19.7576 25.0479 18.0929C25.0772 16.4282 25.7457 14.841 26.9109 13.6694C28.0761 12.4979 29.6459 11.8346 31.2858 11.821C32.9257 11.8074 34.5059 12.4445 35.6898 13.5966L26.7539 22.5812Z" fill="#F5F5F5"/>
<path style="mix-blend-mode:multiply" d="M28.2108 21.116C27.8192 20.7142 27.5093 20.2381 27.2988 19.7148C27.0884 19.1914 26.9816 18.6311 26.9844 18.0658C26.9873 17.5006 27.0998 16.9414 27.3155 16.4203C27.5312 15.8992 27.8459 15.4263 28.2416 15.0286C28.6373 14.631 29.1063 14.3163 29.6218 14.1027C30.1373 13.8891 30.6891 13.7806 31.2459 13.7835C31.8027 13.7864 32.3534 13.9006 32.8667 14.1196C33.38 14.3386 33.8458 14.6581 34.2375 15.0599L28.2108 21.116Z" fill="url(#paint2_linear_385_670)"/>
<path d="M26.7507 23.2131L26.4416 22.8948C25.2064 21.6028 24.5235 19.868 24.5414 18.0676C24.5592 16.2671 25.2763 14.5466 26.5367 13.2801C27.7972 12.0135 29.4991 11.3032 31.2726 11.3037C33.046 11.3042 34.7476 12.0154 36.0074 13.2826L36.3165 13.6009L26.7507 23.2131ZM27.111 13.8671C26.0638 14.9217 25.4468 16.3385 25.3832 17.8347C25.3197 19.3308 25.8143 20.7963 26.7683 21.9385L35.0625 13.6098C33.9498 12.6261 32.5118 12.1059 31.037 12.1536C29.5623 12.2014 28.1599 12.8134 27.111 13.8671Z" fill="#5E6175"/>
<path d="M29.6255 20.3189L29.3164 20.0021C29.055 19.7513 28.846 19.4497 28.7018 19.1152C28.5575 18.7807 28.481 18.4202 28.4767 18.0551C28.4725 17.69 28.5406 17.3277 28.6771 16.9899C28.8135 16.652 29.0155 16.3455 29.271 16.0885C29.5265 15.8315 29.8303 15.6293 30.1643 15.4939C30.4983 15.3585 30.8557 15.2927 31.2153 15.3004C31.5749 15.3081 31.9292 15.3891 32.2574 15.5387C32.5855 15.6882 32.8806 15.9032 33.1252 16.1709L33.4343 16.4877L29.6255 20.3189ZM31.2237 16.2542C30.9058 16.2553 30.5937 16.3414 30.319 16.5041C30.0443 16.6667 29.8168 16.9 29.6593 17.1804C29.5018 17.4609 29.4199 17.7785 29.422 18.1013C29.424 18.4241 29.5099 18.7407 29.6709 19.019L32.1613 16.519C31.8785 16.3458 31.554 16.2552 31.2237 16.2572V16.2542Z" fill="#5E6175"/>
<path d="M20.4574 39.6918C20.4569 38.7674 20.1925 37.863 19.6963 37.088C19.2001 36.3129 18.4934 35.7005 17.6615 35.3247C16.8297 34.9489 15.9084 34.8259 15.0091 34.9705C14.1099 35.1152 13.2711 35.5213 12.5944 36.1397C11.9177 36.7581 11.432 37.5624 11.1961 38.4552C10.9601 39.348 10.9841 40.2911 11.265 41.1704C11.5459 42.0496 12.0717 42.8274 12.7789 43.4097C13.4861 43.9919 14.3443 44.3536 15.2497 44.4511C15.3021 44.7561 15.4196 45.0457 15.5939 45.2997C15.7683 45.5536 15.9953 45.7658 16.2591 45.9212C16.5228 46.0766 16.8169 46.1715 17.1206 46.1992C17.4243 46.2269 17.7303 46.1868 18.0171 46.0816C18.3039 45.9765 18.5645 45.8089 18.7807 45.5906C18.9969 45.3722 19.1634 45.1085 19.2686 44.8179C19.3737 44.5273 19.4148 44.2168 19.3892 43.9083C19.3635 43.5999 19.2716 43.3008 19.12 43.0322C19.9789 42.1392 20.459 40.94 20.4574 39.6918Z" fill="#E1830E"/>
<path d="M26.5714 48.3061C26.5729 47.7893 26.3867 47.29 26.0485 46.9038C25.7103 46.5175 25.2438 46.2713 24.7381 46.2123C24.2324 46.1532 23.723 46.2854 23.3072 46.5836C22.8914 46.8818 22.5985 47.325 22.4843 47.8287C21.7626 47.8769 21.0746 48.1571 20.5201 48.6287C19.9657 49.1002 19.5734 49.7387 19.4 50.4517C19.2267 51.1646 19.2814 51.9151 19.5561 52.5944C19.8308 53.2738 20.3113 53.8467 20.9281 54.2304C21.5449 54.614 22.2659 54.7884 22.9868 54.7284C23.7077 54.6683 24.3911 54.3769 24.938 53.8964C25.4849 53.4158 25.867 52.771 26.029 52.0553C26.191 51.3395 26.1244 50.5901 25.8389 49.9153C26.0695 49.7178 26.2546 49.4713 26.3812 49.1933C26.5077 48.9152 26.5727 48.6124 26.5714 48.3061Z" fill="#A9AFC4"/>
<path d="M17.3063 46.6436C16.7674 46.6441 16.2425 46.4696 15.8084 46.1455C15.3743 45.8215 15.0537 45.3648 14.8936 44.8425C13.7697 44.6517 12.7399 44.0882 11.965 43.2401C11.1901 42.3919 10.7139 41.307 10.6109 40.1549C10.508 39.0028 10.7839 37.8485 11.3957 36.8726C12.0075 35.8966 12.9206 35.1541 13.9923 34.761C15.0639 34.3679 16.2337 34.3465 17.3186 34.7001C18.4035 35.0537 19.3424 35.7623 19.9884 36.7152C20.6345 37.6681 20.9513 38.8115 20.8893 39.9666C20.8273 41.1218 20.39 42.2234 19.6457 43.0994C19.8031 43.4895 19.8636 43.9129 19.8218 44.3322C19.78 44.7516 19.6372 45.1541 19.4061 45.5043C19.1749 45.8545 18.8625 46.1415 18.4963 46.3402C18.1302 46.5389 17.7215 46.6431 17.3063 46.6436ZM15.7461 35.3552C14.6536 35.3565 13.603 35.7828 12.8106 36.5464C12.0181 37.31 11.5439 38.3528 11.4855 39.4605C11.4272 40.5681 11.7891 41.6564 12.4968 42.5014C13.2046 43.3465 14.2044 43.8841 15.2906 44.0037L15.6202 44.0394L15.6773 44.371C15.7469 44.7862 15.968 45.1596 16.2966 45.4167C16.6252 45.6738 17.0372 45.7957 17.4504 45.7582C17.8636 45.7207 18.2477 45.5264 18.5261 45.2142C18.8046 44.902 18.9569 44.4947 18.9528 44.0736C18.9528 43.5679 18.7521 43.2734 18.569 42.9507L18.8063 42.7172C19.3928 42.1065 19.7888 41.3338 19.9448 40.4957C20.1009 39.6576 20.0099 38.7915 19.6834 38.0056C19.3569 37.2198 18.8093 36.5492 18.1093 36.0777C17.4092 35.6063 16.5877 35.355 15.7476 35.3552H15.7461ZM22.703 55.1879C21.7303 55.1884 20.7935 54.8148 20.0813 54.1423C19.369 53.4698 18.9341 52.5484 18.8641 51.5634C18.7941 50.5784 19.0942 49.6031 19.704 48.8338C20.3138 48.0644 21.188 47.5582 22.1507 47.4169C22.2804 47.0649 22.4853 46.7463 22.7506 46.4842C23.0158 46.222 23.335 46.0226 23.6851 45.9004C24.0352 45.7782 24.4076 45.7361 24.7756 45.7773C25.1436 45.8184 25.4981 45.9417 25.8136 46.1383C26.1292 46.3349 26.3979 46.6 26.6007 46.9145C26.8034 47.229 26.9351 47.5852 26.9863 47.9574C27.0375 48.3297 27.0069 48.7088 26.8967 49.0677C26.7866 49.4265 26.5996 49.7562 26.3491 50.033C26.5432 50.6207 26.5969 51.2467 26.5059 51.8596C26.4149 52.4724 26.1817 53.0545 25.8256 53.558C25.4696 54.0614 25.0007 54.4717 24.4578 54.7551C23.9149 55.0385 23.3134 55.1868 22.703 55.1879ZM24.5019 46.6436C24.1316 46.6415 23.7717 46.7679 23.4818 47.0018C23.192 47.2358 22.9895 47.5633 22.9081 47.93L22.8348 48.2543L22.5082 48.2751C21.9303 48.3125 21.3759 48.5207 20.9132 48.8741C20.4504 49.2274 20.0996 49.7104 19.9039 50.2637C19.7082 50.8169 19.6762 51.4162 19.8117 51.9877C19.9473 52.5592 20.2446 53.0779 20.6669 53.4801C21.0892 53.8822 21.6182 54.1501 22.1886 54.2508C22.7591 54.3515 23.3461 54.2806 23.8773 54.0469C24.4086 53.8131 24.8609 53.4267 25.1785 52.9352C25.4962 52.4438 25.6653 51.8687 25.665 51.2808C25.665 50.6071 25.4702 50.2011 25.2959 49.7936L25.5449 49.5809C25.8054 49.3638 25.9933 49.0701 26.0828 48.7402C26.1722 48.4103 26.1589 48.0604 26.0446 47.7385C25.9303 47.4166 25.7206 47.1385 25.4444 46.9424C25.1682 46.7464 24.8389 46.642 24.5019 46.6436Z" fill="#5E6175"/>
<path d="M61.0042 8.59191L58.7461 10.8845L59.3676 11.5155L61.6257 9.22291L61.0042 8.59191Z" fill="#5E6175"/>
<path d="M56.862 6.2583H55.9824V9.50054H56.862V6.2583Z" fill="#5E6175"/>
<path d="M64.0099 13.2319H60.8164V14.1243H64.0099V13.2319Z" fill="#5E6175"/>
<path d="M13.3624 65.2165C13.0109 65.2185 12.6668 65.1141 12.374 64.9166C12.0812 64.7192 11.8531 64.4376 11.7187 64.1078C11.5843 63.7781 11.5497 63.4152 11.6194 63.0654C11.6891 62.7156 11.86 62.3949 12.1101 62.1441C12.3602 61.8934 12.6782 61.724 13.0236 61.6576C13.369 61.5912 13.726 61.6309 14.049 61.7715C14.3721 61.9121 14.6466 62.1472 14.8374 62.4469C15.0282 62.7466 15.1267 63.0973 15.1203 63.4541C15.1115 63.9226 14.9228 64.3691 14.5944 64.6983C14.266 65.0275 13.8239 65.2135 13.3624 65.2165ZM13.3624 62.5201C13.1328 62.5272 12.9148 62.6243 12.7541 62.791C12.5934 62.9577 12.5024 63.181 12.5004 63.4143C12.4983 63.6475 12.5852 63.8725 12.7429 64.0421C12.9006 64.2117 13.1168 64.3128 13.3463 64.3242C13.4659 64.3301 13.5854 64.3114 13.6977 64.2693C13.81 64.2271 13.9128 64.1624 13.9999 64.079C14.0869 63.9955 14.1565 63.8951 14.2044 63.7837C14.2523 63.6723 14.2776 63.5522 14.2787 63.4306C14.2798 63.3091 14.2567 63.1886 14.2107 63.0763C14.1648 62.964 14.0971 62.8623 14.0115 62.7773C13.9259 62.6923 13.8243 62.6257 13.7128 62.5815C13.6013 62.5373 13.4821 62.5164 13.3624 62.5201ZM6.54619 57.5214C6.27267 57.5216 6.00527 57.4392 5.7781 57.2845C5.55092 57.1299 5.37425 56.91 5.27062 56.653C5.167 56.396 5.1411 56.1135 5.19624 55.8415C5.25138 55.5695 5.38505 55.3204 5.58022 55.1258C5.77539 54.9313 6.02321 54.8001 6.29208 54.7491C6.56094 54.6981 6.83868 54.7296 7.08988 54.8395C7.34107 54.9493 7.55435 55.1327 7.7025 55.3661C7.85065 55.5996 7.92698 55.8725 7.92174 56.1501C7.91447 56.5159 7.76643 56.8642 7.50933 57.1205C7.25223 57.3768 6.90651 57.5207 6.54619 57.5214ZM6.54619 55.6192C6.44806 55.6192 6.35212 55.6486 6.27042 55.7038C6.18871 55.759 6.12488 55.8375 6.08694 55.9293C6.049 56.0212 6.03863 56.1224 6.05715 56.2203C6.07567 56.3181 6.12224 56.4082 6.19102 56.4793C6.2598 56.5503 6.34772 56.5992 6.44375 56.6197C6.53978 56.6402 6.63964 56.6315 6.73078 56.5945C6.82193 56.5576 6.90031 56.4942 6.95608 56.4122C7.01185 56.3303 7.04253 56.2334 7.04426 56.1338C7.04543 56.0665 7.03336 55.9997 7.00877 55.9372C6.98417 55.8747 6.94753 55.8178 6.90101 55.7699C6.85449 55.722 6.79901 55.684 6.73783 55.6581C6.67666 55.6322 6.61101 55.619 6.54473 55.6192H6.54619Z" fill="#5E6175"/>
<defs>
<linearGradient id="paint0_linear_385_670" x1="16.7667" y1="35.6611" x2="53.9738" y2="35.6611" gradientUnits="userSpaceOnUse">
<stop stop-color="#CACFDD"/>
<stop offset="1" stop-color="#EEF0F1"/>
</linearGradient>
<linearGradient id="paint1_linear_385_670" x1="28.5623" y1="30.5367" x2="49.6918" y2="51.3486" gradientUnits="userSpaceOnUse">
<stop stop-color="#CACFDD"/>
<stop offset="1" stop-color="#EEF0F1"/>
</linearGradient>
<linearGradient id="paint2_linear_385_670" x1="42.1255" y1="16.7641" x2="47.3316" y2="21.892" gradientUnits="userSpaceOnUse">
<stop stop-color="#CACFDD"/>
<stop offset="1" stop-color="#EEF0F1"/>
</linearGradient>
</defs>
</svg>
