<svg width="28" height="27" viewBox="0 0 28 27" fill="none" xmlns="http://www.w3.org/2000/svg">
<path d="M23.3503 7.38281C23.1309 6.44531 22.4362 5.70313 21.5953 5.46875C20.0231 5 13.8073 5 13.8073 5C13.8073 5 7.55506 5 5.98285 5.46875C5.1419 5.70313 4.4472 6.44531 4.22782 7.38281C3.78906 9.02344 3.78906 12.5391 3.78906 12.5391C3.78906 12.5391 3.78906 16.0156 4.22782 17.6953C4.4472 18.6328 5.1419 19.3359 5.98285 19.5703C7.55506 20 13.8073 20 13.8073 20C13.8073 20 20.0231 20 21.5953 19.5703C22.4362 19.3359 23.1309 18.6328 23.3503 17.6953C23.7891 16.0156 23.7891 12.5391 23.7891 12.5391C23.7891 12.5391 23.7891 9.02344 23.3503 7.38281ZM11.7598 15.7031V9.375L16.9518 12.5391L11.7598 15.7031Z" fill="white" stroke="#0F4DA2" stroke-width="1.2" stroke-linejoin="round"/>
</svg>
