<svg width="37" height="38" viewBox="0 0 37 38" fill="none" xmlns="http://www.w3.org/2000/svg">
<g clipPath="url(#clip0_1_1940)">
<path d="M23.3341 5.40821C23.239 5.40794 23.1453 5.43219 23.0622 5.47865L0.493662 17.9761C0.46399 17.9951 0.436214 18.017 0.410722 18.0414C0.392504 18.0545 0.374989 18.0685 0.358251 18.0835C0.311029 18.1319 0.272811 18.1885 0.245408 18.2505C0.242587 18.2573 0.242587 18.2653 0.239766 18.2726C0.218151 18.3305 0.205958 18.3915 0.203657 18.4533C0.203657 18.4607 0.199707 18.4664 0.199707 18.4737V32.1073C0.199707 32.258 0.259151 32.4025 0.364961 32.509C0.470771 32.6156 0.614281 32.6754 0.763919 32.6754H35.7468C35.8964 32.6754 36.0399 32.6156 36.1457 32.509C36.2515 32.4025 36.311 32.258 36.311 32.1073V18.4737C36.3071 15.0097 34.9387 11.6887 32.5059 9.23933C30.0731 6.78991 26.7746 5.41211 23.3341 5.40821ZM23.4774 6.54434C26.4962 6.58481 29.3862 7.78247 31.5585 9.89337C33.7309 12.0043 35.0223 14.8696 35.1696 17.9057H33.9221C33.6851 17.1022 33.2915 16.3543 32.7643 15.7056C32.2372 15.0569 31.587 14.5204 30.8517 14.1275C30.5378 12.6969 29.747 11.4176 28.6108 10.5022C27.4747 9.58687 26.0615 9.09067 24.6064 9.09609C24.427 9.09609 24.243 9.10518 24.0512 9.12393L24.045 9.11143C23.7293 8.31387 23.2305 7.60293 22.5893 7.03685L23.4774 6.54434ZM29.5653 16.0311L28.7381 15.6368L28.6033 14.754C28.4443 13.8039 27.9551 12.9416 27.2229 12.3211C26.4908 11.7006 25.5634 11.3623 24.6064 11.3667C24.4018 11.3699 24.1976 11.3871 23.9954 11.4184L22.7078 11.6087L22.1408 10.4725C21.668 9.60099 20.8996 8.92976 19.9759 8.58143L21.6358 7.7458C22.3264 8.15594 22.6283 8.77684 23.0311 9.60565L23.219 9.98853C23.2726 10.0959 23.3587 10.1834 23.4649 10.2385C23.571 10.2935 23.6918 10.3132 23.8097 10.2947C24.0732 10.2516 24.3395 10.2292 24.6064 10.2277C25.8431 10.2191 27.0428 10.6526 27.9917 11.4511C28.9407 12.2496 29.5775 13.3613 29.7887 14.5882C29.8027 14.6799 29.8388 14.7669 29.8939 14.8413C29.9489 14.9158 30.0213 14.9756 30.1047 15.0153C31.3252 15.5954 32.2723 16.6325 32.744 17.9057H31.4644C31.064 17.0804 30.3933 16.4193 29.5653 16.0339V16.0311ZM18.3397 9.39035C18.9021 9.39435 19.4541 9.54325 19.9432 9.82287C20.4323 10.1025 20.8421 10.5035 21.1337 10.9878L21.8829 12.4886C21.9362 12.5953 22.0216 12.6823 22.1268 12.7374C22.232 12.7925 22.3518 12.8127 22.4692 12.7953L24.1528 12.546C24.3022 12.5227 24.453 12.5092 24.6041 12.5056C25.2918 12.4997 25.9592 12.7402 26.487 13.184C27.0148 13.6278 27.3688 14.2461 27.4856 14.9284L27.6661 16.1106C27.6801 16.2024 27.7162 16.2893 27.7713 16.3638C27.8264 16.4382 27.8988 16.498 27.9821 16.5378L29.0806 17.061C29.4899 17.2564 29.8479 17.5457 30.1261 17.9057H2.96265L18.3397 9.39035ZM1.32982 25.8586H32.9257V26.9947H1.32982V25.8586ZM32.9257 24.7225H1.32982V21.3141H32.9257V24.7225ZM1.32982 31.5393V28.1309H32.9257V31.5393H1.32982ZM35.1826 31.5393H34.0541V20.746C34.0541 20.5953 33.9947 20.4509 33.8889 20.3443C33.7831 20.2378 33.6396 20.1779 33.4899 20.1779H1.32982V19.0418H35.1826V31.5393Z" fill="#525252"/>
<path d="M20.513 12.3054V11.0886C20.513 10.9379 20.4535 10.7934 20.3477 10.6869C20.2419 10.5804 20.0984 10.5205 19.9487 10.5205C19.7991 10.5205 19.6556 10.5804 19.5498 10.6869C19.444 10.7934 19.3845 10.9379 19.3845 11.0886V12.3054C18.8527 12.4436 18.3892 12.7725 18.0809 13.2302C17.7726 13.6879 17.6407 14.2432 17.7099 14.7918C17.7791 15.3404 18.0447 15.8448 18.4568 16.2104C18.869 16.576 19.3994 16.7778 19.9487 16.7778C20.4981 16.7778 21.0285 16.576 21.4407 16.2104C21.8528 15.8448 22.1184 15.3404 22.1876 14.7918C22.2568 14.2432 22.1249 13.6879 21.8166 13.2302C21.5083 12.7725 21.0448 12.4436 20.513 12.3054ZM19.9487 15.6331C19.7007 15.6337 19.4595 15.5518 19.2625 15.4001C19.0655 15.2484 18.9238 15.0355 18.8594 14.7943C18.7951 14.5531 18.8117 14.2973 18.9066 14.0667C19.0016 13.836 19.1696 13.6434 19.3845 13.5188V13.9289C19.3845 14.0796 19.444 14.2241 19.5498 14.3306C19.6556 14.4371 19.7991 14.497 19.9487 14.497C20.0984 14.497 20.2419 14.4371 20.3477 14.3306C20.4535 14.2241 20.513 14.0796 20.513 13.9289V13.5188C20.7279 13.6434 20.8959 13.836 20.9909 14.0667C21.0858 14.2973 21.1024 14.5531 21.0381 14.7943C20.9737 15.0355 20.832 15.2484 20.635 15.4001C20.438 15.5518 20.1968 15.6337 19.9487 15.6331Z" fill="#525252"/>
</g>
<defs>
<clipPath id="clip0_1_1940">
<rect width="36.1096" height="36.3563" fill="white" transform="translate(0.201172 0.863281)"/>
</clipPath>
</defs>
</svg>
