<svg width="24" height="24" viewBox="0 0 24 24" fill="none" xmlns="http://www.w3.org/2000/svg">
<path d="M21.5023 23.9456H2.38914C1.08597 23.9456 0 22.8597 0 21.5565V4.01805C0 2.71488 0.868778 1.62891 2.00905 1.62891H3.20362V3.20357H2.00905C1.84615 3.20357 1.62896 3.52936 1.62896 4.01805V21.5565C1.62896 21.9909 2.00905 22.371 2.44344 22.371H21.5566C21.9909 22.371 22.371 21.9909 22.371 21.5565V4.01805C22.371 3.52936 22.0995 3.20357 21.9909 3.20357H20.7964V1.62891H21.9909C23.0769 1.62891 24 2.71488 24 4.01805V21.5565C23.8914 22.8597 22.8054 23.9456 21.5023 23.9456Z" fill="#A9A9A9"/>
<path d="M5.59427 4.83258C5.15988 4.83258 4.77979 4.45249 4.77979 4.0181V0.81448C4.77979 0.38009 5.15988 0 5.59427 0C6.02866 0 6.40875 0.38009 6.40875 0.81448V4.0181C6.35445 4.45249 6.02866 4.83258 5.59427 4.83258ZM18.3002 4.83258C17.8658 4.83258 17.4857 4.45249 17.4857 4.0181V0.81448C17.4857 0.38009 17.8658 0 18.3002 0C18.7345 0 19.1146 0.38009 19.1146 0.81448V4.0181C19.1146 4.45249 18.7345 4.83258 18.3002 4.83258ZM7.98341 1.62896H15.911V3.25792H7.98341V1.62896ZM1.57617 6.40724H22.3183V8.0362H1.57617V6.40724ZM19.1146 9.61086H20.6893V11.1855H19.1146V9.61086ZM15.911 9.61086H17.54V11.1855H15.911V9.61086ZM12.7617 9.61086H14.3364V11.1855H12.7617V9.61086ZM9.55807 9.61086H11.1327V11.1855H9.55807V9.61086ZM6.35445 9.61086H7.98341V11.1855H6.35445V9.61086ZM19.1146 12.8145H20.6893V14.3891H19.1146V12.8145ZM15.911 12.8145H17.54V14.3891H15.911V12.8145ZM12.7617 12.8145H14.3364V14.3891H12.7617V12.8145ZM9.55807 12.8145H11.1327V14.3891H9.55807V12.8145ZM6.35445 12.8145H7.98341V14.3891H6.35445V12.8145ZM3.20513 12.8145H4.77979V14.3891H3.20513V12.8145ZM19.1146 15.9638H20.6893V17.5928H19.1146V15.9638ZM15.911 15.9638H17.54V17.5928H15.911V15.9638ZM12.7617 15.9638H14.3364V17.5928H12.7617V15.9638ZM9.55807 15.9638H11.1327V17.5928H9.55807V15.9638ZM6.35445 15.9638H7.98341V17.5928H6.35445V15.9638ZM3.20513 15.9638H4.77979V17.5928H3.20513V15.9638ZM15.911 19.1674H17.54V20.7421H15.911V19.1674ZM12.7617 19.1674H14.3364V20.7421H12.7617V19.1674ZM9.55807 19.1674H11.1327V20.7421H9.55807V19.1674ZM6.35445 19.1674H7.98341V20.7421H6.35445V19.1674ZM3.20513 19.1674H4.77979V20.7421H3.20513V19.1674Z" fill="#A9A9A9"/>
</svg>
