<svg width="45" height="44" viewBox="0 0 45 44" fill="none" xmlns="http://www.w3.org/2000/svg">
<path d="M13.7919 14.7337C13.8745 12.936 14.5975 11.2266 15.8309 9.91267C17.0643 8.59871 18.7273 7.76632 20.521 7.56504C22.3147 7.36377 24.1217 7.8068 25.6172 8.81455C27.1127 9.82229 28.1987 11.3287 28.6802 13.0631M18.9707 13.7506C19.1997 13.3422 19.5295 12.9989 19.9288 12.7531C20.328 12.5072 20.7836 12.367 21.2524 12.3457C21.7212 12.3243 22.1877 12.4226 22.6078 12.6311C23.0279 12.8397 23.3876 13.1516 23.653 13.5375M16.4951 13.4275C16.8334 12.4601 17.4531 11.6151 18.2751 11.0003C19.0972 10.3856 20.0843 10.0289 21.1105 9.97576C22.1368 9.92265 23.1556 10.1755 24.0371 10.7021C24.9186 11.2287 25.6227 12.0052 26.0597 12.9325M9.6543 21.3131C9.6543 19.3074 10.4535 17.3838 11.876 15.9656C13.2986 14.5474 15.228 13.7506 17.2398 13.7506C19.2516 13.7506 21.181 14.5474 22.6036 15.9656C24.0262 17.3838 24.8253 19.3074 24.8253 21.3131M14.4814 21.3131C14.4814 20.5838 14.7721 19.8843 15.2894 19.3686C15.8066 18.8528 16.5083 18.5631 17.2398 18.5631C17.9714 18.5631 18.673 18.8528 19.1903 19.3686C19.7076 19.8843 19.9982 20.5838 19.9982 21.3131M12.0679 21.3131C12.0679 19.9456 12.6128 18.6341 13.5827 17.6671C14.5526 16.7001 15.8681 16.1568 17.2398 16.1568C18.6115 16.1568 19.927 16.7001 20.8969 17.6671C21.8669 18.6341 22.4118 19.9456 22.4118 21.3131M21.4946 15.3181C22.5511 14.2506 23.9021 13.5204 25.376 13.2202C26.8498 12.9201 28.3798 13.0636 29.7716 13.6325C31.1634 14.2014 32.3542 15.1699 33.1925 16.4151C34.0308 17.6603 34.4788 19.1259 34.4796 20.6256M24.6047 19.0856C24.9347 18.596 25.4139 18.2252 25.9714 18.0278C26.529 17.8305 27.1355 17.8172 27.7013 17.9898C28.267 18.1624 28.7622 18.5118 29.1135 18.9864C29.4649 19.461 29.6538 20.0357 29.6525 20.6256M23.5358 16.7C24.2877 16.06 25.2078 15.6482 26.1871 15.5135C27.1665 15.3787 28.1641 15.5267 29.0617 15.9398C29.9593 16.3528 30.7194 17.0138 31.2519 17.8443C31.7843 18.6747 32.0669 19.64 32.0661 20.6256" stroke="#525252" strokeWidth="1.2" stroke-miterlimit="10"/>
<path d="M26.5494 33.8799V37.8124H17.5847V33.8799" stroke="#525252" strokeWidth="1.2" strokeLinecap="round" strokeLinejoin="round"/>
<path d="M34.8175 20.625C34.986 20.6236 35.1529 20.657 35.3076 20.7234C35.4623 20.7897 35.6015 20.8874 35.7163 21.0102C35.8311 21.1331 35.919 21.2784 35.9744 21.437C36.0298 21.5956 36.0515 21.7639 36.0381 21.9313C35.7186 25.4044 34.1089 28.633 31.5248 30.9839C28.9407 33.3347 25.5687 34.638 22.0704 34.638C18.5722 34.638 15.2002 33.3347 12.6161 30.9839C10.0319 28.633 8.42221 25.4044 8.10272 21.9313C8.08937 21.7645 8.11087 21.5967 8.16585 21.4386C8.22084 21.2805 8.30812 21.1355 8.42218 21.0128C8.53624 20.89 8.6746 20.7922 8.82852 20.7254C8.98244 20.6587 9.14856 20.6245 9.31641 20.625H34.8175Z" stroke="#525252" strokeWidth="1.2" stroke-miterlimit="10"/>
<path d="M10.5095 28.5312H33.6246C34.1515 27.7754 34.6019 26.9694 34.9694 26.125H9.16479C9.53222 26.9694 9.98266 27.7754 10.5095 28.5312Z" stroke="#525252" strokeWidth="1.2" stroke-miterlimit="10"/>
</svg>
