<svg width="31" height="32" viewBox="0 0 31 32" fill="none" xmlns="http://www.w3.org/2000/svg">
<g clipPath="url(#clip0_1_1948)">
<path d="M14.7796 28.4826C14.8958 28.5993 15.0528 28.6654 15.2169 28.6668C15.381 28.6682 15.5391 28.6048 15.6573 28.4902L19.1429 25.1064C19.5929 24.5819 19.8387 23.9109 19.8347 23.2179C19.8307 22.5248 19.5771 21.8567 19.121 21.3376C18.6649 20.8185 18.0372 20.4836 17.3545 20.395C16.6718 20.3064 15.9803 20.4702 15.4084 20.856L15.283 20.9425L15.1576 20.8541C14.5883 20.4585 13.8953 20.2855 13.2084 20.3676C12.5215 20.4497 11.8879 20.7813 11.4264 21.3001C10.965 21.8189 10.7073 22.4894 10.7018 23.1858C10.6962 23.8822 10.9431 24.5568 11.3962 25.083L14.7796 28.4826ZM12.4156 22.0754C12.6788 21.8121 13.0252 21.6498 13.3948 21.6166C13.7644 21.5834 14.1338 21.6814 14.4392 21.8936L14.9169 22.2269C15.0203 22.299 15.1429 22.3381 15.2687 22.3391C15.3944 22.3401 15.5176 22.303 15.6222 22.2326L16.1043 21.9082C16.4134 21.7011 16.7846 21.6093 17.1538 21.6488C17.523 21.6882 17.8669 21.8563 18.126 22.124C18.4002 22.4012 18.5627 22.7707 18.5824 23.1613C18.6021 23.552 18.4775 23.9361 18.2326 24.2398L15.2291 27.1514L12.314 24.2335C12.0583 23.9268 11.9267 23.5344 11.9455 23.1344C11.9643 22.7345 12.1322 22.3563 12.4156 22.0754Z" fill="#525252"/>
<path d="M26.3555 16.4856L22.8173 12.1405V1.3763C22.8173 1.2089 22.7512 1.04836 22.6337 0.929987C22.5161 0.811617 22.3566 0.745117 22.1904 0.745117H7.14472C6.97846 0.745117 6.81901 0.811617 6.70144 0.929987C6.58387 1.04836 6.51782 1.2089 6.51782 1.3763V13.7235C6.42692 13.7696 6.33602 13.8081 6.24449 13.8656C5.61453 14.3063 5.16654 14.9639 4.98505 15.7143C4.91339 16.0434 4.90946 16.3838 4.97351 16.7144C5.03755 17.0451 5.16821 17.359 5.35743 17.6369C5.66438 18.1132 6.05811 18.5268 6.51782 18.8557V30.45C6.51782 30.6174 6.58387 30.7779 6.70144 30.8963C6.81901 31.0146 6.97846 31.0811 7.14472 31.0811H22.1904C22.3566 31.0811 22.5161 31.0146 22.6337 30.8963C22.7512 30.7779 22.8173 30.6174 22.8173 30.45V17.9525L25.9574 17.5107C26.0677 17.4951 26.1718 17.4503 26.2591 17.3809C26.3465 17.3114 26.4139 17.2198 26.4544 17.1154C26.4949 17.0111 26.5071 16.8977 26.4898 16.787C26.4724 16.6763 26.4261 16.5723 26.3555 16.4856ZM7.77163 2.00749H14.0407V5.40011H8.9571C8.87477 5.40011 8.79325 5.41643 8.71719 5.44815C8.64114 5.47987 8.57203 5.52637 8.51381 5.58498C8.4556 5.64359 8.40942 5.71317 8.37792 5.78975C8.34641 5.86633 8.3302 5.9484 8.3302 6.03129C8.3302 6.11418 8.34641 6.19626 8.37792 6.27284C8.40942 6.34942 8.4556 6.419 8.51381 6.47761C8.57203 6.53622 8.64114 6.58271 8.71719 6.61443C8.79325 6.64615 8.87477 6.66248 8.9571 6.66248H14.0407V9.67134H8.9571C8.79084 9.67134 8.63138 9.73784 8.51381 9.85621C8.39625 9.97458 8.3302 10.1351 8.3302 10.3025C8.3302 10.4699 8.39625 10.6305 8.51381 10.7488C8.63138 10.8672 8.79084 10.9337 8.9571 10.9337H14.0407V12.1544C13.5354 12.2855 13.0428 12.4617 12.5687 12.6808C12.3098 12.802 12.0571 12.9371 11.8064 13.0722C11.2586 13.4169 10.6501 13.6526 10.0141 13.7665C9.84955 13.7401 9.68748 13.7002 9.52946 13.6472C8.96391 13.4576 8.37005 13.3679 7.77413 13.3821L7.77163 2.00749ZM6.20939 15.9857C6.31872 15.5682 6.56341 15.1995 6.90462 14.9379C7.25216 14.7519 7.63727 14.6482 8.03064 14.6346C8.42401 14.621 8.81527 14.698 9.17464 14.8597C9.48194 14.9777 9.80943 15.0333 10.1382 15.0232C10.9384 14.8987 11.7058 14.6141 12.395 14.1862C12.6257 14.06 12.8571 13.9381 13.0947 13.8271C14.5308 13.2182 16.0878 12.9537 17.6428 13.0545C17.7254 13.0593 17.808 13.0473 17.8858 13.0193C17.9637 12.9914 18.0352 12.948 18.0961 12.8917C18.157 12.8355 18.2061 12.7675 18.2404 12.6918C18.2748 12.6161 18.2937 12.5343 18.2961 12.4511C18.3036 12.2843 18.2451 12.1213 18.1335 11.9977C18.0218 11.8742 17.8662 11.8003 17.7005 11.7921C16.8977 11.7547 16.0932 11.7908 15.297 11.9001V2.00749H21.566V5.40011H16.4799C16.3976 5.40011 16.3161 5.41643 16.24 5.44815C16.164 5.47987 16.0949 5.52637 16.0366 5.58498C15.9784 5.64359 15.9323 5.71317 15.9007 5.78975C15.8692 5.86633 15.853 5.9484 15.853 6.03129C15.853 6.11418 15.8692 6.19626 15.9007 6.27284C15.9323 6.34942 15.9784 6.419 16.0366 6.47761C16.0949 6.53622 16.164 6.58271 16.24 6.61443C16.3161 6.64615 16.3976 6.66248 16.4799 6.66248H21.5635V9.67134H16.4799C16.3137 9.67134 16.1542 9.73784 16.0366 9.85621C15.9191 9.97458 15.853 10.1351 15.853 10.3025C15.853 10.4699 15.9191 10.6305 16.0366 10.7488C16.1542 10.8672 16.3137 10.9337 16.4799 10.9337H21.5635V11.9436L7.20741 17.8067C6.88971 17.5703 6.61755 17.2774 6.40435 16.9426C6.30699 16.8058 6.23931 16.6499 6.20572 16.485C6.17213 16.3202 6.17338 16.1501 6.20939 15.9857ZM10.3275 18.4404C10.1707 18.4629 10.0282 18.5443 9.92856 18.6682C9.82894 18.7922 9.77961 18.9495 9.79049 19.1086C9.80136 19.2677 9.87164 19.4167 9.9872 19.5258C10.1028 19.6348 10.255 19.6958 10.4134 19.6965C10.4428 19.6965 10.4721 19.6944 10.5012 19.6901L21.5635 18.1305V29.8188H7.77163V18.9371L21.9986 13.1258L24.6779 16.4168L10.3275 18.4404Z" fill="#525252"/>
</g>
<defs>
<clipPath id="clip0_1_1948">
<rect width="30.0913" height="30.2969" fill="white" transform="translate(0.209961 0.78418)"/>
</clipPath>
</defs>
</svg>
