<svg width="32" height="32" viewBox="0 0 32 32" fill="none" xmlns="http://www.w3.org/2000/svg">
<path d="M17.8668 15.9999L26.2668 7.59992C26.8002 7.06658 26.8002 6.26659 26.2668 5.73325C25.7335 5.19992 24.9335 5.19992 24.4002 5.73325L16.0002 14.1333L7.60016 5.73325C7.06683 5.19992 6.26683 5.19992 5.7335 5.73325C5.20016 6.26659 5.20016 7.06658 5.7335 7.59992L14.1335 15.9999L5.7335 24.3999C5.46683 24.6666 5.3335 24.9333 5.3335 25.3333C5.3335 26.1333 5.86683 26.6666 6.66683 26.6666C7.06683 26.6666 7.3335 26.5333 7.60016 26.2666L16.0002 17.8666L24.4002 26.2666C24.6668 26.5333 24.9335 26.6666 25.3335 26.6666C25.7335 26.6666 26.0002 26.5333 26.2668 26.2666C26.8002 25.7333 26.8002 24.9333 26.2668 24.3999L17.8668 15.9999Z" fill="white"/>
</svg>
