<svg width="16" height="16" viewBox="0 0 16 16" fill="none" xmlns="http://www.w3.org/2000/svg">
<g clipPath="url(#clip0_36_127)">
<path d="M14.6357 8.27464C14.4203 8.07435 13.6109 7.52416 12.2368 8.85398L9.77575 11.2358C9.62923 11.3776 9.46616 11.4883 9.28391 11.569C9.33732 11.4457 9.36682 11.3106 9.36682 11.1689C9.36682 10.6133 8.8944 10.1546 8.29132 10.1247C8.28077 10.1242 8.2702 10.1243 8.25971 10.1252C7.37804 10.196 6.46898 10.1214 5.73854 10.0615C5.48574 10.0408 5.247 10.0213 5.04608 10.0113C4.24656 9.97136 3.66 10.4281 3.19087 10.88L2.27378 11.7634H0.234377C0.104942 11.7634 0 11.8642 0 11.9885V14.7749C0 14.8346 0.0246975 14.8918 0.0686432 14.9341C0.112618 14.9763 0.172208 15 0.234377 15L8.63298 14.9999C9.30031 14.9999 9.86636 14.7686 10.3154 14.3122L14.7344 9.82048C15.1253 9.42314 15.0783 8.68633 14.6357 8.27464ZM14.3937 9.51127L9.97473 14.003C9.61772 14.3658 9.16631 14.5497 8.63298 14.5497L0.468754 14.5498V12.2136H2.37107C2.43336 12.2136 2.49307 12.1898 2.53704 12.1474L3.5228 11.1979C3.93897 10.7971 4.40866 10.4309 5.02182 10.4609C5.21492 10.4705 5.4391 10.4889 5.6987 10.5101C6.44212 10.5711 7.36635 10.6468 8.28177 10.5751C8.63416 10.5992 8.89806 10.8522 8.89806 11.1689C8.89806 11.3281 8.82514 11.4857 8.70839 11.5977C8.58265 11.7183 8.43743 11.7465 8.26753 11.7634L5.10705 11.7634C4.97761 11.7634 4.87267 11.8642 4.87267 11.9885C4.87267 12.1128 4.97761 12.2136 5.10705 12.2136C5.10705 12.2136 8.27863 12.2136 8.27922 12.2136C8.42808 12.2136 8.57884 12.185 8.72694 12.1703C9.28455 12.1148 9.73643 11.9129 10.1084 11.5529L12.5695 9.17113C13.2926 8.47136 13.9431 8.25716 14.3096 8.59809C14.5685 8.8389 14.6102 9.29123 14.3937 9.51127ZM9.49473 8.7517H10.8415C10.9709 8.7517 11.0759 8.65091 11.0759 8.52659V2.22511C11.0759 2.10079 10.9709 2 10.8415 2H9.49473C9.36529 2 9.26035 2.10079 9.26035 2.22511V8.52659C9.26035 8.65091 9.36529 8.7517 9.49473 8.7517ZM9.72911 2.45022H10.6071V8.30148H9.72911V2.45022ZM1.9927 8.7517H3.33946C3.4689 8.7517 3.57384 8.65091 3.57384 8.52659V5.93939C3.57384 5.81508 3.4689 5.71429 3.33946 5.71429H1.9927C1.86327 5.71429 1.75833 5.81508 1.75833 5.93939V8.52659C1.75833 8.65091 1.86327 8.7517 1.9927 8.7517ZM2.22708 6.1645H3.10508V8.30148H2.22708V6.1645ZM4.49339 8.7517H5.84012C5.96955 8.7517 6.07449 8.65094 6.07449 8.52659V3.57756C6.07449 3.45324 5.96955 3.35245 5.84012 3.35245H4.49339C4.36395 3.35245 4.25901 3.45324 4.25901 3.57756V8.52659C4.25901 8.65094 4.36395 8.7517 4.49339 8.7517ZM4.72776 3.80267H5.60574V8.30148H4.72776V3.80267ZM6.99407 8.75173H8.34086C8.4703 8.75173 8.57524 8.65094 8.57524 8.52662V4.45973C8.57524 4.33541 8.4703 4.23462 8.34086 4.23462H6.99407C6.86464 4.23462 6.7597 4.33541 6.7597 4.45973V8.52665C6.7597 8.65093 6.86464 8.75173 6.99407 8.75173ZM7.22845 4.68484H8.10648V8.30154H7.22845V4.68484Z" fill="#525252" stroke="#525252" strokeWidth="0.4"/>
</g>
<defs>
<clipPath id="clip0_36_127">
<rect width="16" height="16" fill="white"/>
</clipPath>
</defs>
</svg>
