<svg width="60" height="60" viewBox="0 0 60 60" fill="none" xmlns="http://www.w3.org/2000/svg">
<path d="M45.3234 32.7404C48.9982 32.7518 51.9776 35.784 52 39.5353V46.1843C51.9777 49.939 49.0015 52.9772 45.3234 53H38.8102C35.1355 52.9771 32.1652 49.9357 32.1541 46.1843V39.5353C32.1541 35.7826 35.1341 32.7404 38.8102 32.7404H45.3234ZM17.3513 32.7404C18.0351 32.6657 18.7008 32.996 19.0657 33.5912C19.4305 34.1864 19.4305 34.942 19.0657 35.5372C18.7008 36.1324 18.0351 36.4627 17.3513 36.388H14.6766C12.9705 36.388 11.5843 37.7937 11.5731 39.5353V46.1009C11.6165 47.8285 12.984 49.2154 14.6766 49.2483H21.2306C22.0518 49.2538 22.8413 48.9247 23.4239 48.3338C24.0065 47.743 24.3341 46.9393 24.3341 46.1009V36.2421L24.3062 35.9968C24.2754 35.3446 24.5883 34.7164 25.1388 34.36C25.7582 33.9591 26.5541 33.9827 27.1497 34.4197C27.7452 34.8566 28.0208 35.6192 27.8459 36.3463V46.1635C27.8459 49.9277 24.8567 52.9792 21.1694 52.9792H14.6766C11.0211 52.9018 8.07584 49.8951 8 46.1635V39.5353C8 37.7296 8.70406 35.9981 9.95675 34.7232C11.2094 33.4483 12.9077 32.7349 14.6766 32.7404H17.3513ZM45.3234 36.388H38.8102C37.1075 36.388 35.7271 37.7971 35.7271 39.5353V46.1843C35.7217 47.0207 36.0447 47.8245 36.6241 48.4159C37.2035 49.0074 37.9909 49.3372 38.8102 49.3317H45.3234C46.1428 49.3372 46.9302 49.0074 47.5095 48.4159C48.0889 47.8245 48.412 47.0207 48.4066 46.1843V39.5353C48.4066 38.7006 48.0817 37.9 47.5035 37.3098C46.9253 36.7196 46.1411 36.388 45.3234 36.388ZM45.3234 9C48.9709 9.08842 51.9041 12.0919 51.9796 15.8157V22.4439C52.0014 24.246 51.3209 25.9832 50.0879 27.2731C48.855 28.5631 47.1705 29.3001 45.4051 29.3221H42.71C41.7969 29.2223 41.1045 28.4358 41.1045 27.4983C41.1045 26.5609 41.7969 25.7743 42.71 25.6746H45.3234C46.1501 25.6691 46.9405 25.3271 47.5193 24.7246C48.098 24.122 48.4174 23.3086 48.4065 22.4647V15.8157C48.3845 14.0869 47.017 12.6909 45.3234 12.6684H38.8102C37.1075 12.6684 35.7271 14.0775 35.7271 15.8157V25.7579L35.7059 25.9866C35.5673 26.8838 34.8016 27.5614 33.8896 27.5504C33.4148 27.5396 32.964 27.3351 32.6379 26.9826C32.3118 26.6302 32.1376 26.1591 32.1541 25.6746V15.8157C32.1486 14.01 32.8475 12.2763 34.0964 10.9975C35.3452 9.71874 37.0413 9 38.8102 9H45.3234ZM21.1898 9C24.8725 9.01144 27.8551 12.0563 27.8664 15.8157V22.4647C27.8664 24.2704 27.1623 26.0019 25.9096 27.2768C24.6569 28.5517 22.9586 29.2651 21.1898 29.2596H14.6766C11.0018 29.2482 8.02239 26.216 8 22.4647V15.8157C8.02229 12.061 10.9985 9.02276 14.6766 9H21.1898ZM21.1898 12.6684H14.6766C13.8483 12.6516 13.0483 12.9758 12.4568 13.5678C11.8653 14.1599 11.5321 14.9701 11.5323 15.8157V22.4647C11.5154 23.3212 11.8413 24.1476 12.4346 24.7534C13.028 25.3591 13.8376 25.6918 14.6766 25.6746H21.1898C22.0165 25.6691 22.8068 25.3271 23.3856 24.7246C23.9644 24.122 24.2837 23.3086 24.2729 22.4647V15.8157C24.2617 14.0822 22.8879 12.6798 21.1898 12.6684Z" fill="#0F4DA2"/>
</svg>
