<svg width="36" height="34" viewBox="0 0 36 34" fill="none" xmlns="http://www.w3.org/2000/svg">
<path d="M16.7807 0.92705C17.08 0.00573947 18.3834 0.0057399 18.6828 0.927051L22.1618 11.6343C22.2956 12.0463 22.6796 12.3253 23.1128 12.3253H34.371C35.3398 12.3253 35.7425 13.5649 34.9588 14.1343L25.8507 20.7517C25.5002 21.0063 25.3536 21.4577 25.4875 21.8697L28.9664 32.577C29.2658 33.4983 28.2113 34.2644 27.4276 33.695L18.3195 27.0776C17.969 26.8229 17.4944 26.8229 17.1439 27.0776L8.03581 33.695C7.2521 34.2644 6.19762 33.4983 6.49697 32.577L9.97596 21.8697C10.1098 21.4577 9.96318 21.0063 9.61269 20.7517L0.50458 14.1343C-0.279133 13.5649 0.123642 12.3253 1.09237 12.3253H12.3506C12.7838 12.3253 13.1678 12.0463 13.3017 11.6343L16.7807 0.92705Z" fill="#FFAD01"/>
</svg>
