<svg width="33" height="9" viewBox="0 0 33 9" fill="none" xmlns="http://www.w3.org/2000/svg">
<path d="M4.21921 8.86237C3.11586 8.86237 2.17133 8.46683 1.38561 7.67575C0.59989 6.88466 0.207031 5.93367 0.207031 4.82279C0.207031 3.7119 0.59989 2.76092 1.38561 1.96983C2.17133 1.17875 3.11586 0.783203 4.21921 0.783203C5.32256 0.783203 6.26709 1.17875 7.05281 1.96983C7.83852 2.76092 8.23138 3.7119 8.23138 4.82279C8.23138 5.93367 7.83852 6.88466 7.05281 7.67575C6.26709 8.46683 5.32256 8.86237 4.21921 8.86237ZM16.2557 8.86237C15.1524 8.86237 14.2079 8.46683 13.4221 7.67575C12.6364 6.88466 12.2436 5.93367 12.2436 4.82279C12.2436 3.7119 12.6364 2.76092 13.4221 1.96983C14.2079 1.17875 15.1524 0.783203 16.2557 0.783203C17.3591 0.783203 18.3036 1.17875 19.0893 1.96983C19.8751 2.76092 20.2679 3.7119 20.2679 4.82279C20.2679 5.93367 19.8751 6.88466 19.0893 7.67575C18.3036 8.46683 17.3591 8.86237 16.2557 8.86237ZM28.2923 8.86237C27.1889 8.86237 26.2444 8.46683 25.4587 7.67575C24.6729 6.88466 24.2801 5.93367 24.2801 4.82279C24.2801 3.7119 24.6729 2.76092 25.4587 1.96983C26.2444 1.17875 27.1889 0.783203 28.2923 0.783203C29.3956 0.783203 30.3401 1.17875 31.1259 1.96983C31.9116 2.76092 32.3044 3.7119 32.3044 4.82279C32.3044 5.93367 31.9116 6.88466 31.1259 7.67575C30.3401 8.46683 29.3956 8.86237 28.2923 8.86237Z" fill="#525252"/>
</svg>
