<svg width="91" height="90" viewBox="0 0 91 90" fill="none" xmlns="http://www.w3.org/2000/svg">
<path d="M45.5186 11.0391C27.499 11.0391 12.23 20.4609 7.08159 33.4336C6.37633 35.2266 7.46949 37.3008 9.12686 37.3008H81.9103C83.5676 37.3008 84.6608 35.2266 83.9555 33.4336C78.8071 20.4609 63.5381 11.0391 45.5186 11.0391Z" fill="#E2A77A"/>
<path d="M81.9103 38.3555H9.12692C8.10429 38.3555 7.15218 37.8281 6.51744 36.9141C5.77691 35.8242 5.60059 34.3477 6.09428 33.0469C8.73902 26.3672 13.8522 20.6367 20.9049 16.4531C28.0633 12.1992 36.5617 9.98438 45.4833 9.98438C54.4049 9.98438 62.9034 12.2344 70.0618 16.4531C77.1145 20.6367 82.2277 26.3672 84.8724 33.0469C85.3661 34.3125 85.225 35.7891 84.4492 36.9141C83.885 37.8281 82.9329 38.3555 81.9103 38.3555ZM45.5186 12.0938C36.9849 12.0938 28.8391 14.2383 21.998 18.2812C15.439 22.1836 10.5022 27.7031 8.06902 33.8203C7.82218 34.4531 7.89271 35.1914 8.24534 35.7187C8.38639 35.9297 8.6685 36.2461 9.09166 36.2461H81.875C82.2982 36.2461 82.6156 35.9297 82.7214 35.7187C83.074 35.1914 83.1445 34.4531 82.8977 33.8203C80.4645 27.668 75.5276 22.1484 68.9687 18.2812C62.1981 14.2383 54.0523 12.0938 45.5186 12.0938Z" fill="black"/>
<path d="M79.6885 78.9609H11.8772C9.2325 78.9609 7.1167 76.8164 7.1167 74.2148V74.0391C7.1167 71.4023 9.26776 69.293 11.8772 69.293H79.6532C82.298 69.293 84.4138 71.4375 84.4138 74.0391V74.2148C84.449 76.8164 82.298 78.9609 79.6885 78.9609Z" fill="#E2A77A"/>
<path d="M79.6883 80.0156H11.877C8.66808 80.0156 6.05859 77.4141 6.05859 74.2148V74.0391C6.05859 70.8398 8.66808 68.2383 11.877 68.2383H79.653C82.862 68.2383 85.4715 70.8398 85.4715 74.0391V74.2148C85.5067 77.4141 82.8973 80.0156 79.6883 80.0156ZM11.877 70.3125C9.83176 70.3125 8.17439 71.9648 8.17439 74.0039V74.1797C8.17439 76.2187 9.83176 77.8711 11.877 77.8711H79.653C81.6983 77.8711 83.3557 76.2187 83.3557 74.1797V74.0039C83.3557 71.9648 81.6983 70.3125 79.653 70.3125H11.877Z" fill="black"/>
<path d="M76.2326 56.707H15.5797C13.2524 56.707 11.3481 58.6055 11.3481 60.9258V65.0391C11.3481 67.3594 13.2524 69.2578 15.5797 69.2578H76.2326C78.5599 69.2578 80.4641 67.3594 80.4641 65.0391V60.9258C80.4641 58.6055 78.5599 56.707 76.2326 56.707Z" fill="#68524B"/>
<path d="M76.2328 70.3125H15.58C12.6532 70.3125 10.2905 67.957 10.2905 65.0391V60.9258C10.2905 58.0078 12.6532 55.6523 15.58 55.6523H76.2328C79.1597 55.6523 81.5223 58.0078 81.5223 60.9258V65.0391C81.5223 67.9219 79.1597 70.3125 76.2328 70.3125ZM15.58 57.7617C13.8169 57.7617 12.4063 59.168 12.4063 60.9258V65.0391C12.4063 66.7969 13.8169 68.2031 15.58 68.2031H76.2328C77.996 68.2031 79.4065 66.7969 79.4065 65.0391V60.9258C79.4065 59.168 77.996 57.7617 76.2328 57.7617H15.58Z" fill="black"/>
<path d="M77.1143 52.418H14.1694C13.182 52.418 12.4062 53.1914 12.4062 54.1758V54.9492C12.4062 55.9336 13.182 56.707 14.1694 56.707H54.6516V59.4141C54.6516 61.6992 56.3795 63.5625 58.4953 63.5625C59.7296 63.5625 60.858 62.9297 61.5633 61.9453V62.0156C61.5633 64.3008 63.2911 66.1641 65.4069 66.1641C67.5227 66.1641 69.2506 64.3008 69.2506 62.0156V56.7422H77.0438C78.0312 56.7422 78.807 55.9687 78.807 54.9844V54.2109C78.8775 53.1914 78.0665 52.418 77.1143 52.418Z" fill="#FFE164"/>
<path d="M65.442 67.1484C63.3967 67.1484 61.6336 65.8125 60.893 63.9492C60.1878 64.3711 59.3767 64.582 58.5304 64.582C55.8151 64.582 53.6288 62.2617 53.6288 59.3789V57.7266H14.1692C12.6176 57.7266 11.3481 56.4609 11.3481 54.9141V54.1406C11.3481 52.5938 12.6176 51.3281 14.1692 51.3281H77.0789C78.6305 51.3281 79.8999 52.5938 79.8999 54.1406V54.9141C79.8999 56.4609 78.6305 57.7266 77.0789 57.7266H70.3436V61.9453C70.3436 64.8281 68.1573 67.1484 65.442 67.1484ZM62.6562 58.6055V61.9453C62.6562 63.6328 63.9257 65.0391 65.442 65.0391C66.9583 65.0391 68.2278 63.668 68.2278 61.9453V55.6172H77.0789C77.4668 55.6172 77.7841 55.3008 77.7841 54.9141V54.1406C77.7841 53.7539 77.4668 53.4375 77.0789 53.4375H14.1692C13.7813 53.4375 13.4639 53.7539 13.4639 54.1406V54.9141C13.4639 55.3008 13.7813 55.6172 14.1692 55.6172H55.7093V59.4141C55.7093 61.1016 56.9788 62.5078 58.4951 62.5078C59.3414 62.5078 60.1525 62.0859 60.6815 61.3125L62.6562 58.6055Z" fill="black"/>
<path d="M76.6205 43.875H15.7208C15.0861 43.875 14.5571 43.3477 14.5571 42.7148V38.4961C14.5571 37.8633 15.0861 37.3359 15.7208 37.3359H76.6205C77.2552 37.3359 77.7842 37.8633 77.7842 38.4961V42.7148C77.8194 43.3477 77.2905 43.875 76.6205 43.875Z" fill="#F25151"/>
<path d="M76.6208 44.9297H15.7211C14.4869 44.9297 13.4995 43.9453 13.4995 42.7148V38.4961C13.4995 37.2656 14.4869 36.2812 15.7211 36.2812H76.6208C77.855 36.2812 78.8424 37.2656 78.8424 38.4961V42.7148C78.8776 43.9102 77.855 44.9297 76.6208 44.9297ZM15.7211 38.3555C15.6506 38.3555 15.6153 38.4258 15.6153 38.4609V42.6797C15.6153 42.75 15.6858 42.7852 15.7211 42.7852H76.6208C76.6913 42.7852 76.7266 42.7148 76.7266 42.6797V38.4609C76.7266 38.3906 76.656 38.3555 76.6208 38.3555H15.7211Z" fill="black"/>
<path d="M78.2425 41.5898C76.8673 41.5898 75.633 42.082 74.6457 42.9258C73.6583 42.082 72.4241 41.5898 71.0488 41.5898C69.6735 41.5898 68.4393 42.082 67.452 42.9258C66.4646 42.082 65.2304 41.5898 63.8551 41.5898C62.4798 41.5898 61.2456 42.082 60.2583 42.9258C59.2709 42.082 58.0367 41.5898 56.6614 41.5898C55.2861 41.5898 54.0519 42.082 53.0645 42.9258C52.0772 42.082 50.843 41.5898 49.4677 41.5898C48.0924 41.5898 46.8582 42.082 45.8708 42.9258C44.8835 42.082 43.6493 41.5898 42.274 41.5898C40.8987 41.5898 39.6645 42.082 38.6771 42.9258C37.6898 42.082 36.4556 41.5898 35.0803 41.5898C33.705 41.5898 32.4708 42.082 31.4834 42.9258C30.4961 42.082 29.2618 41.5898 27.8866 41.5898C26.5113 41.5898 25.2771 42.082 24.2897 42.9258C23.3024 42.082 22.0681 41.5898 20.6929 41.5898C19.3176 41.5898 18.0834 42.082 17.096 42.9258C16.1086 42.082 14.8744 41.5898 13.4992 41.5898C10.3607 41.5898 7.82178 44.2266 7.82178 47.4258C7.82178 50.625 10.3607 53.2617 13.4992 53.2617C14.8744 53.2617 16.1086 52.7695 17.096 51.9258C18.0834 52.7695 19.3176 53.2617 20.6929 53.2617C22.0681 53.2617 23.3024 52.7695 24.2897 51.9258C25.2771 52.7695 26.5113 53.2617 27.8866 53.2617C29.2618 53.2617 30.4961 52.7695 31.4834 51.9258C32.4708 52.7695 33.705 53.2617 35.0803 53.2617C36.4556 53.2617 37.6898 52.7695 38.6771 51.9258C39.6645 52.7695 40.8987 53.2617 42.274 53.2617C43.6493 53.2617 44.8835 52.7695 45.8708 51.9258C46.8582 52.7695 48.0924 53.2617 49.4677 53.2617C50.843 53.2617 52.0772 52.7695 53.0645 51.9258C54.0519 52.7695 55.2861 53.2617 56.6614 53.2617C58.0367 53.2617 59.2709 52.7695 60.2583 51.9258C61.2456 52.7695 62.4798 53.2617 63.8551 53.2617C65.2304 53.2617 66.4646 52.7695 67.452 51.9258C68.4393 52.7695 69.6735 53.2617 71.0488 53.2617C72.4241 53.2617 73.6583 52.7695 74.6457 51.9258C75.633 52.7695 76.8673 53.2617 78.2425 53.2617C81.381 53.2617 83.9199 50.625 83.9199 47.4258C83.9199 44.2266 81.381 41.5898 78.2425 41.5898Z" fill="#88E05F"/>
<path d="M78.2428 54.3516C76.9733 54.3516 75.7038 53.9648 74.6459 53.2969C73.588 54 72.3186 54.3516 71.0491 54.3516C69.7796 54.3516 68.5101 53.9648 67.4522 53.2969C66.3943 54 65.1249 54.3516 63.8554 54.3516C62.5859 54.3516 61.3164 53.9648 60.2585 53.2969C59.2006 54 57.9312 54.3516 56.6617 54.3516C55.3922 54.3516 54.1227 53.9648 53.0648 53.2969C52.0069 54 50.7374 54.3516 49.468 54.3516C48.1985 54.3516 46.929 53.9648 45.8711 53.2969C44.8132 54 43.5437 54.3516 42.2743 54.3516C41.0048 54.3516 39.7353 53.9648 38.6774 53.2969C37.6195 54 36.35 54.3516 35.0806 54.3516C33.8111 54.3516 32.5416 53.9648 31.4837 53.2969C30.4258 54 29.1563 54.3516 27.8869 54.3516C26.6174 54.3516 25.3479 53.9648 24.29 53.2969C23.2321 54 21.9626 54.3516 20.6931 54.3516C19.4237 54.3516 18.1542 53.9648 17.0963 53.2969C16.0384 54 14.7689 54.3516 13.4994 54.3516C9.7968 54.3516 6.76416 51.2578 6.76416 47.4609C6.76416 43.6641 9.7968 40.5703 13.4994 40.5703C14.7689 40.5703 16.0384 40.957 17.0963 41.625C18.1542 40.9219 19.4237 40.5703 20.6931 40.5703C21.9626 40.5703 23.2321 40.957 24.29 41.625C25.3479 40.9219 26.6174 40.5703 27.8869 40.5703C29.1563 40.5703 30.4258 40.957 31.4837 41.625C32.5416 40.9219 33.8111 40.5703 35.0806 40.5703C36.35 40.5703 37.6195 40.957 38.6774 41.625C39.7353 40.9219 41.0048 40.5703 42.2743 40.5703C43.5437 40.5703 44.8132 40.957 45.8711 41.625C46.929 40.9219 48.1985 40.5703 49.468 40.5703C50.7374 40.5703 52.0069 40.957 53.0648 41.625C54.1227 40.9219 55.3922 40.5703 56.6617 40.5703C57.9312 40.5703 59.2006 40.957 60.2585 41.625C61.3164 40.9219 62.5859 40.5703 63.8554 40.5703C65.1249 40.5703 66.3943 40.957 67.4522 41.625C68.5101 40.9219 69.7796 40.5703 71.0491 40.5703C72.3186 40.5703 73.588 40.957 74.6459 41.625C75.7038 40.9219 76.9733 40.5703 78.2428 40.5703C81.9454 40.5703 84.9781 43.6641 84.9781 47.4609C84.9781 51.2578 81.9454 54.3516 78.2428 54.3516ZM74.6107 50.5898L75.2807 51.1523C76.127 51.8555 77.1144 52.2422 78.2075 52.2422C80.7465 52.2422 82.827 50.0977 82.827 47.4609C82.827 44.8242 80.7465 42.6797 78.2075 42.6797C77.1144 42.6797 76.127 43.0664 75.2807 43.7695L74.6107 44.332L73.9407 43.7695C73.0944 43.0664 72.107 42.6797 71.0138 42.6797C69.9207 42.6797 68.9333 43.0664 68.087 43.7695L67.417 44.332L66.747 43.7695C65.9007 43.0664 64.9133 42.6797 63.8201 42.6797C62.727 42.6797 61.7396 43.0664 60.8933 43.7695L60.2233 44.332L59.5533 43.7695C58.7069 43.0664 57.7196 42.6797 56.6264 42.6797C55.5333 42.6797 54.5459 43.0664 53.6996 43.7695L53.0296 44.332L52.3596 43.7695C51.5132 43.0664 50.5259 42.6797 49.4327 42.6797C48.3395 42.6797 47.3522 43.0664 46.5059 43.7695L45.8359 44.332L45.1658 43.7695C44.3195 43.0664 43.3322 42.6797 42.239 42.6797C41.1458 42.6797 40.1585 43.0664 39.3122 43.7695L38.6421 44.332L37.9721 43.7695C37.1258 43.0664 36.1385 42.6797 35.0453 42.6797C33.9521 42.6797 32.9648 43.0664 32.1184 43.7695L31.4484 44.332L30.7784 43.7695C29.9321 43.0664 28.9448 42.6797 27.8516 42.6797C26.7584 42.6797 25.7711 43.0664 24.9247 43.7695L24.1489 44.2969L23.4789 43.7344C22.6326 43.0312 21.6453 42.6445 20.5521 42.6445C19.4589 42.6445 18.4716 43.0312 17.6252 43.7344L16.9552 44.2969L16.2852 43.7344C15.4389 43.0312 14.4516 42.6445 13.3584 42.6445C10.8194 42.6445 8.7389 44.7891 8.7389 47.4258C8.7389 50.0625 10.8194 52.207 13.3584 52.207C14.4516 52.207 15.4389 51.8203 16.2852 51.1172L16.9552 50.5547L17.6252 51.1172C18.4716 51.8203 19.4589 52.207 20.5521 52.207C21.6453 52.207 22.6326 51.8203 23.4789 51.1172L24.1489 50.5547L24.819 51.1172C25.6653 51.8203 26.6526 52.207 27.7458 52.207C28.839 52.207 29.8263 51.8203 30.6727 51.1172L31.3427 50.5547L32.0127 51.1172C32.859 51.8203 33.8463 52.207 34.9395 52.207C36.0327 52.207 37.02 51.8203 37.8664 51.1172L38.5364 50.5547L39.2064 51.1172C40.0527 51.8203 41.0401 52.207 42.1332 52.207C43.2264 52.207 44.2137 51.8203 45.0601 51.1172L45.7301 50.5547L46.4001 51.1172C47.2464 51.8203 48.2338 52.207 49.3269 52.207C50.4201 52.207 51.4074 51.8203 52.2538 51.1172L52.9238 50.5547L53.5938 51.1172C54.4401 51.8203 55.4275 52.207 56.5206 52.207C57.6138 52.207 58.6012 51.8203 59.4475 51.1172L60.1175 50.5547L60.7875 51.1172C61.6338 51.8203 62.6212 52.207 63.7143 52.207C64.8075 52.207 65.7949 51.8203 66.6412 51.1172L67.3112 50.5547L67.9812 51.1172C68.8275 51.8203 69.8149 52.207 70.908 52.207C72.0012 52.207 72.9886 51.8203 73.8349 51.1172L74.6107 50.5898Z" fill="black"/>
<path d="M68.757 26.9997C68.4749 26.9997 68.1928 26.9294 67.946 26.7536L64.2081 24.1872C63.5733 23.7302 63.397 22.8864 63.8555 22.2184C64.3139 21.5856 65.1602 21.4098 65.8302 21.8669L69.5681 24.4333C70.2028 24.8903 70.3792 25.7341 69.9207 26.402C69.6386 26.7888 69.2155 26.9997 68.757 26.9997Z" fill="#FFD7B6"/>
<path d="M65.0542 21.6211C65.3363 21.6211 65.6184 21.6914 65.8653 21.8672L69.6032 24.4336C70.2379 24.8906 70.4142 25.7344 69.9558 26.4023C69.6737 26.7891 69.2505 27 68.7921 27C68.51 27 68.2279 26.9297 67.981 26.7539L64.2431 24.1875C63.6084 23.7305 63.4321 22.8867 63.8905 22.2188C64.1726 21.832 64.5958 21.6211 65.0542 21.6211ZM65.0542 19.5117C63.8905 19.5117 62.7973 20.0742 62.1626 21.0234C61.0694 22.6055 61.4573 24.8203 63.0442 25.9102L66.7821 28.4766C67.3816 28.8984 68.0516 29.1094 68.7921 29.1094C69.9558 29.1094 71.049 28.5469 71.6837 27.5977C72.7769 26.0156 72.389 23.8008 70.8021 22.7109L67.0642 20.1445C66.4647 19.7227 65.7595 19.5117 65.0542 19.5117Z" fill="black"/>
<path d="M25.9826 31.0075C25.7005 31.0075 25.4184 30.9372 25.1716 30.7614L21.4337 28.195C20.7989 27.738 20.6226 26.8942 21.081 26.2263C21.5395 25.5934 22.421 25.4177 23.0558 25.8747L26.7937 28.4411C27.4284 28.8981 27.6047 29.7419 27.1463 30.4099C26.8642 30.7966 26.4058 31.0075 25.9826 31.0075Z" fill="#FFD7B6"/>
<path d="M22.2448 25.6289C22.5269 25.6289 22.809 25.6992 23.0558 25.875L26.7938 28.4414C27.4285 28.8984 27.6048 29.7422 27.1464 30.4102C26.8643 30.7969 26.4411 31.0078 25.9827 31.0078C25.7006 31.0078 25.4185 30.9375 25.1716 30.7617L21.4337 28.1953C20.799 27.7383 20.6227 26.8945 21.0811 26.2266C21.3632 25.8398 21.8216 25.6289 22.2448 25.6289ZM22.2448 23.5195C21.0811 23.5195 19.9879 24.082 19.3532 25.0312C18.8243 25.8047 18.6127 26.7539 18.789 27.668C18.9653 28.582 19.4943 29.3906 20.2348 29.918L23.9727 32.4844C24.5722 32.9063 25.2422 33.1172 25.9827 33.1172C27.1464 33.1172 28.2395 32.5547 28.8743 31.6055C29.4032 30.832 29.6148 29.8828 29.4385 28.9688C29.2622 28.0547 28.7332 27.2461 27.9927 26.7188L24.2548 24.1523C23.6553 23.7305 22.9853 23.5195 22.2448 23.5195Z" fill="black"/>
<path d="M41.3928 23.8708C41.1107 23.8708 40.8286 23.8005 40.5817 23.6247L36.8438 21.0583C36.2091 20.6013 36.0328 19.7575 36.4912 19.0895C36.9496 18.4567 37.8312 18.2809 38.4659 18.738L42.2038 21.3044C42.8386 21.7614 43.0149 22.6052 42.5565 23.2731C42.2744 23.6598 41.8512 23.8708 41.3928 23.8708Z" fill="#FFD7B6"/>
<path d="M37.6545 18.4922C37.9366 18.4922 38.2187 18.5625 38.4655 18.7383L42.2034 21.3047C42.8382 21.7617 43.0145 22.6055 42.5561 23.2734C42.2739 23.6602 41.8508 23.8711 41.3924 23.8711C41.1103 23.8711 40.8282 23.8008 40.5813 23.625L36.8434 21.0586C36.2087 20.6016 36.0323 19.7578 36.4908 19.0898C36.7729 18.7031 37.2313 18.4922 37.6545 18.4922ZM37.6545 16.3828C36.4908 16.3828 35.3976 16.9453 34.7629 17.8945C34.2339 18.668 34.0223 19.6172 34.1987 20.5313C34.375 21.4453 34.9039 22.2539 35.6445 22.7813L39.3824 25.3477C39.9818 25.7695 40.6518 25.9805 41.3924 25.9805C42.5561 25.9805 43.6492 25.418 44.284 24.4688C44.8129 23.6953 45.0245 22.7461 44.8482 21.832C44.6718 20.918 44.1429 20.1094 43.4024 19.582L39.6645 17.0156C39.065 16.5938 38.395 16.3828 37.6545 16.3828Z" fill="black"/>
<path d="M55.9914 30.7263C55.7093 30.7263 55.4272 30.6559 55.1804 30.4802L51.4425 27.9138C50.8077 27.4567 50.6314 26.613 51.0898 25.945C51.5483 25.3122 52.3946 25.1364 53.0646 25.5934L56.8025 28.1598C57.4372 28.6169 57.6135 29.4606 57.1551 30.1286C56.9083 30.5153 56.4498 30.7263 55.9914 30.7263Z" fill="#FFD7B6"/>
<path d="M52.2891 25.3477C52.5712 25.3477 52.8533 25.418 53.1001 25.5938L56.838 28.1602C57.4728 28.6172 57.6491 29.4609 57.1906 30.1289C56.9085 30.5156 56.4854 30.7266 56.027 30.7266C55.7449 30.7266 55.4628 30.6562 55.2159 30.4805L51.478 27.9141C50.8433 27.457 50.6669 26.6133 51.1254 25.9453C51.4075 25.5586 51.8306 25.3477 52.2891 25.3477ZM52.2891 23.2383C51.1254 23.2383 50.0322 23.8008 49.3975 24.75C48.3043 26.332 48.6922 28.5469 50.2791 29.6367L54.017 32.2031C54.6164 32.625 55.2864 32.8359 56.027 32.8359C57.1906 32.8359 58.2838 32.2734 58.9186 31.3242C60.0117 29.7422 59.6238 27.5273 58.037 26.4375L54.2991 23.8711C53.6996 23.4492 52.9943 23.2383 52.2891 23.2383Z" fill="black"/>
</svg>
