<svg width="75" height="75" viewBox="0 0 75 75" fill="none" xmlns="http://www.w3.org/2000/svg">
<path d="M60.6189 38.4339C60.6189 51.1336 50.3238 61.4289 37.624 61.4289C24.9242 61.4289 14.6289 51.1336 14.6289 38.4339C14.6289 25.7342 24.9239 15.439 37.624 15.439C50.324 15.439 60.6189 25.7341 60.6189 38.4339Z" fill="#F5F5F5"/>
<path d="M39.0609 61.3828C38.5854 61.4121 38.1067 61.4289 37.6239 61.4289C24.924 61.4289 14.6289 51.1336 14.6289 38.4338C14.6289 25.734 24.9238 15.439 37.6239 15.439C38.1067 15.439 38.5854 15.4557 39.0609 15.485C27.0307 16.2269 17.5029 26.2169 17.5029 38.4338C17.5029 50.6507 27.0307 60.6407 39.0609 61.3828Z" fill="#E6E6E6"/>
<path d="M66.6019 41.1295H63.2441V12.1769C63.2442 12.0505 63.2823 11.927 63.3536 11.8225L65.9508 8.01951C65.9937 7.95658 66.0557 7.90908 66.1277 7.88395C66.1996 7.85883 66.2777 7.85741 66.3506 7.87991C66.4234 7.9024 66.4871 7.94762 66.5323 8.00895C66.5775 8.07027 66.6019 8.14448 66.6019 8.22068V41.1295Z" fill="#F5F5F5"/>
<path d="M64.6391 12.177V41.1295H63.2441V12.177C63.2442 12.0505 63.2823 11.927 63.3536 11.8226L65.9508 8.01969C65.9852 7.96748 66.0331 7.92558 66.0895 7.89846C66.1458 7.87134 66.2085 7.86001 66.2708 7.86568L64.753 11.8226C64.6792 11.926 64.6393 12.0499 64.6391 12.177Z" fill="#E6E6E6"/>
<path d="M11.5924 41.1292H9.31445V22.9937H11.5924V41.1292Z" fill="#BFBFBF"/>
<path d="M10.4523 41.1292H9.3125V22.9937H10.4523V41.1292Z" fill="#8C8C8C"/>
<path d="M13.4951 8.45868L14.0283 21.1253C14.0385 21.3669 13.9997 21.6081 13.9142 21.8343C13.8288 22.0605 13.6985 22.2671 13.5312 22.4417C13.3638 22.6162 13.1629 22.7551 12.9405 22.85C12.718 22.9449 12.4787 22.9938 12.2369 22.9938H8.66221C8.42042 22.9938 8.18112 22.9449 7.95871 22.85C7.7363 22.7552 7.53538 22.6163 7.36802 22.4418C7.20067 22.2672 7.07034 22.0607 6.98488 21.8345C6.89942 21.6083 6.86058 21.3671 6.87072 21.1256L7.40305 8.45893C7.41404 8.19664 7.52597 7.94874 7.71544 7.76703C7.90492 7.58533 8.15729 7.48388 8.41981 7.48389H8.42167C8.69156 7.48389 8.9504 7.5911 9.14124 7.78194C9.33209 7.97279 9.4393 8.23162 9.4393 8.50152V17.9068C9.4393 19.3638 11.4609 19.3638 11.4609 17.9068V8.50152C11.461 8.23161 11.5682 7.97277 11.7591 7.78194C11.9499 7.5911 12.2088 7.48389 12.4787 7.48389C12.7411 7.48397 12.9934 7.58543 13.1827 7.76707C13.3721 7.94871 13.484 8.1965 13.4951 8.45868Z" fill="#F5F5F5"/>
<path d="M10.4497 18.9996V22.9938H8.66221C8.42042 22.9938 8.18112 22.9449 7.95871 22.85C7.7363 22.7552 7.53538 22.6163 7.36802 22.4418C7.20067 22.2672 7.07034 22.0607 6.98488 21.8345C6.89942 21.6083 6.86058 21.3671 6.87072 21.1256L7.40305 8.45893C7.41407 8.19662 7.52602 7.94872 7.71552 7.76702C7.90502 7.58532 8.1574 7.48388 8.41994 7.48389H8.42167C8.69157 7.48389 8.95043 7.5911 9.14129 7.78194C9.33215 7.97277 9.43939 8.23161 9.43942 8.50152V17.9068C9.43893 18.6353 9.94428 18.9996 10.4497 18.9996Z" fill="#E6E6E6"/>
<path d="M12.7819 41.969C12.9238 46.0445 13.5332 63.5984 13.5332 64.3068C13.5332 65.1579 13.1951 65.9741 12.5933 66.5759C11.9915 67.1777 11.1753 67.5158 10.3242 67.5158C9.47315 67.5158 8.65693 67.1777 8.05513 66.5759C7.45332 65.9741 7.11523 65.1579 7.11523 64.3068C7.11523 63.5984 7.7247 46.0445 7.86657 41.969C7.8744 41.7437 7.96944 41.5302 8.13164 41.3735C8.29384 41.2169 8.51053 41.1294 8.73601 41.1294H11.9125C12.1379 41.1294 12.3546 41.2169 12.5168 41.3735C12.679 41.5302 12.7741 41.7437 12.7819 41.969Z" fill="#68544F"/>
<path d="M11.2028 67.4266C10.7309 67.5403 10.2394 67.5456 9.76524 67.4419C9.29107 67.3382 8.84661 67.1283 8.46532 66.8279C8.08403 66.5276 7.77585 66.1446 7.56399 65.708C7.35212 65.2713 7.24209 64.7922 7.24219 64.3068C7.24219 63.5984 7.85165 46.0445 7.99352 41.969C8.00136 41.7437 8.09639 41.5302 8.25859 41.3735C8.42079 41.2169 8.63748 41.1294 8.86297 41.1294H10.3663C10.1408 41.1294 9.92409 41.2169 9.76188 41.3735C9.59968 41.5302 9.50465 41.7437 9.49682 41.969C9.35494 46.0445 8.74548 63.5984 8.74548 64.3068C8.74561 65.0271 8.98802 65.7265 9.43373 66.2923C9.87943 66.8582 10.5025 67.2577 11.2028 67.4266Z" fill="#53433F"/>
<path d="M67.3836 41.969C67.5253 46.0445 68.1349 63.5984 68.1349 64.3068C68.1296 65.1545 67.7892 65.9656 67.188 66.5631C66.5867 67.1606 65.7735 67.496 64.9259 67.496C64.0782 67.496 63.265 67.1606 62.6637 66.5631C62.0625 65.9656 61.7221 65.1545 61.7168 64.3068C61.7168 63.5984 62.3264 46.0445 62.4683 41.969C62.4761 41.7437 62.5711 41.5302 62.7333 41.3735C62.8955 41.2169 63.1122 41.1294 63.3377 41.1294H66.514C66.7395 41.1294 66.9562 41.2169 67.1184 41.3735C67.2807 41.5301 67.3757 41.7436 67.3836 41.969Z" fill="#68544F"/>
<path d="M65.704 67.4202C65.2309 67.5384 64.7371 67.5471 64.2601 67.4459C63.7831 67.3446 63.3354 67.136 62.9511 66.8359C62.5668 66.5358 62.2559 66.1521 62.042 65.7139C61.8281 65.2756 61.7169 64.7944 61.7168 64.3068C61.7168 63.5984 62.3264 46.0445 62.4683 41.969C62.4761 41.7437 62.5711 41.5302 62.7333 41.3735C62.8955 41.2169 63.1122 41.1294 63.3377 41.1294H64.894C64.6685 41.1294 64.4518 41.2169 64.2896 41.3735C64.1274 41.5302 64.0324 41.7437 64.0245 41.969C63.8827 46.0445 63.2732 63.5984 63.2732 64.3068C63.2733 65.0225 63.5126 65.7176 63.953 66.2817C64.3934 66.8458 65.0097 67.2465 65.704 67.4202Z" fill="#53433F"/>
<path d="M42.8113 45.0392C42.8113 51.3025 38.0213 56.3792 32.1127 56.3792C26.204 56.3792 21.4141 51.302 21.4141 45.0392C21.4141 27.9271 23.5575 20.4888 34.9841 20.4888C42.3142 20.4888 47.0935 24.4627 47.0935 32.2325C47.0935 36.9357 42.8113 39.2615 42.8113 45.0392Z" fill="#EABD8C"/>
<path d="M32.9644 56.3435C32.6834 56.367 32.3995 56.3789 32.1127 56.3792C26.204 56.3792 21.4141 51.3019 21.4141 45.0392C21.4141 27.9271 23.5576 20.4888 34.9841 20.4888C35.2523 20.4888 35.5164 20.4957 35.7772 20.5063C25.1473 20.9015 23.1174 28.3924 23.1174 45.0392C23.1174 50.9981 27.454 55.8841 32.9644 56.3435Z" fill="#D3A06C"/>
<path d="M32.1132 53.8056C27.6331 53.8056 23.9883 49.8727 23.9883 45.0386C23.9883 35.9231 24.6568 30.6723 26.2247 27.4812C26.9856 25.9319 27.9487 24.8857 29.2556 24.1881C30.676 23.43 32.5501 23.0615 34.9847 23.0615C39.3349 23.0615 44.5206 24.6523 44.5206 32.2316C44.5206 33.7828 43.7966 35.0573 42.88 36.6708C41.7031 38.7433 40.2385 41.3218 40.2385 45.0392C40.2385 49.8727 36.5935 53.8056 32.1132 53.8056Z" fill="#FF5959"/>
<path d="M31.4295 53.7722C27.2683 53.3959 23.9883 49.624 23.9883 45.0385C23.9883 35.9231 24.6568 30.6722 26.2247 27.4811C26.9856 25.932 27.9487 24.8856 29.2556 24.188C30.676 23.4299 32.5501 23.0614 34.9849 23.0614C36.3166 23.0442 37.6435 23.2246 38.9223 23.597C38.2235 23.5032 37.5192 23.4572 36.8141 23.4593C34.3795 23.4593 32.5059 23.8278 31.0849 24.5859C29.7781 25.2831 28.8151 26.3295 28.0542 27.879C26.4865 31.0701 25.8177 36.3209 25.8177 45.4365C25.8177 49.3243 28.1759 52.6273 31.4295 53.7722Z" fill="#E63A57"/>
<path d="M31.5439 42.0205C32.7317 43.2083 32.951 44.9146 32.0339 45.8318C31.1168 46.749 29.4104 46.5295 28.2226 45.3417C27.0349 44.1538 26.8155 42.4476 27.7326 41.5305C28.6497 40.6134 30.3561 40.8328 31.5439 42.0205ZM34.9236 29.9367C34.0064 30.8538 34.2258 32.5602 35.4136 33.7479C36.6015 34.9356 38.3077 35.1551 39.2248 34.238C40.1419 33.3209 39.9226 31.6145 38.7348 30.4267C37.5469 29.239 35.8406 29.0196 34.9235 29.9367H34.9236Z" fill="#FFD9B3"/>
<path d="M54.8979 34.6651C54.9801 32.9428 57.4532 33.0609 57.371 34.7831C57.0693 41.0988 55.2485 46.5564 51.9594 51.0051C50.7417 52.6516 48.7508 51.18 49.9685 49.533C52.9614 45.4852 54.6198 40.4837 54.8979 34.6651ZM45.5053 47.8732C44.3648 49.3971 46.2233 50.7549 47.3642 49.2311C50.4446 45.1154 52.1539 40.0686 52.4447 34.2309C52.5238 32.6391 50.2123 32.5334 50.1331 34.1252C49.8653 39.5029 48.3083 44.1284 45.5053 47.8735V47.8732Z" fill="#D7BE69"/>
<path d="M37.624 14.5723C24.4666 14.5723 13.7624 25.2766 13.7624 38.434C13.7624 51.5913 24.4666 62.2955 37.624 62.2955C50.7814 62.2955 61.4856 51.5911 61.4856 38.4338C61.4856 25.2766 50.7813 14.5723 37.624 14.5723ZM37.624 60.5623C25.4224 60.5623 15.4955 50.6356 15.4955 38.434C15.4955 26.2323 25.4224 16.3055 37.624 16.3055C49.8257 16.3055 59.7524 26.2321 59.7524 38.4338C59.7524 50.6356 49.8257 60.5622 37.624 60.5622V60.5623ZM12.6979 40.3909V23.8186C13.3334 23.7082 13.9069 23.3703 14.3114 22.8679C14.716 22.3656 14.9238 21.7332 14.8962 21.0888L14.3623 8.42221C14.3412 7.93001 14.1281 7.46566 13.7688 7.12862C13.4095 6.79159 12.9325 6.60868 12.4399 6.61907C11.9474 6.62946 11.4785 6.83233 11.1337 7.18422C10.7889 7.53611 10.5957 8.00904 10.5953 8.50168V17.9067C10.5953 18.133 10.5015 18.133 10.4511 18.133C10.4007 18.133 10.3069 18.133 10.3069 17.9067V8.50168C10.3072 8.00833 10.1141 7.53451 9.76905 7.1819C9.42399 6.8293 8.95446 6.626 8.46122 6.61565C7.96798 6.6053 7.49033 6.78871 7.13078 7.12653C6.77123 7.46434 6.55843 7.92965 6.53805 8.42258L6.00634 21.0892C5.97877 21.7335 6.18661 22.3658 6.59106 22.868C6.99552 23.3703 7.56894 23.7082 8.20427 23.8186V40.3909C7.89425 40.5169 7.62746 40.7302 7.43628 41.0049C7.2451 41.2796 7.13774 41.6038 7.12721 41.9383C6.9508 47.0054 6.37526 63.5935 6.37526 64.3064C6.37526 65.3873 6.80465 66.4239 7.56897 67.1883C8.33329 67.9526 9.36993 68.382 10.4508 68.382C11.5318 68.382 12.5684 67.9526 13.3327 67.1883C14.097 66.4239 14.5264 65.3873 14.5264 64.3064C14.5264 63.5935 13.9509 47.0054 13.7745 41.9383C13.764 41.6039 13.6567 41.2797 13.4656 41.005C13.2745 40.7303 13.0079 40.517 12.6979 40.3909ZM10.9647 23.8605V40.2627H9.93721V23.8605H10.9647ZM7.73791 21.1616L8.27025 8.495C8.27186 8.45523 8.289 8.41767 8.31799 8.3904C8.34698 8.36313 8.38551 8.34831 8.42531 8.34914C8.46511 8.34996 8.50299 8.36637 8.53082 8.39482C8.55866 8.42327 8.57422 8.46151 8.57418 8.50131V17.9063C8.5681 18.174 8.61655 18.4401 8.71658 18.6884C8.81661 18.9367 8.96613 19.1621 9.15603 19.3508C9.50458 19.6842 9.96916 19.8689 10.4515 19.8658C11.3616 19.8658 12.3289 19.1791 12.3289 17.9063V8.50168C12.3288 8.46209 12.3442 8.42405 12.3719 8.39573C12.3996 8.36741 12.4372 8.35107 12.4768 8.35023C12.5164 8.34939 12.5547 8.36411 12.5836 8.39122C12.6124 8.41834 12.6295 8.45569 12.6311 8.49525L13.1648 21.1618C13.17 21.2866 13.15 21.4112 13.1058 21.5281C13.0617 21.645 12.9943 21.7517 12.9079 21.8419C12.8214 21.9322 12.7176 22.0039 12.6027 22.053C12.4877 22.102 12.3641 22.1273 12.2391 22.1274H8.66356C8.53861 22.1273 8.41496 22.102 8.30004 22.053C8.18512 22.0039 8.0813 21.9322 7.99483 21.8419C7.90837 21.7517 7.84103 21.645 7.79688 21.5281C7.75273 21.4112 7.73267 21.2865 7.73791 21.1616ZM10.4511 66.6493C9.83007 66.6485 9.23469 66.4015 8.79556 65.9624C8.35643 65.5233 8.10941 64.9279 8.10869 64.3069C8.10869 63.7622 8.51314 51.9494 8.86288 41.9959H12.0393L12.0427 41.9991C12.3893 51.9494 12.7935 63.7622 12.7935 64.3069C12.7928 64.9279 12.5458 65.5233 12.1066 65.9624C11.6675 66.4015 11.0721 66.6485 10.4511 66.6493ZM68.2481 41.939C68.2394 41.6617 68.1642 41.3906 68.0287 41.1485C67.8933 40.9064 67.7016 40.7004 67.4699 40.548V8.22066C67.4699 7.95928 67.3862 7.70478 67.231 7.49445C67.0758 7.28412 66.8573 7.12902 66.6076 7.05189C66.3579 6.97476 66.09 6.97965 65.8432 7.06584C65.5965 7.15203 65.3838 7.315 65.2364 7.53085L62.6395 11.3336C62.4696 11.5819 62.3789 11.876 62.3795 12.1769V40.5478C62.1478 40.7003 61.9561 40.9063 61.8207 41.1484C61.6852 41.3905 61.61 41.6616 61.6013 41.9388C61.4249 47.0059 60.8494 63.594 60.8494 64.3069C60.8553 65.3839 61.2873 66.4148 62.051 67.1743C62.8147 67.9338 63.8479 68.3601 64.925 68.3601C66.0021 68.3601 67.0353 67.9338 67.799 67.1743C68.5627 66.4148 68.9947 65.3839 69.0007 64.3069C69 63.594 68.4245 47.0059 68.2481 41.9388V41.939ZM65.7367 9.87165V40.2627H64.1121V12.2506L65.7367 9.87165ZM64.9244 66.6493C64.3034 66.6486 63.708 66.4016 63.2688 65.9624C62.8297 65.5233 62.5826 64.9279 62.5819 64.3069C62.5819 63.7622 62.9865 51.9494 63.3362 41.9959H66.5125L66.516 41.9991C66.8626 51.9494 67.2668 63.7622 67.2668 64.3069C67.2661 64.9279 67.0191 65.5233 66.58 65.9624C66.1408 66.4015 65.5455 66.6485 64.9244 66.6493ZM47.9601 32.232C47.9601 28.2504 46.7221 24.993 44.378 22.812C42.1354 20.7249 38.887 19.6217 34.9841 19.6217C29.0268 19.6217 25.2619 21.6371 23.1365 25.9643C21.2975 29.7077 20.5475 35.2344 20.5475 45.0393C20.5475 51.7703 25.7357 57.2459 32.1127 57.2459C38.4897 57.2459 43.6779 51.7699 43.6779 45.0393C43.6779 42.2313 44.7921 40.2688 45.8706 38.371C46.8983 36.5621 47.9601 34.692 47.9601 32.232ZM41.9447 45.0393C41.9447 50.8146 37.5341 55.5127 32.1127 55.5127C26.6913 55.5127 22.2807 50.8141 22.2807 45.0393C22.2807 35.5205 22.9793 30.2157 24.692 26.7294C26.5175 23.013 29.6918 21.3557 34.9841 21.3557C42.1291 21.3557 46.2269 25.3203 46.2269 32.2329C46.2269 34.2351 45.3634 35.7551 44.3636 37.5152C43.2299 39.5104 41.9447 41.7728 41.9447 45.0393ZM34.9841 22.1958C32.4034 22.1958 30.3959 22.5977 28.8469 23.4244C27.3717 24.2115 26.2912 25.3795 25.4464 27.0997C23.8164 30.4175 23.1211 35.7826 23.1211 45.0393C23.1211 50.3511 27.1547 54.6727 32.1126 54.6727C37.0705 54.6727 41.1045 50.3502 41.1045 45.0393C41.1045 41.5516 42.5064 39.0833 43.633 37.0999C44.5738 35.4433 45.3867 34.0127 45.3867 32.2325C45.3866 25.7598 41.6923 22.1954 34.9841 22.1954V22.1958ZM42.1257 36.2442C40.8985 38.4047 39.3712 41.0935 39.3712 45.0393C39.3712 49.3954 36.1153 52.9395 32.1126 52.9395C28.1099 52.9395 24.8543 49.3954 24.8543 45.0393C24.8543 36.0648 25.4965 30.9283 27.002 27.8637C27.6787 26.4859 28.5248 25.5611 29.663 24.9535C30.9546 24.2642 32.6952 23.929 34.9841 23.929C40.7366 23.929 43.6534 26.7227 43.6534 32.2325C43.6534 33.5543 43.0127 34.6821 42.1257 36.2437V36.2442ZM32.1558 41.4081C30.6321 39.8846 28.3726 39.6646 27.119 40.9181C25.8654 42.1716 26.0853 44.4312 27.609 45.9551C28.468 46.8139 29.5606 47.2585 30.575 47.2585C30.9569 47.2671 31.3366 47.1996 31.6922 47.0599C32.0477 46.9203 32.3719 46.7113 32.6458 46.4451C33.8994 45.1915 33.6796 42.9321 32.1558 41.4082V41.4081ZM31.4203 45.2195C30.8524 45.7873 29.6683 45.5631 28.8346 44.7296C28.001 43.8962 27.7765 42.7117 28.3445 42.1439C28.4578 42.0378 28.591 41.9554 28.7364 41.9014C28.8818 41.8474 29.0366 41.8229 29.1916 41.8294C29.7506 41.8294 30.409 42.1125 30.9303 42.6341C31.7639 43.467 31.9883 44.651 31.4203 45.219V45.2195ZM39.3466 29.8141C38.6734 29.123 37.7916 28.6728 36.8371 28.5328C35.8591 28.4071 34.9383 28.6954 34.3098 29.3238C33.6813 29.9522 33.3931 30.8737 33.5187 31.8513C33.6708 32.8018 34.1191 33.68 34.7997 34.3607C35.4804 35.0413 36.3586 35.4897 37.3091 35.6418C37.4572 35.6609 37.6064 35.6706 37.7557 35.6708C38.1395 35.6781 38.521 35.6095 38.8781 35.4687C39.2352 35.328 39.561 35.118 39.8366 34.8508C40.4651 34.2223 40.7534 33.3011 40.6276 32.3234C40.4877 31.369 40.0375 30.4871 39.3466 29.8141ZM38.6111 33.625C38.2745 33.9617 37.7895 33.9559 37.5303 33.9221C36.9602 33.819 36.4351 33.5442 36.0254 33.1345C35.6157 32.7249 35.3409 32.1998 35.2378 31.6297C35.2045 31.3705 35.1989 30.8853 35.5349 30.5488C35.6491 30.4432 35.7831 30.3613 35.9291 30.3076C36.0751 30.254 36.2302 30.2298 36.3857 30.2364C36.4626 30.2365 36.5395 30.2415 36.6158 30.2512C37.1894 30.3447 37.7174 30.6212 38.1209 31.0394C38.539 31.4429 38.8153 31.9708 38.9086 32.5442C38.9421 32.8035 38.9477 33.2886 38.6111 33.625ZM28.4312 30.2255C28.3507 30.145 28.2869 30.0495 28.2433 29.9443C28.1998 29.8392 28.1773 29.7265 28.1773 29.6127C28.1773 29.4988 28.1998 29.3861 28.2433 29.281C28.2869 29.1759 28.3507 29.0803 28.4312 28.9998L30.9337 26.4974C31.0141 26.4169 31.1097 26.3531 31.2148 26.3095C31.32 26.266 31.4327 26.2435 31.5465 26.2435C31.6603 26.2435 31.773 26.266 31.8781 26.3095C31.9833 26.3531 32.0788 26.4169 32.1593 26.4974C32.2397 26.5778 32.3036 26.6734 32.3471 26.7785C32.3907 26.8837 32.4131 26.9964 32.4131 27.1102C32.4131 27.224 32.3907 27.3367 32.3471 27.4418C32.3036 27.547 32.2397 27.6425 32.1593 27.723L29.6568 30.2255C29.5763 30.3059 29.4808 30.3698 29.3756 30.4133C29.2705 30.4569 29.1578 30.4793 29.044 30.4793C28.9302 30.4793 28.8175 30.4569 28.7123 30.4133C28.6072 30.3698 28.5117 30.3059 28.4312 30.2255ZM28.4312 36.3863C28.3507 36.3059 28.2869 36.2103 28.2433 36.1052C28.1998 36 28.1773 35.8873 28.1773 35.7735C28.1773 35.6597 28.1998 35.547 28.2433 35.4419C28.2869 35.3367 28.3507 35.2412 28.4312 35.1607L30.9337 32.6584C31.0141 32.5779 31.1097 32.514 31.2148 32.4705C31.32 32.4269 31.4327 32.4045 31.5465 32.4045C31.6603 32.4045 31.773 32.4269 31.8781 32.4705C31.9833 32.514 32.0788 32.5779 32.1593 32.6584C32.2397 32.7388 32.3036 32.8344 32.3471 32.9395C32.3907 33.0447 32.4131 33.1574 32.4131 33.2712C32.4131 33.385 32.3907 33.4977 32.3471 33.6028C32.3036 33.708 32.2397 33.8035 32.1593 33.884L29.6568 36.3863C29.5763 36.4668 29.4808 36.5306 29.3756 36.5742C29.2705 36.6178 29.1578 36.6402 29.044 36.6402C28.9302 36.6402 28.8175 36.6178 28.7123 36.5742C28.6072 36.5306 28.5117 36.4668 28.4312 36.3863ZM38.319 38.7367C38.3995 38.8171 38.4633 38.9127 38.5069 39.0178C38.5505 39.123 38.5729 39.2356 38.5729 39.3495C38.5729 39.4633 38.5505 39.576 38.5069 39.6811C38.4633 39.7863 38.3995 39.8818 38.319 39.9623L35.8162 42.4642C35.6536 42.6268 35.4332 42.7181 35.2034 42.7181C34.9735 42.7181 34.7531 42.6268 34.5906 42.4642C34.428 42.3017 34.3367 42.0813 34.3367 41.8514C34.3367 41.6216 34.428 41.4012 34.5906 41.2386L37.0934 38.7367C37.1739 38.6562 37.2694 38.5923 37.3746 38.5488C37.4797 38.5052 37.5924 38.4828 37.7062 38.4828C37.82 38.4828 37.9327 38.5052 38.0379 38.5488C38.143 38.5923 38.2386 38.6562 38.319 38.7367ZM38.319 44.8975C38.3995 44.978 38.4633 45.0735 38.5069 45.1787C38.5505 45.2838 38.5729 45.3965 38.5729 45.5103C38.5729 45.6241 38.5505 45.7368 38.5069 45.842C38.4633 45.9471 38.3995 46.0427 38.319 46.1231L35.8165 48.6256C35.7361 48.7061 35.6405 48.7699 35.5354 48.8135C35.4302 48.857 35.3176 48.8794 35.2037 48.8794C35.0899 48.8794 34.9772 48.857 34.8721 48.8135C34.7669 48.7699 34.6714 48.7061 34.5909 48.6256C34.5105 48.5451 34.4466 48.4496 34.4031 48.3444C34.3595 48.2393 34.3371 48.1266 34.3371 48.0128C34.3371 47.899 34.3595 47.7863 34.4031 47.6811C34.4466 47.576 34.5105 47.4805 34.5909 47.4L37.0934 44.8975C37.1739 44.817 37.2694 44.7532 37.3746 44.7096C37.4797 44.6661 37.5924 44.6437 37.7062 44.6437C37.82 44.6437 37.9327 44.6661 38.0379 44.7096C38.143 44.7532 38.2386 44.817 38.319 44.8975ZM56.2373 32.5671C55.705 32.5381 55.1814 32.7115 54.7717 33.0527C54.546 33.2489 54.3637 33.49 54.2364 33.7605C54.1091 34.0311 54.0395 34.3252 54.0321 34.6242C53.7623 40.2679 52.1606 45.1108 49.2715 49.0183C48.7507 49.7226 48.6908 50.363 48.7321 50.7762C48.7786 51.2749 49.0099 51.738 49.3806 52.0748C49.7512 52.4115 50.2344 52.5975 50.7352 52.5961C51.3913 52.5961 52.0956 52.2788 52.656 51.521C56.0488 46.9324 57.9263 41.315 58.2364 34.8251C58.3029 33.4232 57.256 32.6155 56.237 32.5667L56.2373 32.5671ZM51.262 50.49C51.0238 50.8119 50.7438 50.9394 50.5654 50.8076C50.387 50.6757 50.4266 50.3703 50.6644 50.0483C53.7609 45.8604 55.4762 40.6987 55.7626 34.7065C55.7749 34.4349 55.8975 34.2973 56.1253 34.2973C56.1347 34.2973 56.1441 34.2973 56.1539 34.2981C56.2494 34.2998 56.3409 34.3369 56.4107 34.4022C56.4488 34.4493 56.4768 34.5038 56.493 34.5622C56.5091 34.6206 56.5131 34.6818 56.5045 34.7418C56.2113 40.8833 54.4475 46.1818 51.262 50.49ZM52.4154 32.4436C52.1083 32.2496 51.7563 32.1382 51.3934 32.1204C51.0306 32.1026 50.6694 32.1789 50.3447 32.3419C50.0253 32.5083 49.7566 32.7578 49.5671 33.0641C49.3775 33.3704 49.2741 33.7222 49.2677 34.0823C49.0086 39.2845 47.5097 43.7496 44.8117 47.3542C44.3145 48.0182 44.2546 48.6249 44.2908 49.0169C44.3332 49.4963 44.5544 49.9423 44.9104 50.2661C45.2665 50.5899 45.7313 50.7678 46.2126 50.7646C46.3393 50.7646 46.4657 50.7524 46.5902 50.7283C46.9827 50.6523 47.5558 50.4211 48.0581 49.7503C51.2437 45.4939 53.0103 40.287 53.3096 34.2741C53.339 33.9167 53.2714 33.5581 53.114 33.2359C52.9567 32.9138 52.7153 32.64 52.4154 32.4436ZM46.6699 48.7118C46.5748 48.8617 46.4297 48.9731 46.2604 49.0265C46.231 49.0337 46.2005 49.0346 46.1708 49.029C46.1411 49.0234 46.113 49.0115 46.0883 48.994C46.0669 48.9774 46.0493 48.9564 46.0368 48.9324C46.0243 48.9084 46.0172 48.8819 46.0159 48.8549C46.0217 48.6843 46.0862 48.521 46.1986 48.3925C49.1068 44.5071 50.7216 39.7212 50.998 34.168C51.0091 33.9487 51.101 33.9017 51.1356 33.8838C51.1837 33.8604 51.2366 33.8486 51.2901 33.8493C51.3554 33.848 51.4198 33.8652 51.4758 33.8988C51.507 33.919 51.5898 33.9725 51.579 34.1873C51.2966 39.85 49.645 44.7366 46.6699 48.7118Z" fill="black"/>
</svg>
