<svg width="23" height="23" viewBox="0 0 23 23" fill="none" xmlns="http://www.w3.org/2000/svg">
<path d="M11.2044 7.41781C8.82608 7.41781 6.93089 9.35233 6.93089 11.6961C6.93089 14.077 8.82608 15.9744 11.2044 15.9744C13.5455 15.9744 15.4778 14.077 15.4778 11.6961C15.4778 9.35233 13.5455 7.41781 11.2044 7.41781ZM11.2044 14.4863C9.68077 14.4863 8.41732 13.2586 8.41732 11.6961C8.41732 10.1708 9.64361 8.9431 11.2044 8.9431C12.7279 8.9431 13.9542 10.1708 13.9542 11.6961C13.9542 13.2586 12.7279 14.4863 11.2044 14.4863ZM16.6298 7.269C16.6298 6.71096 16.1839 6.26453 15.6265 6.26453C15.0691 6.26453 14.6231 6.71096 14.6231 7.269C14.6231 7.82703 15.0691 8.27346 15.6265 8.27346C16.1839 8.27346 16.6298 7.82703 16.6298 7.269ZM19.454 8.27346C19.3797 6.93418 19.0824 5.7437 18.1162 4.77644C17.15 3.80918 15.9609 3.51156 14.6231 3.43715C13.2482 3.36275 9.12337 3.36275 7.74843 3.43715C6.41065 3.51156 5.25867 3.80918 4.25534 4.77644C3.28916 5.7437 2.99188 6.93418 2.91756 8.27346C2.84324 9.64995 2.84324 13.7794 2.91756 15.1559C2.99188 16.4952 3.28916 17.6485 4.25534 18.6529C5.25867 19.6202 6.41065 19.9178 7.74843 19.9922C9.12337 20.0666 13.2482 20.0666 14.6231 19.9922C15.9609 19.9178 17.15 19.6202 18.1162 18.6529C19.0824 17.6485 19.3797 16.4952 19.454 15.1559C19.5283 13.7794 19.5283 9.64995 19.454 8.27346ZM17.6703 16.6068C17.4102 17.3508 16.8156 17.9089 16.1095 18.2065C14.9947 18.6529 12.3935 18.5413 11.2044 18.5413C9.97806 18.5413 7.37682 18.6529 6.29917 18.2065C5.55596 17.9089 4.99855 17.3508 4.70126 16.6068C4.25534 15.5279 4.36682 12.9238 4.36682 11.6961C4.36682 10.5056 4.25534 7.90144 4.70126 6.78537C4.99855 6.07852 5.55596 5.52048 6.29917 5.22287C7.37682 4.77644 9.97806 4.88804 11.2044 4.88804C12.3935 4.88804 14.9947 4.77644 16.1095 5.22287C16.8156 5.48328 17.373 6.07852 17.6703 6.78537C18.1162 7.90144 18.0047 10.5056 18.0047 11.6961C18.0047 12.9238 18.1162 15.5279 17.6703 16.6068Z" fill="white"/>
</svg>
