<svg width="34" height="34" viewBox="0 0 34 34" fill="none" xmlns="http://www.w3.org/2000/svg">
<path d="M25.5485 15.685C25.5507 16.165 25.3065 16.3216 24.9211 16.128C24.2356 15.7839 23.5524 15.4343 22.8839 15.0592C22.5778 14.8875 22.3304 14.8635 22.0117 15.0473C21.3597 15.4235 20.6852 15.7622 20.0079 16.0932C19.8606 16.165 19.6017 16.2145 19.507 16.1373C19.3887 16.041 19.323 15.7942 19.346 15.6279C19.4577 14.8211 19.6203 14.0214 19.7314 13.2147C19.7533 13.0565 19.6723 12.8325 19.5584 12.7156C19.0148 12.1573 18.4344 11.6343 17.8897 11.0771C17.7583 10.9428 17.6017 10.6748 17.6554 10.559C17.7282 10.4025 17.9811 10.2714 18.176 10.2372C18.9447 10.1018 19.7238 10.023 20.4924 9.88927C20.654 9.861 20.8489 9.7202 20.9266 9.57668C21.2912 8.90638 21.606 8.20944 21.9707 7.53913C22.072 7.35267 22.2893 7.09879 22.4432 7.10586C22.609 7.11292 22.8111 7.36408 22.9135 7.55381C23.2704 8.21379 23.5989 8.88898 23.9203 9.56689C24.0227 9.7838 24.1563 9.87785 24.3972 9.90667C25.1724 9.99963 25.9466 10.1056 26.7158 10.2383C26.9019 10.2704 27.1609 10.3894 27.214 10.5318C27.2638 10.6656 27.1297 10.9249 27.0016 11.057C26.4387 11.6338 25.8414 12.1769 25.2759 12.751C25.1784 12.8499 25.1149 13.0478 25.1352 13.1853C25.2605 14.0416 25.4149 14.8956 25.5485 15.685Z" fill="url(#paint0_linear_36_174)"/>
<path d="M33.4201 9.36635C32.3104 3.35919 26.4457 -0.619136 20.3767 0.492054C15.1093 1.45266 11.2544 6.07084 11.2451 11.8807C11.2643 13.7638 11.9421 15.9014 13.3026 17.8079C16.0619 21.6824 18.8312 25.5525 21.5949 29.427C22.0783 30.1001 22.7802 30.1001 23.2636 29.4319C26.0285 25.5569 28.807 21.6916 31.5521 17.8123C33.3583 15.261 33.989 12.4265 33.4201 9.36635ZM22.4342 19.2882C18.2426 19.2882 14.8443 15.9144 14.8443 11.7524C14.8443 7.5903 18.2421 4.21595 22.4342 4.21595C26.6258 4.21595 30.0241 7.58975 30.0241 11.7524C30.0235 15.9139 26.6258 19.2882 22.4342 19.2882Z" fill="url(#paint1_linear_36_174)"/>
<path d="M3.73211 29.9505C3.21527 29.4677 2.74936 28.8936 2.37433 28.25C2.06007 27.7368 1.39103 27.5655 0.864348 27.8678C0.347516 28.1695 0.175056 28.8442 0.479461 29.3574C0.965633 30.1826 1.56404 30.9274 2.23253 31.5509C2.4455 31.7423 2.7187 31.8429 2.98259 31.8429C3.27659 31.8429 3.5706 31.7222 3.78302 31.4906C4.19802 31.0475 4.17776 30.3631 3.73211 29.9505Z" fill="url(#paint2_linear_36_174)"/>
<path d="M19.6129 30.5546C18.9439 30.3132 18.3258 30.1724 17.7175 30.1219C17.4136 30.1018 17.1092 30.0817 16.7955 30.0817C16.1977 30.0615 15.6907 30.5448 15.6808 31.1483C15.6704 31.7523 16.1571 32.2453 16.7654 32.2551C17.0189 32.2649 17.2822 32.2752 17.5357 32.2953C17.9513 32.3356 18.3871 32.4361 18.8634 32.6074C18.9953 32.6476 19.1169 32.6677 19.2384 32.6677C19.6945 32.6677 20.11 32.3959 20.2721 31.9534C20.4741 31.3799 20.1801 30.7558 19.6129 30.5546Z" fill="url(#paint3_linear_36_174)"/>
<path d="M13.471 30.3736C12.6804 30.5248 11.9002 30.6955 11.1403 30.877L10.958 30.9173C10.37 31.0581 10.0054 31.6419 10.1373 32.2252C10.2589 32.7286 10.7149 33.0706 11.2115 33.0706C11.2925 33.0706 11.3736 33.0603 11.465 33.0402L11.6473 32.9999C12.4072 32.8189 13.1272 32.658 13.8564 32.527C14.4543 32.4161 14.8496 31.8425 14.7384 31.2592C14.6366 30.6656 14.059 30.273 13.471 30.3736Z" fill="url(#paint4_linear_36_174)"/>
<path d="M8.02845 31.4901C7.3293 31.5608 6.64001 31.4901 5.98138 31.289C5.40378 31.1079 4.78566 31.4298 4.6132 32.0033C4.43089 32.5768 4.74515 33.1808 5.3326 33.3619C6.03175 33.5831 6.77141 33.694 7.51162 33.694C7.7547 33.694 7.99779 33.6837 8.24142 33.6636C8.83928 33.6032 9.28549 33.0699 9.22472 32.4659C9.16395 31.8728 8.63671 31.4298 8.02845 31.4901Z" fill="url(#paint5_linear_36_174)"/>
<defs>
<linearGradient id="paint0_linear_36_174" x1="17.6445" y1="7.10571" x2="27.2246" y2="7.10571" gradientUnits="userSpaceOnUse">
<stop stopColor="#7D141D"/>
<stop offset="1" stopColor="#FF1E27"/>
</linearGradient>
<linearGradient id="paint1_linear_36_174" x1="11.2451" y1="0.305908" x2="33.6228" y2="0.305908" gradientUnits="userSpaceOnUse">
<stop stopColor="#7D141D"/>
<stop offset="1" stopColor="#FF1E27"/>
</linearGradient>
<linearGradient id="paint2_linear_36_174" x1="0.329102" y1="27.7185" x2="4.08086" y2="27.7185" gradientUnits="userSpaceOnUse">
<stop stopColor="#7D141D"/>
<stop offset="1" stopColor="#FF1E27"/>
</linearGradient>
<linearGradient id="paint3_linear_36_174" x1="15.6807" y1="30.0811" x2="20.3358" y2="30.0811" gradientUnits="userSpaceOnUse">
<stop stopColor="#7D141D"/>
<stop offset="1" stopColor="#FF1E27"/>
</linearGradient>
<linearGradient id="paint4_linear_36_174" x1="10.1104" y1="30.3579" x2="14.7572" y2="30.3579" gradientUnits="userSpaceOnUse">
<stop stopColor="#7D141D"/>
<stop offset="1" stopColor="#FF1E27"/>
</linearGradient>
<linearGradient id="paint5_linear_36_174" x1="4.56152" y1="31.2385" x2="9.23026" y2="31.2385" gradientUnits="userSpaceOnUse">
<stop stopColor="#7D141D"/>
<stop offset="1" stopColor="#FF1E27"/>
</linearGradient>
</defs>
</svg>
