<svg width="23" height="23" viewBox="0 0 23 23" fill="none" xmlns="http://www.w3.org/2000/svg">
<g clip-path="url(#clip0_1_3064)">
<path d="M11.5 0.423584C5.38251 0.423584 0.423584 5.38251 0.423584 11.5C0.423584 17.6174 5.38251 22.5764 11.5 22.5764C17.6174 22.5764 22.5764 17.6174 22.5764 11.5C22.5764 5.38251 17.6174 0.423584 11.5 0.423584ZM8.28806 16.4832C8.28806 16.7707 8.03649 17.0056 7.72923 17.0056H6.25534C5.94763 17.0056 5.69606 16.7707 5.69606 16.4832V12.0004C5.69606 11.7134 5.94763 11.478 6.25534 11.478H7.72923C8.03649 11.478 8.28806 11.7134 8.28806 12.0004V16.4832ZM16.9355 13.5978C16.8497 13.687 16.7853 13.7945 16.7473 13.9123C16.7094 14.0301 16.6987 14.155 16.7163 14.2775C16.7576 14.5636 16.7262 14.9513 16.3785 15.2631C16.2742 15.3592 16.1961 15.4803 16.1514 15.6148C16.1067 15.7494 16.0969 15.8932 16.1229 16.0326C16.2127 16.5716 15.9369 17.3353 13.5453 17.2226L10.4322 17.1484C10.4052 17.1484 10.3787 17.1458 10.3518 17.1426C10.0953 17.1107 8.75434 16.918 8.85587 16.3223L8.85048 12.1536C8.85045 12.044 8.87214 11.9354 8.91427 11.8342L10.6725 8.39183C10.699 8.33979 10.7129 8.28223 10.7129 8.22382V6.60978C10.7117 6.46602 10.7485 6.32449 10.8195 6.19948C10.8905 6.07446 10.9932 5.97039 11.1172 5.89776C11.376 5.74997 11.7376 5.67315 12.1383 5.96784C12.9258 6.55183 12.9447 6.86628 12.9447 6.86628C12.9447 6.86628 13.3009 7.917 13.1509 8.87339C13.1321 8.99183 13.1392 9.11294 13.1718 9.22836C13.2044 9.34378 13.2616 9.45075 13.3395 9.54189C13.4175 9.63303 13.5143 9.70617 13.6232 9.75626C13.7322 9.80635 13.8507 9.8322 13.9707 9.83202H15.7622C15.7911 9.83194 15.8201 9.83344 15.8489 9.83651C16.1224 9.86661 17.3668 10.0804 16.9292 11.4766C16.8904 11.6005 16.8824 11.732 16.9058 11.8596C16.9293 11.9873 16.9836 12.1073 17.064 12.2093C17.3034 12.5089 17.5038 13.0116 16.9355 13.5978Z" fill="#4080FF"/>
<path d="M16.9292 11.4767C17.3667 10.0805 16.1206 9.86666 15.8488 9.83657C15.82 9.83349 15.7911 9.83199 15.7621 9.83207H13.9707C13.851 9.83202 13.7328 9.80606 13.6242 9.75599C13.5155 9.70592 13.419 9.63292 13.3412 9.54201C13.2635 9.4511 13.2063 9.34443 13.1737 9.22933C13.141 9.11423 13.1337 8.99344 13.1522 8.87524C13.3022 7.91885 12.946 6.86813 12.946 6.86813C12.946 6.86813 12.9271 6.54963 12.1396 5.96969C11.7389 5.6741 11.376 5.75182 11.1186 5.89961C10.9945 5.97224 10.8918 6.07631 10.8208 6.20133C10.7498 6.32634 10.7131 6.46787 10.7143 6.61162V8.22567C10.7142 8.28407 10.7004 8.34164 10.6738 8.39367L8.9156 11.836C8.87346 11.9373 8.85178 12.0458 8.85181 12.1554L8.8572 16.3242C8.75567 16.9181 10.0966 17.1126 10.3531 17.1445C10.38 17.1476 10.4066 17.1494 10.4335 17.1503L13.5466 17.2244C15.9382 17.3354 16.2154 16.5713 16.1242 16.0344C16.0982 15.895 16.108 15.7513 16.1527 15.6167C16.1974 15.4821 16.2756 15.3611 16.3798 15.2649C16.7275 14.955 16.759 14.5655 16.7176 14.2793C16.6996 14.1567 16.7099 14.0315 16.7476 13.9134C16.7854 13.7953 16.8496 13.6873 16.9355 13.5979C17.5029 13.0116 17.3025 12.509 17.0649 12.2093C16.9843 12.1075 16.9299 11.9875 16.9062 11.8598C16.8826 11.7321 16.8905 11.6006 16.9292 11.4767ZM7.72921 11.478H6.25532C5.94761 11.478 5.69604 11.7134 5.69604 12.0005V16.4832C5.69604 16.7707 5.94761 17.0056 6.25532 17.0056H7.72921C8.03647 17.0056 8.28804 16.7707 8.28804 16.4832V12.0005C8.28804 11.7134 8.03647 11.478 7.72921 11.478Z" fill="white"/>
</g>
<defs>
<clipPath id="clip0_1_3064">
<rect width="23" height="23" fill="white"/>
</clipPath>
</defs>
</svg>
