<svg width="47" height="45" viewBox="0 0 47 45" fill="none" xmlns="http://www.w3.org/2000/svg">
<path d="M4.7 35.5263C3.4075 35.5263 2.30104 35.0625 1.38063 34.1349C0.460208 33.2072 0 32.0921 0 30.7895V12.1974C0 11.6053 0.166458 11.023 0.499375 10.4507C0.832292 9.87829 1.2925 9.43421 1.88 9.11842L19.975 0L37.7175 9.11842C38.1875 9.35526 38.589 9.73026 38.9219 10.2434C39.2548 10.7566 39.48 11.2895 39.5975 11.8421H32.7238L19.975 5.32895L4.7 12.9671V35.5263ZM11.75 45C10.4575 45 9.35104 44.5362 8.43062 43.6086C7.51021 42.6809 7.05 41.5658 7.05 40.2632V18.9474C7.05 17.6447 7.51021 16.5296 8.43062 15.602C9.35104 14.6743 10.4575 14.2105 11.75 14.2105H42.3C43.5925 14.2105 44.699 14.6743 45.6194 15.602C46.5398 16.5296 47 17.6447 47 18.9474V40.2632C47 41.5658 46.5398 42.6809 45.6194 43.6086C44.699 44.5362 43.5925 45 42.3 45H11.75ZM27.025 31.6184L11.75 23.6842V40.2632H42.3V23.6842L27.025 31.6184ZM27.025 26.8816L42.3 18.9474H11.75L27.025 26.8816Z" fill="#0F4DA2"/>
</svg>
