<svg width="75" height="75" viewBox="0 0 75 75" fill="none" xmlns="http://www.w3.org/2000/svg">
<path d="M54.2002 64.5947L54.8841 68.1992C42.9111 70.0316 30.7581 70.0316 18.7852 68.1992L19.4672 64.6044L54.2002 64.5947Z" fill="url(#paint0_linear_134_3375)"/>
<path d="M69.4726 43.5127C69.4726 43.5127 62.3778 60.6918 60.2542 62.2376C56.3727 65.063 48.254 65.4239 36.8349 65.4239C25.4159 65.4239 17.2971 65.063 13.4156 62.2376C11.2921 60.6918 4.19727 43.5127 4.19727 43.5127H69.4726Z" fill="url(#paint1_linear_134_3375)"/>
<path d="M12.1934 60.6416C12.5169 61.2418 12.9294 61.7808 13.4145 62.2373C17.296 65.0626 25.4147 65.4236 36.8338 65.4236C48.2528 65.4236 56.3716 65.0626 60.2531 62.2373C60.7382 61.7808 61.1507 61.2418 61.4742 60.6416H12.1934Z" fill="url(#paint2_linear_134_3375)"/>
<path d="M10.9414 58.3971C16.9455 59.2132 26.3046 59.7391 36.833 59.7391C47.3623 59.7391 56.7208 59.213 62.7249 58.3967C63.4631 56.9806 64.2646 55.316 65.051 53.6172C59.3304 54.6355 48.8366 55.3181 36.833 55.3181C24.8295 55.3181 14.3357 54.6355 8.61523 53.6173C9.40156 55.3161 10.2032 56.9809 10.9414 58.3971Z" fill="url(#paint3_linear_134_3375)"/>
<path d="M57.4979 40.2393C64.9098 40.8761 69.6465 41.8484 69.6465 42.9377C69.6465 44.8562 54.9558 46.4114 36.834 46.4114C18.7122 46.4114 4.02148 44.8562 4.02148 42.9377C4.02148 42.1784 6.32305 41.4759 10.228 40.904L57.4979 40.2393Z" fill="url(#paint4_linear_134_3375)"/>
<path d="M4.02148 42.9375C4.02148 44.8559 18.7121 46.4111 36.834 46.4111C54.9559 46.4111 69.6465 44.8559 69.6465 42.9375C69.6367 42.8266 69.5912 42.723 69.5179 42.6445H4.13867C4.0682 42.7238 4.0266 42.8278 4.02148 42.9375Z" fill="url(#paint5_linear_134_3375)"/>
<path d="M24.726 15.5837C24.5161 16.4574 24.0816 17.2495 23.4726 17.869C22.8637 18.4885 22.1049 18.9101 21.2835 19.0855L19.825 19.3959L19.3711 16.9173L20.8301 16.607C21.1552 16.5375 21.4605 16.3862 21.7211 16.1655C21.9817 15.9447 22.1902 15.6606 22.3296 15.3365L22.479 14.9883L24.726 15.5837Z" fill="url(#paint6_linear_134_3375)"/>
<path d="M26.0253 14.0859L24.4613 20.1501C24.0927 21.6888 23.2166 23.0301 21.997 23.9231L20.9495 24.6948L19.627 22.6094L20.6745 21.8373C21.0837 21.5376 21.4338 21.1533 21.7043 20.7068C21.9749 20.2603 22.1606 19.7603 22.2507 19.2359L23.2197 13.6787L26.0253 14.0859Z" fill="url(#paint7_linear_134_3375)"/>
<path d="M30.3001 14.3135C30.1982 15.3511 30.4134 16.3962 30.913 17.2899C31.4126 18.1836 32.1692 18.8771 33.0678 19.265L34.448 19.8604L35.3189 17.5149L33.9381 16.9192C33.6304 16.7861 33.3563 16.5766 33.138 16.3077C32.9198 16.0388 32.7636 15.7181 32.6821 15.3718L32.615 15.0853L30.3001 14.3135Z" fill="url(#paint8_linear_134_3375)"/>
<path d="M69.6465 13.0029V15.5292C19.5247 14.9277 29.6156 15.0498 16.9121 14.8976V13.0029H69.6465Z" fill="url(#paint9_linear_134_3375)"/>
<path d="M50.5527 40.1826C51.1507 37.2995 51.4382 34.3516 51.4094 31.3975C55.159 33.0412 58.7351 34.173 61.9086 34.1163C62.0167 37.5602 61.0297 40.9725 59.2222 44.3609L50.5527 40.1826Z" fill="url(#paint10_linear_134_3375)"/>
<path d="M50.882 38.3594C50.7832 38.9736 50.6734 39.5814 50.5527 40.1827L59.2219 44.3608C60.2452 42.4897 61.0104 40.4681 61.4935 38.3594L50.882 38.3594Z" fill="url(#paint11_linear_134_3375)"/>
<path d="M33.4961 38.056C36.0508 36.1877 40.5337 33.7517 45.5823 34.7822C50.5295 35.792 55.3616 41.2347 57.3354 43.7027C49.0203 44.8973 40.5805 42.8982 33.4961 38.056Z" fill="url(#paint12_linear_134_3375)"/>
<path d="M51.8641 41.3504C49.8199 39.4557 47.411 37.727 45.1482 37.2652C42.88 36.8441 40.5476 37.1227 38.4199 38.0689C42.8382 41.9824 47.3239 42.8848 51.8641 41.3504Z" fill="url(#paint13_linear_134_3375)"/>
<path d="M32.7324 41.0235V34.5212C32.7324 32.4153 32.2776 30.3383 31.4038 28.4548L30.1224 25.6923C29.5269 24.4085 29.2168 22.993 29.2168 21.5577V9.8457H31.5605V21.5575C31.5618 22.6005 31.787 23.629 32.2186 24.5625L33.5003 27.3253C34.5341 29.5606 35.0735 32.0236 35.0762 34.5212V36.8659L32.7324 41.0235Z" fill="url(#paint14_linear_134_3375)"/>
<path d="M31.5605 20.7605V9.8457H29.2168V13.1356L31.5605 20.7605Z" fill="url(#paint15_linear_134_3375)"/>
<path d="M31.8911 37.6804C33.587 37.0073 35.3902 36.704 37.1958 36.7882C40.5713 36.9627 44.1526 39.1224 46.8299 41.1737C40.0142 46.6124 31.483 49.7145 31.8911 37.6804Z" fill="url(#paint16_linear_134_3375)"/>
<path d="M44.1332 42.3462C38.6609 37.796 33.6634 39.1221 30.2285 41.2986C34.7808 44.2932 39.4211 44.4722 44.1332 42.3462Z" fill="url(#paint17_linear_134_3375)"/>
<path d="M21.2309 44.7613C14.1879 44.6985 11.5389 37.2858 14.7445 32.5412C15.2881 31.7366 15.9733 31.0554 16.7612 30.5363C17.549 30.0172 18.424 29.6704 19.3361 29.5158C20.2483 29.3612 21.1798 29.4018 22.0774 29.6352C22.975 29.8686 23.8212 30.2903 24.5676 30.8762C26.823 32.6467 29.282 36.744 29.6398 40.1655L21.2309 44.7613Z" fill="url(#paint18_linear_134_3375)"/>
<path d="M21.2306 44.7613L29.6394 40.1655C29.5566 39.4418 29.4036 38.7294 29.183 38.04H13.4648C13.9157 41.5539 16.6383 44.7203 21.2306 44.7613Z" fill="url(#paint19_linear_134_3375)"/>
<path d="M19.8129 40.7616C19.0333 40.6194 18.3205 40.1995 17.7886 39.5691C17.2566 38.9387 16.9362 38.1341 16.8785 37.2842C16.8209 36.4342 17.0294 35.588 17.4707 34.8809C17.912 34.1738 18.5606 33.6467 19.3127 33.3839C20.0648 33.1211 20.877 33.1377 21.6192 33.4312C22.3615 33.7247 22.991 34.2781 23.4069 35.0028C23.8229 35.7275 24.0014 36.5817 23.9138 37.4287C23.8262 38.2756 23.4775 39.0664 22.9237 39.6746L19.8129 40.7616Z" fill="url(#paint20_linear_134_3375)"/>
<path d="M30.3887 39.7121V34.5212C30.3869 32.8077 30.0167 31.118 29.3072 29.5846L28.0261 26.8218C27.2698 25.1865 26.8751 23.3847 26.873 21.5575V9.8457L24.5293 9.89175V21.5575C24.5318 23.7768 25.0111 25.9654 25.9297 27.9516L27.2114 30.7153C27.7583 31.8975 28.0436 33.2002 28.0449 34.5212V38.802L30.3887 39.7121Z" fill="url(#paint21_linear_134_3375)"/>
<path d="M32.7324 41.0235V34.5212C32.7324 32.4153 32.2776 30.3383 31.4038 28.4548L30.1224 25.6923C29.5269 24.4085 29.2168 22.993 29.2168 21.5577V9.8457H26.873V21.5575C26.8751 23.3848 27.2697 25.1867 28.0261 26.822L29.3072 29.5848C30.0167 31.1181 30.3869 32.8078 30.3887 34.5212V39.7121L32.7324 41.0235Z" fill="url(#paint22_linear_134_3375)"/>
<path d="M29.2172 13.1356V9.8457H28.2051L29.2172 13.1356Z" fill="url(#paint23_linear_134_3375)"/>
<path d="M69.5931 7L69.6716 9.52484L16.9668 11.4274L16.9082 9.5338C17.9873 9.48189 15.9939 9.57909 69.5931 7Z" fill="url(#paint24_linear_134_3375)"/>
<path d="M35.3105 46.0341C35.2641 46.1658 35.2031 46.2909 35.1289 46.4068C34.707 46.4068 34.291 46.4005 33.875 46.3941C33.1719 46.3941 32.4805 46.3815 31.7949 46.3752C27.0195 46.2931 22.5781 46.1036 18.7168 45.832C17.5332 45.7499 16.4043 45.6615 15.3301 45.5668C14.2754 45.4657 13.2793 45.3584 12.3477 45.251C13.7878 43.5063 15.465 42.0072 17.3223 40.8047C19.8664 39.0905 22.8326 38.2472 25.8301 38.3858C28.0231 38.6358 30.141 39.3896 32.041 40.5963C32.8438 41.0763 33.6172 41.5942 34.3438 42.1184C34.7012 42.3837 35.0469 42.6489 35.3809 42.9142C35.6345 43.94 35.6101 45.0228 35.3105 46.0341Z" fill="url(#paint25_linear_134_3375)"/>
<path d="M35.3105 46.034C35.457 46.1604 35.5977 46.2867 35.7324 46.4067C35.5273 46.413 35.3281 46.4067 35.1289 46.4067C34.707 46.4067 34.291 46.4004 33.875 46.394C33.1719 46.394 32.4805 46.3814 31.7949 46.3751C27.0195 46.293 22.5781 46.1035 18.7168 45.8319C17.5332 45.7498 16.4043 45.6614 15.3301 45.5667C17.2168 43.6593 21.0195 40.5836 25.6836 40.912C28.3613 41.0888 31.4258 42.952 33.8867 44.872C34.3906 45.2572 34.8652 45.6551 35.3105 46.034Z" fill="url(#paint26_linear_134_3375)"/>
<path d="M31.7949 46.3752C27.0195 46.2931 22.5781 46.1036 18.7168 45.832C20.5308 44.3504 22.7237 43.5059 24.998 43.4131C25.1738 43.4131 25.3555 43.4194 25.5371 43.432C27.4121 43.5583 29.7324 44.8594 31.7949 46.3752Z" fill="url(#paint27_linear_134_3375)"/>
<path d="M60.5879 45.3397C59.4043 45.466 58.1289 45.586 56.7617 45.6997H56.7559C55.291 45.8197 53.7383 45.9208 52.0977 46.0155C50.7617 46.0913 49.3613 46.1544 47.9199 46.205H47.9141C47.0521 45.9497 46.2049 45.6397 45.377 45.2765C45.2832 45.2387 45.1836 45.1944 45.0898 45.1502L45.084 45.1439C44.8672 45.0492 44.6562 44.9481 44.4453 44.8471C43.4569 44.3575 42.5065 43.783 41.6035 43.1292C41.2109 42.8513 40.8242 42.5545 40.4434 42.2387C40.4609 42.2261 40.4844 42.2134 40.502 42.2008H40.5078C40.9834 41.8787 41.4743 41.5835 41.9785 41.3166C42.6545 40.9597 43.356 40.6619 44.0762 40.4261C46.3535 39.6466 48.794 39.6114 51.0898 40.325H51.0957C55.0156 41.424 58.8008 44.0071 60.5879 45.3397Z" fill="url(#paint28_linear_134_3375)"/>
<path d="M56.7559 45.7003C55.291 45.8203 53.7383 45.9214 52.0977 46.0161C50.7617 46.0919 49.3613 46.155 47.9199 46.2056H47.9141C47.5098 46.2245 47.0996 46.2371 46.6895 46.2561C46.6836 46.2624 46.6836 46.2561 46.6836 46.2561C46.2207 46.0161 45.7695 45.7445 45.3242 45.454V45.4477C45.2678 45.4211 45.2147 45.3872 45.166 45.3466C44.9258 45.1887 44.6797 45.0245 44.4453 44.8477C43.9239 44.4634 43.4212 44.0502 42.9395 43.6098C43.2852 43.4266 43.6367 43.2624 44.0059 43.1109C45.0183 42.6931 46.0826 42.4399 47.1641 42.3593C50.1699 42.1319 53.9316 43.9382 56.7559 45.7003Z" fill="url(#paint29_linear_134_3375)"/>
<path d="M52.0977 46.0157C50.7617 46.0915 49.3613 46.1547 47.9199 46.2052H47.9141C47.5098 46.2242 47.0996 46.2368 46.6895 46.2557H46.6836C46.0859 46.2747 45.4824 46.2936 44.873 46.3126C44.7559 46.3126 44.6387 46.3126 44.5215 46.3189C44.3281 46.1863 44.1348 46.0473 43.9473 45.8957C44.3421 45.6845 44.7492 45.501 45.166 45.3463C45.1895 45.34 45.2188 45.3273 45.248 45.321C45.2898 45.3025 45.3329 45.2877 45.377 45.2768C45.8391 45.1172 46.3137 45.003 46.7949 44.9358C46.9648 44.9105 47.1465 44.8915 47.3281 44.8789C48.9761 44.8765 50.6043 45.2646 52.0977 46.0157Z" fill="url(#paint30_linear_134_3375)"/>
<path d="M45.3711 45.6428C45.3711 45.8955 45.1484 46.1102 44.873 46.3123C44.7559 46.3123 44.6387 46.3123 44.5215 46.3186C43.5313 46.3439 42.5293 46.3628 41.5098 46.3818C41.0176 46.3881 40.5195 46.3944 40.0156 46.3944C39.7461 46.4007 39.4707 46.4007 39.1953 46.4007C38.7207 46.407 38.2461 46.4134 37.7715 46.407C37.6016 46.4134 37.4316 46.4134 37.2559 46.4134H36.0137C35.9199 46.4134 35.8262 46.4134 35.7324 46.407C35.5273 46.4134 35.3281 46.407 35.1289 46.407C34.707 46.407 34.291 46.4007 33.875 46.3944C33.541 46.167 33.2539 45.9334 33.2539 45.6428C33.2539 45.346 33.5527 45.106 33.8867 44.8723C34.2676 44.6071 34.6953 44.3544 34.7891 44.0513C34.9355 43.565 34.3672 42.6871 34.3438 42.1187C34.3327 42.0078 34.3575 41.8962 34.4141 41.8029C34.748 41.3039 36.0605 41.8471 36.5176 41.4871C36.7331 41.215 36.8714 40.8817 36.916 40.5271C37.0332 40.0345 37.1445 39.5292 37.4434 39.4282C37.9414 39.2576 38.6445 40.3629 39.207 40.4955C39.2765 40.5124 39.3485 40.5124 39.418 40.4955H39.4297C39.998 40.3503 40.6953 39.2576 41.1875 39.4282C41.4746 39.5292 41.5859 39.9903 41.7031 40.4576C41.7516 40.758 41.8446 41.048 41.9785 41.3166C42.0121 41.3828 42.058 41.4409 42.1133 41.4871C42.5703 41.8471 43.8828 41.3039 44.2168 41.8029C44.4102 42.0871 44.1875 42.605 44.0059 43.1102C43.8642 43.3988 43.807 43.7269 43.8418 44.0513C43.9648 44.4555 44.6797 44.7713 45.084 45.1439L45.0898 45.1502C45.1496 45.1989 45.2029 45.2563 45.248 45.3207C45.2795 45.3583 45.3052 45.4009 45.3242 45.4471V45.4534C45.354 45.5114 45.3701 45.5765 45.3711 45.6428Z" fill="url(#paint31_linear_134_3375)"/>
<path d="M33.8867 44.8719C33.5527 45.1056 33.2539 45.3456 33.2539 45.6424C33.2539 45.933 33.541 46.1666 33.875 46.394C35.3047 46.4157 37.7016 46.4202 39.1953 46.4003C41.3936 46.4003 44.864 46.3119 44.873 46.3119C45.1484 46.1098 45.3711 45.8951 45.3711 45.6424C45.3701 45.5761 45.354 45.511 45.3242 45.453V45.4467C45.3052 45.4005 45.2795 45.3579 45.248 45.3203C45.2029 45.2559 45.1496 45.1985 45.0898 45.1498L45.084 45.1435C44.7884 44.871 44.3287 44.6287 44.0537 44.3604H34.5668C34.3518 44.5483 34.1246 44.7193 33.8867 44.8719Z" fill="url(#paint32_linear_134_3375)"/>
<path d="M40.3269 45.0931C40.2684 45.147 40.2006 45.188 40.1275 45.2137C40.0543 45.2394 39.9772 45.2493 39.9004 45.2428C39.8237 45.2363 39.7489 45.2137 39.6804 45.1761C39.6118 45.1385 39.5507 45.0867 39.5007 45.0236C39.4336 44.9404 39.3387 44.8891 39.2367 44.8809C39.1347 44.8726 39.0337 44.908 38.9558 44.9794C38.8927 45.0375 38.8408 45.1083 38.8031 45.188C38.7654 45.2677 38.7427 45.3546 38.7361 45.4437C38.7296 45.5329 38.7394 45.6225 38.7651 45.7076C38.7907 45.7926 38.8316 45.8714 38.8855 45.9394C38.92 45.9861 38.9593 46.0285 39.0027 46.0657C39.0987 46.1521 39.1665 46.2694 39.196 46.4004C38.7214 46.4068 38.2468 46.4131 37.7722 46.4068C37.5818 46.016 37.5198 45.5673 37.5964 45.1337C37.6731 44.7001 37.8837 44.3073 38.1941 44.0194C38.5086 43.7313 38.9161 43.5889 39.3277 43.6232C39.7393 43.6575 40.1216 43.8658 40.3913 44.2026C40.4414 44.2656 40.4795 44.3386 40.5034 44.4175C40.5272 44.4964 40.5364 44.5795 40.5304 44.6622C40.5245 44.745 40.5034 44.8256 40.4685 44.8995C40.4335 44.9734 40.3854 45.0392 40.3269 45.0931Z" fill="#FF47B8"/>
<path d="M41.5095 46.3814C41.0173 46.3877 40.5193 46.394 40.0153 46.394C40.0462 46.2618 40.1137 46.1429 40.2087 46.053C40.6423 45.6488 41.281 44.6698 40.6071 43.8046C40.4713 43.6329 40.3049 43.4924 40.1176 43.3915C39.9304 43.2905 39.7262 43.2313 39.5173 43.2172C38.8984 43.1824 38.2905 43.4038 37.8181 43.8361C37.4635 44.1155 37.2112 44.5202 37.1052 44.9796C36.9992 45.439 37.0462 45.9239 37.238 46.3498C37.2473 46.3695 37.2533 46.3909 37.2556 46.413H36.0134C35.8334 45.779 35.8368 45.101 36.0231 44.4692C36.2094 43.8374 36.5698 43.2818 37.0564 42.8762C37.7645 42.2234 38.6813 41.8948 39.611 41.9604C39.9183 41.9863 40.2193 42.0674 40.5017 42.2004H40.5075C40.8929 42.3748 41.2343 42.6453 41.5036 42.9898C41.5401 43.0334 41.5734 43.0798 41.6032 43.1288C41.9224 43.6063 42.0862 44.184 42.0693 44.7723C42.0523 45.3605 41.8555 45.9262 41.5095 46.3814Z" fill="url(#paint33_linear_134_3375)"/>
<path d="M69.4538 9.79804C69.5309 9.79529 69.6067 9.77619 69.6769 9.74184C69.7472 9.70748 69.8105 9.65853 69.8632 9.5978C69.9159 9.53706 69.9569 9.46573 69.984 9.38788C70.0112 9.31003 70.0238 9.22718 70.0211 9.14407L69.9425 6.61224C69.94 6.52851 69.9221 6.44616 69.8898 6.36996C69.8575 6.29377 69.8115 6.22523 69.7544 6.16834C69.6974 6.11145 69.6304 6.06733 69.5574 6.03855C69.4845 6.00976 69.4069 5.99687 69.3293 6.00064C20.9897 8.32679 17.7487 8.48207 16.7981 8.52734L16.5049 8.54128C16.3505 8.54883 16.2051 8.62168 16.1001 8.74404C15.9952 8.8664 15.9392 9.0284 15.9444 9.19493L16.0031 11.0938C16.0056 11.1769 16.0233 11.2587 16.0552 11.3344C16.087 11.4102 16.1324 11.4784 16.1887 11.5352C16.245 11.5921 16.3112 11.6364 16.3834 11.6656C16.4556 11.6949 16.5324 11.7085 16.6095 11.7057L23.5857 11.454V12.0194H16.5359C16.3801 12.0194 16.2306 12.0861 16.1205 12.2049C16.0103 12.3236 15.9484 12.4847 15.9484 12.6526V14.5524C15.9485 14.7192 16.0095 14.8792 16.1183 14.9977C16.2271 15.1163 16.3749 15.1838 16.5296 15.1857L21.0757 15.2398C20.8733 15.4441 20.6226 15.5843 20.3511 15.6451L18.8882 15.9564C18.8125 15.9725 18.7405 16.0045 18.6763 16.0505C18.612 16.0966 18.5568 16.1558 18.5138 16.2249C18.4708 16.2939 18.4409 16.3714 18.4257 16.453C18.4105 16.5345 18.4103 16.6185 18.4252 16.7001L18.8802 19.1855C18.9067 19.3293 18.9787 19.4588 19.0838 19.5519C19.1889 19.645 19.3207 19.6959 19.4568 19.696C19.4949 19.696 19.533 19.6919 19.5703 19.6839L21.0328 19.3729C21.0767 19.3635 21.119 19.3475 21.1627 19.3368C20.9375 20.0071 20.5229 20.5844 19.9771 20.9872L18.9266 21.7615C18.863 21.8085 18.8085 21.8685 18.7663 21.9381C18.7242 22.0078 18.6952 22.0857 18.6809 22.1674C18.6667 22.2492 18.6676 22.3331 18.6834 22.4145C18.6993 22.4959 18.7299 22.5731 18.7735 22.6417L20.0993 24.7326C20.1429 24.8013 20.1985 24.86 20.2631 24.9055C20.3277 24.951 20.4 24.9823 20.4758 24.9977C20.5517 25.013 20.6296 25.0121 20.7051 24.995C20.7806 24.9779 20.8522 24.945 20.9159 24.898L21.9664 24.1241C22.6123 23.6476 23.1759 23.0531 23.6318 22.3673C23.7688 24.3007 24.251 26.1874 25.0518 27.9236L26.337 30.6948C26.6255 31.3261 26.8345 31.9961 26.9585 32.6871C26.2763 31.6949 25.4679 30.8113 24.557 30.0623C23.1983 28.9963 21.5514 28.443 19.8714 28.4879C18.1915 28.5329 16.5721 29.1737 15.2642 30.3112C13.9563 31.4486 13.0328 33.0191 12.6367 34.7795C12.2407 36.5399 12.3942 38.392 13.0735 40.0488C3.02716 41.1202 3.0237 42.4705 3.0237 43.1289C3.01165 43.3183 3.04892 43.5076 3.13131 43.6754C3.21369 43.8432 3.33792 43.9829 3.48999 44.0788C4.46521 46.4194 7.58917 53.8113 10.0784 58.5424C10.0823 58.5482 10.0843 58.5551 10.0883 58.5608C11.1466 60.5709 12.0893 62.0981 12.7006 62.5431C14.4572 63.6778 16.4033 64.4299 18.4286 64.7567L17.8379 67.8695C17.8218 67.9543 17.822 68.0418 17.8386 68.1265C17.8551 68.2113 17.8875 68.2915 17.9339 68.3622C17.9803 68.4328 18.0397 68.4925 18.1084 68.5375C18.177 68.5825 18.2535 68.6118 18.333 68.6236C24.4253 69.5352 30.5683 69.995 36.7189 70C42.7327 70.0052 48.7391 69.5451 54.6918 68.6231C54.771 68.6108 54.8471 68.5812 54.9153 68.5361C54.9836 68.491 55.0425 68.4313 55.0886 68.3607C55.1346 68.2901 55.1668 68.2101 55.1831 68.1257C55.1994 68.0412 55.1995 67.954 55.1834 67.8695L54.593 64.7567C56.6181 64.4298 58.564 63.6777 60.3205 62.5431C62.3704 61.0507 68.1395 47.4181 69.5311 44.0785C69.6831 43.9827 69.8074 43.843 69.8897 43.6752C69.9721 43.5073 70.0094 43.3181 69.9974 43.1286C69.9974 42.4677 69.9908 41.2469 61.2805 40.2001C61.969 38.1504 62.2941 35.9795 62.239 33.8004C62.2339 33.6363 62.1699 33.4806 62.0604 33.3665C61.9508 33.2523 61.8044 33.1885 61.6521 33.1885H61.6423C58.9148 33.2488 55.6286 32.3861 51.347 30.5089C51.2572 30.4695 51.1597 30.4547 51.0633 30.4657C50.9669 30.4768 50.8745 30.5134 50.7944 30.5723C50.7143 30.6312 50.649 30.7106 50.6043 30.8033C50.5595 30.8961 50.5368 30.9993 50.5381 31.1038C50.5563 32.7658 50.4685 34.4272 50.2753 36.0762C48.7879 35.0219 47.1324 34.2732 45.3924 33.8678C41.4306 33.0595 37.8272 34.3223 35.3354 35.666V34.2278C35.3325 31.6252 34.7705 29.0587 33.6934 26.7294L32.4083 23.9595C32.0162 23.1114 31.8116 22.177 31.8105 21.2294V19.1384C32.0357 19.2849 32.2713 19.412 32.515 19.5186L33.8988 20.1157C33.9705 20.1467 34.0471 20.1622 34.1243 20.1612C34.2015 20.1603 34.2777 20.1429 34.3487 20.1102C34.4197 20.0774 34.484 20.03 34.5379 19.9704C34.5918 19.9109 34.6344 19.8405 34.663 19.7632L35.5362 17.4113C35.594 17.2553 35.5919 17.081 35.5305 16.9266C35.469 16.7723 35.3533 16.6505 35.2086 16.5881L33.8242 15.9907C33.5452 15.8667 33.3072 15.6553 33.1408 15.3839L69.4033 15.8189H69.4096C69.5654 15.8189 69.7148 15.7522 69.825 15.6335C69.9352 15.5147 69.9971 15.3536 69.9971 15.1857V12.6526C69.9971 12.4847 69.9352 12.3236 69.825 12.2049C69.7148 12.0861 69.5654 12.0194 69.4096 12.0194H31.8105V11.157L69.4538 9.79804ZM17.1377 9.77904C18.5835 9.70977 24.7867 9.41175 68.7882 7.29458L68.8273 8.55369L17.1572 10.419L17.1377 9.77904ZM29.2558 25.6588L30.5403 28.4286C31.3734 30.2301 31.8081 32.215 31.8105 34.2278V39.666C31.4137 39.4352 31.022 39.2228 30.6355 39.0286V34.2278C30.6337 32.4114 30.2413 30.6202 29.4892 28.9947L28.2047 26.2245C27.4869 24.673 27.1124 22.9632 27.1106 21.2294V11.3267L28.2856 11.2843V21.2294C28.2873 22.7668 28.6194 24.283 29.2558 25.6588ZM35.0731 37.1851L35.0814 37.1845C35.6677 37.1229 36.2574 37.1061 36.846 37.1344C38.8107 37.2358 41.0578 38.062 43.5322 39.5809C43.0105 39.7553 42.4981 39.9606 41.9974 40.1959C41.9863 40.1502 41.9751 40.1035 41.9658 40.0648C41.8287 39.4822 41.6583 38.7575 41.0565 38.5465C40.4644 38.3394 39.9676 38.7893 39.5258 39.1845C39.3666 39.338 39.196 39.4773 39.0158 39.601C38.8166 39.4895 38.6325 39.3492 38.4685 39.1842C38.1755 38.8748 37.8173 38.6466 37.4245 38.5193C37.349 38.468 37.2635 38.4365 37.1748 38.4271C35.7634 38.3101 34.3441 38.4695 32.9855 38.8974V37.5803C33.6703 37.388 34.3685 37.2559 35.0731 37.1851ZM59.207 45.0225C58.5799 45.0858 57.9214 45.1475 57.2369 45.2067C57.2105 45.1748 57.1809 45.1459 57.1488 45.1207C54.8298 43.6359 50.3927 41.1832 46.827 41.4541C46.0637 41.5128 45.3078 41.6537 44.5706 41.8747C44.5899 41.6189 44.5245 41.3639 44.3859 41.1551C44.2656 40.9801 44.0983 40.8491 43.9067 40.7798C44.8285 40.4671 45.7806 40.2693 46.7443 40.1904C51.2023 39.8557 56.4784 43.0858 59.207 45.0225ZM41.3078 45.9431C41.6243 45.4689 41.7848 44.8942 41.7636 44.3105C41.7424 43.7267 41.5407 43.1673 41.1908 42.7212C40.9559 42.4203 40.667 42.1737 40.3414 41.9962C40.0159 41.8186 39.6604 41.7139 39.2964 41.6882C38.3634 41.6221 37.4436 41.9527 36.7341 42.609C36.2711 42.9978 35.9221 43.5223 35.7288 44.1196C35.5356 44.717 35.5063 45.3617 35.6447 45.9765C35.2213 45.9754 34.7997 45.9739 34.3839 45.9713C34.2731 45.887 34.1521 45.8038 34.0296 45.7206C33.8687 45.6167 33.714 45.5019 33.5667 45.3768C33.7142 45.2518 33.8688 45.137 34.0296 45.0329C34.4615 44.8161 34.8103 44.4446 35.0166 43.9817C35.1047 43.465 35.0247 42.9313 34.79 42.4709C34.7232 42.2982 34.6648 42.1219 34.615 41.9427C34.7911 41.9377 34.9673 41.9431 35.1428 41.9588C35.6189 42.0568 36.1117 41.9748 36.5381 41.7266C36.8865 41.3686 37.1089 40.8915 37.1675 40.3766C37.2081 40.1898 37.2583 40.0055 37.3178 39.8247C37.4567 39.9288 37.5905 40.0405 37.7188 40.1595C38.0565 40.5472 38.5084 40.7969 38.9976 40.866C39.4866 40.797 39.9383 40.5474 40.2759 40.1598C40.4044 40.0409 40.5385 39.929 40.6775 39.8247C40.7367 40.0054 40.7867 40.1896 40.8272 40.3763C40.8861 40.8911 41.1085 41.3681 41.4565 41.7263C41.8826 41.9758 42.3758 42.058 42.8518 41.9588C43.0274 41.9429 43.2036 41.9375 43.3797 41.9427C43.3301 42.122 43.2717 42.2983 43.2047 42.4709C42.9699 42.9315 42.89 43.4654 42.9787 43.9823C43.1851 44.4449 43.5339 44.8162 43.9656 45.033C44.1262 45.1372 44.2806 45.252 44.428 45.3768C44.281 45.5016 44.1267 45.6163 43.9662 45.72C43.8794 45.7791 43.8 45.8386 43.7175 45.8978C42.9307 45.9157 42.1274 45.9308 41.3078 45.9431ZM38.8071 45.97C38.7747 45.9068 38.7323 45.8501 38.6819 45.8026C38.6403 45.7654 38.6017 45.7246 38.5666 45.6804C38.4573 45.5426 38.4031 45.3637 38.4159 45.183C38.4287 45.0022 38.5074 44.8343 38.6348 44.716C38.7136 44.6436 38.8158 44.6078 38.919 44.6164C39.0222 44.625 39.118 44.6772 39.1856 44.7617C39.2871 44.8892 39.4314 44.9679 39.5868 44.9807C39.7421 44.9935 39.8958 44.9392 40.0141 44.8298C40.1323 44.7204 40.2054 44.5648 40.2172 44.3974C40.229 44.2299 40.1787 44.0642 40.0772 43.9368C39.8067 43.5977 39.4225 43.3881 39.0089 43.3539C38.5953 43.3197 38.1859 43.4637 37.8706 43.7543C37.5827 44.0223 37.3806 44.3814 37.2932 44.7804C37.2058 45.1794 37.2374 45.598 37.3837 45.9765C37.2146 45.977 37.0469 45.9776 36.8767 45.9778C36.7144 45.5597 36.6875 45.0948 36.8003 44.6581C36.9131 44.2214 37.1589 43.8383 37.4983 43.5706C37.9713 43.1359 38.5813 42.9139 39.202 42.9504C39.4114 42.9628 39.6162 43.0214 39.8037 43.1224C39.9913 43.2235 40.1577 43.3649 40.2926 43.5379C40.9682 44.4021 40.3265 45.3888 39.8922 45.7898C39.8413 45.8389 39.799 45.8973 39.767 45.9623C39.4499 45.9652 39.1287 45.9678 38.8071 45.97ZM32.2276 45.9497C32.201 45.9115 32.1704 45.8767 32.1363 45.8462C30.247 44.4195 27.5138 42.6862 25.2196 42.5306C25.025 42.517 24.834 42.5108 24.6458 42.5108C22.1549 42.6087 19.757 43.5562 17.7974 45.2167C17.7509 45.2568 17.7105 45.3045 17.6777 45.358C17.0713 45.3129 16.4785 45.2664 15.9105 45.2178C17.8638 43.3946 21.2434 40.9813 25.293 41.2663C27.7453 41.4328 30.526 43.1108 32.597 44.6488C32.432 44.8498 32.3394 45.1079 32.3359 45.3762C32.3374 45.5813 32.3936 45.7815 32.4977 45.9531C32.4073 45.9523 32.3178 45.9509 32.2276 45.9497ZM30.0976 45.9146C26.1657 45.8352 22.6349 45.6857 19.5419 45.4878C21.068 44.4297 22.8322 43.8385 24.6459 43.7773C24.8088 43.7773 24.9749 43.7829 25.1453 43.7946C26.6898 43.8994 28.5277 44.8686 30.0976 45.9146ZM25.4405 38.7384C27.7734 38.8967 30.476 40.0754 33.4723 42.2277C33.5322 42.4696 33.6074 42.7068 33.6974 42.9376C33.7743 43.1465 33.9034 43.4969 33.9109 43.5606C33.8121 43.6706 33.6996 43.765 33.5765 43.8413C31.3529 42.15 28.212 40.1957 25.3677 40.0023C20.4245 39.6627 16.4286 42.92 14.4882 44.8943C14.4387 44.9467 14.3984 45.0084 14.3691 45.0762C13.8333 45.0243 13.3116 44.9712 12.816 44.9166C14.3766 43.1345 19.2031 38.3148 25.4405 38.7384ZM17.6868 34.8526C18.0913 34.2514 18.6794 33.8231 19.3477 33.6428C20.016 33.4624 20.722 33.5416 21.3416 33.8663C21.9611 34.1911 22.4548 34.7407 22.736 35.4186C23.0171 36.0966 23.0678 36.8597 22.879 37.5739C21.2386 37.8115 19.6435 38.3282 18.1534 39.1048C17.5902 38.5917 17.2288 37.8673 17.1421 37.0779C17.0555 36.2885 17.2502 35.4931 17.6868 34.8526ZM32.9855 40.2019C32.9959 40.199 33.0066 40.2002 33.017 40.1966C34.0252 39.8526 35.0748 39.6699 36.1322 39.6546C36.0931 39.7936 36.0595 39.9329 36.0285 40.0649C35.9785 40.2776 35.8948 40.6335 35.8678 40.6886C35.6525 40.7212 35.4342 40.7234 35.2184 40.6949C34.7324 40.597 34.2299 40.6869 33.7993 40.9489C33.5265 40.758 33.2539 40.5677 32.9855 40.3922V40.2019ZM45.6454 45.4971C45.951 45.4113 46.2611 45.3449 46.5739 45.2983C46.7357 45.2754 46.9004 45.2568 47.0708 45.2445C48.0258 45.2152 48.9782 45.3642 49.8861 45.685C48.5109 45.7494 47.0673 45.8042 45.5553 45.8492C45.6038 45.7383 45.6343 45.6192 45.6454 45.4971ZM52.6666 45.5371C52.61 45.4594 52.5368 45.3976 52.4534 45.3567C50.2669 44.3357 48.4248 43.8749 46.9905 43.9811C46.796 43.9952 46.6061 44.0163 46.419 44.0429C46.0148 44.1016 45.6146 44.1891 45.2211 44.3048C45.1872 44.3188 45.1546 44.3364 45.1239 44.3573C44.9538 44.2139 44.776 44.0816 44.5912 43.9612C44.4225 43.8465 44.1402 43.6545 44.1012 43.6129C44.1069 43.519 44.1262 43.4266 44.1584 43.3391C45.0447 42.9995 45.9696 42.7904 46.9078 42.7175C49.5762 42.5196 52.8578 44.0394 55.1686 45.3709C54.3673 45.4297 53.5333 45.4851 52.6666 45.5371ZM46.6629 38.927C46.1415 38.97 45.6229 39.0453 45.1095 39.1527C45.0771 39.1098 45.0393 39.0718 44.9974 39.0399C44.1058 38.4459 43.1817 37.9104 42.2303 37.4364C43.0687 37.3818 43.9101 37.4372 44.7361 37.6015C45.8163 37.8537 46.8506 38.296 47.7976 38.9104C47.4193 38.8943 47.0406 38.8999 46.6629 38.927ZM17.1234 13.2859H23.5857V14.003L17.1234 13.9259V13.2859ZM20.8055 18.1303L19.9191 18.319L19.6919 17.0765L20.5783 16.8876C21.0057 16.796 21.4062 16.5939 21.7452 16.2987L21.4632 17.9164C21.2503 18.0089 21.0302 18.0804 20.8055 18.1303ZM21.3029 23.0786L20.7377 23.4954L20.0745 22.45L20.6402 22.0332C21.1144 21.6859 21.5199 21.2407 21.8333 20.7232C22.1466 20.2058 22.3617 19.6265 22.4658 19.0189L23.1206 15.2643L23.5857 15.2697V19.5512C23.5661 19.5854 23.5498 19.6216 23.5369 19.6593C23.2 21.0526 22.4064 22.2673 21.3029 23.0786ZM26.1027 27.3574C25.2223 25.4539 24.763 23.3564 24.7607 21.2294V14.6563L24.7618 14.6505L24.7607 14.6441V11.4115L25.9356 11.369V21.2294C25.9378 23.1599 26.3547 25.0635 27.1536 26.7912L28.4383 29.5614C29.1091 31.0108 29.459 32.6081 29.4606 34.2278V38.4868C29.0625 38.3197 28.6713 38.1751 28.2856 38.0487V34.2278C28.2842 32.8049 27.9769 31.4017 27.3877 30.1283L26.1027 27.3574ZM14.8371 32.6161C15.3363 31.8761 15.9659 31.2495 16.69 30.7721C17.4141 30.2947 18.2184 29.9758 19.0568 29.8337C19.8953 29.6916 20.7516 29.7291 21.5766 29.944C22.4017 30.1589 23.1793 30.547 23.8651 31.0861C25.1736 32.2024 26.267 33.5837 27.0836 35.1523C27.0908 35.1655 27.1028 35.1725 27.1106 35.1848V37.7246C26.5846 37.6004 26.051 37.5168 25.5139 37.4745C25.0464 37.4439 24.5778 37.439 24.1098 37.46C24.2269 36.7177 24.1666 35.9555 23.9345 35.2453C23.7024 34.5352 23.3062 33.9005 22.7834 33.4012C22.2605 32.9019 21.6282 32.5545 20.9462 32.3917C20.2642 32.2289 19.555 32.2562 18.8855 32.4709C18.216 32.6856 17.6083 33.0807 17.1198 33.6189C16.6313 34.1571 16.2781 34.8206 16.0935 35.5468C15.9089 36.273 15.8991 37.0379 16.0649 37.7693C16.2308 38.5007 16.5668 39.1745 17.0413 39.7271C16.352 40.146 15.686 40.6077 15.0465 41.11C14.1452 39.9185 13.6357 38.4385 13.5978 36.9016C13.56 35.3647 13.9958 33.8576 14.8371 32.6161ZM14.1141 41.8839C13.1205 42.7421 12.2055 43.701 11.3816 44.7474C7.58406 44.2711 5.21161 43.7226 4.42256 43.2259L4.36734 43.0929C4.90289 42.7599 6.86057 41.9582 13.6869 41.2584C13.8189 41.4725 13.9613 41.681 14.1141 41.8839ZM62.1004 57.5815C55.8374 58.4069 46.5298 58.8806 36.5104 58.8806C26.478 58.8806 17.1821 58.4069 10.9195 57.5803C10.3995 56.5675 9.83747 55.4162 9.25839 54.1898C15.432 55.1483 25.4694 55.7143 36.5104 55.7143C47.5514 55.7143 57.5888 55.1483 63.7621 54.1898C63.1829 55.4166 62.6206 56.5685 62.1004 57.5815ZM53.9072 67.4639C42.3629 69.1584 30.6587 69.1571 19.1147 67.4599L19.5856 64.9761C24.1561 65.7498 30.0533 65.8464 36.5104 65.8464C42.9674 65.8464 48.8648 65.7498 53.4352 64.9761L53.9072 67.4639ZM59.6627 61.4937C55.742 64.3477 46.8579 64.5799 36.5104 64.5799C26.1628 64.5799 17.2788 64.3477 13.358 61.4937C12.6645 60.7493 12.0859 59.89 11.6442 58.9486C19.908 59.814 28.208 60.2141 36.5104 60.1471C44.8129 60.2136 53.1131 59.8133 61.3769 58.9478C60.9351 59.8895 60.3564 60.749 59.6627 61.4937ZM64.4108 52.8007C58.4706 53.8175 47.838 54.4477 36.5104 54.4477C25.1828 54.4477 14.5502 53.8175 8.60998 52.8007C7.39389 50.1684 6.14701 47.3221 5.09441 44.8309C6.54274 45.2953 9.00277 45.7786 13.19 46.2219C19.4222 46.8817 27.7044 47.2451 36.5104 47.2451C39.0266 47.2451 41.4973 47.2143 43.8924 47.1564L43.901 47.1586C43.9065 47.1586 43.9118 47.156 43.9173 47.1558C49.8946 47.0112 55.3855 46.6924 59.8308 46.2217C60.1761 46.1851 60.5074 46.1483 60.8295 46.1112C60.8423 46.1121 60.8546 46.1175 60.8674 46.1175C60.8945 46.1128 60.9213 46.106 60.9475 46.0972C63.3027 45.8872 65.6372 45.4636 67.9262 44.8307C66.8737 47.3221 65.627 50.1684 64.4108 52.8007ZM68.6557 43.0871C68.6368 43.1328 68.6171 43.1799 68.5981 43.2261C67.7661 43.7493 65.18 44.3302 61.0191 44.8232C60.6861 44.5674 60.2559 44.247 59.7333 43.8797C60.1423 43.082 60.5122 42.2617 60.8414 41.4222C66.4802 42.0818 68.1645 42.774 68.6557 43.0871ZM51.7133 32.0304C55.4688 33.6104 58.4774 34.3893 61.0723 34.4534C60.9839 37.5342 60.1816 40.5422 58.7385 43.2032C58.0582 42.754 57.2915 42.2773 56.4582 41.808C56.4356 41.751 56.4051 41.698 56.3679 41.6508C54.85 39.8815 53.1749 38.277 51.3665 36.8602C51.5778 35.2599 51.6936 33.6466 51.7133 32.0304ZM45.1729 35.1123C48.1958 35.7293 51.2189 38.133 53.4428 40.319C52.4784 39.9091 51.4876 39.5753 50.4783 39.3201C50.4661 39.3086 50.4598 39.2927 50.4465 39.2821C48.8403 37.8799 46.9646 36.8807 44.9555 36.3573C43.3094 36.0322 41.6185 36.08 39.9904 36.4978C39.2363 36.2395 38.4622 36.0548 37.6774 35.946C40.0583 34.9348 42.6507 34.6465 45.1729 35.1123ZM33.388 17.1668L34.2268 17.5289L33.7903 18.7048L32.9516 18.3427C32.5321 18.1604 32.1458 17.8996 31.8105 17.5725V15.3681H31.8319C31.9534 15.7723 32.1558 16.143 32.4247 16.4538C32.6936 16.7645 33.0223 17.0079 33.388 17.1668ZM68.8221 13.2859V14.5453L31.8105 14.1014V13.2859H68.8221ZM31.3572 24.5256L32.6424 27.2958C33.6382 29.4491 34.1578 31.8218 34.1604 34.2278V36.0359C33.7679 36.1007 33.3763 36.1821 32.9855 36.2829V34.2278C32.9831 32.0182 32.5059 29.8393 31.5914 27.8618L30.3065 25.0921C29.7515 23.8922 29.4619 22.57 29.4606 21.2293V11.2419L30.6355 11.1995V21.2294C30.6369 22.3735 30.884 23.5016 31.3572 24.5256Z" fill="url(#paint34_linear_134_3375)"/>
<defs>
<linearGradient id="paint0_linear_134_3375" x1="18.7854" y1="67.0839" x2="54.8838" y2="67.0839" gradientUnits="userSpaceOnUse">
<stop stop-color="#DCE2E1"/>
<stop offset="1" stop-color="#C0CCCE"/>
</linearGradient>
<linearGradient id="paint1_linear_134_3375" x1="4.19703" y1="54.468" x2="69.4728" y2="54.468" gradientUnits="userSpaceOnUse">
<stop stop-color="#DAE4E8"/>
<stop offset="1" stop-color="#B0C4CC"/>
</linearGradient>
<linearGradient id="paint2_linear_134_3375" x1="36.8338" y1="60.6413" x2="36.8338" y2="65.4236" gradientUnits="userSpaceOnUse">
<stop stop-color="#B0C4CC" stop-opacity="0"/>
<stop offset="0.987" stop-color="#B0C4CC"/>
</linearGradient>
<linearGradient id="paint3_linear_134_3375" x1="8.61547" y1="56.6778" x2="65.0512" y2="56.6778" gradientUnits="userSpaceOnUse">
<stop stop-color="#EC606C"/>
<stop offset="1" stop-color="#BF2640"/>
</linearGradient>
<linearGradient id="paint4_linear_134_3375" x1="4.02148" y1="43.3253" x2="69.6465" y2="43.3253" gradientUnits="userSpaceOnUse">
<stop stop-color="#DCE2E1"/>
<stop offset="1" stop-color="#C0CCCE"/>
</linearGradient>
<linearGradient id="paint5_linear_134_3375" x1="36.834" y1="42.6443" x2="36.834" y2="46.411" gradientUnits="userSpaceOnUse">
<stop stop-color="#92A6AD" stop-opacity="0"/>
<stop offset="0.412" stop-color="#92A6AD"/>
</linearGradient>
<linearGradient id="paint6_linear_134_3375" x1="19.3709" y1="17.192" x2="24.7258" y2="17.192" gradientUnits="userSpaceOnUse">
<stop offset="0.218" stop-color="#FFDD50"/>
<stop offset="1" stop-color="#EA9024"/>
</linearGradient>
<linearGradient id="paint7_linear_134_3375" x1="19.6271" y1="19.1869" x2="26.0255" y2="19.1869" gradientUnits="userSpaceOnUse">
<stop offset="0.218" stop-color="#FFDD50"/>
<stop offset="1" stop-color="#EA9024"/>
</linearGradient>
<linearGradient id="paint8_linear_134_3375" x1="30.275" y1="17.0872" x2="35.3188" y2="17.0872" gradientUnits="userSpaceOnUse">
<stop stop-color="#EA9024"/>
<stop offset="0.782" stop-color="#FFDD50"/>
</linearGradient>
<linearGradient id="paint9_linear_134_3375" x1="43.2793" y1="13.0029" x2="43.2793" y2="15.5292" gradientUnits="userSpaceOnUse">
<stop stop-color="#753D3B"/>
<stop offset="1" stop-color="#6D221B"/>
</linearGradient>
<linearGradient id="paint10_linear_134_3375" x1="50.553" y1="37.8788" x2="61.9166" y2="37.8788" gradientUnits="userSpaceOnUse">
<stop stop-color="#3A915D"/>
<stop offset="1" stop-color="#1D5B36"/>
</linearGradient>
<linearGradient id="paint11_linear_134_3375" x1="56.0233" y1="38.3596" x2="56.0233" y2="44.3608" gradientUnits="userSpaceOnUse">
<stop stop-color="#1D5B36" stop-opacity="0"/>
<stop offset="0.971" stop-color="#1D5B36"/>
</linearGradient>
<linearGradient id="paint12_linear_134_3375" x1="46.3885" y1="34.9342" x2="44.8263" y2="43.1513" gradientUnits="userSpaceOnUse">
<stop offset="0.218" stop-color="#FFDD50"/>
<stop offset="0.612" stop-color="#EA9024"/>
</linearGradient>
<linearGradient id="paint13_linear_134_3375" x1="45.5301" y1="37.3367" x2="44.7029" y2="41.6878" gradientUnits="userSpaceOnUse">
<stop offset="0.218" stop-color="#FFDD50"/>
<stop offset="0.761" stop-color="#EA9024"/>
</linearGradient>
<linearGradient id="paint14_linear_134_3375" x1="29.2168" y1="25.4348" x2="35.0762" y2="25.4348" gradientUnits="userSpaceOnUse">
<stop offset="0.218" stop-color="#FFDD50"/>
<stop offset="1" stop-color="#EA9024"/>
</linearGradient>
<linearGradient id="paint15_linear_134_3375" x1="30.3887" y1="20.7605" x2="30.3887" y2="9.8457" gradientUnits="userSpaceOnUse">
<stop stop-color="#EA9024" stop-opacity="0"/>
<stop offset="1" stop-color="#EA9024"/>
</linearGradient>
<linearGradient id="paint16_linear_134_3375" x1="39.3534" y1="36.7721" x2="39.3534" y2="45.9804" gradientUnits="userSpaceOnUse">
<stop offset="0.037" stop-color="#FFDD50"/>
<stop offset="0.415" stop-color="#EA9024"/>
</linearGradient>
<linearGradient id="paint17_linear_134_3375" x1="37.1811" y1="39.2986" x2="37.1811" y2="43.7702" gradientUnits="userSpaceOnUse">
<stop offset="0.218" stop-color="#FFDD50"/>
<stop offset="0.692" stop-color="#EA9024"/>
</linearGradient>
<linearGradient id="paint18_linear_134_3375" x1="13.3969" y1="37.0922" x2="29.6396" y2="37.0922" gradientUnits="userSpaceOnUse">
<stop stop-color="#DAE4E8"/>
<stop offset="1" stop-color="#B0C4CC"/>
</linearGradient>
<linearGradient id="paint19_linear_134_3375" x1="21.5522" y1="38.0402" x2="21.5522" y2="44.7614" gradientUnits="userSpaceOnUse">
<stop stop-color="#B0C4CC" stop-opacity="0"/>
<stop offset="0.487" stop-color="#B0C4CC"/>
</linearGradient>
<linearGradient id="paint20_linear_134_3375" x1="16.912" y1="36.9879" x2="23.9438" y2="36.9879" gradientUnits="userSpaceOnUse">
<stop stop-color="#FFAB31"/>
<stop offset="1" stop-color="#D86612"/>
</linearGradient>
<linearGradient id="paint21_linear_134_3375" x1="24.5293" y1="24.7792" x2="30.3887" y2="24.7792" gradientUnits="userSpaceOnUse">
<stop offset="0.218" stop-color="#FFDD50"/>
<stop offset="1" stop-color="#EA9024"/>
</linearGradient>
<linearGradient id="paint22_linear_134_3375" x1="26.873" y1="25.4348" x2="32.7324" y2="25.4348" gradientUnits="userSpaceOnUse">
<stop offset="0.218" stop-color="#FFDD50"/>
<stop offset="1" stop-color="#EA9024"/>
</linearGradient>
<linearGradient id="paint23_linear_134_3375" x1="28.7111" y1="13.1356" x2="28.7111" y2="-4.04888" gradientUnits="userSpaceOnUse">
<stop stop-color="#EA9024" stop-opacity="0"/>
<stop offset="1" stop-color="#EA9024"/>
</linearGradient>
<linearGradient id="paint24_linear_134_3375" x1="43.2899" y1="7.00006" x2="43.2899" y2="11.4274" gradientUnits="userSpaceOnUse">
<stop stop-color="#753D3B"/>
<stop offset="1" stop-color="#6D221B"/>
</linearGradient>
<linearGradient id="paint25_linear_134_3375" x1="23.9475" y1="38.3593" x2="23.9475" y2="46.4068" gradientUnits="userSpaceOnUse">
<stop offset="0.218" stop-color="#FFDD50"/>
<stop offset="0.612" stop-color="#EA9024"/>
</linearGradient>
<linearGradient id="paint26_linear_134_3375" x1="25.5312" y1="40.8874" x2="25.5312" y2="46.4092" gradientUnits="userSpaceOnUse">
<stop offset="0.218" stop-color="#FFDD50"/>
<stop offset="0.761" stop-color="#EA9024"/>
</linearGradient>
<linearGradient id="paint27_linear_134_3375" x1="25.2559" y1="43.4131" x2="25.2559" y2="46.3752" gradientUnits="userSpaceOnUse">
<stop offset="0.218" stop-color="#FFDD50"/>
<stop offset="1" stop-color="#EA9024"/>
</linearGradient>
<linearGradient id="paint28_linear_134_3375" x1="50.5156" y1="39.8128" x2="50.5156" y2="46.205" gradientUnits="userSpaceOnUse">
<stop offset="0.218" stop-color="#FFDD50"/>
<stop offset="0.612" stop-color="#EA9024"/>
</linearGradient>
<linearGradient id="paint29_linear_134_3375" x1="49.8477" y1="42.3397" x2="49.8477" y2="46.2586" gradientUnits="userSpaceOnUse">
<stop offset="0.218" stop-color="#FFDD50"/>
<stop offset="0.761" stop-color="#EA9024"/>
</linearGradient>
<linearGradient id="paint30_linear_134_3375" x1="48.0225" y1="44.8644" x2="48.0225" y2="46.3189" gradientUnits="userSpaceOnUse">
<stop offset="0.218" stop-color="#FFDD50"/>
<stop offset="1" stop-color="#EA9024"/>
</linearGradient>
<linearGradient id="paint31_linear_134_3375" x1="33.2539" y1="42.9119" x2="45.3711" y2="42.9119" gradientUnits="userSpaceOnUse">
<stop stop-color="#DAE4E8"/>
<stop offset="1" stop-color="#B0C4CC"/>
</linearGradient>
<linearGradient id="paint32_linear_134_3375" x1="39.3125" y1="44.3604" x2="39.3125" y2="46.413" gradientUnits="userSpaceOnUse">
<stop stop-color="#B0C4CC" stop-opacity="0"/>
<stop offset="0.971" stop-color="#B0C4CC"/>
</linearGradient>
<linearGradient id="paint33_linear_134_3375" x1="35.8745" y1="44.181" x2="42.0737" y2="44.181" gradientUnits="userSpaceOnUse">
<stop stop-color="#F76FF7"/>
<stop offset="1" stop-color="#E038DC"/>
</linearGradient>
<linearGradient id="paint34_linear_134_3375" x1="36.5227" y1="70" x2="36.5227" y2="6.00026" gradientUnits="userSpaceOnUse">
<stop stop-color="#2D2D2D"/>
<stop offset="0.987" stop-color="#141414"/>
</linearGradient>
</defs>
</svg>
