<svg width="42" height="27" viewBox="0 0 42 27" fill="none" xmlns="http://www.w3.org/2000/svg">
<g clipPath="url(#clip0_1_1772)">
<path d="M38.8953 21.5862C38.6873 21.5862 38.4877 21.5052 38.3406 21.361L30.251 13.4312C29.6702 14.0099 29.2127 14.696 28.9053 15.4496C28.5979 16.2033 28.4468 17.0093 28.4606 17.8208C28.4622 17.9222 28.4433 18.0229 28.4049 18.117C28.3666 18.2112 28.3096 18.2971 28.2373 18.3696C28.1649 18.4421 28.0786 18.4999 27.9834 18.5396C27.8882 18.5793 27.7858 18.6001 27.6824 18.6009H27.6761C27.4698 18.601 27.2717 18.5213 27.1249 18.3794C26.978 18.2374 26.8942 18.0444 26.8915 17.8423C26.8736 16.8145 27.0677 15.7937 27.462 14.8411C27.8563 13.8885 28.4428 13.0236 29.1864 12.2983L29.6955 11.7987C29.7684 11.7272 29.8549 11.6705 29.9502 11.6318C30.0454 11.5932 30.1475 11.5732 30.2506 11.5732C30.3537 11.5732 30.4558 11.5932 30.5511 11.6318C30.6463 11.6705 30.7328 11.7272 30.8057 11.7987L39.4445 20.2742C39.5539 20.3814 39.6285 20.5178 39.6589 20.6664C39.6893 20.815 39.6743 20.9691 39.6156 21.1093C39.5569 21.2495 39.4572 21.3696 39.3291 21.4544C39.2009 21.5393 39.05 21.5852 38.8953 21.5862Z" fill="#525252"/>
<path d="M33.1678 21.5864C32.998 21.5864 32.8329 21.5325 32.6971 21.4327C32.1088 21.0036 31.6315 20.4451 31.3037 19.8023C30.9758 19.1596 30.8065 18.4504 30.8094 17.7318C30.8102 17.0937 30.9454 16.4626 31.2063 15.878C31.4672 15.2933 31.8484 14.7676 32.326 14.3338C32.4013 14.2635 32.4901 14.2087 32.5872 14.1724C32.6844 14.1361 32.7879 14.119 32.8918 14.1223C32.9957 14.1255 33.098 14.1489 33.1926 14.1912C33.2871 14.2335 33.3722 14.2938 33.4428 14.3685C33.5134 14.4433 33.5681 14.5311 33.6038 14.6268C33.6395 14.7224 33.6554 14.8241 33.6506 14.9259C33.6458 15.0276 33.6205 15.1274 33.576 15.2195C33.5315 15.3115 33.4687 15.394 33.3914 15.4621C33.0518 15.7695 32.7854 16.1463 32.6109 16.5658C32.4364 16.9853 32.3582 17.4372 32.3818 17.8896C32.4054 18.342 32.5302 18.7837 32.7473 19.1836C32.9645 19.5835 33.2688 19.9318 33.6385 20.2037C33.7703 20.3005 33.8676 20.4354 33.9167 20.5894C33.9658 20.7434 33.9642 20.9086 33.9121 21.0616C33.86 21.2147 33.7601 21.3478 33.6265 21.4421C33.493 21.5364 33.3325 21.5872 33.1678 21.5872V21.5864ZM28.4604 21.5864C28.2523 21.5864 28.0528 21.5055 27.9057 21.3613C27.7585 21.2172 27.6759 21.0217 27.6759 20.8178C27.6846 20.1036 27.5485 19.3947 27.2755 18.7324C27.0025 18.07 26.5981 17.4674 26.0856 16.9593C25.5731 16.4512 24.9628 16.0478 24.29 15.7725C23.6172 15.4972 22.8954 15.3554 22.1663 15.3554C21.4372 15.3554 20.7153 15.4972 20.0425 15.7725C19.3697 16.0478 18.7594 16.4512 18.2469 16.9593C17.7345 17.4674 17.33 18.07 17.057 18.7324C16.7841 19.3947 16.648 20.1036 16.6567 20.8178C16.6567 21.0217 16.574 21.2172 16.4269 21.3613C16.2797 21.5055 16.0802 21.5864 15.8721 21.5864C15.664 21.5864 15.4645 21.5055 15.3173 21.3613C15.1702 21.2172 15.0876 21.0217 15.0876 20.8178C15.0777 19.901 15.2535 18.9913 15.6048 18.1415C15.9562 17.2916 16.476 16.5185 17.1343 15.8667C17.7926 15.215 18.5763 14.6976 19.44 14.3445C20.3037 13.9914 21.2304 13.8096 22.1663 13.8096C23.1022 13.8096 24.0288 13.9914 24.8925 14.3445C25.7563 14.6976 26.5399 15.215 27.1982 15.8667C27.8565 16.5185 28.3764 17.2916 28.7277 18.1415C29.079 18.9913 29.2548 19.901 29.245 20.8178C29.245 21.0217 29.1623 21.2172 29.0152 21.3613C28.8681 21.5055 28.6685 21.5864 28.4604 21.5864Z" fill="#525252"/>
<path d="M25.3105 21.5864C25.1024 21.5864 24.9028 21.5055 24.7557 21.3613C24.6086 21.2172 24.5259 21.0217 24.5259 20.8178C24.5316 20.5103 24.4747 20.2047 24.3586 19.919C24.2424 19.6333 24.0693 19.3731 23.8493 19.1536C23.6293 18.9342 23.3669 18.7598 23.0774 18.6408C22.7879 18.5218 22.4771 18.4606 22.1632 18.4606C21.8492 18.4606 21.5384 18.5218 21.2489 18.6408C20.9594 18.7598 20.697 18.9342 20.4771 19.1536C20.2571 19.3731 20.084 19.6333 19.9678 19.919C19.8516 20.2047 19.7948 20.5103 19.8005 20.8178C19.8005 21.0217 19.7178 21.2172 19.5707 21.3613C19.4235 21.5055 19.224 21.5864 19.0159 21.5864C18.8078 21.5864 18.6083 21.5055 18.4611 21.3613C18.314 21.2172 18.2313 21.0217 18.2313 20.8178C18.224 20.3074 18.3203 19.8006 18.5145 19.327C18.7088 18.8533 18.9973 18.4222 19.3631 18.0587C19.7289 17.6952 20.1649 17.4066 20.6456 17.2096C21.1263 17.0125 21.6421 16.9111 22.1632 16.9111C22.6842 16.9111 23.2001 17.0125 23.6808 17.2096C24.1615 17.4066 24.5974 17.6952 24.9633 18.0587C25.3291 18.4222 25.6175 18.8533 25.8118 19.327C26.0061 19.8006 26.1024 20.3074 26.095 20.8178C26.095 21.0217 26.0124 21.2172 25.8652 21.3613C25.7181 21.5055 25.5185 21.5864 25.3105 21.5864ZM15.9475 21.5864C15.7394 21.5864 15.5399 21.5055 15.3927 21.3613C15.2456 21.2172 15.1629 21.0217 15.1629 20.8178C15.1716 20.1036 15.0355 19.3947 14.7626 18.7324C14.4896 18.07 14.0851 17.4674 13.5727 16.9593C13.0602 16.4512 12.4499 16.0478 11.7771 15.7725C11.1043 15.4972 10.3824 15.3554 9.65333 15.3554C8.92422 15.3554 8.20235 15.4972 7.52957 15.7725C6.85679 16.0478 6.24648 16.4512 5.73401 16.9593C5.22153 17.4674 4.81708 18.07 4.5441 18.7324C4.27112 19.3947 4.13504 20.1036 4.14374 20.8178C4.14374 21.0217 4.06108 21.2172 3.91394 21.3613C3.76681 21.5055 3.56725 21.5864 3.35917 21.5864C3.15109 21.5864 2.95154 21.5055 2.8044 21.3613C2.65727 21.2172 2.57461 21.0217 2.57461 20.8178C2.56476 19.901 2.74058 18.9913 3.0919 18.1415C3.44322 17.2916 3.96307 16.5185 4.62136 15.8667C5.27966 15.215 6.06334 14.6976 6.92707 14.3445C7.79079 13.9914 8.71742 13.8096 9.65333 13.8096C10.5892 13.8096 11.5159 13.9914 12.3796 14.3445C13.2433 14.6976 14.027 15.215 14.6853 15.8667C15.3436 16.5185 15.8634 17.2916 16.2148 18.1415C16.5661 18.9913 16.7419 19.901 16.732 20.8178C16.732 21.0217 16.6494 21.2172 16.5023 21.3613C16.3551 21.5055 16.1556 21.5864 15.9475 21.5864Z" fill="#525252"/>
<path d="M12.8005 21.586C12.5925 21.586 12.3929 21.505 12.2458 21.3609C12.0986 21.2167 12.016 21.0212 12.016 20.8174C12.0217 20.5099 11.9648 20.2043 11.8486 19.9186C11.7325 19.6328 11.5594 19.3726 11.3394 19.1532C11.1194 18.9337 10.857 18.7594 10.5675 18.6404C10.278 18.5214 9.96722 18.4601 9.65327 18.4601C9.33932 18.4601 9.02852 18.5214 8.73901 18.6404C8.44951 18.7594 8.18711 18.9337 7.96715 19.1532C7.74718 19.3726 7.57406 19.6328 7.45789 19.9186C7.34172 20.2043 7.28484 20.5099 7.29056 20.8174C7.29056 21.0212 7.2079 21.2167 7.06076 21.3609C6.91363 21.505 6.71407 21.586 6.506 21.586C6.29792 21.586 6.09836 21.505 5.95123 21.3609C5.80409 21.2167 5.72143 21.0212 5.72143 20.8174C5.71407 20.307 5.81033 19.8002 6.00463 19.3265C6.19892 18.8529 6.48736 18.4218 6.85319 18.0583C7.21903 17.6948 7.65496 17.4061 8.13565 17.2091C8.61634 17.0121 9.13221 16.9107 9.65327 16.9107C10.1743 16.9107 10.6902 17.0121 11.1709 17.2091C11.6516 17.4061 12.0875 17.6948 12.4533 18.0583C12.8192 18.4218 13.1076 18.8529 13.3019 19.3265C13.4962 19.8002 13.5925 20.307 13.5851 20.8174C13.5851 20.9183 13.5648 21.0183 13.5254 21.1115C13.486 21.2048 13.4282 21.2895 13.3553 21.3609C13.2825 21.4323 13.196 21.4889 13.1008 21.5275C13.0056 21.5661 12.9036 21.586 12.8005 21.586ZM3.81651 19.6076C3.69662 19.6076 3.57831 19.5807 3.47068 19.529C3.36305 19.4772 3.26895 19.402 3.19562 19.3091C3.12228 19.2162 3.07166 19.108 3.04764 18.9929C3.02362 18.8779 3.02684 18.7589 3.05706 18.6453C3.13288 18.3728 3.22697 18.1055 3.33871 17.8451C3.51995 17.4009 3.67608 17.0181 3.67608 16.2011C3.67608 15.384 3.51916 15.0005 3.33871 14.5562C3.12767 14.0397 2.88916 13.454 2.88916 12.3418C2.88916 11.2296 3.12453 10.644 3.33871 10.1274C3.51995 9.68396 3.67608 9.30119 3.67608 8.48491C3.67608 7.66864 3.51916 7.2851 3.33871 6.84084C3.12767 6.32433 2.88916 5.73941 2.88916 4.62645C2.88916 3.5135 3.12453 2.92935 3.33871 2.41284C3.51995 1.96857 3.67608 1.58503 3.67608 0.768762C3.67608 0.564912 3.75874 0.369411 3.90587 0.225268C4.053 0.0811239 4.25256 0.000144783 4.46064 0.000144783C4.66872 0.000144783 4.86828 0.0811239 5.01541 0.225268C5.16254 0.369411 5.2452 0.564912 5.2452 0.768762C5.2452 1.88095 5.00983 2.46664 4.79565 2.98315C4.61441 3.42664 4.45829 3.81018 4.45829 4.62645C4.45829 5.44273 4.6152 5.82703 4.79565 6.27053C5.0067 6.78704 5.2452 7.37273 5.2452 8.48491C5.2452 9.5971 5.00983 10.182 4.79565 10.6985C4.61441 11.142 4.45829 11.5256 4.45829 12.3418C4.45829 13.1581 4.6152 13.5424 4.79565 13.9859C5.0067 14.5024 5.2452 15.0881 5.2452 16.2011C5.2452 17.314 5.00983 17.8989 4.79643 18.4147C4.70905 18.6147 4.63514 18.8201 4.57519 19.0296C4.53204 19.1947 4.4341 19.3411 4.29676 19.4457C4.15943 19.5503 3.99049 19.6073 3.81651 19.6076ZM7.89546 15.9051C7.7159 15.9047 7.54191 15.844 7.40255 15.7331C7.26319 15.6221 7.16689 15.4677 7.12972 15.2956C7.0688 15.0411 6.98478 14.7923 6.87866 14.5524C6.6684 14.0359 6.42989 13.451 6.42989 12.3388C6.42989 11.2266 6.66526 10.6409 6.87945 10.1244C7.0599 9.68088 7.21681 9.29811 7.21681 8.48184C7.21681 7.66557 7.0599 7.28203 6.87945 6.83777C6.6684 6.32126 6.42989 5.73634 6.42989 4.62338C6.42989 3.51042 6.66526 2.92627 6.87945 2.40976C7.0599 1.9655 7.21681 1.58196 7.21681 0.765688C7.21681 0.561838 7.29947 0.366337 7.4466 0.222193C7.59374 0.0780494 7.79329 -0.00292969 8.00137 -0.00292969C8.20945 -0.00292969 8.40901 0.0780494 8.55614 0.222193C8.70328 0.366337 8.78594 0.561838 8.78594 0.765688C8.78594 1.87788 8.55057 2.46356 8.33638 2.98008C8.15515 3.42357 7.99902 3.80711 7.99902 4.62338C7.99902 5.43965 8.15593 5.82396 8.33638 6.26745C8.54664 6.78396 8.78594 7.36965 8.78594 8.48184C8.78594 9.59403 8.55057 10.1789 8.33638 10.6955C8.15515 11.1451 7.99902 11.5294 7.99902 12.3418C7.99902 13.1543 8.15593 13.5416 8.3356 13.9851C8.47457 14.3045 8.58432 14.6352 8.66354 14.9736C8.68534 15.0723 8.68706 15.1743 8.6686 15.2736C8.65015 15.373 8.61189 15.4678 8.556 15.5527C8.50011 15.6376 8.4277 15.7108 8.3429 15.7683C8.2581 15.8257 8.16257 15.8662 8.06178 15.8875C8.00711 15.899 7.95137 15.9049 7.89546 15.9051ZM10.909 15.4363C10.7458 15.4363 10.5867 15.3865 10.4539 15.2937C10.321 15.201 10.2209 15.07 10.1676 14.919C10.1244 14.7976 10.0765 14.68 10.0263 14.5562C9.81528 14.0397 9.57677 13.454 9.57677 12.3418C9.57677 11.2296 9.81214 10.644 10.0263 10.1274C10.2076 9.68396 10.3637 9.30119 10.3637 8.48491C10.3637 7.84158 10.2633 7.47188 10.1644 7.19441C10.0957 7.00197 10.1079 6.7907 10.1983 6.60706C10.2886 6.42342 10.4497 6.28246 10.6461 6.21519C10.8426 6.14792 11.0582 6.15985 11.2457 6.24835C11.4331 6.33685 11.577 6.49468 11.6457 6.68712C11.7798 7.0622 11.9328 7.60946 11.9328 8.48338C11.9328 9.59557 11.6974 10.1805 11.4833 10.697C11.3028 11.1405 11.1459 11.524 11.1459 12.3403C11.1459 13.1566 11.3028 13.5401 11.4833 13.9844C11.5382 14.1196 11.5955 14.2595 11.6504 14.4148C11.7184 14.6074 11.7056 14.8187 11.6146 15.002C11.5237 15.1854 11.3621 15.3258 11.1655 15.3925C11.0832 15.4213 10.9964 15.4361 10.909 15.4363ZM14.292 16.7652C14.0879 16.7653 13.8919 16.6875 13.7454 16.5483C13.5989 16.4091 13.5136 16.2195 13.5074 16.0197C13.4855 15.3279 13.3403 14.9682 13.1724 14.5593C12.9622 14.0428 12.7237 13.4571 12.7237 12.3449C12.7237 11.2327 12.959 10.647 13.1724 10.1305C13.3537 9.68703 13.5098 9.30426 13.5098 8.48799C13.5098 7.84466 13.4094 7.47495 13.3105 7.19748C13.2414 7.00484 13.2533 6.79321 13.3435 6.60914C13.4337 6.42507 13.5948 6.28363 13.7914 6.21596C13.9881 6.14828 14.2041 6.1599 14.392 6.24826C14.5799 6.33662 14.7243 6.49448 14.7933 6.68712C14.9267 7.0622 15.0797 7.60946 15.0797 8.48338C15.0797 9.59557 14.8443 10.1805 14.6309 10.697C14.4497 11.1405 14.2936 11.524 14.2936 12.3403C14.2936 13.1566 14.4505 13.5409 14.6309 13.9844C14.8255 14.4625 15.0467 15.0051 15.0766 15.9712C15.0829 16.175 15.0064 16.3729 14.8638 16.5213C14.7212 16.6698 14.5243 16.7567 14.3163 16.7629L14.292 16.7652Z" fill="#525252"/>
<path d="M34.7488 27H7.2177C5.54872 26.9984 3.94856 26.3482 2.76834 25.1921C1.58811 24.036 0.924233 22.4684 0.922363 20.8334C0.922363 20.6295 1.00502 20.434 1.15216 20.2899C1.29929 20.1457 1.49885 20.0648 1.70693 20.0648H40.2596C40.4676 20.0648 40.6672 20.1457 40.8143 20.2899C40.9615 20.434 41.0441 20.6295 41.0441 20.8334C41.042 22.4684 40.3781 24.0358 39.1979 25.1919C38.0177 26.3479 36.4177 26.9982 34.7488 27ZM2.55661 21.5982C2.7428 22.6777 3.31293 23.6578 4.16603 24.365C5.01914 25.0722 6.10017 25.4608 7.2177 25.462H34.7488C35.8664 25.4607 36.9474 25.072 37.8006 24.3649C38.6538 23.6577 39.2242 22.6777 39.4107 21.5982H2.55661ZM12.7222 7.71H4.21753C4.00945 7.71 3.80989 7.62902 3.66276 7.48488C3.51562 7.34074 3.43296 7.14524 3.43296 6.94139C3.43296 6.73754 3.51562 6.54203 3.66276 6.39789C3.80989 6.25375 4.00945 6.17277 4.21753 6.17277H11.9376V1.53724H4.46074C4.25266 1.53724 4.05311 1.45626 3.90597 1.31211C3.75884 1.16797 3.67618 0.972468 3.67618 0.768618C3.67618 0.564768 3.75884 0.369267 3.90597 0.225123C4.05311 0.0809791 4.25266 0 4.46074 0L12.7222 0C12.8252 0 12.9272 0.0198809 13.0224 0.0585075C13.1176 0.0971342 13.2041 0.15375 13.277 0.225123C13.3498 0.296496 13.4076 0.381227 13.447 0.47448C13.4865 0.567733 13.5068 0.667681 13.5068 0.768618V6.94139C13.5068 7.04232 13.4865 7.14227 13.447 7.23552C13.4076 7.32878 13.3498 7.41351 13.277 7.48488C13.2041 7.55625 13.1176 7.61287 13.0224 7.6515C12.9272 7.69012 12.8252 7.71 12.7222 7.71Z" fill="#525252"/>
<path d="M12.7221 4.62415H4.06679C3.85871 4.62415 3.65915 4.54317 3.51202 4.39903C3.36489 4.25488 3.28223 4.05938 3.28223 3.85553C3.28223 3.65168 3.36489 3.45618 3.51202 3.31204C3.65915 3.16789 3.85871 3.08691 4.06679 3.08691H12.7221C12.9302 3.08691 13.1297 3.16789 13.2769 3.31204C13.424 3.45618 13.5066 3.65168 13.5066 3.85553C13.5066 4.05938 13.424 4.25488 13.2769 4.39903C13.1297 4.54317 12.9302 4.62415 12.7221 4.62415Z" fill="#525252"/>
<path d="M15.0823 7.71001H12.7223C12.5142 7.71001 12.3147 7.62903 12.1675 7.48488C12.0204 7.34074 11.9377 7.14524 11.9377 6.94139V0.76862C11.9377 0.56477 12.0204 0.369269 12.1675 0.225125C12.3147 0.0809812 12.5142 2.0309e-06 12.7223 2.0309e-06H15.0823C15.4869 -0.000405504 15.8892 0.0605236 16.2748 0.180627C19.1714 1.08452 22.0021 1.54339 24.6806 1.54339H38.6858C39.3042 1.55443 39.8934 1.80283 40.3267 2.23514C40.76 2.66745 41.0028 3.24912 41.0028 3.855C41.0028 4.46088 40.76 5.04255 40.3267 5.47486C39.8934 5.90717 39.3042 6.15558 38.6858 6.16662H24.6806C21.9998 6.16662 19.1714 6.62779 16.2748 7.52938C15.8892 7.64948 15.4869 7.71041 15.0823 7.71001ZM13.5069 6.17277H15.0823C15.3253 6.17324 15.567 6.13668 15.7986 6.0644C18.8497 5.11208 21.8397 4.62939 24.6806 4.62939H38.6858C38.8912 4.62305 39.0859 4.53868 39.2289 4.39415C39.3718 4.24962 39.4518 4.05626 39.4518 3.855C39.4518 3.65375 39.3718 3.46039 39.2289 3.31586C39.0859 3.17132 38.8912 3.08696 38.6858 3.08062H24.6806C21.8381 3.08062 18.8497 2.59793 15.7986 1.64561C15.567 1.57333 15.3253 1.53676 15.0823 1.53724H13.5069V6.17277Z" fill="#525252"/>
</g>
<defs>
<clipPath id="clip0_1_1772">
<rect width="40.1218" height="27" fill="white" transform="translate(0.922363)"/>
</clipPath>
</defs>
</svg>
