<svg width="47" height="47" viewBox="0 0 47 47" fill="none" xmlns="http://www.w3.org/2000/svg">
<path d="M41.7778 23.5C41.7778 18.4083 40.0044 14.0891 36.4576 10.5424C32.9109 6.9956 28.5917 5.22222 23.5 5.22222V0C26.7639 0 29.8211 0.620139 32.6715 1.86042C35.522 3.10069 38.0025 4.77616 40.1132 6.88681C42.2238 8.99745 43.8993 11.478 45.1396 14.3285C46.3799 17.1789 47 20.2361 47 23.5H41.7778ZM31.3333 23.5C31.3333 21.3241 30.5718 19.4745 29.0486 17.9514C27.5255 16.4282 25.6759 15.6667 23.5 15.6667V10.4444C27.112 10.4444 30.191 11.7174 32.7368 14.2632C35.2826 16.809 36.5556 19.888 36.5556 23.5H31.3333ZM44.2583 47C38.8185 47 33.444 45.8141 28.1347 43.4424C22.8255 41.0706 17.9949 37.7088 13.6431 33.3569C9.2912 29.0051 5.9294 24.1745 3.55764 18.8653C1.18588 13.556 0 8.18148 0 2.74167C0 1.95833 0.261111 1.30556 0.783333 0.783333C1.30556 0.261111 1.95833 0 2.74167 0H13.3167C13.9259 0 14.4699 0.206713 14.9486 0.620139C15.4273 1.03356 15.7102 1.52315 15.7972 2.08889L17.4944 11.2278C17.5815 11.9241 17.5597 12.5116 17.4292 12.9903C17.2986 13.469 17.0593 13.8824 16.7111 14.2306L10.3792 20.6278C11.2495 22.238 12.2831 23.7938 13.4799 25.2951C14.6766 26.7965 15.9931 28.2435 17.4292 29.6361C18.7782 30.9852 20.1926 32.2363 21.6722 33.3896C23.1519 34.5428 24.7185 35.5981 26.3722 36.5556L32.5083 30.4194C32.9 30.0278 33.4113 29.734 34.0424 29.5382C34.6734 29.3424 35.2935 29.288 35.9028 29.375L44.9111 31.2028C45.5204 31.3769 46.0208 31.6924 46.4125 32.1493C46.8042 32.6063 47 33.1176 47 33.6833V44.2583C47 45.0417 46.7389 45.6944 46.2167 46.2167C45.6944 46.7389 45.0417 47 44.2583 47ZM7.89861 15.6667L12.2069 11.3583L11.0972 5.22222H5.2875C5.50509 7.00648 5.80972 8.76898 6.20139 10.5097C6.59306 12.2505 7.1588 13.9694 7.89861 15.6667ZM31.2681 39.0361C32.9653 39.7759 34.6951 40.3634 36.4576 40.7986C38.2201 41.2338 39.9935 41.5167 41.7778 41.6472V35.9028L35.6417 34.6625L31.2681 39.0361Z" fill="#0F4DA2"/>
</svg>
