<svg width="33" height="34" viewBox="0 0 33 34" fill="none" xmlns="http://www.w3.org/2000/svg">
<g clipPath="url(#clip0_1_2045)">
<path d="M32.4493 26.4731L30.2793 22.8986L17.0536 1.11563L17.0496 1.10957L17.0471 1.10503C17.031 1.08084 17.0123 1.05849 16.9914 1.03837C16.9829 1.02878 16.9764 1.01717 16.9674 1.00858C16.87 0.925489 16.7465 0.879883 16.6188 0.879883C16.4911 0.879883 16.3676 0.925489 16.2702 1.00858C16.2607 1.01767 16.2537 1.02979 16.2447 1.03989C16.2245 1.05974 16.2064 1.08156 16.1905 1.10503L16.188 1.10907L16.184 1.11563L2.95834 22.8986L0.788254 26.4731C0.587715 26.8078 0.523952 27.2077 0.610384 27.5888C0.696816 27.9699 0.926703 28.3023 1.25166 28.5161C5.80741 31.5577 11.1525 33.1798 16.6188 33.1798C22.0851 33.1798 27.4302 31.5577 31.9859 28.5161C32.3109 28.3023 32.5408 27.9699 32.6272 27.5888C32.7136 27.2077 32.6499 26.8078 32.4493 26.4731ZM29.0064 23.1566C28.8941 23.2369 28.7817 23.3162 28.6684 23.3939C28.546 23.4784 28.4228 23.5612 28.2987 23.6424C28.1824 23.7186 28.0655 23.7939 27.9477 23.8681C27.8298 23.9423 27.6994 24.0226 27.574 24.0978C27.4487 24.1731 27.3343 24.2412 27.2134 24.3104C27.0926 24.3796 26.9627 24.4528 26.8348 24.5225C26.7069 24.5922 26.5896 24.6563 26.4662 24.7204C26.3428 24.7846 26.2089 24.8522 26.0795 24.9164C25.9501 24.9805 25.8287 25.0401 25.7049 25.0992C25.581 25.1582 25.4436 25.2198 25.3127 25.2784C25.1818 25.337 25.0579 25.3925 24.9295 25.4466C24.8011 25.5006 24.6642 25.5561 24.5283 25.6091C24.3924 25.6622 24.2715 25.7101 24.1421 25.7606C24.0127 25.8111 23.8693 25.8616 23.7324 25.9081C23.5955 25.9545 23.4736 26 23.3437 26.0434C23.2053 26.0889 23.0659 26.1318 22.9264 26.1747C22.796 26.2146 22.6656 26.256 22.5348 26.2934C22.3923 26.3343 22.2494 26.3716 22.1059 26.409C21.9761 26.4433 21.8462 26.4792 21.7158 26.51C21.5693 26.5458 21.4214 26.5771 21.2744 26.611C21.145 26.6398 21.0161 26.6695 20.8862 26.6958C20.7358 26.7266 20.5808 26.7529 20.4279 26.7801C20.3015 26.8028 20.1771 26.8271 20.0487 26.8478C19.8892 26.873 19.7287 26.8937 19.5682 26.916C19.4459 26.9326 19.3245 26.9513 19.2016 26.9665C19.0331 26.9866 18.8636 27.0018 18.6941 27.0169C18.5782 27.0281 18.4629 27.0417 18.3465 27.0508C18.1585 27.0659 17.9684 27.075 17.7793 27.0851C17.679 27.0902 17.5832 27.0982 17.4849 27.1023C17.1981 27.1144 16.9093 27.1205 16.6188 27.1205C16.3282 27.1205 16.0389 27.1147 15.7507 27.1033C15.6504 27.0993 15.5546 27.0912 15.4563 27.0861C15.2672 27.076 15.0771 27.0669 14.889 27.0518C14.7727 27.0427 14.6573 27.0291 14.5415 27.018C14.372 27.0018 14.2025 26.9866 14.034 26.9675C13.9111 26.9528 13.7892 26.9341 13.6668 26.917C13.5069 26.8947 13.3464 26.874 13.1869 26.8488C13.06 26.8281 12.9361 26.8039 12.8072 26.7811C12.6568 26.7539 12.5013 26.7276 12.3493 26.6968C12.2194 26.6706 12.0906 26.6408 11.9612 26.612C11.8142 26.5792 11.6663 26.5478 11.5198 26.511C11.3894 26.4792 11.2595 26.4433 11.1296 26.41C10.9862 26.3726 10.8433 26.3353 10.7008 26.2944C10.5699 26.257 10.4395 26.2156 10.3091 26.1757C10.1697 26.1328 10.0303 26.0899 9.89188 26.0444C9.76199 26.001 9.6326 25.9545 9.5032 25.9091C9.36629 25.8586 9.22937 25.8126 9.09346 25.7616C8.95755 25.7106 8.83568 25.6607 8.70729 25.6102C8.5789 25.5597 8.44098 25.5036 8.30607 25.4476C8.17116 25.3915 8.05029 25.3365 7.92291 25.2794C7.79552 25.2224 7.66061 25.1618 7.53072 25.1002C7.40082 25.0386 7.27995 24.9795 7.15558 24.9174C7.0312 24.8553 6.8978 24.7886 6.76991 24.722C6.64202 24.6553 6.52316 24.5907 6.40079 24.5235C6.27842 24.4564 6.14752 24.3836 6.02214 24.3114C5.89676 24.2392 5.78141 24.1706 5.66154 24.0989C5.54168 24.0271 5.41078 23.9474 5.28791 23.8691C5.16504 23.7908 5.0537 23.7176 4.93684 23.6434C4.81999 23.5692 4.68959 23.4793 4.56722 23.395C4.45388 23.3172 4.34154 23.2379 4.2292 23.1576C4.17002 23.1152 4.11134 23.0718 4.05266 23.0284L13.9412 6.74631C14.8213 7.01471 15.766 6.97213 16.6188 6.62563C17.471 6.97448 18.4166 7.01728 19.2964 6.74681L29.1819 23.0274C29.1232 23.0708 29.0646 23.1142 29.0064 23.1566ZM18.6936 5.85911C18.0638 5.97777 17.4128 5.8933 16.8334 5.61775C16.7664 5.58576 16.693 5.56916 16.6188 5.56916C16.5446 5.56916 16.4712 5.58576 16.4041 5.61775C15.8247 5.8932 15.1738 5.97766 14.544 5.85911L16.6188 2.35427L18.6936 5.85911ZM31.4282 27.6759C27.0376 30.6065 21.8866 32.1694 16.6188 32.1694C11.351 32.1694 6.19998 30.6065 1.80935 27.6759C1.6989 27.6077 1.61963 27.4984 1.58874 27.3717C1.55784 27.245 1.57783 27.1112 1.64435 26.9993L3.52907 23.8959C3.58173 23.9337 3.6359 23.9691 3.68856 24.0064C3.79989 24.0862 3.91223 24.164 4.02508 24.2412C4.15882 24.3338 4.29439 24.4249 4.43181 24.5144C4.54616 24.5892 4.66151 24.6624 4.77686 24.7351C4.91428 24.8213 5.05203 24.9054 5.19011 24.9876C5.3078 25.0576 5.42583 25.1268 5.54419 25.1951C5.68411 25.2754 5.82404 25.3536 5.96547 25.4304C6.08516 25.4977 6.20553 25.5622 6.32656 25.6238C6.46799 25.6975 6.61026 25.7696 6.75336 25.8399C6.87623 25.901 6.9996 25.9611 7.12348 26.0192C7.26742 26.0873 7.41186 26.1525 7.5573 26.2171C7.68218 26.2727 7.80806 26.3282 7.93294 26.3812C8.07938 26.4433 8.22633 26.5024 8.37378 26.561C8.50066 26.6115 8.62805 26.662 8.75593 26.7125C8.90639 26.768 9.05384 26.821 9.20379 26.8735C9.33218 26.919 9.46057 26.9644 9.59047 27.0074C9.74092 27.0578 9.89138 27.1038 10.0464 27.1508C10.1762 27.1906 10.3056 27.231 10.4365 27.2684C10.591 27.3128 10.7465 27.3532 10.9024 27.3941C11.0323 27.4285 11.1617 27.4638 11.2921 27.4951C11.4506 27.5335 11.6096 27.5678 11.7691 27.6032C11.8995 27.6315 12.0289 27.6618 12.1598 27.688C12.3223 27.7208 12.4863 27.7491 12.6493 27.7779C12.7781 27.8011 12.906 27.8254 13.0349 27.8461C13.2039 27.8733 13.3739 27.8966 13.5435 27.9183C13.6693 27.9354 13.7942 27.9551 13.9206 27.9688C14.0992 27.9905 14.2792 28.0061 14.4592 28.0233C14.5771 28.0344 14.6945 28.048 14.8103 28.0576C15.0109 28.0733 15.2115 28.0834 15.4121 28.094C15.5124 28.0991 15.6127 28.1071 15.713 28.1112C16.0136 28.124 16.3155 28.1304 16.6188 28.1304C16.9221 28.1304 17.2241 28.1243 17.525 28.1122C17.6254 28.1081 17.7257 28.1001 17.8235 28.095C18.0241 28.0844 18.2247 28.0743 18.4253 28.0587C18.5431 28.0496 18.6605 28.0354 18.7763 28.0243C18.9564 28.0072 19.1364 27.9915 19.3155 27.9698C19.4419 27.9551 19.5662 27.9354 19.6926 27.9193C19.8621 27.8966 20.0322 27.8743 20.2012 27.8471C20.3301 27.8264 20.4579 27.8021 20.5868 27.7789C20.7498 27.7501 20.9138 27.7219 21.0763 27.689C21.2072 27.6628 21.3366 27.6325 21.467 27.6042C21.6265 27.5689 21.7855 27.5345 21.944 27.4961C22.0744 27.4643 22.2037 27.429 22.3336 27.3952C22.4896 27.3543 22.6451 27.3139 22.7996 27.2694C22.9305 27.2321 23.0598 27.1917 23.1897 27.1518C23.3402 27.1048 23.4947 27.0584 23.6456 27.0084C23.7755 26.9654 23.9039 26.92 24.0323 26.8746C24.1828 26.8241 24.3332 26.769 24.4802 26.7135C24.608 26.663 24.7349 26.6125 24.8618 26.562C25.0098 26.5029 25.1567 26.4438 25.3032 26.3817C25.429 26.3287 25.5539 26.2737 25.6788 26.2181C25.8237 26.153 25.9687 26.0878 26.1126 26.0197C26.2365 25.9616 26.3599 25.9015 26.4827 25.8404C26.6255 25.7697 26.7678 25.6977 26.9095 25.6243C27.0302 25.5613 27.1506 25.4969 27.2706 25.4309C27.4121 25.3542 27.552 25.2759 27.6919 25.1956C27.8103 25.1283 27.9283 25.0591 28.046 24.9881C28.1844 24.9053 28.3221 24.8211 28.4592 24.7356C28.5746 24.6629 28.6899 24.5897 28.8043 24.5149C28.9407 24.4254 29.0763 24.3343 29.211 24.2418C29.3239 24.1645 29.4362 24.0867 29.5475 24.007C29.6002 23.9696 29.6544 23.9342 29.707 23.8964L31.5907 27.0003C31.6572 27.1118 31.6774 27.2452 31.647 27.3716C31.6166 27.498 31.538 27.6073 31.4282 27.6759Z" fill="#525252"/>
<path d="M16.6187 12.982C17.0155 12.982 17.4033 12.8635 17.7332 12.6416C18.0631 12.4196 18.3203 12.1042 18.4721 11.7351C18.6239 11.366 18.6637 10.9599 18.5862 10.5681C18.5088 10.1763 18.3178 9.81644 18.0372 9.53397C17.7567 9.25149 17.3992 9.05913 17.0101 8.98119C16.6209 8.90326 16.2176 8.94326 15.851 9.09613C15.4844 9.249 15.1711 9.50789 14.9507 9.84004C14.7303 10.1722 14.6126 10.5627 14.6126 10.9622C14.6126 11.4979 14.824 12.0116 15.2002 12.3904C15.5764 12.7692 16.0867 12.982 16.6187 12.982ZM16.6187 9.95228C16.8171 9.95228 17.011 10.0115 17.176 10.1225C17.3409 10.2334 17.4695 10.3912 17.5454 10.5757C17.6213 10.7602 17.6412 10.9633 17.6025 11.1592C17.5638 11.3551 17.4682 11.535 17.328 11.6763C17.1877 11.8175 17.009 11.9137 16.8144 11.9527C16.6198 11.9916 16.4181 11.9716 16.2349 11.8952C16.0516 11.8188 15.8949 11.6893 15.7847 11.5232C15.6745 11.3572 15.6157 11.1619 15.6157 10.9622C15.6157 10.6943 15.7213 10.4375 15.9094 10.2481C16.0976 10.0587 16.3527 9.95228 16.6187 9.95228ZM9.5974 19.5463C9.20063 19.5463 8.81277 19.6648 8.48288 19.8867C8.15298 20.1086 7.89585 20.4241 7.74401 20.7931C7.59218 21.1622 7.55245 21.5683 7.62986 21.9601C7.70726 22.3519 7.89832 22.7118 8.17888 22.9943C8.45944 23.2768 8.81689 23.4691 9.20603 23.5471C9.59517 23.625 9.99853 23.585 10.3651 23.4321C10.7317 23.2793 11.045 23.0204 11.2654 22.6882C11.4858 22.3561 11.6035 21.9656 11.6035 21.5661C11.6035 21.0304 11.3921 20.5167 11.0159 20.1379C10.6397 19.7591 10.1294 19.5463 9.5974 19.5463ZM9.5974 22.576C9.39901 22.576 9.20509 22.5168 9.04014 22.4058C8.87519 22.2948 8.74662 22.1371 8.67071 21.9526C8.59479 21.768 8.57492 21.565 8.61363 21.3691C8.65233 21.1732 8.74786 20.9932 8.88814 20.852C9.02842 20.7107 9.20714 20.6146 9.40171 20.5756C9.59629 20.5366 9.79796 20.5566 9.98125 20.6331C10.1645 20.7095 10.3212 20.8389 10.4314 21.005C10.5416 21.1711 10.6004 21.3663 10.6004 21.5661C10.6004 21.8339 10.4948 22.0908 10.3067 22.2802C10.1185 22.4696 9.86342 22.576 9.5974 22.576ZM21.6339 21.5661C21.6339 21.9656 21.7516 22.3561 21.972 22.6882C22.1924 23.0204 22.5058 23.2793 22.8723 23.4321C23.2389 23.585 23.6422 23.625 24.0314 23.5471C24.4205 23.4691 24.778 23.2768 25.0585 22.9943C25.3391 22.7118 25.5302 22.3519 25.6076 21.9601C25.685 21.5683 25.6452 21.1622 25.4934 20.7931C25.3416 20.4241 25.0844 20.1086 24.7545 19.8867C24.4246 19.6648 24.0368 19.5463 23.64 19.5463C23.108 19.5463 22.5977 19.7591 22.2215 20.1379C21.8453 20.5167 21.6339 21.0304 21.6339 21.5661ZM23.64 20.5562C23.8384 20.5562 24.0323 20.6154 24.1973 20.7264C24.3622 20.8374 24.4908 20.9951 24.5667 21.1796C24.6426 21.3642 24.6625 21.5672 24.6238 21.7631C24.5851 21.959 24.4896 22.139 24.3493 22.2802C24.209 22.4214 24.0303 22.5176 23.8357 22.5566C23.6411 22.5955 23.4394 22.5755 23.2562 22.4991C23.0729 22.4227 22.9162 22.2932 22.806 22.1272C22.6958 21.9611 22.637 21.7658 22.637 21.5661C22.637 21.2982 22.7426 21.0414 22.9308 20.852C23.1189 20.6626 23.374 20.5562 23.64 20.5562ZM16.6187 21.0611C16.2219 21.0611 15.8341 21.1796 15.5042 21.4015C15.1743 21.6235 14.9172 21.9389 14.7653 22.308C14.6135 22.6771 14.5738 23.0832 14.6512 23.475C14.7286 23.8668 14.9196 24.2267 15.2002 24.5091C15.4807 24.7916 15.8382 24.984 16.2273 25.0619C16.6165 25.1398 17.0198 25.0998 17.3864 24.947C17.753 24.7941 18.0663 24.5352 18.2867 24.2031C18.5071 23.8709 18.6248 23.4804 18.6248 23.0809C18.6248 22.5452 18.4134 22.0315 18.0372 21.6527C17.661 21.2739 17.1508 21.0611 16.6187 21.0611ZM16.6187 24.0908C16.4203 24.0908 16.2264 24.0316 16.0614 23.9206C15.8965 23.8097 15.7679 23.6519 15.692 23.4674C15.6161 23.2829 15.5962 23.0798 15.6349 22.8839C15.6736 22.688 15.7692 22.5081 15.9094 22.3668C16.0497 22.2256 16.2284 22.1294 16.423 22.0904C16.6176 22.0515 16.8193 22.0715 17.0026 22.1479C17.1858 22.2243 17.3425 22.3538 17.4527 22.5199C17.5629 22.6859 17.6217 22.8812 17.6217 23.0809C17.6217 23.3488 17.5161 23.6056 17.328 23.795C17.1399 23.9844 16.8847 24.0908 16.6187 24.0908ZM12.6065 18.0315C13.0033 18.0315 13.3912 17.913 13.7211 17.6911C14.051 17.4691 14.3081 17.1537 14.4599 16.7846C14.6117 16.4155 14.6515 16.0094 14.5741 15.6176C14.4967 15.2258 14.3056 14.8659 14.025 14.5834C13.7445 14.301 13.387 14.1086 12.9979 14.0307C12.6088 13.9527 12.2054 13.9927 11.8388 14.1456C11.4723 14.2985 11.159 14.5574 10.9385 14.8895C10.7181 15.2217 10.6004 15.6122 10.6004 16.0117C10.6004 16.5473 10.8118 17.0611 11.188 17.4399C11.5642 17.8187 12.0745 18.0315 12.6065 18.0315ZM12.6065 15.0018C12.8049 15.0018 12.9988 15.061 13.1638 15.172C13.3287 15.2829 13.4573 15.4407 13.5332 15.6252C13.6091 15.8097 13.629 16.0128 13.5903 16.2087C13.5516 16.4046 13.4561 16.5845 13.3158 16.7258C13.1755 16.867 12.9968 16.9632 12.8022 17.0021C12.6076 17.0411 12.406 17.0211 12.2227 16.9447C12.0394 16.8682 11.8827 16.7388 11.7725 16.5727C11.6623 16.4066 11.6035 16.2114 11.6035 16.0117C11.6035 15.7438 11.7092 15.4869 11.8973 15.2976C12.0854 15.1082 12.3405 15.0018 12.6065 15.0018ZM18.6248 16.0117C18.6248 16.4111 18.7424 16.8016 18.9629 17.1338C19.1833 17.4659 19.4966 17.7248 19.8632 17.8777C20.2297 18.0306 20.6331 18.0706 21.0223 17.9926C21.4114 17.9147 21.7688 17.7223 22.0494 17.4399C22.33 17.1574 22.521 16.7975 22.5984 16.4057C22.6758 16.0139 22.6361 15.6078 22.4843 15.2387C22.3324 14.8696 22.0753 14.5542 21.7454 14.3323C21.4155 14.1103 21.0276 13.9919 20.6309 13.9919C20.0988 13.9919 19.5886 14.2047 19.2124 14.5834C18.8361 14.9622 18.6248 15.476 18.6248 16.0117ZM21.6339 16.0117C21.6339 16.2114 21.5751 16.4066 21.4649 16.5727C21.3547 16.7388 21.198 16.8682 21.0147 16.9447C20.8314 17.0211 20.6298 17.0411 20.4352 17.0021C20.2406 16.9632 20.0619 16.867 19.9216 16.7258C19.7813 16.5845 19.6858 16.4046 19.6471 16.2087C19.6084 16.0128 19.6283 15.8097 19.7042 15.6252C19.7801 15.4407 19.9087 15.2829 20.0736 15.172C20.2386 15.061 20.4325 15.0018 20.6309 15.0018C20.8969 15.0018 21.152 15.1082 21.3401 15.2976C21.5282 15.4869 21.6339 15.7438 21.6339 16.0117ZM14.1111 19.0413H13.1081C12.975 19.0413 12.8475 19.0945 12.7534 19.1892C12.6594 19.2839 12.6065 19.4124 12.6065 19.5463C12.6065 19.6802 12.6594 19.8087 12.7534 19.9033C12.8475 19.998 12.975 20.0512 13.1081 20.0512H14.1111C14.2441 20.0512 14.3717 19.998 14.4657 19.9033C14.5598 19.8087 14.6126 19.6802 14.6126 19.5463C14.6126 19.4124 14.5598 19.2839 14.4657 19.1892C14.3717 19.0945 14.2441 19.0413 14.1111 19.0413ZM20.1294 19.0413H19.1263C18.9933 19.0413 18.8657 19.0945 18.7717 19.1892C18.6776 19.2839 18.6248 19.4124 18.6248 19.5463C18.6248 19.6802 18.6776 19.8087 18.7717 19.9033C18.8657 19.998 18.9933 20.0512 19.1263 20.0512H20.1294C20.2624 20.0512 20.3899 19.998 20.484 19.9033C20.578 19.8087 20.6309 19.6802 20.6309 19.5463C20.6309 19.4124 20.578 19.2839 20.484 19.1892C20.3899 19.0945 20.2624 19.0413 20.1294 19.0413ZM16.1172 15.0018C15.9842 15.0018 15.8566 15.055 15.7626 15.1497C15.6685 15.2444 15.6157 15.3728 15.6157 15.5067C15.6157 15.6406 15.6685 15.7691 15.7626 15.8638C15.8566 15.9585 15.9842 16.0117 16.1172 16.0117H17.1202C17.2532 16.0117 17.3808 15.9585 17.4749 15.8638C17.5689 15.7691 17.6217 15.6406 17.6217 15.5067C17.6217 15.3728 17.5689 15.2444 17.4749 15.1497C17.3808 15.055 17.2532 15.0018 17.1202 15.0018H16.1172ZM12.105 12.982H13.1081C13.2411 12.982 13.3686 12.9288 13.4627 12.8341C13.5567 12.7394 13.6096 12.6109 13.6096 12.477C13.6096 12.3431 13.5567 12.2147 13.4627 12.12C13.3686 12.0253 13.2411 11.9721 13.1081 11.9721H12.105C11.972 11.9721 11.8444 12.0253 11.7504 12.12C11.6563 12.2147 11.6035 12.3431 11.6035 12.477C11.6035 12.6109 11.6563 12.7394 11.7504 12.8341C11.8444 12.9288 11.972 12.982 12.105 12.982ZM20.1294 12.982H21.1324C21.2654 12.982 21.393 12.9288 21.487 12.8341C21.5811 12.7394 21.6339 12.6109 21.6339 12.477C21.6339 12.3431 21.5811 12.2147 21.487 12.12C21.393 12.0253 21.2654 11.9721 21.1324 11.9721H20.1294C19.9963 11.9721 19.8688 12.0253 19.7747 12.12C19.6807 12.2147 19.6278 12.3431 19.6278 12.477C19.6278 12.6109 19.6807 12.7394 19.7747 12.8341C19.8688 12.9288 19.9963 12.982 20.1294 12.982Z" fill="#525252"/>
</g>
<defs>
<clipPath id="clip0_1_2045">
<rect width="32.0974" height="32.3167" fill="white" transform="translate(0.570312 0.863281)"/>
</clipPath>
</defs>
</svg>
