<svg width="88" height="88" viewBox="0 0 88 88" fill="none" xmlns="http://www.w3.org/2000/svg">
<g filter="url(#filter0_d_1_4929)">
<circle cx="44" cy="40" r="40" fill="#0F4DA2"/>
</g>
<path d="M39.75 47.65L51.65 40L39.75 32.35V47.65ZM44 57C41.6483 57 39.4383 56.5537 37.37 55.6613C35.3017 54.7688 33.5025 53.5575 31.9725 52.0275C30.4425 50.4975 29.2313 48.6983 28.3388 46.63C27.4462 44.5617 27 42.3517 27 40C27 37.6483 27.4462 35.4383 28.3388 33.37C29.2313 31.3017 30.4425 29.5025 31.9725 27.9725C33.5025 26.4425 35.3017 25.2313 37.37 24.3388C39.4383 23.4462 41.6483 23 44 23C46.3517 23 48.5617 23.4462 50.63 24.3388C52.6983 25.2313 54.4975 26.4425 56.0275 27.9725C57.5575 29.5025 58.7688 31.3017 59.6613 33.37C60.5537 35.4383 61 37.6483 61 40C61 42.3517 60.5537 44.5617 59.6613 46.63C58.7688 48.6983 57.5575 50.4975 56.0275 52.0275C54.4975 53.5575 52.6983 54.7688 50.63 55.6613C48.5617 56.5537 46.3517 57 44 57ZM44 53.6C47.7967 53.6 51.0125 52.2825 53.6475 49.6475C56.2825 47.0125 57.6 43.7967 57.6 40C57.6 36.2033 56.2825 32.9875 53.6475 30.3525C51.0125 27.7175 47.7967 26.4 44 26.4C40.2033 26.4 36.9875 27.7175 34.3525 30.3525C31.7175 32.9875 30.4 36.2033 30.4 40C30.4 43.7967 31.7175 47.0125 34.3525 49.6475C36.9875 52.2825 40.2033 53.6 44 53.6Z" fill="#F6F6F6"/>
<defs>
<filter id="filter0_d_1_4929" x="0" y="0" width="88" height="88" filterUnits="userSpaceOnUse" color-interpolation-filters="sRGB">
<feFlood flood-opacity="0" result="BackgroundImageFix"/>
<feColorMatrix in="SourceAlpha" type="matrix" values="0 0 0 0 0 0 0 0 0 0 0 0 0 0 0 0 0 0 127 0" result="hardAlpha"/>
<feOffset dy="4"/>
<feGaussianBlur stdDeviation="2"/>
<feComposite in2="hardAlpha" operator="out"/>
<feColorMatrix type="matrix" values="0 0 0 0 0 0 0 0 0 0 0 0 0 0 0 0 0 0 0.2 0"/>
<feBlend mode="normal" in2="BackgroundImageFix" result="effect1_dropShadow_1_4929"/>
<feBlend mode="normal" in="SourceGraphic" in2="effect1_dropShadow_1_4929" result="shape"/>
</filter>
</defs>
</svg>
