<svg width="10" height="16" viewBox="0 0 10 16" fill="none" xmlns="http://www.w3.org/2000/svg">
<path d="M5 15.1794C3.52778 15.1794 2.32639 14.9675 1.39583 14.5438C0.465278 14.12 0 13.573 0 12.9026C0 12.4598 0.201389 12.0741 0.604167 11.7452C1.00694 11.4163 1.5625 11.157 2.27083 10.9673L2.75 12.4093C2.51389 12.4725 2.29861 12.5516 2.10417 12.6464C1.90972 12.7413 1.77778 12.8267 1.70833 12.9026C1.88889 13.105 2.30556 13.282 2.95833 13.4338C3.61111 13.5856 4.29167 13.6615 5 13.6615C5.70833 13.6615 6.39236 13.5856 7.05208 13.4338C7.71181 13.282 8.13194 13.105 8.3125 12.9026C8.24306 12.8267 8.11111 12.7413 7.91667 12.6464C7.72222 12.5516 7.50694 12.4725 7.27083 12.4093L7.75 10.9673C8.45833 11.157 9.01042 11.4163 9.40625 11.7452C9.80208 12.0741 10 12.4598 10 12.9026C10 13.573 9.53472 14.12 8.60417 14.5438C7.67361 14.9675 6.47222 15.1794 5 15.1794ZM5 10.1134C5.25 9.69602 5.51389 9.31339 5.79167 8.96554C6.06944 8.61769 6.34028 8.28565 6.60417 7.96942C7.11806 7.36226 7.52778 6.81519 7.83333 6.3282C8.13889 5.84121 8.29167 5.23721 8.29167 4.51622C8.29167 3.68138 7.97222 2.97303 7.33333 2.39117C6.69444 1.80931 5.91667 1.51838 5 1.51838C4.08333 1.51838 3.30556 1.80931 2.66667 2.39117C2.02778 2.97303 1.70833 3.68138 1.70833 4.51622C1.70833 5.23721 1.86111 5.84121 2.16667 6.3282C2.47222 6.81519 2.88194 7.36226 3.39583 7.96942C3.65972 8.28565 3.93056 8.61769 4.20833 8.96554C4.48611 9.31339 4.75 9.69602 5 10.1134ZM5 12.9026C4.84722 12.9026 4.70833 12.8615 4.58333 12.7792C4.45833 12.697 4.36806 12.5863 4.3125 12.4472C3.99306 11.5491 3.59028 10.7965 3.10417 10.1893C2.61806 9.58218 2.14583 9.00032 1.6875 8.44376C1.24306 7.8872 0.857639 7.31167 0.53125 6.71716C0.204861 6.12265 0.0416667 5.389 0.0416667 4.51622C0.0416667 3.25131 0.520833 2.18246 1.47917 1.30967C2.4375 0.436882 3.61111 0.000488281 5 0.000488281C6.38889 0.000488281 7.5625 0.436882 8.52083 1.30967C9.47917 2.18246 9.95833 3.25131 9.95833 4.51622C9.95833 5.389 9.79861 6.12265 9.47917 6.71716C9.15972 7.31167 8.77083 7.8872 8.3125 8.44376C7.86806 9.00032 7.39931 9.58218 6.90625 10.1893C6.41319 10.7965 6.00694 11.5491 5.6875 12.4472C5.63194 12.5863 5.54167 12.697 5.41667 12.7792C5.29167 12.8615 5.15278 12.9026 5 12.9026ZM5 6.12898C5.48611 6.12898 5.90278 5.97086 6.25 5.65463C6.59722 5.33841 6.77083 4.95893 6.77083 4.51622C6.77083 4.0735 6.59722 3.69402 6.25 3.3778C5.90278 3.06157 5.48611 2.90346 5 2.90346C4.51389 2.90346 4.09722 3.06157 3.75 3.3778C3.40278 3.69402 3.22917 4.0735 3.22917 4.51622C3.22917 4.95893 3.40278 5.33841 3.75 5.65463C4.09722 5.97086 4.51389 6.12898 5 6.12898Z" fill="#525252"/>
</svg>
