<svg width="16" height="16" viewBox="0 0 16 16" fill="none" xmlns="http://www.w3.org/2000/svg">
<path d="M7.04894 1.53057C7.3483 0.609255 8.6517 0.609255 8.95106 1.53057L10.0206 4.82236C10.1545 5.23439 10.5385 5.51335 10.9717 5.51335H14.4329C15.4016 5.51335 15.8044 6.75296 15.0207 7.32236L12.2205 9.3568C11.87 9.61145 11.7234 10.0628 11.8572 10.4748L12.9268 13.7666C13.2261 14.6879 12.1717 15.4541 11.388 14.8847L8.58778 12.8502C8.2373 12.5956 7.7627 12.5956 7.41221 12.8502L4.61204 14.8847C3.82833 15.4541 2.77385 14.6879 3.0732 13.7666L4.14277 10.4748C4.27665 10.0628 4.12999 9.61145 3.7795 9.3568L0.979333 7.32236C0.195619 6.75296 0.598395 5.51335 1.56712 5.51335H5.02832C5.46154 5.51335 5.8455 5.23439 5.97937 4.82236L7.04894 1.53057Z" fill="#0F4DA2"/>
</svg>
