<svg width="51" height="50" viewBox="0 0 51 50" fill="none" xmlns="http://www.w3.org/2000/svg">
<path d="M25.8098 1.17069L31.0716 17.8356C31.2687 18.4597 31.8476 18.884 32.502 18.884H49.5893C50.0702 18.884 50.2739 19.4965 49.8887 19.7844L36.016 30.1565C35.5053 30.5383 35.2918 31.2014 35.4838 31.8095L40.771 48.5547C40.9173 49.0179 40.3838 49.3966 39.9948 49.1057L26.2312 38.8152C25.6986 38.417 24.9674 38.417 24.4348 38.8152L10.6711 49.1057C10.2821 49.3966 9.7487 49.0179 9.89494 48.5547L15.1822 31.8095C15.3742 31.2014 15.1607 30.5383 14.65 30.1565L0.777208 19.7845C0.392064 19.4965 0.595721 18.884 1.07661 18.884H18.1639C18.8184 18.884 19.3973 18.4597 19.5943 17.8356L24.8562 1.17069C25.0033 0.704757 25.6627 0.70475 25.8098 1.17069Z" stroke="#FFAD01"/>
</svg>
