<svg width="19" height="19" viewBox="0 0 19 19" fill="none" xmlns="http://www.w3.org/2000/svg">
<path d="M17.9834 16.5627L14.5834 13.1727C15.6804 11.7752 16.2756 10.0494 16.2734 8.27271C16.2734 6.69046 15.8042 5.14374 14.9252 3.82815C14.0461 2.51255 12.7967 1.48717 11.3349 0.881672C9.8731 0.276171 8.26457 0.117745 6.71272 0.426426C5.16087 0.735108 3.73541 1.49703 2.61659 2.61585C1.49777 3.73467 0.735841 5.16014 0.427159 6.71199C0.118477 8.26383 0.276904 9.87237 0.882405 11.3342C1.48791 12.796 2.51329 14.0454 3.82888 14.9245C5.14447 15.8035 6.69119 16.2727 8.27344 16.2727C10.0501 16.2749 11.7759 15.6797 13.1734 14.5827L16.5634 17.9827C16.6564 18.0764 16.767 18.1508 16.8889 18.2016C17.0107 18.2524 17.1414 18.2785 17.2734 18.2785C17.4055 18.2785 17.5362 18.2524 17.658 18.2016C17.7799 18.1508 17.8905 18.0764 17.9834 17.9827C18.0772 17.8897 18.1516 17.7791 18.2023 17.6573C18.2531 17.5354 18.2792 17.4047 18.2792 17.2727C18.2792 17.1407 18.2531 17.01 18.2023 16.8881C18.1516 16.7663 18.0772 16.6557 17.9834 16.5627ZM2.27344 8.27271C2.27344 7.08602 2.62533 5.92598 3.28462 4.93929C3.94391 3.95259 4.88098 3.18356 5.97734 2.72943C7.0737 2.27531 8.2801 2.15649 9.44398 2.388C10.6079 2.61951 11.677 3.19095 12.5161 4.03007C13.3552 4.86918 13.9266 5.93828 14.1582 7.10217C14.3897 8.26605 14.2708 9.47245 13.8167 10.5688C13.3626 11.6652 12.5936 12.6022 11.6069 13.2615C10.6202 13.9208 9.46013 14.2727 8.27344 14.2727C6.68214 14.2727 5.15602 13.6406 4.0308 12.5153C2.90558 11.3901 2.27344 9.86401 2.27344 8.27271Z" fill="#525252"/>
</svg>
