<svg width="50" height="38" viewBox="0 0 50 38" fill="none" xmlns="http://www.w3.org/2000/svg">
<path d="M23.8095 18L4.7619 8V28H26.1905V32H4.7619C3.45238 32 2.33135 31.6083 1.39881 30.825C0.46627 30.0417 0 29.1 0 28V4C0 2.9 0.46627 1.95833 1.39881 1.175C2.33135 0.391667 3.45238 0 4.7619 0H42.8571C44.1667 0 45.2877 0.391667 46.2202 1.175C47.1528 1.95833 47.619 2.9 47.619 4V18H42.8571V8L23.8095 18ZM23.8095 14L42.8571 4H4.7619L23.8095 14ZM40.4762 38L37.1429 35.2L40.8929 32H30.9524V28H40.8929L37.0833 24.8L40.4762 22L50 30L40.4762 38ZM4.7619 8V30V18V18.15V4V8Z" fill="white"/>
</svg>
