<svg width="" height="" viewBox="0 0 28 28" fill="none" xmlns="http://www.w3.org/2000/svg">
<path d="M2.8614 24.0971C2.76919 24.0976 2.67753 24.0828 2.59015 24.0534C2.40741 23.9941 2.24927 23.8762 2.14016 23.7181C2.03104 23.5599 1.97701 23.3703 1.9864 23.1784C1.9864 23.0471 2.88765 10.3421 15.6276 9.34463V4.77713C15.6275 4.60317 15.6792 4.43312 15.7762 4.28868C15.8731 4.14425 16.0109 4.03199 16.172 3.96625C16.333 3.90051 16.51 3.88427 16.6804 3.91961C16.8507 3.95495 17.0067 4.04025 17.1283 4.16463L25.7645 12.9846C25.9248 13.1482 26.0146 13.3681 26.0146 13.5971C26.0146 13.8262 25.9248 14.0461 25.7645 14.2096L17.1283 23.0296C17.0067 23.154 16.8507 23.2393 16.6804 23.2747C16.51 23.31 16.333 23.2938 16.172 23.228C16.0109 23.1623 15.8731 23.05 15.7762 22.9056C15.6792 22.7612 15.6275 22.5911 15.6276 22.4171V17.9371C7.12265 18.2609 3.63577 23.6246 3.60077 23.6903C3.52183 23.8149 3.41265 23.9176 3.28338 23.9887C3.15411 24.0599 3.00895 24.0972 2.8614 24.0971ZM17.3776 6.92088V10.1628C17.3778 10.3896 17.2898 10.6077 17.1323 10.7709C16.9748 10.9341 16.76 11.0298 16.5333 11.0378C8.29077 11.3396 5.34202 16.8303 4.28327 20.3609C6.47077 18.4709 10.3689 16.1609 16.4501 16.1609H16.4895C16.7216 16.1609 16.9441 16.2531 17.1082 16.4172C17.2723 16.5813 17.3645 16.8038 17.3645 17.0359V20.2778L23.927 13.6015L17.3776 6.92088Z" fill="#525252"/>
</svg>
