<svg width="" height="" viewBox="0 0 20 20" fill="none" xmlns="http://www.w3.org/2000/svg">
<path d="M1.81818 17.2905H15.3545V18.9H1.81818C1.34476 18.9 0.942052 18.7334 0.604633 18.3976C0.267227 18.0618 0.1 17.6612 0.1 17.1905V5.52857H1.71818V17.1905V17.2905H1.81818ZM5.35455 13.6714H5.45455H11.8182H18.1818H18.2818V13.5714V7.73571V7.56167L18.1315 7.64932L11.8182 11.3295L5.50491 7.64932L5.35455 7.56167V7.73571V13.5714V13.6714ZM4.54993 4.38427L4.55064 4.38385L11.8181 0.116013L13.8812 1.33119L12.6666 2.49965L11.8681 2.03954L11.8178 2.01055L11.7677 2.03989L5.58584 5.65894L5.43843 5.74524L5.58584 5.83154L11.7677 9.45058L11.8182 9.48016L11.8687 9.45058L18.0505 5.83154L18.1974 5.74556L18.0508 5.6591L16.935 5.00103L18.1078 3.83378L19.0864 4.38427C19.0866 4.38435 19.0867 4.38444 19.0869 4.38453C19.3583 4.54099 19.56 4.75286 19.6947 5.02108C19.8318 5.29384 19.9 5.58008 19.9 5.88095V13.5714C19.9 14.0422 19.7328 14.4427 19.3954 14.7785C19.0579 15.1143 18.6552 15.281 18.1818 15.281H5.45455C4.98112 15.281 4.57842 15.1143 4.241 14.7785C3.90359 14.4427 3.73636 14.0422 3.73636 13.5714V5.88095C3.73636 5.58008 3.8046 5.29384 3.94163 5.02108C4.07646 4.75271 4.27834 4.54075 4.54993 4.38427ZM11.6113 5.6804L11.6818 5.75061L11.7524 5.6804L15.9091 1.54347L17.0401 2.66905L11.6818 8.00177L9.27812 5.60952L10.4091 4.48394L11.6113 5.6804Z" fill="#0F4DA2" stroke="white" stroke-width="0.2"/>
</svg>
