<svg width="224" height="71" viewBox="0 0 224 71" fill="none" xmlns="http://www.w3.org/2000/svg">
<path d="M49.2501 33.3023C49.2539 34.1423 48.8326 34.4163 48.1677 34.0776C46.9852 33.4754 45.8065 32.8637 44.6533 32.2072C44.1253 31.9066 43.6984 31.8648 43.1487 32.1863C42.0238 32.8447 40.8602 33.4374 39.6919 34.0167C39.4378 34.1423 38.9911 34.2289 38.8277 34.0938C38.6237 33.9254 38.5103 33.4935 38.55 33.2024C38.7427 31.7905 39.0232 30.3911 39.2149 28.9793C39.2527 28.7024 39.1129 28.3105 38.9164 28.1059C37.9786 27.1289 36.9774 26.2137 36.0377 25.2385C35.811 25.0035 35.5409 24.5345 35.6334 24.3319C35.759 24.0579 36.1954 23.8286 36.5316 23.7687C37.8577 23.5318 39.2017 23.3938 40.5277 23.1598C40.8064 23.1103 41.1426 22.8639 41.2767 22.6128C41.9057 21.4397 42.4488 20.2201 43.0779 19.0471C43.2526 18.7207 43.6275 18.2765 43.8929 18.2888C44.1791 18.3012 44.5276 18.7407 44.7043 19.0727C45.3201 20.2277 45.8868 21.4093 46.4412 22.5956C46.6178 22.9752 46.8482 23.1398 47.2638 23.1902C48.6012 23.3529 49.9367 23.5384 51.2637 23.7706C51.5849 23.8267 52.0316 24.035 52.1232 24.2843C52.2092 24.5183 51.9778 24.9721 51.7567 25.2033C50.7858 26.2127 49.7554 27.1631 48.7797 28.1678C48.6116 28.3409 48.502 28.6872 48.537 28.9279C48.7533 30.4263 49.0196 31.9209 49.2501 33.3023Z" fill="white"/>
<path d="M62.8297 22.2445C60.9153 11.7319 50.7979 4.76984 40.3283 6.71443C31.2414 8.39548 24.5913 16.4773 24.5752 26.6445C24.6083 29.94 25.7775 33.6808 28.1246 37.0172C32.8848 43.7976 37.662 50.5703 42.4298 57.3506C43.2638 58.5284 44.4746 58.5284 45.3086 57.3592C50.0782 50.5779 54.8715 43.8137 59.6072 37.0248C62.723 32.5601 63.8111 27.5997 62.8297 22.2445ZM43.8777 39.6078C36.6467 39.6078 30.7843 33.7036 30.7843 26.42C30.7843 19.1364 36.6457 13.2313 43.8777 13.2313C51.1087 13.2313 56.9711 19.1354 56.9711 26.42C56.9701 33.7027 51.1087 39.6078 43.8777 39.6078Z" fill="white"/>
<path d="M11.6142 58.2668C10.7226 57.422 9.91888 56.4173 9.27191 55.2909C8.72977 54.3928 7.57561 54.0932 6.66702 54.6221C5.77542 55.1501 5.47791 56.3308 6.00304 57.2288C6.84175 58.673 7.87407 59.9764 9.02729 61.0676C9.39469 61.4025 9.86599 61.5785 10.3212 61.5785C10.8284 61.5785 11.3356 61.3673 11.7021 60.962C12.418 60.1866 12.383 58.9889 11.6142 58.2668Z" fill="white"/>
<path d="M39.0101 59.3239C37.856 58.9015 36.7897 58.6551 35.7403 58.5666C35.2161 58.5314 34.691 58.4962 34.1498 58.4962C33.1184 58.461 32.2438 59.3067 32.2268 60.3628C32.2089 61.4197 33.0485 62.2826 34.0979 62.2997C34.5352 62.3168 34.9895 62.3349 35.4268 62.3701C36.1436 62.4405 36.8954 62.6165 37.7171 62.9162C37.9448 62.9866 38.1544 63.0218 38.3641 63.0218C39.1509 63.0218 39.8677 62.5461 40.1473 61.7717C40.4958 60.768 39.9886 59.6759 39.0101 59.3239Z" fill="white"/>
<path d="M28.4147 59.007C27.0509 59.2715 25.705 59.5702 24.394 59.8879L24.0795 59.9583C23.0651 60.2047 22.4361 61.2265 22.6637 62.2473C22.8734 63.1283 23.6602 63.7267 24.5168 63.7267C24.6566 63.7267 24.7964 63.7086 24.9541 63.6734L25.2686 63.603C26.5796 63.2862 27.8216 63.0046 29.0796 62.7753C30.111 62.5813 30.7929 61.5776 30.6012 60.5568C30.4255 59.5179 29.4291 58.831 28.4147 59.007Z" fill="white"/>
<path d="M19.0268 60.9613C17.8206 61.085 16.6315 60.9613 15.4953 60.6093C14.4989 60.2925 13.4326 60.8557 13.135 61.8594C12.8205 62.8631 13.3627 63.92 14.3761 64.2368C15.5822 64.624 16.8582 64.8181 18.1352 64.8181C18.5545 64.8181 18.9739 64.8 19.3942 64.7648C20.4255 64.6592 21.1953 63.7259 21.0905 62.669C20.9856 61.631 20.0761 60.8557 19.0268 60.9613Z" fill="white"/>
<path d="M83.2505 47.0694C80.7336 47.0694 77.6776 46.3904 74.6665 44.806L77.5202 39.2153C79.1157 40.347 80.6662 40.9581 82.4414 40.9581C85.0929 40.9581 86.4413 39.3511 86.4413 35.5257V13.9097H93.1826V36.7931C93.1826 43.4928 89.1379 47.0694 83.2505 47.0694ZM121.945 34.6431L121.877 36.2049H104.754C105.024 40.0753 107.586 41.9314 110.664 41.9314C112.979 41.9314 114.776 40.845 115.653 38.7853L121.585 39.668C120.057 44.3761 115.9 47.0696 110.709 47.0696C103.249 47.0696 98.3726 42.6331 98.3726 34.9829C98.3726 27.3326 103.384 22.8507 110.507 22.8507C117.046 22.8507 121.922 26.4947 121.945 34.6431ZM110.553 27.468C107.609 27.468 105.564 28.8487 104.935 31.9496H115.541C115.204 28.9845 113.205 27.468 110.553 27.468ZM133.069 27.0378C134.237 24.978 137.271 23.0767 140.619 23.0767V28.8939C135.72 28.8939 133.383 30.3425 133.383 35.2768V46.6167H126.867V23.3486H133.069L133.069 27.0378ZM164.102 13.9106V19.8861H156.394V46.617H149.72V19.8861H141.968V13.9106H164.102ZM187.291 40.3017C187.291 43.1537 187.561 44.9644 187.853 45.9831V46.6168H181.808L181.291 44.0816C179.561 46.1866 176.572 47.0695 173.876 47.0695C170.235 47.0695 166.685 45.4398 166.685 40.5959C166.685 35.7747 170.258 34.1451 175.089 33.0812L178.887 32.2211C180.527 31.8363 181.111 31.2705 181.111 30.3198C181.111 28.0338 179.044 27.3999 177.224 27.3999C174.887 27.3999 173.112 28.3279 172.707 30.9535L166.977 29.9123C167.943 25.0911 171.449 22.8957 177.583 22.8957C182.212 22.8957 187.291 24.2764 187.291 31.293L187.291 40.3017ZM175.898 42.6557C178.977 42.6557 181.449 40.5959 181.449 35.9784L175.966 37.5402C174.168 37.9702 172.865 38.604 172.865 40.1657C172.865 41.8407 174.235 42.6557 175.898 42.6557ZM207.133 22.8966C213.223 22.8966 218.256 27.401 218.256 35.0288C218.256 42.6566 213.223 47.1609 207.133 47.1609C204.122 47.1609 201.425 45.984 200.055 43.8563V57.9349H193.583V23.349H199.718L199.897 26.4727C201.178 24.164 203.987 22.8966 207.133 22.8966ZM205.672 41.7503C209.065 41.7503 211.785 39.2606 211.785 35.0279C211.785 30.7951 209.066 28.3054 205.672 28.3054C202.212 28.3054 199.515 30.9537 199.515 35.0279C199.515 39.102 202.212 41.7503 205.672 41.7503Z" fill="white"/>
</svg>
