 <svg
width="42"
height="41"
viewBox="0 0 42 41"
fill="none"
xmlns="http://www.w3.org/2000/svg"
>
<path
    d="M3.81818 40.3164C2.76818 40.3164 1.86932 39.9305 1.12159 39.1587C0.373864 38.387 0 37.4592 0 36.3754V12.7293C0 11.6455 0.373864 10.7177 1.12159 9.94595C1.86932 9.17417 2.76818 8.78828 3.81818 8.78828H9.83182L13.3636 4.84727H24.8182V8.78828H15.0341L11.55 12.7293H3.81818V36.3754H34.3636V18.6408H38.1818V36.3754C38.1818 37.4592 37.808 38.387 37.0602 39.1587C36.3125 39.9305 35.4136 40.3164 34.3636 40.3164H3.81818ZM34.3636 12.7293V8.78828H30.5455V4.84727H34.3636V0.90625H38.1818V4.84727H42V8.78828H38.1818V12.7293H34.3636ZM19.0909 33.4196C21.4773 33.4196 23.5057 32.5575 25.1761 30.8333C26.8466 29.1091 27.6818 27.0155 27.6818 24.5523C27.6818 22.0892 26.8466 19.9955 25.1761 18.2714C23.5057 16.5472 21.4773 15.6851 19.0909 15.6851C16.7045 15.6851 14.6761 16.5472 13.0057 18.2714C11.3352 19.9955 10.5 22.0892 10.5 24.5523C10.5 27.0155 11.3352 29.1091 13.0057 30.8333C14.6761 32.5575 16.7045 33.4196 19.0909 33.4196ZM19.0909 29.4786C17.7545 29.4786 16.625 29.0024 15.7023 28.05C14.7795 27.0976 14.3182 25.9317 14.3182 24.5523C14.3182 23.173 14.7795 22.0071 15.7023 21.0547C16.625 20.1023 17.7545 19.6261 19.0909 19.6261C20.4273 19.6261 21.5568 20.1023 22.4795 21.0547C23.4023 22.0071 23.8636 23.173 23.8636 24.5523C23.8636 25.9317 23.4023 27.0976 22.4795 28.05C21.5568 29.0024 20.4273 29.4786 19.0909 29.4786Z"
    fill="white"
/>
</svg>