<svg
        width="20"
        height="20"
        viewBox="0 0 20 20"
        fill="none"
        xmlns="http://www.w3.org/2000/svg"
      >
        <path
          d="M3.33333 20C2.40741 20 1.62037 19.7083 0.972222 19.125C0.324074 18.5417 0 17.8333 0 17V14H3.33333V0H20V17C20 17.8333 19.6759 18.5417 19.0278 19.125C18.3796 19.7083 17.5926 20 16.6667 20H3.33333ZM16.6667 18C16.9815 18 17.2454 17.9042 17.4583 17.7125C17.6713 17.5208 17.7778 17.2833 17.7778 17V2H5.55556V14H15.5556V17C15.5556 17.2833 15.662 17.5208 15.875 17.7125C16.088 17.9042 16.3519 18 16.6667 18ZM6.66667 7V5H16.6667V7H6.66667ZM6.66667 10V8H16.6667V10H6.66667ZM3.33333 18H13.3333V16H2.22222V17C2.22222 17.2833 2.3287 17.5208 2.54167 17.7125C2.75463 17.9042 3.01852 18 3.33333 18ZM3.33333 18H2.22222H13.3333H3.33333Z"
          fill="#525252"
        />
      </svg>