
                <svg
                  width="18"
                  height="18"
                  viewBox="0 0 18 18"
                  fill="none"
                  xmlns="http://www.w3.org/2000/svg"
                >
                  <path
                    d="M15.7371 14.6716L13.1871 12.1291C14.0098 11.0809 14.4562 9.7866 14.4546 8.4541C14.4546 7.26742 14.1027 6.10738 13.4434 5.12068C12.7841 4.13399 11.847 3.36495 10.7507 2.91083C9.65434 2.4567 8.44794 2.33788 7.28405 2.56939C6.12016 2.8009 5.05107 3.37235 4.21195 4.21146C3.37284 5.05058 2.80139 6.11968 2.56988 7.28356C2.33837 8.44745 2.45719 9.65385 2.91132 10.7502C3.36544 11.8466 4.13448 12.7836 5.12117 13.4429C6.10787 14.1022 7.2679 14.4541 8.45459 14.4541C9.78708 14.4558 11.0814 14.0093 12.1296 13.1866L14.6721 15.7366C14.7418 15.8069 14.8248 15.8627 14.9162 15.9008C15.0076 15.9388 15.1056 15.9585 15.2046 15.9585C15.3036 15.9585 15.4016 15.9388 15.493 15.9008C15.5844 15.8627 15.6674 15.8069 15.7371 15.7366C15.8074 15.6669 15.8632 15.5839 15.9013 15.4925C15.9393 15.4011 15.9589 15.3031 15.9589 15.2041C15.9589 15.1051 15.9393 15.0071 15.9013 14.9157C15.8632 14.8243 15.8074 14.7413 15.7371 14.6716ZM3.95459 8.4541C3.95459 7.56409 4.21851 6.69406 4.71298 5.95404C5.20745 5.21402 5.91025 4.63724 6.73252 4.29665C7.55478 3.95605 8.45958 3.86694 9.3325 4.04057C10.2054 4.2142 11.0072 4.64279 11.6366 5.27212C12.2659 5.90146 12.6945 6.70328 12.8681 7.5762C13.0418 8.44911 12.9526 9.35391 12.6121 10.1762C12.2715 10.9984 11.6947 11.7013 10.9547 12.1957C10.2146 12.6902 9.34461 12.9541 8.45459 12.9541C7.26112 12.9541 6.11653 12.48 5.27261 11.6361C4.4287 10.7922 3.95459 9.64758 3.95459 8.4541Z"
                    fill="#525252"
                  />
                </svg>