<svg
        width="22"
        height="22"
        viewBox="0 0 22 22"
        fill="none"
        xmlns="http://www.w3.org/2000/svg"
      >
        <path
          d="M21 8.56632V11.8342C21 12.4597 20.7801 13.0648 20.3798 13.5411L19.6296 14.4324V20.4737C19.6296 20.6133 19.5748 20.7471 19.4774 20.8458C19.3799 20.9445 19.2477 21 19.1098 21C18.972 21 18.8398 20.9445 18.7423 20.8458C18.6449 20.7471 18.5901 20.6133 18.5901 20.4737V14.2386C18.59 14.1135 18.6339 13.9925 18.7139 13.8973L19.588 12.858C19.8285 12.5725 19.9606 12.2095 19.9605 11.8342V8.56632C19.9605 8.42673 20.0153 8.29286 20.1127 8.19415C20.2102 8.09545 20.3424 8.04 20.4803 8.04C20.6181 8.04 20.7503 8.09545 20.8478 8.19415C20.9452 8.29286 21 8.42673 21 8.56632ZM16.8217 12.8586C16.5815 12.5727 16.4494 12.2096 16.4492 11.8342V8.56632C16.4492 8.42673 16.3944 8.29286 16.297 8.19415C16.1995 8.09545 16.0673 8.04 15.9294 8.04C15.7916 8.04 15.6594 8.09545 15.5619 8.19415C15.4645 8.29286 15.4097 8.42673 15.4097 8.56632V11.8342C15.4102 12.4595 15.63 13.0642 16.0299 13.5406L16.7811 14.4324V20.4737C16.7811 20.6133 16.8359 20.7471 16.9334 20.8458C17.0308 20.9445 17.163 21 17.3009 21C17.4387 21 17.5709 20.9445 17.6684 20.8458C17.7659 20.7471 17.8206 20.6133 17.8206 20.4737V14.2386C17.8208 14.1135 17.7769 13.9925 17.6968 13.8973L16.8217 12.8586ZM17.4471 8.04C17.3788 8.03996 17.3112 8.05355 17.2481 8.07998C17.185 8.10642 17.1277 8.14518 17.0795 8.19407C17.0312 8.24295 16.9929 8.30098 16.9668 8.36486C16.9407 8.42873 16.9273 8.49719 16.9273 8.56632V11.6435C16.9273 11.7831 16.9821 11.917 17.0795 12.0157C17.177 12.1144 17.3092 12.1698 17.4471 12.1698C17.5849 12.1698 17.7171 12.1144 17.8146 12.0157C17.912 11.917 17.9668 11.7831 17.9668 11.6435V8.56632C17.9668 8.49719 17.9534 8.42873 17.9273 8.36486C17.9012 8.30098 17.8629 8.24295 17.8147 8.19407C17.7664 8.14518 17.7091 8.10642 17.646 8.07998C17.5829 8.05355 17.5153 8.03996 17.4471 8.04ZM18.9637 12.1698C19.0319 12.1699 19.0995 12.1563 19.1626 12.1299C19.2257 12.1034 19.283 12.0646 19.3313 12.0158C19.3795 11.9669 19.4178 11.9088 19.4439 11.845C19.47 11.7811 19.4835 11.7126 19.4834 11.6435V8.56632C19.4834 8.42673 19.4287 8.29286 19.3312 8.19415C19.2337 8.09545 19.1015 8.04 18.9637 8.04C18.8258 8.04 18.6936 8.09545 18.5962 8.19415C18.4987 8.29286 18.4439 8.42673 18.4439 8.56632V11.6435C18.4439 11.7126 18.4573 11.7811 18.4834 11.845C18.5095 11.9088 18.5478 11.9669 18.5961 12.0157C18.6443 12.0646 18.7016 12.1034 18.7647 12.1298C18.8278 12.1563 18.8954 12.1699 18.9637 12.1698ZM15.8858 6.66303V1.52632C15.8858 1.45719 15.8724 1.38873 15.8463 1.32486C15.8202 1.26098 15.7819 1.20295 15.7337 1.15407C15.6854 1.10519 15.6281 1.06642 15.565 1.03998C15.5019 1.01355 15.4343 0.999961 15.3661 1H1.51974C1.45148 0.999961 1.38388 1.01355 1.3208 1.03998C1.25773 1.06642 1.20041 1.10519 1.15214 1.15407C1.10387 1.20295 1.06559 1.26098 1.03949 1.32486C1.01338 1.38873 0.999962 1.45719 1 1.52632V20.4737C0.999962 20.5428 1.01338 20.6113 1.03949 20.6751C1.06559 20.739 1.10387 20.7971 1.15214 20.8459C1.20041 20.8948 1.25773 20.9336 1.3208 20.96C1.38388 20.9865 1.45148 21 1.51974 21H12.6425L12.644 20.9997L12.6455 21C12.7138 21 12.7814 20.9865 12.8445 20.96C12.9075 20.9336 12.9648 20.8948 13.0131 20.8459C13.0614 20.7971 13.0997 20.739 13.1258 20.6751C13.1519 20.6113 13.1653 20.5428 13.1653 20.4737V16.974C13.1653 16.8578 13.1274 16.745 13.0574 16.6529C12.9874 16.5609 12.8894 16.4949 12.7785 16.4651L11.9227 16.2354C11.7952 16.2008 11.6854 16.1184 11.6155 16.005C11.5456 15.8916 11.5208 15.7555 11.5461 15.6243L12.7257 9.58656C12.755 9.43724 12.838 9.30427 12.9587 9.21351C13.0794 9.12275 13.2291 9.08069 13.3788 9.09549C13.5284 9.1103 13.6672 9.18092 13.7683 9.29362C13.8693 9.40632 13.9254 9.55305 13.9256 9.70528V20.4737C13.9256 20.6133 13.9803 20.7471 14.0778 20.8458C14.1753 20.9445 14.3075 21 14.4453 21C14.5832 21 14.7154 20.9445 14.8128 20.8458C14.9103 20.7471 14.9651 20.6133 14.9651 20.4737V9.70526C14.9649 9.29168 14.8129 8.89293 14.5385 8.58659C14.2641 8.28026 13.887 8.08825 13.4805 8.04792C13.074 8.00759 12.6673 8.12183 12.3394 8.36841C12.0115 8.61499 11.7859 8.97627 11.7065 9.38197L10.5269 15.4197C10.4507 15.8134 10.525 16.2217 10.7348 16.562C10.9445 16.9024 11.2741 17.1494 11.6568 17.2531L12.1258 17.379V19.9474H2.03949V2.05263H14.8463V6.66303C14.8463 6.80262 14.9011 6.93649 14.9985 7.03519C15.096 7.1339 15.2282 7.18935 15.3661 7.18935C15.5039 7.18935 15.6361 7.1339 15.7336 7.03519C15.831 6.93649 15.8858 6.80262 15.8858 6.66303ZM11.468 7.52653C11.468 7.4574 11.4546 7.38894 11.4285 7.32507C11.4024 7.2612 11.3641 7.20316 11.3158 7.15428C11.2676 7.1054 11.2103 7.06663 11.1472 7.04019C11.0841 7.01376 11.0165 7.00017 10.9482 7.00021H6.47863C6.34079 7.00021 6.20859 7.05566 6.11112 7.15436C6.01365 7.25307 5.95889 7.38694 5.95889 7.52653C5.95889 7.66611 6.01365 7.79998 6.11112 7.89869C6.20859 7.99739 6.34079 8.05284 6.47863 8.05284H10.9482C11.0165 8.05288 11.0841 8.03929 11.1472 8.01286C11.2103 7.98642 11.2676 7.94766 11.3158 7.89877C11.3641 7.84989 11.4024 7.79186 11.4285 7.72798C11.4546 7.66411 11.468 7.59565 11.468 7.52653ZM4.54989 7.0038H4.26363C4.12578 7.0038 3.99359 7.05925 3.89611 7.15795C3.79864 7.25666 3.74388 7.39053 3.74388 7.53012C3.74388 7.6697 3.79864 7.80357 3.89611 7.90228C3.99359 8.00098 4.12578 8.05643 4.26363 8.05643H4.54989C4.68774 8.05643 4.81994 8.00098 4.91741 7.90228C5.01488 7.80357 5.06964 7.6697 5.06964 7.53012C5.06964 7.39053 5.01488 7.25666 4.91741 7.15795C4.81994 7.05925 4.68774 7.0038 4.54989 7.0038ZM10.6153 9.48427C10.6153 9.41515 10.6019 9.34669 10.5758 9.28281C10.5497 9.21894 10.5114 9.1609 10.4632 9.11202C10.4149 9.06314 10.3576 9.02437 10.2945 8.99794C10.2314 8.9715 10.1638 8.95792 10.0956 8.95796H6.47863C6.34079 8.95796 6.20859 9.01341 6.11112 9.11211C6.01365 9.21082 5.95889 9.34469 5.95889 9.48427C5.95889 9.62386 6.01365 9.75773 6.11112 9.85644C6.20859 9.95514 6.34079 10.0106 6.47863 10.0106H10.0955C10.1638 10.0106 10.2314 9.99704 10.2945 9.97061C10.3575 9.94417 10.4149 9.90541 10.4631 9.85652C10.5114 9.80764 10.5497 9.74961 10.5758 9.68573C10.6019 9.62186 10.6153 9.5534 10.6153 9.48427ZM4.54989 8.95847H4.26363C4.12578 8.95847 3.99359 9.01393 3.89611 9.11263C3.79864 9.21133 3.74388 9.3452 3.74388 9.48479C3.74388 9.62438 3.79864 9.75825 3.89611 9.85695C3.99359 9.95566 4.12578 10.0111 4.26363 10.0111H4.54989C4.68774 10.0111 4.81994 9.95566 4.91741 9.85695C5.01488 9.75825 5.06964 9.62438 5.06964 9.48479C5.06964 9.3452 5.01488 9.21133 4.91741 9.11263C4.81994 9.01393 4.68774 8.95847 4.54989 8.95847ZM10.2305 11.442C10.2306 11.3729 10.2172 11.3044 10.1911 11.2406C10.1649 11.1767 10.1267 11.1187 10.0784 11.0698C10.0301 11.0209 9.97281 10.9821 9.90974 10.9557C9.84666 10.9293 9.77906 10.9157 9.7108 10.9157H6.47863C6.34079 10.9157 6.20859 10.9712 6.11112 11.0699C6.01365 11.1686 5.95889 11.3024 5.95889 11.442C5.95889 11.5816 6.01365 11.7155 6.11112 11.8142C6.20859 11.9129 6.34079 11.9683 6.47863 11.9683H9.7108C9.77906 11.9684 9.84666 11.9548 9.90974 11.9284C9.97281 11.9019 10.0301 11.8632 10.0784 11.8143C10.1267 11.7654 10.1649 11.7074 10.1911 11.6435C10.2172 11.5796 10.2306 11.5111 10.2305 11.442ZM4.54989 10.9137H4.26363C4.12578 10.9137 3.99359 10.9691 3.89611 11.0678C3.79864 11.1665 3.74388 11.3004 3.74388 11.44C3.74388 11.5796 3.79864 11.7135 3.89611 11.8122C3.99359 11.9109 4.12578 11.9663 4.26363 11.9663H4.54989C4.68774 11.9663 4.81994 11.9109 4.91741 11.8122C5.01488 11.7135 5.06964 11.5796 5.06964 11.44C5.06964 11.3004 5.01488 11.1665 4.91741 11.0678C4.81994 10.9691 4.68774 10.9137 4.54989 10.9137ZM9.85697 13.3895C9.85701 13.3203 9.84359 13.2519 9.81749 13.188C9.79138 13.1241 9.7531 13.0661 9.70483 13.0172C9.65656 12.9683 9.59925 12.9296 9.53617 12.9031C9.47309 12.8767 9.40549 12.8631 9.33722 12.8632H6.47863C6.34079 12.8632 6.20859 12.9186 6.11112 13.0173C6.01365 13.116 5.95889 13.2499 5.95889 13.3895C5.95889 13.5291 6.01365 13.6629 6.11112 13.7616C6.20859 13.8603 6.34079 13.9158 6.47863 13.9158H9.33722C9.40549 13.9158 9.47309 13.9022 9.53617 13.8758C9.59925 13.8494 9.65656 13.8106 9.70483 13.7617C9.7531 13.7128 9.79138 13.6548 9.81749 13.5909C9.84359 13.5271 9.85701 13.4586 9.85697 13.3895ZM4.54989 12.8683H4.26363C4.12578 12.8683 3.99359 12.9238 3.89611 13.0225C3.79864 13.1212 3.74388 13.255 3.74388 13.3946C3.74388 13.5342 3.79864 13.6681 3.89611 13.7668C3.99359 13.8655 4.12578 13.9209 4.26363 13.9209H4.54989C4.68774 13.9209 4.81994 13.8655 4.91741 13.7668C5.01488 13.6681 5.06964 13.5342 5.06964 13.3946C5.06964 13.255 5.01488 13.1212 4.91741 13.0225C4.81994 12.9238 4.68774 12.8683 4.54989 12.8683ZM8.95249 14.8209H6.47863C6.34079 14.8209 6.20859 14.8764 6.11112 14.9751C6.01365 15.0738 5.95889 15.2077 5.95889 15.3473C5.95889 15.4869 6.01365 15.6207 6.11112 15.7194C6.20859 15.8181 6.34079 15.8736 6.47863 15.8736H8.95249C9.09033 15.8736 9.22253 15.8181 9.32 15.7194C9.41747 15.6207 9.47223 15.4869 9.47223 15.3473C9.47223 15.2077 9.41747 15.0738 9.32 14.9751C9.22253 14.8764 9.09033 14.8209 8.95249 14.8209ZM4.54989 14.8231H4.26363C4.12578 14.8231 3.99359 14.8785 3.89611 14.9772C3.79864 15.0759 3.74388 15.2098 3.74388 15.3494C3.74388 15.489 3.79864 15.6228 3.89611 15.7215C3.99359 15.8202 4.12578 15.8757 4.26363 15.8757H4.54989C4.68774 15.8757 4.81994 15.8202 4.91741 15.7215C5.01488 15.6228 5.06964 15.489 5.06964 15.3494C5.06964 15.2098 5.01488 15.0759 4.91741 14.9772C4.81994 14.8785 4.68774 14.8231 4.54989 14.8231ZM12.3379 4.63287C12.338 4.56375 12.3246 4.49529 12.2985 4.43141C12.2723 4.36754 12.2341 4.3095 12.1858 4.26062C12.1375 4.21174 12.0802 4.17298 12.0171 4.14654C11.9541 4.1201 11.8865 4.10652 11.8182 4.10656H5.06764C4.9298 4.10656 4.7976 4.16201 4.70013 4.26071C4.60266 4.35942 4.5479 4.49329 4.5479 4.63287C4.5479 4.77246 4.60266 4.90633 4.70013 5.00504C4.7976 5.10374 4.9298 5.15919 5.06764 5.15919H11.8182C11.8865 5.15923 11.9541 5.14563 12.0172 5.11919C12.0802 5.09275 12.1376 5.05398 12.1858 5.00509C12.2341 4.9562 12.2724 4.89816 12.2985 4.83428C12.3246 4.7704 12.338 4.702 12.3379 4.63287Z"
          fill="#525252"
          stroke="#525252"
          strokeWidth="0.2"
        />
      </svg>