<svg
                        width="60"
                        height="60"
                        viewBox="0 0 60 60"
                        fill="none"
                        xmlns="http://www.w3.org/2000/svg"
                      >
                        <g clipPath="url(#clip0_36_5550)">
                          <path
                            d="M50.8428 45.048L38.0828 32.288H38.206L51.6128 18.868L49.7472 17.0024L36.9872 29.7624L31.2672 30.3916L12.8752 48.7836C12.6895 48.9623 12.4556 49.0827 12.2022 49.13C11.9489 49.1773 11.6872 49.1494 11.4496 49.0498C11.2119 48.9501 11.0086 48.7831 10.8647 48.5692C10.7209 48.3554 10.6428 48.1041 10.64 47.8464C10.6404 47.4964 10.7796 47.1609 11.0272 46.9136L29.4192 28.526L30.0528 22.806L42.8128 10.046L40.9428 8.1936L27.5316 21.6048V21.728L15.5108 9.7204L12.8708 12.3604C11.4551 13.7785 10.66 15.7004 10.66 17.7042C10.66 19.708 11.4551 21.6299 12.8708 23.048L22.0272 32.2L9.16165 45.0436C8.44495 45.7911 8.04958 46.7896 8.06027 47.8251C8.07096 48.8606 8.48685 49.8507 9.21882 50.5833C9.95078 51.3158 10.9406 51.7325 11.9761 51.744C13.0116 51.7555 14.0104 51.3609 14.7584 50.6448L27.6284 37.7792L29.0892 39.24L34.07 39.4688L45.246 50.6448C45.9967 51.3443 46.9896 51.7251 48.0155 51.707C49.0414 51.6889 50.0203 51.2733 50.7458 50.5478C51.4713 49.8222 51.887 48.8434 51.9051 47.8175C51.9232 46.7916 51.5423 45.7987 50.8428 45.048ZM14.7628 21.1648C13.8429 20.2419 13.3263 18.9919 13.3263 17.6888C13.3263 16.3857 13.8429 15.1357 14.7628 14.2128L15.5196 13.456L27.1444 25.0896L26.898 27.2896L23.8972 30.308L14.7628 21.1648ZM48.9772 48.7792C48.7254 49.0181 48.3916 49.1513 48.0444 49.1513C47.6973 49.1513 47.3634 49.0181 47.1116 48.7792L35.2316 36.8772L30.2552 36.6484L29.516 35.9092L32.5212 32.9084L34.7212 32.662L48.9772 46.9136C49.2244 47.1611 49.3633 47.4966 49.3633 47.8464C49.3633 48.1962 49.2244 48.5317 48.9772 48.7792Z"
                            fill="#0F4DA2"
                          />
                          <path
                            d="M45.3434 12.5977L34.0713 23.8699L35.9381 25.7366L47.2102 14.4645L45.3434 12.5977Z"
                            fill="#0F4DA2"
                          />
                        </g>
                        <defs>
                          <clipPath id="clip0_36_5550">
                            <rect
                              width="44"
                              height="44"
                              fill="white"
                              transform="translate(8 8)"
                            />
                          </clipPath>
                        </defs>
                      </svg>