 <svg
                        width="25"
                        height="25"
                        viewBox="0 0 24 24"
                        fill="none"
                        xmlns="http://www.w3.org/2000/svg"
                      >
                        <path
                          d="M21.5023 23.9456H2.38914C1.08597 23.9456 0 22.8597 0 21.5565V4.01805C0 2.71488 0.868778 1.62891 2.00905 1.62891H3.20362V3.20357H2.00905C1.84615 3.20357 1.62896 3.52936 1.62896 4.01805V21.5565C1.62896 21.9909 2.00905 22.371 2.44344 22.371H21.5566C21.9909 22.371 22.371 21.9909 22.371 21.5565V4.01805C22.371 3.52936 22.0995 3.20357 21.9909 3.20357H20.7964V1.62891H21.9909C23.0769 1.62891 24 2.71488 24 4.01805V21.5565C23.8914 22.8597 22.8054 23.9456 21.5023 23.9456Z"
                          fill="#0F4DA2"
                        />
                        <path
                          d="M5.59329 4.83258C5.15891 4.83258 4.77881 4.45249 4.77881 4.0181V0.81448C4.77881 0.38009 5.15891 0 5.59329 0C6.02768 0 6.40777 0.38009 6.40777 0.81448V4.0181C6.35348 4.45249 6.02768 4.83258 5.59329 4.83258ZM18.2992 4.83258C17.8648 4.83258 17.4847 4.45249 17.4847 4.0181V0.81448C17.4847 0.38009 17.8648 0 18.2992 0C18.7336 0 19.1137 0.38009 19.1137 0.81448V4.0181C19.1137 4.45249 18.7336 4.83258 18.2992 4.83258ZM7.98244 1.62896H15.91V3.25792H7.98244V1.62896ZM1.5752 6.40724H22.3173V8.0362H1.5752V6.40724ZM19.1137 9.61086H20.6883V11.1855H19.1137V9.61086ZM15.91 9.61086H17.539V11.1855H15.91V9.61086ZM12.7607 9.61086H14.3354V11.1855H12.7607V9.61086ZM9.5571 9.61086H11.1318V11.1855H9.5571V9.61086ZM6.35348 9.61086H7.98244V11.1855H6.35348V9.61086ZM19.1137 12.8145H20.6883V14.3891H19.1137V12.8145ZM15.91 12.8145H17.539V14.3891H15.91V12.8145ZM12.7607 12.8145H14.3354V14.3891H12.7607V12.8145ZM9.5571 12.8145H11.1318V14.3891H9.5571V12.8145ZM6.35348 12.8145H7.98244V14.3891H6.35348V12.8145ZM3.20415 12.8145H4.77881V14.3891H3.20415V12.8145ZM19.1137 15.9638H20.6883V17.5928H19.1137V15.9638ZM15.91 15.9638H17.539V17.5928H15.91V15.9638ZM12.7607 15.9638H14.3354V17.5928H12.7607V15.9638ZM9.5571 15.9638H11.1318V17.5928H9.5571V15.9638ZM6.35348 15.9638H7.98244V17.5928H6.35348V15.9638ZM3.20415 15.9638H4.77881V17.5928H3.20415V15.9638ZM15.91 19.1674H17.539V20.7421H15.91V19.1674ZM12.7607 19.1674H14.3354V20.7421H12.7607V19.1674ZM9.5571 19.1674H11.1318V20.7421H9.5571V19.1674ZM6.35348 19.1674H7.98244V20.7421H6.35348V19.1674ZM3.20415 19.1674H4.77881V20.7421H3.20415V19.1674Z"
                          fill="#0F4DA2"
                        />
                      </svg>