 <svg
                          width=""
                          height=""
                          viewBox="0 0 33 34"
                          xmlns="http://www.w3.org/2000/svg"
                        >
                          <path
                            d="M27.3898 18.5177C27.1212 18.0542 26.6776 17.6945 26.1746 17.4501C25.6716 17.2057 25.1194 17.0816 24.6469 17.0816C24.1744 17.0816 23.6222 17.2057 23.1192 17.4501C22.6162 17.6945 22.1726 18.0542 21.904 18.5177C21.8138 18.6737 21.6117 18.8173 21.3938 18.9195C21.1693 19.0248 20.896 19.1014 20.6347 19.1014C20.3734 19.1014 20.1001 19.0248 19.8757 18.9195C19.6577 18.8172 19.4554 18.6736 19.3653 18.5174C19.0967 18.0541 18.6531 17.6944 18.1502 17.4501C17.6472 17.2057 17.0951 17.0816 16.6225 17.0816C16.15 17.0816 15.5979 17.2057 15.0949 17.4501C14.5919 17.6945 14.1482 18.0542 13.8796 18.5177C13.7895 18.6737 13.5873 18.8173 13.3694 18.9195C13.145 19.0248 12.8716 19.1014 12.6104 19.1014C12.3491 19.1014 12.0757 19.0248 11.8513 18.9195C11.6334 18.8173 11.4313 18.6737 11.3411 18.5177C11.0725 18.0542 10.6289 17.6945 10.1258 17.4501C9.62288 17.2057 9.0707 17.0816 8.59819 17.0816C8.12568 17.0816 7.57351 17.2057 7.07054 17.4501C6.56751 17.6945 6.12386 18.0542 5.85526 18.5177C5.7651 18.6737 5.56295 18.8173 5.34508 18.9195C5.12064 19.0248 4.84729 19.1014 4.58602 19.1014C4.32474 19.1014 4.05139 19.0248 3.82695 18.9195C3.60896 18.8172 3.4067 18.6736 3.31663 18.5174L3.44656 18.4425L3.31662 18.5174C3.08054 18.1081 2.55901 17.9704 2.14995 18.2085C1.74348 18.4472 1.60537 18.9745 1.84308 19.3852C2.11169 19.8487 2.55533 20.2084 3.05836 20.4528C3.56133 20.6972 4.11351 20.8212 4.58602 20.8212C5.05853 20.8212 5.6107 20.6972 6.11367 20.4528C6.6167 20.2084 7.06035 19.8487 7.32895 19.3852C7.41911 19.2292 7.62125 19.0856 7.83913 18.9834C8.06357 18.8781 8.33692 18.8014 8.59819 18.8014C8.85947 18.8014 9.13282 18.8781 9.35726 18.9834C9.57513 19.0856 9.77728 19.2292 9.86743 19.3852C10.136 19.8487 10.5797 20.2084 11.0827 20.4528C11.5857 20.6972 12.1379 20.8212 12.6104 20.8212C13.0829 20.8212 13.6351 20.6972 14.138 20.4528C14.6411 20.2084 15.0847 19.8487 15.3533 19.3852C15.4435 19.2292 15.6456 19.0856 15.8635 18.9834C16.0879 18.8781 16.3613 18.8014 16.6225 18.8014C16.8838 18.8014 17.1572 18.8781 17.3816 18.9834C17.5995 19.0856 17.8016 19.2292 17.8918 19.3852C18.1604 19.8487 18.604 20.2084 19.1071 20.4528C19.61 20.6972 20.1622 20.8212 20.6347 20.8212C21.1072 20.8212 21.6594 20.6972 22.1624 20.4528C22.6654 20.2084 23.1091 19.8487 23.3777 19.3852C23.4678 19.2292 23.67 19.0856 23.8878 18.9834C24.1123 18.8781 24.3856 18.8014 24.6469 18.8014C24.9082 18.8014 25.1815 18.8781 25.406 18.9834C25.624 19.0857 25.8262 19.2293 25.9163 19.3855C26.1849 19.8488 26.6285 20.2084 27.1314 20.4528C27.6344 20.6972 28.1866 20.8212 28.6591 20.8212C29.1316 20.8212 29.6838 20.6972 30.1867 20.4528C30.6897 20.2084 31.1333 19.8488 31.4019 19.3854L27.3898 18.5177ZM27.3898 18.5177C27.48 18.6737 27.6821 18.8173 27.9 18.9195C28.1244 19.0248 28.3978 19.1014 28.6591 19.1014C28.9203 19.1014 29.1937 19.0248 29.4181 18.9195C29.636 18.8173 29.8381 18.6737 29.9283 18.5177C30.1654 18.109 30.687 17.9715 31.095 18.2084M27.3898 18.5177L31.095 18.2084M31.095 18.2084C31.5015 18.4471 31.6398 18.9734 31.402 19.3852L31.095 18.2084ZM31.5092 10.8723V11.0223H31.5182V14.9119C31.5182 15.3884 31.1351 15.7718 30.6652 15.7718H2.57993C2.10996 15.7718 1.72688 15.3884 1.72688 14.9119V11.0223H1.73549L1.73591 10.8727C1.73678 10.5653 1.88938 10.2797 2.15718 10.1257L2.15722 10.1257L16.1998 2.04653L16.2 2.04642C16.4615 1.89551 16.7825 1.89539 17.0453 2.04653L31.0879 10.1257L31.0882 10.1259C31.3558 10.2789 31.5092 10.5652 31.5092 10.8723ZM16.6974 3.82548L16.6225 3.78243L16.5477 3.82548L6.28258 9.73236L5.79597 10.0124H6.35739H26.8877H27.4491L26.9625 9.73236L16.6974 3.82548ZM3.43297 13.902V14.052H3.58297H29.6621H29.8121V13.902V11.8822V11.7322H29.6621H3.58297H3.43297V11.8822V13.902ZM29.8121 27.0306V26.8806H29.6621H23.6439C23.1739 26.8806 22.7908 26.4972 22.7908 26.0207C22.7908 25.5442 23.1739 25.1608 23.6439 25.1608H30.6652C31.1351 25.1608 31.5182 25.5442 31.5182 26.0207V30.0603C31.5182 30.5368 31.1351 30.9202 30.6652 30.9202H2.57993C2.10996 30.9202 1.72688 30.5368 1.72688 30.0603V26.0207C1.72688 25.5442 2.10996 25.1608 2.57993 25.1608H9.60124C10.0712 25.1608 10.4543 25.5442 10.4543 26.0207C10.4543 26.4972 10.0712 26.8806 9.60124 26.8806H3.58297H3.43297V27.0306V29.0504V29.2004H3.58297H29.6621H29.8121V29.0504V27.0306Z"
                            fill="#525252"
                            stroke="white"
                            strokeWidth="0.3"
                          />
                          <path
                            d="M16.5387 25.9416L16.6223 25.9977L16.7059 25.9416L22.1673 22.2758C22.3074 22.1821 22.473 22.1314 22.6406 22.1314H30.6649C31.1349 22.1314 31.518 22.5148 31.518 22.9913C31.518 23.4678 31.1349 23.8512 30.6649 23.8512H22.9445H22.8988L22.8609 23.8767L17.0954 27.7466C16.9522 27.8428 16.7868 27.8908 16.6223 27.8908C16.4579 27.8908 16.2925 27.8428 16.1492 27.7466L10.3837 23.8767L10.3458 23.8512H10.3001H2.5797C2.10973 23.8512 1.72666 23.4678 1.72666 22.9913C1.72666 22.5148 2.10973 22.1314 2.5797 22.1314H10.6041C10.7717 22.1314 10.9373 22.1821 11.0773 22.2758L16.5387 25.9416Z"
                            fill="#525252"
                            stroke="white"
                            strokeWidth="0.3"
                          />
                        </svg>