 <svg
                          width=""
                          height=""
                          viewBox="0 0 37 36"
                          xmlns="http://www.w3.org/2000/svg"
                        >
                          <path
                            d="M12.8154 12.0423C12.4133 11.6414 11.9174 11.486 11.7076 11.6952C11.4978 11.9043 11.6537 12.3988 12.0557 12.7996C12.4578 13.2004 12.9537 13.3559 13.1635 13.1467C13.3733 12.9376 13.2174 12.4431 12.8154 12.0423Z"
                            fill="#525252"
                          />
                          <path
                            d="M14.1314 9.81316C13.7293 10.214 13.5735 10.7085 13.7832 10.9176C13.993 11.1267 14.489 10.9713 14.891 10.5705C15.2931 10.1697 15.4489 9.67523 15.2392 9.46607C15.0294 9.25692 14.5334 9.41233 14.1314 9.81316Z"
                            fill="#525252"
                          />
                          <path
                            d="M19.1514 9.67371C18.9416 9.46458 18.4456 9.61997 18.0436 10.0208C17.6415 10.4216 17.4856 10.9161 17.6954 11.1252C17.9051 11.3344 18.4011 11.179 18.8032 10.7781C19.2052 10.3773 19.3611 9.88285 19.1514 9.67371Z"
                            fill="#525252"
                          />
                          <path
                            d="M22.8232 9.6747C22.6134 9.46556 22.1174 9.62094 21.7154 10.0218C21.3133 10.4226 21.1575 10.9171 21.3672 11.1262C21.577 11.3353 22.073 11.18 22.4751 10.7791C22.8771 10.3783 23.033 9.88385 22.8232 9.6747Z"
                            fill="#525252"
                          />
                          <path
                            d="M20.4458 12.0422C20.0438 11.6414 19.5478 11.486 19.338 11.6951C19.1282 11.9043 19.284 12.3988 19.6861 12.7996C20.0881 13.2004 20.5841 13.3558 20.7939 13.1467C21.0037 12.9376 20.8478 12.4431 20.4458 12.0422Z"
                            fill="#525252"
                          />
                          <path
                            d="M25.1826 12.1741C24.7806 11.7732 24.2846 11.6178 24.0748 11.827C23.865 12.0361 24.0209 12.5306 24.4229 12.9314C24.825 13.3323 25.3209 13.4877 25.5307 13.2785C25.7405 13.0694 25.5847 12.5749 25.1826 12.1741Z"
                            fill="#525252"
                          />
                          <path
                            d="M16.5341 12.0423C16.1321 11.6414 15.6361 11.486 15.4263 11.6952C15.2166 11.9043 15.3724 12.3988 15.7745 12.7996C16.1765 13.2004 16.6725 13.3559 16.8823 13.1467C17.092 12.9376 16.9362 12.4431 16.5341 12.0423Z"
                            fill="#525252"
                          />
                          <path
                            d="M31.03 20.8073V19.6108C32.1127 19.3839 32.9195 18.5368 32.9195 17.5293C32.9195 16.5171 32.1052 15.6667 31.0148 15.4446C30.9426 14.2937 30.6125 13.178 30.0304 12.1214C29.3964 10.9707 28.492 9.93977 27.3424 9.05724C26.2033 8.18277 24.8792 7.49699 23.4069 7.01896C21.8894 6.52621 20.2786 6.27637 18.6192 6.27637C16.9598 6.27637 15.3489 6.52621 13.8314 7.01896C12.3591 7.49699 11.035 8.18277 9.89589 9.05724C8.74629 9.93977 7.84193 10.9707 7.20793 12.1214C6.62579 13.178 6.29557 14.2937 6.22345 15.4446C5.13309 15.6668 4.31885 16.5171 4.31885 17.5293C4.31885 18.5487 5.14474 19.4039 6.2468 19.6186V20.7995C5.14474 21.0141 4.31885 21.8693 4.31885 22.8888C4.31885 23.9082 5.14474 24.7634 6.2468 24.978V26.8366C6.2468 27.2554 6.36734 27.6587 6.6051 28.0354C6.82163 28.3784 7.1259 28.6833 7.50945 28.9415C8.25842 29.4456 9.24047 29.7232 10.2747 29.7232H27.0021C28.0364 29.7232 29.0184 29.4456 29.7674 28.9415C30.1509 28.6833 30.4552 28.3784 30.6717 28.0354C30.9095 27.6587 31.03 27.2554 31.03 26.8366V24.9702C32.1127 24.7433 32.9195 23.8963 32.9195 22.8888C32.9195 21.8813 32.1127 21.0342 31.03 20.8073ZM7.33008 19.6706H29.9467V20.7475H7.33008V19.6706ZM18.6192 7.35637C24.6254 7.35637 29.5549 10.9123 29.9245 15.388H7.3138C7.68344 10.9123 12.6129 7.35637 18.6192 7.35637ZM5.40213 17.5293C5.40213 16.954 6.03699 16.468 6.78844 16.468H30.4499C31.2013 16.468 31.8362 16.954 31.8362 17.5293C31.8362 18.1046 31.2013 18.5906 30.4499 18.5906H6.78844C6.03699 18.5906 5.40213 18.1046 5.40213 17.5293ZM29.1612 28.0464C28.5977 28.4257 27.8107 28.6432 27.0021 28.6432H10.2747C9.4661 28.6432 8.67915 28.4257 8.11561 28.0464C7.60905 27.7054 7.33008 27.2758 7.33008 26.8366V25.03H9.68048L10.5717 26.9047C10.6639 27.0988 10.858 27.2135 11.0613 27.2135C11.131 27.2135 11.2018 27.2001 11.2699 27.1717L16.4125 25.03H22.9239C22.9274 25.0859 22.9321 25.1441 22.9382 25.2038C22.9994 25.8028 23.1721 26.2588 23.4513 26.559C23.6961 26.8222 24.0175 26.9614 24.3807 26.9614C24.7517 26.9614 25.0809 26.8202 25.3328 26.5531C25.7197 26.1427 25.8459 25.4986 25.8836 25.03H26.9367C26.954 25.2561 26.9837 25.5301 27.035 25.8061C27.1114 26.2172 27.2216 26.554 27.3627 26.8072C27.6819 27.38 28.1241 27.4655 28.3593 27.4655C28.6642 27.4655 28.9397 27.344 29.156 27.1143C29.4667 26.7842 29.6485 26.2395 29.7117 25.4488C29.7236 25.3004 29.7299 25.1582 29.7328 25.03H29.9467V26.8366C29.9467 27.2758 29.6678 27.7054 29.1612 28.0464ZM10.8793 25.03H13.602L11.3292 25.9766L10.8793 25.03ZM30.4499 23.95H29.1843C29.0347 23.95 28.8917 24.0117 28.7893 24.1205C28.687 24.2293 28.6343 24.3754 28.6437 24.5243C28.644 24.5287 28.6714 24.9736 28.6229 25.463C28.5645 26.0524 28.4334 26.303 28.3705 26.3718C28.315 26.3073 28.1695 26.0841 28.0723 25.4438C27.9976 24.9516 27.9961 24.4942 27.9961 24.49C27.9961 24.1918 27.7536 23.95 27.4545 23.95H25.3521C25.2026 23.95 25.0598 24.0116 24.9574 24.1202C24.8551 24.2287 24.8022 24.3746 24.8115 24.5234C24.8351 24.904 24.7662 25.5771 24.5435 25.8134C24.4967 25.8629 24.4526 25.8814 24.3807 25.8814C24.3193 25.8814 24.2853 25.8672 24.246 25.8251C24.0329 25.5967 23.9749 24.9172 24.0028 24.5308C24.0141 24.3809 23.9623 24.2331 23.8598 24.1229C23.7573 24.0127 23.6134 23.95 23.4627 23.95H16.3105C16.3069 23.95 16.3033 23.95 16.2998 23.95H10.0292C10.0266 23.95 10.0239 23.95 10.0212 23.95H6.78844C6.03699 23.95 5.40213 23.464 5.40213 22.8887C5.40213 22.3135 6.03699 21.8274 6.78844 21.8274H30.4499C31.2013 21.8274 31.8362 22.3135 31.8362 22.8887C31.8362 23.464 31.2013 23.95 30.4499 23.95Z"
                            fill="#525252"
                          />
                        </svg>