<svg width="" height="" viewBox="0 0 92 90" fill="none" xmlns="http://www.w3.org/2000/svg">
<path d="M66.9125 76.4209L67.7357 80.4338C53.3245 82.4737 38.6964 82.4737 24.2852 80.4338L25.1062 76.4317L66.9125 76.4209Z" fill="url(#paint0_linear_1_1802)"/>
<path d="M85.2949 52.9502C85.2949 52.9502 76.7552 72.0756 74.1992 73.7965C69.5272 76.942 59.755 77.3438 46.0105 77.3438C32.2659 77.3438 22.4938 76.942 17.8218 73.7965C15.2658 72.0756 6.72607 52.9502 6.72607 52.9502H85.2949Z" fill="url(#paint1_linear_1_1802)"/>
<path d="M16.3521 72.0195C16.7415 72.6877 17.238 73.2878 17.8219 73.796C22.4939 76.9414 32.266 77.3432 46.0106 77.3432C59.7551 77.3432 69.5273 76.9414 74.1993 73.796C74.7832 73.2878 75.2797 72.6877 75.6691 72.0195H16.3521Z" fill="url(#paint2_linear_1_1802)"/>
<path d="M14.8458 69.5216C22.0727 70.4302 33.3378 71.0157 46.0103 71.0157C58.684 71.0157 69.9483 70.43 77.1751 69.5212C78.0637 67.9446 79.0284 66.0915 79.975 64.2002C73.0894 65.3338 60.4584 66.0938 46.0103 66.0938C31.5623 66.0938 18.9314 65.3339 12.0459 64.2003C12.9924 66.0916 13.9573 67.945 14.8458 69.5216Z" fill="url(#paint3_linear_1_1802)"/>
<path d="M70.8827 49.3057C79.8041 50.0147 85.5053 51.0971 85.5053 52.3098C85.5053 54.4456 67.8229 56.177 46.0105 56.177C24.1981 56.177 6.51562 54.4456 6.51562 52.3098C6.51562 51.4645 9.28591 50.6825 13.9861 50.0458L70.8827 49.3057Z" fill="url(#paint4_linear_1_1802)"/>
<path d="M6.51562 52.3095C6.51562 54.4453 24.198 56.1767 46.0105 56.1767C67.8229 56.1767 85.5053 54.4453 85.5053 52.3095C85.4936 52.1861 85.4389 52.0707 85.3506 51.9834H6.65668C6.57186 52.0717 6.52178 52.1874 6.51562 52.3095Z" fill="url(#paint5_linear_1_1802)"/>
<path d="M31.4371 21.8572C31.1844 22.8299 30.6615 23.7118 29.9285 24.4014C29.1956 25.0911 28.2822 25.5605 27.2935 25.7557L25.5381 26.1013L24.9917 23.3419L26.7478 22.9964C27.1391 22.9191 27.5066 22.7507 27.8203 22.5049C28.1339 22.2591 28.3849 21.9429 28.5527 21.582L28.7325 21.1943L31.4371 21.8572Z" fill="url(#paint6_linear_1_1802)"/>
<path d="M33.0009 20.1896L31.1184 26.9408C30.6747 28.6539 29.6202 30.1472 28.1522 31.1413L26.8914 32.0005L25.2996 29.6788L26.5604 28.8192C27.053 28.4855 27.4743 28.0577 27.8 27.5606C28.1256 27.0635 28.3492 26.5069 28.4576 25.9231L29.624 19.7363L33.0009 20.1896Z" fill="url(#paint7_linear_1_1802)"/>
<path d="M38.1452 20.4424C38.0226 21.5976 38.2816 22.761 38.8829 23.756C39.4842 24.751 40.3949 25.5231 41.4766 25.9549L43.1378 26.6178L44.1861 24.0065L42.5241 23.3433C42.1538 23.1952 41.8238 22.962 41.5611 22.6626C41.2984 22.3632 41.1104 22.0062 41.0124 21.6206L40.9316 21.3017L38.1452 20.4424Z" fill="url(#paint8_linear_1_1802)"/>
<path d="M85.5054 18.9844V21.7969C25.1762 21.1272 37.3221 21.2631 22.0315 21.0938V18.9844H85.5054Z" fill="url(#paint9_linear_1_1802)"/>
<path d="M62.5239 49.2424C63.2437 46.0326 63.5897 42.7508 63.555 39.4619C68.0682 41.2919 72.3727 42.5519 76.1925 42.4888C76.3226 46.3229 75.1346 50.1217 72.9589 53.894L62.5239 49.2424Z" fill="url(#paint10_linear_1_1802)"/>
<path d="M62.9203 47.2129C62.8013 47.8967 62.6692 48.5734 62.5239 49.2428L72.9586 53.8942C74.1902 51.8111 75.1113 49.5605 75.6928 47.213L62.9203 47.2129Z" fill="url(#paint11_linear_1_1802)"/>
<path d="M41.9939 46.8756C45.0689 44.7956 50.4647 42.0836 56.5415 43.2309C62.4962 44.3551 68.3124 50.4144 70.6882 53.162C60.6797 54.4919 50.521 52.2663 41.9939 46.8756Z" fill="url(#paint12_linear_1_1802)"/>
<path d="M64.1006 50.5429C61.64 48.4335 58.7405 46.509 56.017 45.9949C53.2869 45.526 50.4794 45.8362 47.9185 46.8896C53.2365 51.2464 58.6358 52.2511 64.1006 50.5429Z" fill="url(#paint13_linear_1_1802)"/>
<path d="M41.0736 50.1788V42.9398C41.0736 40.5954 40.5261 38.2831 39.4744 36.1861L37.932 33.1106C37.2152 31.6815 36.8421 30.1055 36.842 28.5076V15.4688H39.6631V28.5074C39.6646 29.6686 39.9357 30.8136 40.4551 31.8528L41.9979 34.9286C43.2422 37.4172 43.8915 40.1592 43.8947 42.9398V45.5501L41.0736 50.1788Z" fill="url(#paint14_linear_1_1802)"/>
<path d="M39.6631 27.6202V15.4688H36.842V19.1313L39.6631 27.6202Z" fill="url(#paint15_linear_1_1802)"/>
<path d="M40.0619 46.4579C42.1033 45.7084 44.2737 45.3708 46.447 45.4645C50.5099 45.6588 54.8206 48.0633 58.0431 50.3469C49.8393 56.4018 39.5707 59.8553 40.0619 46.4579Z" fill="url(#paint16_linear_1_1802)"/>
<path d="M54.7952 51.6505C48.2085 46.5847 42.1932 48.0611 38.0588 50.4841C43.5383 53.8181 49.1235 54.0173 54.7952 51.6505Z" fill="url(#paint17_linear_1_1802)"/>
<path d="M27.2292 54.3407C18.7519 54.2708 15.5634 46.0183 19.4219 40.7362C20.0762 39.8405 20.901 39.082 21.8492 38.5041C22.7975 37.9262 23.8507 37.5402 24.9486 37.368C26.0465 37.1959 27.1677 37.2411 28.2481 37.501C29.3285 37.7608 30.347 38.2303 31.2455 38.8826C33.9602 40.8536 36.92 45.4151 37.3506 49.2242L27.2292 54.3407Z" fill="url(#paint18_linear_1_1802)"/>
<path d="M27.2291 54.3401L37.3503 49.2237C37.2507 48.418 37.0666 47.6249 36.801 46.8574H17.8818C18.4245 50.7693 21.7016 54.2945 27.2291 54.3401Z" fill="url(#paint19_linear_1_1802)"/>
<path d="M25.5232 49.8871C24.5849 49.7288 23.727 49.2613 23.0866 48.5594C22.4463 47.8576 22.0606 46.9619 21.9913 46.0156C21.9219 45.0694 22.1729 44.1273 22.7041 43.3401C23.2353 42.5529 24.0159 41.966 24.9212 41.6735C25.8265 41.3809 26.804 41.3994 27.6974 41.7262C28.5908 42.053 29.3485 42.669 29.8492 43.4758C30.3499 44.2826 30.5648 45.2336 30.4593 46.1765C30.3538 47.1194 29.9342 47.9998 29.2675 48.6768L25.5232 49.8871Z" fill="url(#paint20_linear_1_1802)"/>
<path d="M38.2526 48.7188V42.9398C38.2505 41.0322 37.8049 39.151 36.9509 37.4439L35.4088 34.3681C34.4985 32.5476 34.0235 30.5416 34.021 28.5074V15.4688L31.2 15.52V28.5074C31.203 30.9782 31.7799 33.4147 32.8855 35.6259L34.4283 38.7027C35.0866 40.0189 35.43 41.4692 35.4315 42.9398V47.7056L38.2526 48.7188Z" fill="url(#paint21_linear_1_1802)"/>
<path d="M41.0736 50.1788V42.9398C41.0737 40.5954 40.5261 38.2831 39.4745 36.1861L37.932 33.1106C37.2153 31.6815 36.8421 30.1055 36.8421 28.5076V15.4688H34.021V28.5074C34.0234 30.5417 34.4985 32.5477 35.4088 34.3683L36.9509 37.4441C37.8049 39.1512 38.2505 41.0323 38.2526 42.9398V48.7188L41.0736 50.1788Z" fill="url(#paint22_linear_1_1802)"/>
<path d="M36.842 19.1313V15.4688H35.6248L36.842 19.1313Z" fill="url(#paint23_linear_1_1802)"/>
<path d="M85.4402 12.3008L85.5347 15.1117L22.0964 17.2298L22.0259 15.1216C23.3248 15.0639 20.9254 15.1721 85.4402 12.3008Z" fill="url(#paint24_linear_1_1802)"/>
<path d="M44.1769 55.7578C44.1211 55.9043 44.0477 56.0436 43.9583 56.1726C43.4505 56.1726 42.9498 56.1656 42.449 56.1586C41.6027 56.1586 40.7705 56.1445 39.9454 56.1375C34.1974 56.0461 28.8515 55.8351 24.2038 55.5328C22.7792 55.4414 21.4204 55.3429 20.1274 55.2375C18.8579 55.125 17.659 55.0054 16.5376 54.8859C18.271 52.9436 20.2898 51.2746 22.5253 49.9359C25.5875 48.0275 29.1578 47.0886 32.7658 47.2429C35.4054 47.5213 37.9546 48.3604 40.2416 49.7039C41.2078 50.2383 42.1387 50.8148 43.0133 51.3984C43.4435 51.6937 43.8596 51.989 44.2616 52.2843C44.5668 53.4264 44.5375 54.6318 44.1769 55.7578Z" fill="url(#paint25_linear_1_1802)"/>
<path d="M44.177 55.7577C44.3533 55.8983 44.5226 56.039 44.6848 56.1726C44.4379 56.1796 44.1981 56.1726 43.9584 56.1726C43.4506 56.1726 42.9498 56.1655 42.4491 56.1585C41.6028 56.1585 40.7706 56.1444 39.9454 56.1374C34.1975 56.046 28.8516 55.8351 24.2039 55.5327C22.7792 55.4413 21.4204 55.3429 20.1274 55.2374C22.3984 53.114 26.9756 49.6898 32.5895 50.0554C35.8125 50.2523 39.5011 52.3265 42.4632 54.464C43.0697 54.8929 43.641 55.3358 44.177 55.7577Z" fill="url(#paint26_linear_1_1802)"/>
<path d="M39.9454 56.1375C34.1975 56.0461 28.8516 55.8352 24.2039 55.5328C26.3873 53.8833 29.0268 52.9432 31.7643 52.8398C31.9759 52.8398 32.1945 52.8469 32.4131 52.8609C34.67 53.0016 37.4628 54.45 39.9454 56.1375Z" fill="url(#paint27_linear_1_1802)"/>
<path d="M74.602 54.9842C73.1774 55.1249 71.6422 55.2585 69.9966 55.385H69.9896C68.2264 55.5186 66.3575 55.6311 64.3827 55.7366C62.7747 55.821 61.0891 55.8913 59.3542 55.9475H59.3471C58.3096 55.6633 57.2899 55.3182 56.2933 54.9139C56.1805 54.8717 56.0606 54.8225 55.9477 54.7733L55.9407 54.7663C55.6797 54.6608 55.4258 54.5483 55.1719 54.4358C53.9822 53.8907 52.8383 53.2511 51.7514 52.5233C51.2789 52.2139 50.8134 51.8835 50.355 51.5319C50.3761 51.5178 50.4043 51.5038 50.4255 51.4897H50.4326C51.005 51.1311 51.5959 50.8025 52.2028 50.5053C53.0164 50.1081 53.8608 49.7765 54.7276 49.5139C57.4687 48.6461 60.4062 48.6069 63.1697 49.4014H63.1767C67.8949 50.6249 72.4509 53.5006 74.602 54.9842Z" fill="url(#paint28_linear_1_1802)"/>
<path d="M69.9895 55.3847C68.2264 55.5183 66.3574 55.6308 64.3827 55.7363C62.7747 55.8207 61.0891 55.891 59.3541 55.9472H59.3471C58.8604 55.9683 58.3668 55.9824 57.8731 56.0035C57.866 56.0105 57.866 56.0035 57.866 56.0035C57.3089 55.7363 56.7658 55.4339 56.2298 55.1105V55.1035C56.1619 55.0739 56.098 55.0361 56.0394 54.991C55.7502 54.8152 55.454 54.6324 55.1719 54.4355C54.5443 54.0077 53.9393 53.5477 53.3594 53.0574C53.7755 52.8535 54.1986 52.6707 54.643 52.5019C55.8615 52.0369 57.1426 51.7549 58.4443 51.6652C62.0623 51.4121 66.5902 53.423 69.9895 55.3847Z" fill="url(#paint29_linear_1_1802)"/>
<path d="M64.3828 55.7363C62.7747 55.8207 61.0892 55.891 59.3542 55.9473H59.3472C58.8605 55.9684 58.3668 55.9824 57.8732 56.0035H57.8661C57.1467 56.0246 56.4203 56.0457 55.6868 56.0668C55.5458 56.0668 55.4047 56.0668 55.2637 56.0738C55.0309 55.9262 54.7982 55.7715 54.5725 55.6027C55.0478 55.3676 55.5378 55.1633 56.0395 54.991C56.0677 54.984 56.1029 54.9699 56.1382 54.9629C56.1885 54.9423 56.2404 54.9258 56.2934 54.9137C56.8496 54.736 57.4209 54.6089 58.0001 54.534C58.2046 54.5059 58.4233 54.4848 58.6419 54.4707C60.6254 54.4681 62.5853 54.9001 64.3828 55.7363Z" fill="url(#paint30_linear_1_1802)"/>
<path d="M56.2863 55.3216C56.2863 55.6029 56.0183 55.8419 55.6868 56.0669C55.5458 56.0669 55.4047 56.0669 55.2637 56.074C54.0718 56.1021 52.8658 56.1232 51.6386 56.1443C51.0462 56.1513 50.4467 56.1583 49.8402 56.1583C49.5158 56.1654 49.1843 56.1654 48.8528 56.1654C48.2815 56.1724 47.7103 56.1794 47.139 56.1724C46.9345 56.1794 46.73 56.1794 46.5184 56.1794H45.0232C44.9104 56.1794 44.7975 56.1794 44.6847 56.1724C44.4378 56.1794 44.1981 56.1724 43.9583 56.1724C43.4505 56.1724 42.9497 56.1654 42.449 56.1583C42.047 55.9052 41.7014 55.6451 41.7014 55.3216C41.7014 54.9912 42.0611 54.724 42.4631 54.4638C42.9215 54.1685 43.4364 53.8872 43.5492 53.5497C43.7255 53.0083 43.0414 52.031 43.0132 51.3982C42.9999 51.2748 43.0298 51.1505 43.0978 51.0466C43.4998 50.4911 45.0796 51.0958 45.6297 50.6951C45.8892 50.3921 46.0557 50.0211 46.1093 49.6263C46.2504 49.0779 46.3844 48.5154 46.7441 48.4029C47.3435 48.213 48.1899 49.4435 48.8669 49.5912C48.9505 49.6099 49.0372 49.6099 49.1208 49.5912H49.1349C49.819 49.4294 50.6583 48.213 51.2507 48.4029C51.5963 48.5154 51.7303 49.0287 51.8713 49.549C51.9297 49.8834 52.0417 50.2062 52.2028 50.5052C52.2432 50.5789 52.2984 50.6436 52.365 50.6951C52.9151 51.0958 54.4949 50.4911 54.8969 51.0466C55.1297 51.363 54.8617 51.9396 54.643 52.5021C54.4725 52.8234 54.4036 53.1887 54.4456 53.5497C54.5937 53.9997 55.4541 54.3513 55.9407 54.7662L55.9478 54.7732C56.0198 54.8274 56.0838 54.8913 56.1382 54.963C56.176 55.0048 56.2069 55.0523 56.2299 55.1037V55.1107C56.2657 55.1753 56.2851 55.2478 56.2863 55.3216Z" fill="url(#paint31_linear_1_1802)"/>
<path d="M42.4631 54.4641C42.0611 54.7242 41.7014 54.9914 41.7014 55.3219C41.7014 55.6453 42.047 55.9055 42.449 56.1586C44.1698 56.1828 47.0549 56.1878 48.8528 56.1656C51.4988 56.1656 55.676 56.0672 55.6868 56.0672C56.0183 55.8422 56.2863 55.6031 56.2863 55.3219C56.2851 55.248 56.2657 55.1756 56.2299 55.1109V55.1039C56.2069 55.0525 56.176 55.005 56.1382 54.9633C56.0838 54.8915 56.0198 54.8276 55.9478 54.7734L55.9407 54.7664C55.5849 54.4631 55.0316 54.1933 54.7007 53.8945H43.2817C43.023 54.1038 42.7494 54.2941 42.4631 54.4641Z" fill="url(#paint32_linear_1_1802)"/>
<path d="M50.2139 54.7094C50.1435 54.7694 50.062 54.815 49.9739 54.8436C49.8858 54.8722 49.793 54.8833 49.7006 54.8761C49.6083 54.8689 49.5183 54.8437 49.4357 54.8018C49.3532 54.7599 49.2797 54.7022 49.2195 54.6321C49.1387 54.5394 49.0245 54.4823 48.9017 54.4731C48.7789 54.4639 48.6574 54.5033 48.5636 54.5828C48.4876 54.6475 48.4252 54.7264 48.3798 54.8151C48.3345 54.9038 48.3071 55.0005 48.2992 55.0997C48.2914 55.199 48.3032 55.2988 48.334 55.3935C48.3649 55.4882 48.4141 55.5759 48.479 55.6516C48.5206 55.7036 48.5679 55.7508 48.62 55.7922C48.7356 55.8884 48.8172 56.019 48.8528 56.1649C48.2815 56.1719 47.7102 56.1789 47.139 56.1719C46.9098 55.7369 46.8352 55.2373 46.9274 54.7546C47.0196 54.2719 47.2732 53.8346 47.6468 53.5141C48.0254 53.1933 48.5159 53.0348 49.0113 53.073C49.5066 53.1112 49.9668 53.343 50.2915 53.718C50.3518 53.7881 50.3976 53.8694 50.4263 53.9573C50.4551 54.0451 50.4661 54.1377 50.4589 54.2297C50.4517 54.3218 50.4264 54.4116 50.3843 54.4939C50.3423 54.5762 50.2844 54.6494 50.2139 54.7094Z" fill="#FF47B8"/>
<path d="M51.6387 56.1439C51.0463 56.151 50.4468 56.158 49.8403 56.158C49.8774 56.0108 49.9586 55.8784 50.073 55.7783C50.5949 55.3283 51.3636 54.2385 50.5526 53.2752C50.3891 53.084 50.1887 52.9276 49.9634 52.8153C49.738 52.7029 49.4923 52.6369 49.2408 52.6213C48.4958 52.5825 47.7642 52.829 47.1955 53.3103C46.7688 53.6214 46.4651 54.0719 46.3375 54.5833C46.2099 55.0948 46.2664 55.6347 46.4973 56.1088C46.5085 56.1308 46.5157 56.1546 46.5185 56.1791H45.0233C44.8067 55.4733 44.8108 54.7185 45.035 54.0151C45.2593 53.3118 45.6931 52.6931 46.2787 52.2416C47.131 51.5149 48.2345 51.149 49.3536 51.2221C49.7234 51.2509 50.0857 51.3412 50.4256 51.4892H50.4327C50.8965 51.6834 51.3075 51.9846 51.6316 52.3681C51.6755 52.4166 51.7156 52.4683 51.7515 52.5228C52.1357 53.0544 52.3329 53.6976 52.3125 54.3525C52.2921 55.0074 52.0552 55.6371 51.6387 56.1439Z" fill="url(#paint33_linear_1_1802)"/>
<path d="M85.5583 15.8147C85.6509 15.8117 85.7419 15.7905 85.8262 15.7523C85.9106 15.7142 85.9865 15.6598 86.0498 15.5924C86.1131 15.525 86.1624 15.4458 86.1949 15.3593C86.2274 15.2729 86.2426 15.1809 86.2394 15.0886L86.1451 12.2774C86.142 12.1845 86.1205 12.093 86.0817 12.0084C86.043 11.9238 85.9877 11.8477 85.9193 11.7846C85.8508 11.7214 85.7704 11.6724 85.6828 11.6405C85.5952 11.6085 85.5021 11.5942 85.4089 11.5984C27.3781 14.1812 23.4874 14.3536 22.3461 14.4038L21.9942 14.4193C21.8088 14.4277 21.6342 14.5086 21.5083 14.6444C21.3823 14.7803 21.3152 14.9602 21.3213 15.1451L21.3918 17.2535C21.3949 17.3457 21.4161 17.4365 21.4543 17.5206C21.4925 17.6047 21.547 17.6805 21.6146 17.7436C21.6822 17.8067 21.7616 17.8559 21.8483 17.8884C21.935 17.9209 22.0273 17.936 22.1198 17.9329L30.4946 17.6534V18.2811H22.0314C21.8443 18.2811 21.6649 18.3552 21.5327 18.4871C21.4004 18.6189 21.3261 18.7978 21.3261 18.9843V21.0936C21.3262 21.2788 21.3995 21.4564 21.5301 21.5881C21.6607 21.7197 21.8381 21.7947 22.0238 21.7968L27.4813 21.8568C27.2384 22.0837 26.9374 22.2394 26.6114 22.3068L24.8553 22.6525C24.7645 22.6704 24.678 22.7059 24.6009 22.757C24.5238 22.8082 24.4575 22.8739 24.4059 22.9506C24.3543 23.0273 24.3183 23.1133 24.3001 23.2039C24.2818 23.2944 24.2816 23.3876 24.2995 23.4782L24.8457 26.2379C24.8775 26.3976 24.9639 26.5413 25.0901 26.6447C25.2163 26.748 25.3746 26.8046 25.5379 26.8047C25.5837 26.8047 25.6293 26.8002 25.6742 26.7913L27.4298 26.4459C27.4825 26.4356 27.5334 26.4178 27.5858 26.4058C27.3155 27.1502 26.8177 27.7911 26.1625 28.2384L24.9015 29.0981C24.825 29.1502 24.7596 29.2169 24.709 29.2942C24.6584 29.3715 24.6236 29.458 24.6065 29.5488C24.5894 29.6396 24.5904 29.7328 24.6095 29.8231C24.6286 29.9135 24.6653 29.9992 24.7176 30.0754L26.3092 32.397C26.3615 32.4733 26.4283 32.5385 26.5059 32.589C26.5834 32.6395 26.6702 32.6742 26.7612 32.6913C26.8523 32.7083 26.9458 32.7073 27.0364 32.6884C27.1271 32.6694 27.2131 32.6328 27.2896 32.5807L28.5506 31.7213C29.326 31.1922 30.0026 30.5321 30.5499 29.7708C30.7144 31.9175 31.2932 34.0123 32.2546 35.9401L33.7974 39.0169C34.1438 39.7179 34.3948 40.4618 34.5435 41.229C33.7246 40.1274 32.7541 39.1463 31.6606 38.3147C30.0295 37.1311 28.0525 36.5167 26.0357 36.5666C24.0189 36.6166 22.0749 37.3281 20.5048 38.591C18.9346 39.8539 17.826 41.5977 17.3505 43.5523C16.8751 45.507 17.0594 47.5634 17.8748 49.403C5.81443 50.5926 5.81027 52.0918 5.81027 52.8229C5.79582 53.0332 5.84056 53.2434 5.93946 53.4297C6.03836 53.6161 6.18749 53.7712 6.37004 53.8776C7.54078 56.4764 11.291 64.6838 14.2793 69.9369C14.284 69.9434 14.2864 69.951 14.2912 69.9574C15.5616 72.1892 16.6934 73.8849 17.4272 74.379C19.5359 75.6389 21.8722 76.4739 24.3035 76.8368L23.5945 80.293C23.5751 80.3872 23.5754 80.4844 23.5952 80.5785C23.6151 80.6726 23.654 80.7616 23.7097 80.8401C23.7654 80.9185 23.8367 80.9848 23.9191 81.0347C24.0015 81.0847 24.0933 81.1172 24.1889 81.1304C31.5024 82.1425 38.8771 82.6531 46.2608 82.6586C53.4802 82.6644 60.6908 82.1535 67.8368 81.1298C67.9319 81.1162 68.0233 81.0833 68.1052 81.0332C68.1871 80.9831 68.2579 80.9168 68.3132 80.8385C68.3685 80.7601 68.4071 80.6713 68.4267 80.5775C68.4462 80.4837 68.4464 80.3869 68.4271 80.293L67.7182 76.8368C70.1493 76.4739 72.4854 75.6388 74.594 74.379C77.0548 72.722 83.9806 57.5853 85.6511 53.8773C85.8337 53.7709 85.9828 53.6158 86.0817 53.4294C86.1806 53.2431 86.2253 53.0329 86.2109 52.8226C86.2109 52.0887 86.2031 50.7332 75.7464 49.571C76.573 47.2951 76.9633 44.8847 76.8971 42.4652C76.891 42.2829 76.8141 42.1102 76.6827 41.9834C76.5512 41.8566 76.3754 41.7857 76.1925 41.7858H76.1808C72.9065 41.8527 68.9615 40.8948 63.8215 38.8106C63.7136 38.7668 63.5966 38.7504 63.4809 38.7626C63.3652 38.7749 63.2543 38.8156 63.1581 38.881C63.062 38.9464 62.9835 39.0345 62.9298 39.1375C62.8761 39.2404 62.8488 39.355 62.8504 39.4711C62.8722 41.3165 62.7668 43.1611 62.535 44.9921C60.7493 43.8215 58.762 42.9902 56.6731 42.5401C51.917 41.6426 47.5913 43.0446 44.5999 44.5367V42.9397C44.5964 40.05 43.9217 37.2003 42.6287 34.614L41.086 31.5386C40.6152 30.5969 40.3696 29.5594 40.3683 28.5073V26.1855C40.6386 26.3482 40.9214 26.4894 41.214 26.6078L42.8753 27.2707C42.9613 27.3051 43.0533 27.3223 43.1459 27.3212C43.2386 27.3202 43.3302 27.3009 43.4154 27.2646C43.5006 27.2282 43.5777 27.1755 43.6425 27.1094C43.7072 27.0433 43.7583 26.9651 43.7927 26.8793L44.8409 24.268C44.9103 24.0948 44.9078 23.9012 44.834 23.7298C44.7603 23.5584 44.6213 23.4232 44.4477 23.3539L42.7857 22.6907C42.4508 22.5529 42.165 22.3182 41.9653 22.0169L85.4977 22.4999H85.5053C85.6923 22.4999 85.8717 22.4258 86.004 22.294C86.1362 22.1621 86.2105 21.9833 86.2105 21.7968V18.9843C86.2105 18.7978 86.1362 18.6189 86.004 18.4871C85.8717 18.3552 85.6923 18.2811 85.5053 18.2811H40.3683V17.3236L85.5583 15.8147ZM22.7539 15.7936C24.4895 15.7167 31.9364 15.3858 84.7594 13.0351L84.8062 14.4331L22.7773 16.5041L22.7539 15.7936ZM37.3014 33.4253L38.8434 36.5008C39.8435 38.501 40.3654 40.7048 40.3683 42.9397V48.9779C39.8919 48.7217 39.4217 48.4858 38.9577 48.2702V42.9397C38.9555 40.9229 38.4845 38.9341 37.5816 37.1293L36.0396 34.0535C35.1779 32.3307 34.7284 30.4324 34.7262 28.5073V17.5121L36.1367 17.465V28.5073C36.1388 30.2143 36.5374 31.8977 37.3014 33.4253ZM44.285 46.2233L44.2949 46.2227C44.9988 46.1542 45.7068 46.1356 46.4133 46.1671C48.7719 46.2796 51.4695 47.197 54.44 48.8834C53.8137 49.0771 53.1986 49.305 52.5974 49.5663C52.5842 49.5155 52.5706 49.4638 52.5596 49.4207C52.395 48.7738 52.1904 47.9692 51.468 47.735C50.7572 47.505 50.1607 48.0045 49.6304 48.4433C49.4392 48.6138 49.2344 48.7685 49.0181 48.9058C48.779 48.7819 48.558 48.6262 48.3611 48.443C48.0093 48.0994 47.5793 47.8461 47.1078 47.7047C47.0172 47.6478 46.9145 47.6128 46.808 47.6023C45.1137 47.4725 43.4099 47.6494 41.7788 48.1246V46.6621C42.6009 46.4486 43.4391 46.3019 44.285 46.2233ZM73.2573 54.9254C72.5044 54.9957 71.7139 55.0642 70.8922 55.13C70.8605 55.0945 70.825 55.0624 70.7864 55.0344C68.0026 53.3858 62.6759 50.6625 58.3954 50.9633C57.479 51.0285 56.5716 51.1849 55.6865 51.4303C55.7097 51.1463 55.6312 50.8632 55.4648 50.6314C55.3204 50.437 55.1196 50.2915 54.8896 50.2146C55.9962 49.8674 57.1391 49.6478 58.296 49.5602C63.6478 49.1886 69.9816 52.775 73.2573 54.9254ZM51.7696 55.9476C52.1496 55.421 52.3422 54.783 52.3167 54.1348C52.2913 53.4866 52.0493 52.8656 51.6291 52.3703C51.3471 52.0361 51.0003 51.7623 50.6095 51.5652C50.2187 51.3681 49.792 51.2518 49.3549 51.2233C48.235 51.1499 47.1307 51.5169 46.279 52.2457C45.7232 52.6773 45.3041 53.2597 45.0721 53.9229C44.8401 54.5862 44.8051 55.3021 44.9711 55.9847C44.4628 55.9835 43.9567 55.9818 43.4576 55.9789C43.3245 55.8853 43.1793 55.7929 43.0323 55.7005C42.8391 55.5852 42.6534 55.4577 42.4765 55.3187C42.6536 55.18 42.8392 55.0525 43.0323 54.937C43.5507 54.6962 43.9695 54.2837 44.2171 53.7698C44.3229 53.196 44.2268 52.6035 43.9451 52.0922C43.8649 51.9005 43.7948 51.7048 43.735 51.5058C43.9464 51.5003 44.1579 51.5063 44.3687 51.5237C44.9401 51.6325 45.5318 51.5415 46.0437 51.2659C46.4619 50.8684 46.729 50.3387 46.7992 49.7669C46.848 49.5595 46.9082 49.3549 46.9796 49.1541C47.1464 49.2697 47.3071 49.3938 47.4611 49.5259C47.8665 49.9564 48.409 50.2336 48.9963 50.3104C49.5833 50.2337 50.1256 49.9566 50.5308 49.5263C50.6851 49.3942 50.846 49.27 51.0129 49.1541C51.084 49.3548 51.1441 49.5593 51.1927 49.7666C51.2634 50.3382 51.5303 50.8678 51.9482 51.2655C52.4596 51.5425 53.0517 51.6338 53.6232 51.5237C53.8339 51.506 54.0455 51.5 54.2569 51.5058C54.1974 51.7049 54.1272 51.9007 54.0468 52.0922C53.7649 52.6037 53.669 53.1966 53.7754 53.7704C54.0233 54.2841 54.442 54.6963 54.9603 54.937C55.153 55.0528 55.3384 55.1803 55.5154 55.3188C55.3388 55.4574 55.1536 55.5847 54.9609 55.6999C54.8568 55.7654 54.7614 55.8315 54.6624 55.8973C53.7178 55.9172 52.7536 55.9339 51.7696 55.9476ZM48.7676 55.9774C48.7287 55.9072 48.6778 55.8443 48.6173 55.7915C48.5674 55.7503 48.521 55.7049 48.4788 55.6559C48.3476 55.5029 48.2826 55.3043 48.2979 55.1036C48.3133 54.9029 48.4078 54.7164 48.5608 54.585C48.6554 54.5047 48.778 54.465 48.9019 54.4745C49.0258 54.484 49.1408 54.542 49.222 54.6359C49.3438 54.7774 49.517 54.8648 49.7035 54.879C49.89 54.8932 50.0746 54.8329 50.2165 54.7114C50.3584 54.59 50.4462 54.4173 50.4604 54.2313C50.4746 54.0454 50.4141 53.8614 50.2923 53.7199C49.9676 53.3435 49.5064 53.1107 49.0098 53.0728C48.5133 53.0348 48.0219 53.1947 47.6434 53.5173C47.2977 53.8148 47.0551 54.2135 46.9502 54.6566C46.8452 55.0997 46.8832 55.5644 47.0589 55.9847C46.8558 55.9852 46.6545 55.9859 46.4501 55.9862C46.2554 55.5218 46.2231 55.0056 46.3585 54.5208C46.4938 54.0359 46.789 53.6106 47.1964 53.3134C47.7643 52.8307 48.4965 52.5841 49.2416 52.6247C49.493 52.6385 49.7388 52.7035 49.964 52.8157C50.1892 52.9279 50.3889 53.0849 50.5509 53.277C51.362 54.2366 50.5915 55.3321 50.0702 55.7774C50.0092 55.8319 49.9583 55.8968 49.9199 55.9689C49.5392 55.9721 49.1536 55.975 48.7676 55.9774ZM40.869 55.9549C40.8371 55.9125 40.8003 55.8739 40.7593 55.84C38.4914 54.2559 35.2102 52.3314 32.456 52.1586C32.2225 52.1434 31.9931 52.1365 31.7672 52.1365C28.7769 52.2453 25.8983 53.2973 23.5458 55.141C23.49 55.1855 23.4415 55.2385 23.4021 55.2979C22.6742 55.2478 21.9625 55.1963 21.2807 55.1423C23.6255 53.1179 27.6827 50.4384 32.5441 50.7548C35.4881 50.9397 38.8262 52.8028 41.3124 54.5104C41.1144 54.7336 41.0032 55.0202 40.999 55.3182C41.0008 55.5458 41.0682 55.7681 41.1932 55.9587C41.0848 55.9577 40.9773 55.9563 40.869 55.9549ZM38.3119 55.9159C33.5918 55.8277 29.3532 55.6617 25.64 55.442C27.4721 54.2672 29.59 53.6108 31.7674 53.5429C31.9629 53.5429 32.1623 53.5491 32.3668 53.5621C34.221 53.6784 36.4274 54.7546 38.3119 55.9159ZM32.7212 47.948C35.5218 48.1238 38.7663 49.4325 42.3632 51.8223C42.4351 52.0908 42.5254 52.3542 42.6335 52.6105C42.7258 52.8425 42.8808 53.2315 42.8897 53.3023C42.7712 53.4243 42.6361 53.5292 42.4883 53.6139C39.819 51.736 36.0484 49.5661 32.6338 49.3513C26.6996 48.9743 21.9026 52.5909 19.5732 54.783C19.5138 54.8413 19.4654 54.9097 19.4302 54.985C18.787 54.9274 18.1607 54.8685 17.5657 54.8078C19.4392 52.8291 25.2333 47.4776 32.7212 47.948ZM23.413 43.6334C23.8987 42.966 24.6046 42.4904 25.4069 42.2902C26.2093 42.09 27.0567 42.1778 27.8005 42.5384C28.5443 42.899 29.137 43.5092 29.4745 44.262C29.812 45.0148 29.8728 45.862 29.6462 46.6551C27.6769 46.9188 25.7621 47.4926 23.9732 48.3549C23.2971 47.7851 22.8632 46.9807 22.7592 46.1043C22.6552 45.2278 22.8889 44.3447 23.413 43.6334ZM41.7788 49.573C41.7914 49.5698 41.8041 49.5711 41.8167 49.5671C43.027 49.1851 44.287 48.9823 45.5564 48.9653C45.5095 49.1196 45.4691 49.2743 45.4319 49.4209C45.3719 49.657 45.2714 50.0522 45.2391 50.1134C44.9806 50.1496 44.7185 50.1519 44.4594 50.1204C43.8759 50.0117 43.2727 50.1115 42.7558 50.4024C42.4283 50.1904 42.1011 49.9791 41.7788 49.7842V49.573ZM56.9768 55.4524C57.3437 55.3571 57.7159 55.2833 58.0915 55.2316C58.2858 55.2062 58.4834 55.1856 58.688 55.1719C59.8344 55.1394 60.9778 55.3048 62.0677 55.661C60.4168 55.7325 58.6838 55.7933 56.8687 55.8433C56.9269 55.7201 56.9635 55.5879 56.9768 55.4524ZM65.4057 55.4968C65.3377 55.4106 65.2499 55.3419 65.1497 55.2965C62.5249 54.1628 60.3134 53.6511 58.5916 53.7691C58.358 53.7848 58.1301 53.8082 57.9056 53.8377C57.4203 53.9029 56.9399 54 56.4674 54.1285C56.4267 54.1441 56.3876 54.1637 56.3507 54.1869C56.1466 54.0276 55.9331 53.8807 55.7113 53.7471C55.5088 53.6197 55.1699 53.4065 55.1231 53.3603C55.1299 53.256 55.1531 53.1534 55.1917 53.0562C56.2558 52.6792 57.366 52.4471 58.4923 52.3661C61.6956 52.1464 65.6351 53.8339 68.4093 55.3122C67.4473 55.3775 66.4461 55.439 65.4057 55.4968ZM58.1983 48.1574C57.5724 48.2051 56.9498 48.2888 56.3335 48.408C56.2945 48.3604 56.2492 48.3182 56.1989 48.2827C55.1285 47.6232 54.0192 47.0287 52.8771 46.5023C53.8835 46.4417 54.8936 46.5032 55.8852 46.6856C57.182 46.9657 58.4237 47.4568 59.5605 48.139C59.1064 48.1211 58.6517 48.1273 58.1983 48.1574ZM22.7366 19.6874H30.4946V20.4836L22.7366 20.398V19.6874ZM27.157 25.0663L26.0929 25.2758L25.8201 23.8962L26.8842 23.6865C27.3974 23.5848 27.8781 23.3604 28.285 23.0326L27.9465 24.8288C27.691 24.9314 27.4268 25.0109 27.157 25.0663ZM27.7541 30.5605L27.0756 31.0233L26.2795 29.8625L26.9586 29.3997C27.5278 29.0141 28.0146 28.5198 28.3908 27.9453C28.767 27.3708 29.0251 26.7275 29.1502 26.0529L29.9362 21.8841L30.4946 21.89V26.644C30.4711 26.6819 30.4515 26.7221 30.436 26.764C30.0316 28.311 29.0789 29.6597 27.7541 30.5605ZM33.5161 35.3114C32.4593 33.1978 31.9079 30.8689 31.9051 28.5073V21.209L31.9065 21.2025L31.9051 21.1955V17.6061L33.3156 17.559V28.5073C33.3182 30.6507 33.8187 32.7644 34.7778 34.6827L36.3201 37.7586C37.1253 39.3679 37.5453 41.1413 37.5472 42.9397V47.6686C37.0694 47.4831 36.5997 47.3226 36.1367 47.1823V42.9397C36.135 41.3598 35.7661 39.8018 35.0588 38.388L33.5161 35.3114ZM19.992 41.1502C20.5913 40.3286 21.3472 39.6329 22.2164 39.1028C23.0857 38.5727 24.0512 38.2186 25.0578 38.0608C26.0644 37.9031 27.0923 37.9447 28.0827 38.1833C29.0732 38.4219 30.0067 38.8528 30.83 39.4515C32.4008 40.6909 33.7134 42.2246 34.6938 43.9663C34.7023 43.9809 34.7168 43.9887 34.7262 44.0024V46.8223C34.0947 46.6844 33.4541 46.5916 32.8094 46.5447C32.2482 46.5107 31.6856 46.5053 31.1238 46.5286C31.2643 45.7044 31.1919 44.8581 30.9133 44.0696C30.6346 43.281 30.159 42.5763 29.5314 42.0219C28.9037 41.4676 28.1447 41.0818 27.326 40.9011C26.5072 40.7203 25.6558 40.7506 24.8521 40.989C24.0483 41.2275 23.3188 41.6662 22.7324 42.2637C22.1459 42.8613 21.7219 43.598 21.5003 44.4043C21.2787 45.2106 21.2669 46.0599 21.466 46.872C21.6651 47.6841 22.0685 48.4322 22.6381 49.0457C21.8107 49.5109 21.0111 50.0236 20.2434 50.5813C19.1614 49.2583 18.5498 47.615 18.5043 45.9085C18.4589 44.202 18.982 42.5287 19.992 41.1502ZM19.1241 51.4405C17.9313 52.3934 16.8328 53.4581 15.8438 54.6199C11.2849 54.0912 8.43682 53.4821 7.48958 52.9306L7.42329 52.7829C8.06621 52.4132 10.4164 51.5231 18.6113 50.746C18.7697 50.9837 18.9406 51.2152 19.1241 51.4405ZM76.7308 68.87C69.2121 69.7865 58.0385 70.3124 46.0104 70.3124C33.9667 70.3124 22.8072 69.7865 15.289 68.8687C14.6648 67.7441 13.9901 66.4658 13.2949 65.1041C20.7062 66.1684 32.7559 66.7968 46.0104 66.7968C59.2649 66.7968 71.3146 66.1684 78.7256 65.1041C78.0302 66.4663 77.3553 67.7452 76.7308 68.87ZM66.8949 79.8427C53.0362 81.7242 38.9855 81.7227 25.1272 79.8383L25.6926 77.0804C31.1793 77.9395 38.2588 78.0468 46.0104 78.0468C53.762 78.0468 60.8416 77.9395 66.3284 77.0804L66.8949 79.8427ZM73.8044 73.2138C69.0975 76.3827 58.4325 76.6405 46.0104 76.6405C33.5884 76.6405 22.9233 76.3827 18.2165 73.2138C17.3839 72.3873 16.6893 71.4332 16.1591 70.3879C26.0795 71.3488 36.0435 71.793 46.0104 71.7186C55.9775 71.7925 65.9416 71.3481 75.8622 70.3871C75.3318 71.4327 74.6371 72.387 73.8044 73.2138ZM79.5043 63.5618C72.3732 64.6908 59.609 65.3905 46.0104 65.3905C32.4118 65.3905 19.6476 64.6908 12.5165 63.5618C11.0566 60.639 9.55975 57.4787 8.29612 54.7127C10.0348 55.2283 12.988 55.7649 18.0147 56.2571C25.4964 56.9897 35.439 57.3932 46.0104 57.3932C49.0311 57.3932 51.9971 57.3591 54.8723 57.2947L54.8827 57.2971C54.8893 57.2971 54.8957 57.2943 54.9023 57.2941C62.0779 57.1335 68.6697 56.7795 74.0061 56.2569C74.4207 56.2163 74.8184 56.1754 75.2051 56.1342C75.2204 56.1352 75.2352 56.1413 75.2506 56.1413C75.2831 56.136 75.3153 56.1284 75.3468 56.1187C78.174 55.8856 80.9766 55.4151 83.7245 54.7124C82.4611 57.4787 80.9644 60.639 79.5043 63.5618ZM84.6003 52.7765C84.5776 52.8272 84.5539 52.8795 84.5311 52.9308C83.5324 53.5117 80.4277 54.1567 75.4327 54.7041C75.0329 54.4202 74.5165 54.0643 73.8891 53.6565C74.3801 52.7708 74.8241 51.86 75.2193 50.9279C81.9886 51.6603 84.0105 52.4288 84.6003 52.7765ZM64.2612 40.4999C68.7697 42.2543 72.3814 43.1191 75.4966 43.1902C75.3904 46.6109 74.4273 49.9508 72.6949 52.9053C71.8781 52.4066 70.9578 51.8774 69.9573 51.3563C69.9302 51.293 69.8937 51.2341 69.8489 51.1817C68.0268 49.2172 66.0158 47.4357 63.8449 45.8626C64.0985 44.0857 64.2376 42.2945 64.2612 40.4999ZM56.4096 43.9219C60.0386 44.6069 63.6677 47.2758 66.3374 49.703C65.1797 49.2478 63.9903 48.8772 62.7787 48.5939C62.764 48.5811 62.7564 48.5634 62.7405 48.5517C60.8123 46.9947 58.5605 45.8854 56.1486 45.3042C54.1724 44.9432 52.1425 44.9963 50.1881 45.4602C49.2828 45.1734 48.3535 44.9683 47.4114 44.8475C50.2696 43.7248 53.3817 43.4046 56.4096 43.9219ZM42.262 23.9964L43.269 24.3985L42.745 25.7041L41.7381 25.3021C41.2346 25.0997 40.7708 24.8102 40.3683 24.4469V21.9993H40.394C40.5399 22.4482 40.7828 22.8597 41.1056 23.2047C41.4284 23.5498 41.823 23.8201 42.262 23.9964ZM84.8 19.6874V21.0858L40.3683 20.5929V19.6874H84.8ZM39.8242 32.1672L41.3669 35.243C42.5625 37.6338 43.1862 40.2683 43.1893 42.9397V44.9474C42.7182 45.0193 42.248 45.1097 41.7788 45.2216V42.9397C41.776 40.4864 41.2031 38.0671 40.1052 35.8714L38.5628 32.7962C37.8965 31.4639 37.5489 29.9958 37.5472 28.5071V17.4179L38.9577 17.3708V28.5073C38.9594 29.7776 39.256 31.0302 39.8242 32.1672Z" fill="url(#paint34_linear_1_1802)"/>
<defs>
<linearGradient id="paint0_linear_1_1802" x1="24.2854" y1="79.1921" x2="67.7354" y2="79.1921" gradientUnits="userSpaceOnUse">
<stop stop-color="#DCE2E1"/>
<stop offset="1" stop-color="#C0CCCE"/>
</linearGradient>
<linearGradient id="paint1_linear_1_1802" x1="6.72579" y1="65.1467" x2="85.2952" y2="65.1467" gradientUnits="userSpaceOnUse">
<stop stop-color="#DAE4E8"/>
<stop offset="1" stop-color="#B0C4CC"/>
</linearGradient>
<linearGradient id="paint2_linear_1_1802" x1="46.0106" y1="72.0192" x2="46.0106" y2="77.3432" gradientUnits="userSpaceOnUse">
<stop stop-color="#B0C4CC" stop-opacity="0"/>
<stop offset="0.987" stop-color="#B0C4CC"/>
</linearGradient>
<linearGradient id="paint3_linear_1_1802" x1="12.0462" y1="67.6076" x2="79.9752" y2="67.6076" gradientUnits="userSpaceOnUse">
<stop stop-color="#EC606C"/>
<stop offset="1" stop-color="#BF2640"/>
</linearGradient>
<linearGradient id="paint4_linear_1_1802" x1="6.51562" y1="52.7413" x2="85.5053" y2="52.7413" gradientUnits="userSpaceOnUse">
<stop stop-color="#DCE2E1"/>
<stop offset="1" stop-color="#C0CCCE"/>
</linearGradient>
<linearGradient id="paint5_linear_1_1802" x1="46.0105" y1="51.9831" x2="46.0105" y2="56.1766" gradientUnits="userSpaceOnUse">
<stop stop-color="#92A6AD" stop-opacity="0"/>
<stop offset="0.412" stop-color="#92A6AD"/>
</linearGradient>
<linearGradient id="paint6_linear_1_1802" x1="24.9915" y1="23.6478" x2="31.4369" y2="23.6478" gradientUnits="userSpaceOnUse">
<stop offset="0.218" stop-color="#FFDD50"/>
<stop offset="1" stop-color="#EA9024"/>
</linearGradient>
<linearGradient id="paint7_linear_1_1802" x1="25.2997" y1="25.8686" x2="33.0012" y2="25.8686" gradientUnits="userSpaceOnUse">
<stop offset="0.218" stop-color="#FFDD50"/>
<stop offset="1" stop-color="#EA9024"/>
</linearGradient>
<linearGradient id="paint8_linear_1_1802" x1="38.1151" y1="23.5303" x2="44.186" y2="23.5303" gradientUnits="userSpaceOnUse">
<stop stop-color="#EA9024"/>
<stop offset="0.782" stop-color="#FFDD50"/>
</linearGradient>
<linearGradient id="paint9_linear_1_1802" x1="53.7684" y1="18.9844" x2="53.7684" y2="21.7969" gradientUnits="userSpaceOnUse">
<stop stop-color="#753D3B"/>
<stop offset="1" stop-color="#6D221B"/>
</linearGradient>
<linearGradient id="paint10_linear_1_1802" x1="62.5242" y1="46.6776" x2="76.2021" y2="46.6776" gradientUnits="userSpaceOnUse">
<stop stop-color="#3A915D"/>
<stop offset="1" stop-color="#1D5B36"/>
</linearGradient>
<linearGradient id="paint11_linear_1_1802" x1="69.1086" y1="47.2131" x2="69.1086" y2="53.8942" gradientUnits="userSpaceOnUse">
<stop stop-color="#1D5B36" stop-opacity="0"/>
<stop offset="0.971" stop-color="#1D5B36"/>
</linearGradient>
<linearGradient id="paint12_linear_1_1802" x1="57.5119" y1="43.4001" x2="55.8951" y2="52.5945" gradientUnits="userSpaceOnUse">
<stop offset="0.218" stop-color="#FFDD50"/>
<stop offset="0.612" stop-color="#EA9024"/>
</linearGradient>
<linearGradient id="paint13_linear_1_1802" x1="56.4766" y1="46.0745" x2="55.6206" y2="50.9431" gradientUnits="userSpaceOnUse">
<stop offset="0.218" stop-color="#FFDD50"/>
<stop offset="0.761" stop-color="#EA9024"/>
</linearGradient>
<linearGradient id="paint14_linear_1_1802" x1="36.842" y1="32.824" x2="43.8947" y2="32.824" gradientUnits="userSpaceOnUse">
<stop offset="0.218" stop-color="#FFDD50"/>
<stop offset="1" stop-color="#EA9024"/>
</linearGradient>
<linearGradient id="paint15_linear_1_1802" x1="38.2526" y1="27.6202" x2="38.2526" y2="15.4688" gradientUnits="userSpaceOnUse">
<stop stop-color="#EA9024" stop-opacity="0"/>
<stop offset="1" stop-color="#EA9024"/>
</linearGradient>
<linearGradient id="paint16_linear_1_1802" x1="49.0439" y1="45.4466" x2="49.0439" y2="55.6982" gradientUnits="userSpaceOnUse">
<stop offset="0.037" stop-color="#FFDD50"/>
<stop offset="0.415" stop-color="#EA9024"/>
</linearGradient>
<linearGradient id="paint17_linear_1_1802" x1="46.4273" y1="48.2576" x2="46.4273" y2="53.2357" gradientUnits="userSpaceOnUse">
<stop offset="0.218" stop-color="#FFDD50"/>
<stop offset="0.692" stop-color="#EA9024"/>
</linearGradient>
<linearGradient id="paint18_linear_1_1802" x1="17.7998" y1="45.8027" x2="37.3504" y2="45.8027" gradientUnits="userSpaceOnUse">
<stop stop-color="#DAE4E8"/>
<stop offset="1" stop-color="#B0C4CC"/>
</linearGradient>
<linearGradient id="paint19_linear_1_1802" x1="27.6163" y1="46.8576" x2="27.6163" y2="54.3402" gradientUnits="userSpaceOnUse">
<stop stop-color="#B0C4CC" stop-opacity="0"/>
<stop offset="0.487" stop-color="#B0C4CC"/>
</linearGradient>
<linearGradient id="paint20_linear_1_1802" x1="22.0315" y1="45.6857" x2="30.4954" y2="45.6857" gradientUnits="userSpaceOnUse">
<stop stop-color="#FFAB31"/>
<stop offset="1" stop-color="#D86612"/>
</linearGradient>
<linearGradient id="paint21_linear_1_1802" x1="31.2" y1="32.0941" x2="38.2526" y2="32.0941" gradientUnits="userSpaceOnUse">
<stop offset="0.218" stop-color="#FFDD50"/>
<stop offset="1" stop-color="#EA9024"/>
</linearGradient>
<linearGradient id="paint22_linear_1_1802" x1="34.021" y1="32.824" x2="41.0736" y2="32.824" gradientUnits="userSpaceOnUse">
<stop offset="0.218" stop-color="#FFDD50"/>
<stop offset="1" stop-color="#EA9024"/>
</linearGradient>
<linearGradient id="paint23_linear_1_1802" x1="36.2334" y1="19.1313" x2="36.2334" y2="1.29186e-06" gradientUnits="userSpaceOnUse">
<stop stop-color="#EA9024" stop-opacity="0"/>
<stop offset="1" stop-color="#EA9024"/>
</linearGradient>
<linearGradient id="paint24_linear_1_1802" x1="53.7803" y1="12.3009" x2="53.7803" y2="17.2298" gradientUnits="userSpaceOnUse">
<stop stop-color="#753D3B"/>
<stop offset="1" stop-color="#6D221B"/>
</linearGradient>
<linearGradient id="paint25_linear_1_1802" x1="30.4997" y1="47.2134" x2="30.4997" y2="56.1726" gradientUnits="userSpaceOnUse">
<stop offset="0.218" stop-color="#FFDD50"/>
<stop offset="0.612" stop-color="#EA9024"/>
</linearGradient>
<linearGradient id="paint26_linear_1_1802" x1="32.4061" y1="50.028" x2="32.4061" y2="56.1754" gradientUnits="userSpaceOnUse">
<stop offset="0.218" stop-color="#FFDD50"/>
<stop offset="0.761" stop-color="#EA9024"/>
</linearGradient>
<linearGradient id="paint27_linear_1_1802" x1="32.0746" y1="52.8398" x2="32.0746" y2="56.1375" gradientUnits="userSpaceOnUse">
<stop offset="0.218" stop-color="#FFDD50"/>
<stop offset="1" stop-color="#EA9024"/>
</linearGradient>
<linearGradient id="paint28_linear_1_1802" x1="62.4785" y1="48.8312" x2="62.4785" y2="55.9475" gradientUnits="userSpaceOnUse">
<stop offset="0.218" stop-color="#FFDD50"/>
<stop offset="0.612" stop-color="#EA9024"/>
</linearGradient>
<linearGradient id="paint29_linear_1_1802" x1="61.6745" y1="51.6434" x2="61.6745" y2="56.0063" gradientUnits="userSpaceOnUse">
<stop offset="0.218" stop-color="#FFDD50"/>
<stop offset="0.761" stop-color="#EA9024"/>
</linearGradient>
<linearGradient id="paint30_linear_1_1802" x1="59.4776" y1="54.4545" x2="59.4776" y2="56.0738" gradientUnits="userSpaceOnUse">
<stop offset="0.218" stop-color="#FFDD50"/>
<stop offset="1" stop-color="#EA9024"/>
</linearGradient>
<linearGradient id="paint31_linear_1_1802" x1="41.7014" y1="52.2813" x2="56.2863" y2="52.2813" gradientUnits="userSpaceOnUse">
<stop stop-color="#DAE4E8"/>
<stop offset="1" stop-color="#B0C4CC"/>
</linearGradient>
<linearGradient id="paint32_linear_1_1802" x1="48.9939" y1="53.8945" x2="48.9939" y2="56.1797" gradientUnits="userSpaceOnUse">
<stop stop-color="#B0C4CC" stop-opacity="0"/>
<stop offset="0.971" stop-color="#B0C4CC"/>
</linearGradient>
<linearGradient id="paint33_linear_1_1802" x1="44.8561" y1="53.6942" x2="52.3179" y2="53.6942" gradientUnits="userSpaceOnUse">
<stop stop-color="#F76FF7"/>
<stop offset="1" stop-color="#E038DC"/>
</linearGradient>
<linearGradient id="paint34_linear_1_1802" x1="46.0252" y1="82.6586" x2="46.0252" y2="11.5979" gradientUnits="userSpaceOnUse">
<stop stop-color="#2D2D2D"/>
<stop offset="0.987" stop-color="#141414"/>
</linearGradient>
</defs>
</svg>
