 <svg
    width=""
    height=""
    viewBox="0 0 37 28"
    xmlns="http://www.w3.org/2000/svg"
  >
    <path
      d="M23.3341 0.408205C23.239 0.407936 23.1453 0.432185 23.0622 0.478645L0.493662 12.9761C0.46399 12.9951 0.436214 13.017 0.410722 13.0414C0.392504 13.0545 0.374989 13.0685 0.358251 13.0835C0.311029 13.1319 0.272811 13.1885 0.245408 13.2505C0.242587 13.2573 0.242587 13.2653 0.239766 13.2726C0.218151 13.3305 0.205958 13.3915 0.203657 13.4533C0.203657 13.4607 0.199707 13.4664 0.199707 13.4737V27.1073C0.199707 27.258 0.259151 27.4025 0.364961 27.509C0.470771 27.6156 0.614281 27.6754 0.763919 27.6754H35.7468C35.8964 27.6754 36.0399 27.6156 36.1457 27.509C36.2515 27.4025 36.311 27.258 36.311 27.1073V13.4737C36.3071 10.0097 34.9387 6.68874 32.5059 4.23933C30.0731 1.78991 26.7746 0.412115 23.3341 0.408205ZM23.4774 1.54434C26.4962 1.58481 29.3862 2.78247 31.5585 4.89337C33.7309 7.00427 35.0223 9.8696 35.1696 12.9057H33.9221C33.6851 12.1022 33.2915 11.3543 32.7643 10.7056C32.2372 10.0569 31.587 9.52045 30.8517 9.12746C30.5378 7.69687 29.747 6.41755 28.6108 5.50221C27.4747 4.58687 26.0615 4.09067 24.6064 4.09609C24.427 4.09609 24.243 4.10518 24.0512 4.12393L24.045 4.11143C23.7293 3.31387 23.2305 2.60293 22.5893 2.03685L23.4774 1.54434ZM29.5653 11.0311L28.7381 10.6368L28.6033 9.75404C28.4443 8.80389 27.9551 7.94157 27.2229 7.32107C26.4908 6.70057 25.5634 6.3623 24.6064 6.36666C24.4018 6.36987 24.1976 6.38714 23.9954 6.41835L22.7078 6.60865L22.1408 5.47252C21.668 4.60099 20.8996 3.92976 19.9759 3.58143L21.6358 2.7458C22.3264 3.15594 22.6283 3.77684 23.0311 4.60565L23.219 4.98853C23.2726 5.09593 23.3587 5.18343 23.4649 5.23845C23.571 5.29347 23.6918 5.31317 23.8097 5.29471C24.0732 5.25161 24.3395 5.2292 24.6064 5.22768C25.8431 5.21908 27.0428 5.65261 27.9917 6.45111C28.9407 7.24961 29.5775 8.36125 29.7887 9.58816C29.8027 9.67994 29.8388 9.76688 29.8939 9.84135C29.9489 9.91582 30.0213 9.97557 30.1047 10.0153C31.3252 10.5954 32.2723 11.6325 32.744 12.9057H31.4644C31.064 12.0804 30.3933 11.4193 29.5653 11.0339V11.0311ZM18.3397 4.39035C18.9021 4.39435 19.4541 4.54325 19.9432 4.82287C20.4323 5.10248 20.8421 5.50351 21.1337 5.98776L21.8829 7.48859C21.9362 7.59526 22.0216 7.68232 22.1268 7.73739C22.232 7.79246 22.3518 7.81273 22.4692 7.79534L24.1528 7.54596C24.3022 7.52265 24.453 7.50918 24.6041 7.50563C25.2918 7.49974 25.9592 7.74018 26.487 8.184C27.0148 8.62782 27.3688 9.24611 27.4856 9.92843L27.6661 11.1106C27.6801 11.2024 27.7162 11.2893 27.7713 11.3638C27.8264 11.4382 27.8988 11.498 27.9821 11.5378L29.0806 12.061C29.4899 12.2564 29.8479 12.5457 30.1261 12.9057H2.96265L18.3397 4.39035ZM1.32982 20.8586H32.9257V21.9947H1.32982V20.8586ZM32.9257 19.7225H1.32982V16.3141H32.9257V19.7225ZM1.32982 26.5393V23.1309H32.9257V26.5393H1.32982ZM35.1826 26.5393H34.0541V15.746C34.0541 15.5953 33.9947 15.4509 33.8889 15.3443C33.7831 15.2378 33.6396 15.1779 33.4899 15.1779H1.32982V14.0418H35.1826V26.5393Z"
      fill="#525252"
    />
    <path
      d="M20.513 7.30537V6.08857C20.513 5.93791 20.4535 5.79342 20.3477 5.68689C20.2419 5.58036 20.0984 5.52051 19.9487 5.52051C19.7991 5.52051 19.6556 5.58036 19.5498 5.68689C19.444 5.79342 19.3845 5.93791 19.3845 6.08857V7.30537C18.8527 7.44364 18.3892 7.77245 18.0809 8.23019C17.7726 8.68793 17.6407 9.24315 17.7099 9.7918C17.7791 10.3404 18.0447 10.8448 18.4568 11.2104C18.869 11.576 19.3994 11.7778 19.9487 11.7778C20.4981 11.7778 21.0285 11.576 21.4407 11.2104C21.8528 10.8448 22.1184 10.3404 22.1876 9.7918C22.2568 9.24315 22.1249 8.68793 21.8166 8.23019C21.5083 7.77245 21.0448 7.44364 20.513 7.30537ZM19.9487 10.6331C19.7007 10.6337 19.4595 10.5518 19.2625 10.4001C19.0655 10.2484 18.9238 10.0355 18.8594 9.7943C18.7951 9.55314 18.8117 9.29734 18.9066 9.06666C19.0016 8.83598 19.1696 8.64337 19.3845 8.51876V8.92891C19.3845 9.07957 19.444 9.22406 19.5498 9.33059C19.6556 9.43713 19.7991 9.49697 19.9487 9.49697C20.0984 9.49697 20.2419 9.43713 20.3477 9.33059C20.4535 9.22406 20.513 9.07957 20.513 8.92891V8.51876C20.7279 8.64337 20.8959 8.83598 20.9909 9.06666C21.0858 9.29734 21.1024 9.55314 21.0381 9.7943C20.9737 10.0355 20.832 10.2484 20.635 10.4001C20.438 10.5518 20.1968 10.6337 19.9487 10.6331Z"
      fill="#525252"
    />
  </svg>