<svg
                          width=""
                          height=""
                          viewBox="0 0 30 40"
                          xmlns="http://www.w3.org/2000/svg"
                        >
                          <path
                            d="M12.2787 6.95902C12.6076 6.95902 12.8742 6.69056 12.8742 6.35939C12.8742 6.02823 12.6076 5.75977 12.2787 5.75977C11.9497 5.75977 11.6831 6.02823 11.6831 6.35939C11.6831 6.69056 11.9497 6.95902 12.2787 6.95902Z"
                            fill="#525252"
                          />
                          <path
                            d="M15.2562 7.54203C15.5851 7.54203 15.8518 7.27356 15.8518 6.9424C15.8518 6.61124 15.5851 6.34277 15.2562 6.34277C14.9273 6.34277 14.6606 6.61124 14.6606 6.9424C14.6606 7.27356 14.9273 7.54203 15.2562 7.54203Z"
                            fill="#525252"
                          />
                          <path
                            d="M18.2342 6.95902C18.5631 6.95902 18.8298 6.69056 18.8298 6.35939C18.8298 6.02823 18.5631 5.75977 18.2342 5.75977C17.9053 5.75977 17.6387 6.02823 17.6387 6.35939C17.6387 6.69056 17.9053 6.95902 18.2342 6.95902Z"
                            fill="#525252"
                          />
                          <path
                            d="M16.4476 14.1543C16.7765 14.1543 17.0432 13.8859 17.0432 13.5547C17.0432 13.2235 16.7765 12.9551 16.4476 12.9551C16.1187 12.9551 15.8521 13.2235 15.8521 13.5547C15.8521 13.8859 16.1187 14.1543 16.4476 14.1543Z"
                            fill="#525252"
                          />
                          <path
                            d="M19.4251 14.7373C19.7541 14.7373 20.0207 14.4689 20.0207 14.1377C20.0207 13.8065 19.7541 13.5381 19.4251 13.5381C19.0962 13.5381 18.8296 13.8065 18.8296 14.1377C18.8296 14.4689 19.0962 14.7373 19.4251 14.7373Z"
                            fill="#525252"
                          />
                          <path
                            d="M22.4032 14.1543C22.7321 14.1543 22.9987 13.8859 22.9987 13.5547C22.9987 13.2235 22.7321 12.9551 22.4032 12.9551C22.0743 12.9551 21.8076 13.2235 21.8076 13.5547C21.8076 13.8859 22.0743 14.1543 22.4032 14.1543Z"
                            fill="#525252"
                          />
                          <path
                            d="M8.10972 14.1543C8.43863 14.1543 8.70527 13.8859 8.70527 13.5547C8.70527 13.2235 8.43863 12.9551 8.10972 12.9551C7.7808 12.9551 7.51416 13.2235 7.51416 13.5547C7.51416 13.8859 7.7808 14.1543 8.10972 14.1543Z"
                            fill="#525252"
                          />
                          <path
                            d="M11.0873 14.7373C11.4162 14.7373 11.6828 14.4689 11.6828 14.1377C11.6828 13.8065 11.4162 13.5381 11.0873 13.5381C10.7583 13.5381 10.4917 13.8065 10.4917 14.1377C10.4917 14.4689 10.7583 14.7373 11.0873 14.7373Z"
                            fill="#525252"
                          />
                          <path
                            d="M28.9541 18.9518H28.3383C28.2342 17.4303 27.7479 15.9604 26.925 14.6801C26.9187 14.6631 26.9116 14.6465 26.9036 14.6303C26.8041 14.4774 26.6945 14.3305 26.5867 14.1878C26.5611 14.153 26.5373 14.117 26.5111 14.0828C26.423 13.9665 26.3324 13.855 26.236 13.7434C26.1808 13.6771 26.1242 13.6115 26.0662 13.5468C25.9721 13.4406 25.8768 13.3357 25.778 13.235C25.7149 13.1702 25.6481 13.109 25.5826 13.0461C25.4135 12.8842 25.2396 12.7289 25.0585 12.5808C24.9781 12.5148 24.8983 12.4482 24.8156 12.3847C24.7125 12.3061 24.6077 12.2312 24.5017 12.1574C24.4136 12.0975 24.323 12.0375 24.2331 11.9775C24.2129 11.9643 24.1944 11.9512 24.1735 11.9386C24.0893 10.0382 23.4076 8.21391 22.2268 6.7289C21.0461 5.2439 19.4272 4.17496 17.604 3.67632H17.5932H17.5867C17.5742 3.67272 17.5545 3.66672 17.5301 3.66133C17.5106 3.655 17.4907 3.6498 17.4705 3.64574H17.464C17.3252 3.61036 17.1865 3.58218 17.0471 3.55399C17.0048 3.545 16.9619 3.53361 16.9197 3.52581L16.8756 3.51862C17.0031 3.24447 17.0598 2.94237 17.0404 2.6403C17.0211 2.33822 16.9264 2.04594 16.765 1.79052C16.6037 1.5351 16.381 1.32481 16.1174 1.17911C15.8539 1.03342 15.5581 0.957031 15.2575 0.957031C14.9568 0.957031 14.661 1.03342 14.3975 1.17911C14.134 1.32481 13.9112 1.5351 13.7499 1.79052C13.5885 2.04594 13.4938 2.33822 13.4745 2.6403C13.4552 2.94237 13.5119 3.24447 13.6393 3.51862L13.5976 3.52521C13.4785 3.548 13.3594 3.57678 13.2403 3.60436C13.1778 3.61875 13.1152 3.63015 13.0527 3.64574H13.0438H13.0396L13.0146 3.65113L13.0003 3.65533C12.9646 3.66313 12.9348 3.67152 12.9104 3.67812C12.6467 3.75047 12.3887 3.83462 12.1361 3.93056C10.4958 4.54574 9.07179 5.63364 8.04169 7.05851C7.01158 8.48338 6.42104 10.1821 6.34375 11.9428C6.2842 11.9817 6.2169 12.0195 6.15794 12.0585C6.0287 12.1442 5.89828 12.2354 5.77619 12.3277C5.70809 12.3751 5.64286 12.4266 5.58084 12.4818C5.42942 12.5932 5.28539 12.7143 5.14966 12.8446C5.05794 12.9208 4.97099 13.0047 4.88404 13.088L4.79947 13.169C4.66488 13.3045 4.52968 13.4466 4.41057 13.5851C4.27895 13.7314 4.15329 13.8849 4.05324 14.0181C3.9633 14.1267 3.87902 14.24 3.80072 14.3575C3.7407 14.4356 3.68484 14.5168 3.63337 14.6009V14.6045C3.62741 14.6129 3.62146 14.6219 3.6155 14.6315C2.77336 15.9224 2.27726 17.4107 2.17545 18.9518H1.55845C1.4005 18.9518 1.24901 19.015 1.13733 19.1274C1.02564 19.2399 0.962891 19.3924 0.962891 19.5514V23.1492C0.962891 23.3082 1.02564 23.4607 1.13733 23.5732C1.24901 23.6856 1.4005 23.7488 1.55845 23.7488H3.41182L5.19135 38.8102C5.20855 38.956 5.27825 39.0903 5.38725 39.1878C5.49624 39.2852 5.63696 39.3391 5.78274 39.3391H24.7298C24.8756 39.3391 25.0163 39.2852 25.1253 39.1878C25.2343 39.0903 25.304 38.956 25.3212 38.8102L27.1007 23.7488H28.9541C29.112 23.7488 29.2635 23.6856 29.3752 23.5732C29.4869 23.4607 29.5496 23.3082 29.5496 23.1492V19.5514C29.5496 19.3924 29.4869 19.2399 29.3752 19.1274C29.2635 19.015 29.112 18.9518 28.9541 18.9518ZM25.4189 14.6261L25.448 14.6621C25.5046 14.7328 25.5511 14.8108 25.6053 14.8833C25.1407 15.2293 24.567 15.3935 23.9912 15.3453C23.4153 15.2971 22.8765 15.0398 22.475 14.6213C22.4098 14.5519 22.3297 14.4984 22.2409 14.4648C22.1521 14.4313 22.0568 14.4185 21.9624 14.4276C21.8679 14.4367 21.7767 14.4673 21.6958 14.5172C21.6149 14.5671 21.5463 14.6349 21.4953 14.7154C21.2927 15.0901 20.9934 15.4029 20.6291 15.6208C20.2648 15.8387 19.8489 15.9537 19.4252 15.9537C19.0014 15.9537 18.5855 15.8387 18.2212 15.6208C17.8569 15.4029 17.5577 15.0901 17.355 14.7154C17.3035 14.6219 17.2281 14.5439 17.1365 14.4896C17.045 14.4353 16.9407 14.4067 16.8345 14.4066C16.7473 14.4075 16.6614 14.427 16.5823 14.4639C16.5032 14.5009 16.4329 14.5543 16.3759 14.6207C15.9751 15.0389 15.4371 15.2964 14.8619 15.3453C14.2867 15.3941 13.7134 15.231 13.2486 14.8863C13.2862 14.8366 13.3183 14.7832 13.357 14.734C13.3957 14.6849 13.4255 14.6447 13.4619 14.6009C13.6409 14.3809 13.8318 14.1709 14.0336 13.9719C14.0562 13.9497 14.0806 13.9299 14.1033 13.9077C14.2819 13.735 14.4749 13.5719 14.6726 13.416C14.7322 13.3705 14.7917 13.3249 14.8513 13.2805C15.0756 13.1125 15.3086 12.9565 15.5493 12.8134L15.5564 12.8092C16.5839 12.2219 17.7297 11.8754 18.9085 11.7954C20.0873 11.7153 21.2689 11.9038 22.3654 12.3469L22.4214 12.3703C22.7217 12.4948 23.0134 12.6395 23.2945 12.8032C23.5568 12.9569 23.8099 13.1259 24.0527 13.3093L24.1122 13.3567C24.5958 13.7266 25.0344 14.1527 25.4189 14.6261ZM11.7127 18.9056C11.7369 18.6093 11.7781 18.3146 11.836 18.023C11.836 18.0068 11.8437 17.9918 11.8473 17.9762C11.9034 17.7092 11.9736 17.4454 12.0575 17.1859C12.0778 17.1217 12.1004 17.0582 12.123 16.9946C12.2046 16.7596 12.2958 16.5287 12.3988 16.3032C12.4137 16.2715 12.4262 16.2391 12.4411 16.2079C12.4911 16.1018 12.5542 16.0022 12.6096 15.8985C13.2122 16.3255 13.9313 16.5542 14.6681 16.5532C15.405 16.5523 16.1234 16.3217 16.7249 15.8931C17.0572 16.288 17.4709 16.6052 17.9372 16.8228C18.4036 17.0405 18.9115 17.1532 19.4255 17.1532C19.9395 17.1532 20.4473 17.0405 20.9137 16.8228C21.3801 16.6052 21.7938 16.288 22.126 15.8931C22.7277 16.3223 23.4468 16.5531 24.1842 16.5539C24.9216 16.5546 25.6411 16.3252 26.2437 15.8973C26.7499 16.842 27.0565 17.882 27.1442 18.9518H11.7103C11.7115 18.9362 11.7115 18.9212 11.7127 18.9056ZM9.12977 7.59487C9.18932 7.51632 9.25245 7.44137 9.31558 7.36582C9.39539 7.26868 9.47638 7.17334 9.56095 7.08099C9.63004 7.00484 9.7015 6.93049 9.77416 6.85733C9.85635 6.77419 9.94032 6.69304 10.0261 6.61389C10.1071 6.53893 10.1893 6.46458 10.2738 6.39322C10.3584 6.32187 10.4346 6.26131 10.5162 6.19715C10.6127 6.12219 10.7098 6.04724 10.8092 5.97648C10.8789 5.92731 10.9504 5.88114 11.0219 5.83437C11.141 5.75762 11.2547 5.68087 11.3756 5.61071C11.4239 5.58253 11.4739 5.55734 11.5227 5.53036C12.0278 5.24918 12.5626 5.02573 13.117 4.86418L13.1492 4.85398C13.2154 4.84572 13.2803 4.82879 13.3421 4.80361C13.5399 4.75385 13.7376 4.72506 13.9377 4.69088C14.0628 4.6687 14.1872 4.63752 14.3117 4.62193C14.516 4.59614 14.7197 4.59135 14.9239 4.58235C15.0431 4.57696 15.1622 4.56316 15.2813 4.56376C15.5863 4.56401 15.891 4.58284 16.1937 4.62013C16.3128 4.63452 16.4319 4.6651 16.551 4.68549C16.7535 4.71967 16.956 4.74905 17.1585 4.79942C17.2105 4.81901 17.2644 4.83327 17.3193 4.84199C17.5128 4.89536 17.7022 4.95832 17.8898 5.02668C17.9172 5.03687 17.9458 5.04406 17.9732 5.05426C18.1811 5.13281 18.3853 5.22095 18.5848 5.31629C18.6539 5.34927 18.7194 5.38765 18.7873 5.42243C18.9178 5.48959 19.0476 5.55734 19.1738 5.6317C19.2507 5.67727 19.3251 5.72764 19.4008 5.77561C19.5127 5.84696 19.6241 5.91892 19.7325 5.99627C19.8093 6.05144 19.8843 6.1096 19.9594 6.16776C20.0606 6.24572 20.1607 6.32487 20.2572 6.40761C20.3306 6.47077 20.4029 6.53533 20.4739 6.60129C20.568 6.68704 20.6592 6.77578 20.7491 6.86633C20.8164 6.93529 20.8837 7.00484 20.9486 7.0762C21.0367 7.17214 21.1219 7.27167 21.2053 7.37301C21.2648 7.44497 21.3244 7.51692 21.384 7.59128C21.4066 7.62066 21.4268 7.65124 21.4495 7.68242C20.9848 8.0316 20.4096 8.19817 19.8317 8.15093C19.2538 8.10368 18.7129 7.84586 18.3103 7.42578C18.2451 7.35639 18.165 7.30288 18.0762 7.26932C17.9873 7.23576 17.8921 7.22304 17.7976 7.23211C17.7032 7.24119 17.612 7.27183 17.5311 7.3217C17.4502 7.37157 17.3816 7.43936 17.3306 7.51992C17.1279 7.89461 16.8287 8.20736 16.4644 8.42527C16.1001 8.64318 15.6842 8.75819 15.2604 8.75819C14.8367 8.75819 14.4208 8.64318 14.0565 8.42527C13.6922 8.20736 13.3929 7.89461 13.1903 7.51992C13.1387 7.4265 13.0632 7.34866 12.9717 7.29447C12.8802 7.24028 12.7759 7.21171 12.6698 7.21171C12.5827 7.21244 12.4969 7.23186 12.4179 7.26867C12.3389 7.30548 12.2686 7.35884 12.2118 7.42518C11.8093 7.84576 11.2682 8.10401 10.69 8.15148C10.1118 8.19895 9.53628 8.03238 9.0714 7.68302C9.08868 7.65364 9.10773 7.62306 9.12977 7.59487ZM15.2563 2.16226C15.3741 2.16226 15.4892 2.19743 15.5871 2.26332C15.6851 2.32921 15.7614 2.42285 15.8065 2.53242C15.8516 2.64199 15.8634 2.76255 15.8404 2.87887C15.8174 2.99519 15.7607 3.10203 15.6774 3.18589C15.5941 3.26975 15.488 3.32686 15.3725 3.34999C15.2569 3.37313 15.1372 3.36125 15.0284 3.31587C14.9195 3.27049 14.8265 3.19363 14.7611 3.09502C14.6956 2.99641 14.6607 2.88048 14.6607 2.76189C14.6607 2.60286 14.7235 2.45034 14.8351 2.33789C14.9468 2.22544 15.0983 2.16226 15.2563 2.16226ZM8.4282 8.69818C9.0314 9.12877 9.75242 9.36035 10.4918 9.36099C11.2313 9.36163 11.9527 9.13131 12.5566 8.70178C12.8889 9.09646 13.3026 9.41356 13.7689 9.63104C14.2352 9.84853 14.743 9.96118 15.2569 9.96118C15.7708 9.96118 16.2785 9.84853 16.7448 9.63104C17.2111 9.41356 17.6248 9.09646 17.9571 8.70178C18.5603 9.13224 19.2814 9.36345 20.0207 9.36345C20.7601 9.36345 21.4811 9.13224 22.0843 8.70178C22.5116 9.50519 22.7955 10.3779 22.9229 11.2802C22.9002 11.2706 22.8764 11.2646 22.8538 11.255C22.8312 11.2454 22.799 11.2352 22.7716 11.2244C22.5584 11.1375 22.3404 11.0601 22.1195 10.99C22.0599 10.9708 22.0004 10.9492 21.9408 10.93C21.8812 10.9108 21.8294 10.8916 21.7723 10.8754C21.7489 10.8692 21.7253 10.8642 21.7014 10.8604C21.6823 10.8538 21.6627 10.8478 21.6418 10.8424C20.1862 10.4683 18.6606 10.4683 17.2049 10.8424C17.1853 10.8478 17.1656 10.8538 17.1454 10.8604C17.1215 10.8642 17.0979 10.8692 17.0745 10.8754C16.4481 11.0505 15.8424 11.2936 15.2682 11.6004L15.2563 11.604C15.2033 11.5752 15.1455 11.556 15.0919 11.5284C14.8692 11.4145 14.6422 11.3108 14.41 11.2154C14.3361 11.1854 14.2629 11.1555 14.1878 11.1249C14.1223 11.1003 14.0592 11.0691 13.9931 11.0457L13.9788 11.0415L13.9556 11.0343C13.7823 10.9744 13.6096 10.9198 13.4368 10.8724C13.4172 10.8675 13.3973 10.8637 13.3773 10.861C13.3564 10.855 13.335 10.8472 13.3142 10.843C13.3064 10.843 13.2981 10.8394 13.2897 10.8377C13.2814 10.8359 13.2647 10.8287 13.2528 10.8257C13.1688 10.8059 13.0926 10.7885 13.045 10.7807C13.0265 10.7771 13.0098 10.7711 12.9914 10.7681C12.8506 10.7321 12.7078 10.7047 12.5638 10.6859C12.4583 10.6632 12.3511 10.65 12.2517 10.6386C12.1844 10.6296 12.1165 10.6236 12.0486 10.6164C11.92 10.6014 11.7925 10.5852 11.6609 10.5762C11.4721 10.5636 11.2803 10.557 11.0874 10.557C11.0493 10.557 11.0123 10.5606 10.9742 10.5606C10.8212 10.5606 10.6681 10.566 10.5258 10.5756H10.515L10.4644 10.5804C10.4019 10.5846 10.3388 10.5924 10.2762 10.5978C10.2274 10.602 10.1785 10.6056 10.1303 10.611C9.9171 10.6344 9.70329 10.6632 9.49306 10.7039L9.39122 10.7243C9.33643 10.7351 9.28164 10.7453 9.22744 10.7567C9.13295 10.7771 9.04838 10.7971 8.97373 10.8167C8.94038 10.8245 8.90465 10.8305 8.8713 10.8388C8.82815 10.8468 8.78558 10.8576 8.74385 10.8712C8.66821 10.8916 8.59972 10.9168 8.52647 10.939C8.46989 10.9558 8.41331 10.9726 8.35733 10.9912C8.28825 11.0109 8.2269 11.0301 8.18462 11.0451C7.99821 11.1105 7.81776 11.1752 7.63611 11.2538L7.59144 11.2748C7.71851 10.3732 8.00172 9.50115 8.4282 8.69818ZM5.29498 14.3832C5.40515 14.2561 5.52069 14.1344 5.62372 14.0307L5.70234 13.9557C5.76844 13.8915 5.83574 13.8262 5.93639 13.7398C6.06043 13.6226 6.19107 13.5127 6.32767 13.4106C6.37574 13.3694 6.42583 13.3305 6.47775 13.2943C6.58614 13.2122 6.69453 13.136 6.8071 13.0623C6.94288 12.9711 7.08343 12.886 7.21148 12.8086L7.21803 12.805C8.2515 12.2161 9.4041 11.8707 10.5892 11.7948C11.7743 11.7189 12.9611 11.9144 14.0604 12.3667C13.2305 12.993 12.5153 13.76 11.9468 14.6333C11.936 14.6507 11.9325 14.6705 11.9229 14.6884C11.9134 14.7064 11.8926 14.7388 11.8771 14.7634C11.8191 14.8549 11.7629 14.9475 11.7085 15.041L11.6984 15.0584L11.6913 15.0704C11.6508 15.14 11.6126 15.2113 11.5721 15.2821C11.5233 15.3728 11.4761 15.464 11.4304 15.5555L11.4078 15.6011C11.3726 15.673 11.3387 15.7456 11.3053 15.8187C11.2851 15.8637 11.2619 15.9069 11.2422 15.9519C11.194 15.9537 11.1416 15.9537 11.0874 15.9537C10.664 15.9516 10.2488 15.8356 9.88488 15.6178C9.52092 15.4 9.22137 15.0883 9.01721 14.7148C8.96561 14.6214 8.89014 14.5436 8.79862 14.4894C8.70711 14.4352 8.60286 14.4066 8.49669 14.4066C8.40966 14.4074 8.32379 14.4268 8.24481 14.4636C8.16583 14.5004 8.09557 14.5538 8.03871 14.6201C7.63548 15.0414 7.0932 15.2998 6.51394 15.3466C5.93468 15.3935 5.3584 15.2255 4.89357 14.8743C4.92156 14.8378 4.94896 14.8012 4.9835 14.7592C5.07938 14.6309 5.18003 14.508 5.29498 14.3802V14.3832ZM4.26347 15.8937C4.86663 16.3228 5.58704 16.5532 6.32559 16.5532C7.06414 16.5532 7.78454 16.3228 8.3877 15.8937C8.6925 16.2526 9.06478 16.5473 9.48312 16.7609C9.90146 16.9744 10.3576 17.1025 10.8253 17.1379C10.808 17.1979 10.792 17.2626 10.7759 17.325C10.7413 17.4611 10.708 17.5972 10.6794 17.7345C10.6651 17.8053 10.6538 17.8761 10.6407 17.9474C10.6169 18.0781 10.5925 18.2095 10.5746 18.3414C10.5567 18.4733 10.5442 18.6166 10.5317 18.7545C10.5258 18.8205 10.5156 18.8852 10.5115 18.9512H3.36775C3.45271 17.8806 3.75773 16.8394 4.26347 15.8937ZM24.2015 38.1398H6.31159L6.02811 35.7413H11.6829C11.8409 35.7413 11.9924 35.6781 12.104 35.5657C12.2157 35.4532 12.2785 35.3007 12.2785 35.1417C12.2785 34.9827 12.2157 34.8301 12.104 34.7177C11.9924 34.6052 11.8409 34.5421 11.6829 34.5421H5.88636L5.74462 33.3428H9.30069C9.45865 33.3428 9.61013 33.2796 9.72182 33.1672C9.83351 33.0547 9.89625 32.9022 9.89625 32.7432C9.89625 32.5842 9.83351 32.4316 9.72182 32.3192C9.61013 32.2067 9.45865 32.1436 9.30069 32.1436H5.72735C5.68687 32.1473 5.64693 32.1556 5.60824 32.1681L4.61128 23.7488H25.9013L24.2015 38.1398ZM28.3585 22.5495H2.15401V20.151H28.3585V22.5495Z"
                            fill="#525252"
                          />
                        </svg>