<svg
                          width=""
                          height=""
                          viewBox="0 0 36 34"
                          fill="none"
                          xmlns="http://www.w3.org/2000/svg"
                        >
                          <path
                            d="M19.1288 13.5305C20.7807 11.8784 25.7683 9.59398 27.4309 11.2515C29.0934 12.909 26.8021 17.8921 25.1502 19.539C24.3409 20.2842 23.2737 20.6881 22.1723 20.6661C21.0709 20.644 20.0208 20.1978 19.2421 19.4208C18.4635 18.6438 18.0168 17.5965 17.9957 16.4984C17.9745 15.4003 18.3806 14.3367 19.1288 13.5305Z"
                            stroke="#525252"
                            strokeWidth="1.2"
                            strokeLinecap="round"
                            strokeLinejoin="round"
                          />
                          <path
                            d="M28.1822 12.0065L30.6333 9.56274C30.7937 9.72424 30.9928 9.84202 31.2119 9.90485C31.4309 9.96767 31.6624 9.97342 31.8843 9.92156C32.1062 9.8697 32.311 9.76195 32.4792 9.60862C32.6474 9.45529 32.7733 9.26151 32.8449 9.0458C32.9165 8.8301 32.9314 8.59969 32.8882 8.3766C32.845 8.15352 32.7451 7.94522 32.598 7.77162C32.451 7.59802 32.2617 7.46494 32.0484 7.38509C31.835 7.30524 31.6047 7.2813 31.3794 7.31555C31.4117 7.09246 31.3863 6.86483 31.3055 6.65427C31.2248 6.44371 31.0915 6.25721 30.9181 6.11247C30.7448 5.96772 30.5373 5.86954 30.3152 5.82722C30.0931 5.78491 29.8639 5.79988 29.6492 5.87071C29.4346 5.94153 29.2417 6.06587 29.0887 6.23191C28.9358 6.39796 28.828 6.6002 28.7755 6.81946C28.7231 7.03871 28.7276 7.2677 28.7889 7.48469C28.8501 7.70168 28.9659 7.89948 29.1253 8.0593L26.6795 10.5031M26.9939 9.65837C25.8998 9.01096 24.6708 8.62374 23.4023 8.5268C22.2206 8.4368 21.033 8.5945 19.9161 8.98977C18.7992 9.38504 17.7777 10.0091 16.9173 10.8218C14.888 12.7611 12.2954 14.0107 9.51049 14.3918H9.36129C8.42276 14.5376 7.53691 14.9191 6.78719 15.5006C6.03747 16.082 5.44856 16.8441 5.07595 17.7152C4.70333 18.5862 4.55927 19.5375 4.65735 20.4794C4.75543 21.4213 5.09241 22.3228 5.63654 23.099"
                            stroke="#525252"
                            strokeWidth="1.2"
                            strokeLinecap="round"
                            strokeLinejoin="round"
                          />
                          <path
                            d="M28.8483 22.9129C30.3279 21.4021 31.1859 19.3934 31.253 17.2829C31.3201 15.1724 30.5914 13.1135 29.2106 11.5123L29.0348 11.3104M25.5285 8.80825L27.4362 6.90638C27.6046 7.0739 27.8156 7.19257 28.0465 7.24966C28.2774 7.30675 28.5196 7.30011 28.747 7.23044M29.7062 5.84388C29.6863 5.53332 29.5537 5.2406 29.3332 5.02044C29.1863 4.87429 29.0071 4.76452 28.81 4.69993C28.6129 4.63535 28.4033 4.61775 28.1982 4.64856C28.2305 4.42546 28.2051 4.19784 28.1243 3.98728C28.0436 3.77672 27.9103 3.59022 27.737 3.44548C27.5636 3.30073 27.3561 3.20254 27.134 3.16023C26.9119 3.11792 26.6827 3.13289 26.468 3.20371C26.2534 3.27454 26.0605 3.39887 25.9075 3.56492C25.7546 3.73096 25.6468 3.93321 25.5943 4.15246C25.5419 4.37172 25.5464 4.6007 25.6077 4.8177C25.6689 5.03469 25.7847 5.23248 25.9441 5.39231L22.9441 8.38856"
                            stroke="#525252"
                            strokeWidth="1.2"
                            strokeLinecap="round"
                            strokeLinejoin="round"
                          />
                          <path
                            d="M11.0238 17C11.3181 17 11.5567 16.7622 11.5567 16.4688C11.5567 16.1753 11.3181 15.9375 11.0238 15.9375C10.7295 15.9375 10.491 16.1753 10.491 16.4688C10.491 16.7622 10.7295 17 11.0238 17Z"
                            fill="#525252"
                          />
                          <path
                            d="M11.0238 20.7188C11.3181 20.7188 11.5567 20.4809 11.5567 20.1875C11.5567 19.8941 11.3181 19.6562 11.0238 19.6562C10.7295 19.6562 10.491 19.8941 10.491 20.1875C10.491 20.4809 10.7295 20.7188 11.0238 20.7188Z"
                            fill="#525252"
                          />
                          <path
                            d="M8.89249 19.125C9.18678 19.125 9.42535 18.8872 9.42535 18.5938C9.42535 18.3003 9.18678 18.0625 8.89249 18.0625C8.59819 18.0625 8.35962 18.3003 8.35962 18.5938C8.35962 18.8872 8.59819 19.125 8.89249 19.125Z"
                            fill="#525252"
                          />
                          <path
                            d="M5.19437 26.5625L6.70771 29.2188C6.89505 29.5423 7.16462 29.8108 7.48924 29.9973C7.81386 30.1839 8.18207 30.2818 8.55676 30.2812H26.3172C26.6919 30.2818 27.0601 30.1839 27.3847 29.9973C27.7094 29.8108 27.9789 29.5423 28.1663 29.2188L29.7063 26.5625M4.6615 24.2409L5.59402 23.3113C6.19349 22.7143 7.00611 22.3791 7.85337 22.3791C8.70063 22.3791 9.51325 22.7143 10.1127 23.3113L11.0559 24.2409L11.9884 23.3113C12.5879 22.7143 13.4005 22.3791 14.2478 22.3791C15.095 22.3791 15.9077 22.7143 16.5071 23.3113L17.4503 24.2409L18.3828 23.3113C18.9823 22.7143 19.7949 22.3791 20.6422 22.3791C21.4894 22.3791 22.3021 22.7143 22.9015 23.3113L23.8447 24.2409L24.7772 23.3113C25.3767 22.7143 26.1893 22.3791 27.0366 22.3791C27.8839 22.3791 28.6965 22.7143 29.2959 23.3113L30.2391 24.2409M9.4573 2.65625L8.74859 3.53812C8.58661 3.7416 8.47505 3.98028 8.42294 4.2348C8.37083 4.48932 8.37966 4.75251 8.4487 5.00299C8.51774 5.25347 8.64505 5.48419 8.82029 5.67643C8.99554 5.86866 9.21378 6.01699 9.4573 6.10938C9.70039 6.20233 9.91809 6.35107 10.0928 6.54356C10.2674 6.73604 10.3942 6.96685 10.4627 7.21727C10.5312 7.46769 10.5395 7.73068 10.4871 7.98492C10.4346 8.23916 10.3228 8.4775 10.1607 8.68062L9.4573 9.5625M5.19437 5.3125L4.48565 6.19438C4.32481 6.39825 4.2142 6.63691 4.16273 6.89116C4.11126 7.14541 4.12036 7.40816 4.1893 7.65827C4.25824 7.90838 4.38509 8.13886 4.55965 8.33119C4.73421 8.52352 4.95161 8.67232 5.19437 8.76562C5.43745 8.85858 5.65516 9.00732 5.82983 9.19981C6.0045 9.39229 6.13122 9.6231 6.19972 9.87352C6.26823 10.1239 6.27659 10.3869 6.22412 10.6412C6.17166 10.8954 6.05985 11.1338 5.89775 11.3369L5.19437 12.2188M31.3049 26.5625H3.59576C3.31311 26.5625 3.04204 26.4506 2.84218 26.2513C2.64231 26.052 2.53003 25.7818 2.53003 25.5C2.53003 25.2182 2.64231 24.948 2.84218 24.7487C3.04204 24.5494 3.31311 24.4375 3.59576 24.4375H31.3049C31.5875 24.4375 31.8586 24.5494 32.0584 24.7487C32.2583 24.948 32.3706 25.2182 32.3706 25.5C32.3706 25.7818 32.2583 26.052 32.0584 26.2513C31.8586 26.4506 31.5875 26.5625 31.3049 26.5625Z"
                            stroke="#525252"
                            strokeWidth="1.2"
                            strokeLinecap="round"
                            strokeLinejoin="round"
                          />
                        </svg>