 <svg
                      width="92"
                      height="91"
                      viewBox="0 0 91 90"
                      fill="none"
                      xmlns="http://www.w3.org/2000/svg"
                    >
                      <path
                        d="M61.7613 83.7859H28.8898C26.5362 83.7859 24.6284 81.8839 24.6284 79.5374V78.6631H66.0227V79.5374C66.0227 81.8839 64.115 83.7859 61.7613 83.7859Z"
                        fill="#BEF0FF"
                      />
                      <path
                        d="M72.6613 39.9248L72.0038 44.7764L69.7787 61.2102L68.1654 73.1352L67.7634 76.1041C67.5661 77.5703 66.3107 78.6635 64.8279 78.6635H25.5729C24.083 78.6635 22.8258 77.5597 22.6354 76.0867L22.2546 73.1353L20.7171 61.2103L18.5976 44.7765L17.9717 39.925L72.6613 39.9248Z"
                        fill="#BF6A50"
                      />
                      <path
                        d="M27.7331 50.3877H25.8315V52.2835H27.7331V50.3877Z"
                        fill="#734F3F"
                      />
                      <path
                        d="M64.82 50.3877H62.9185V52.2835H64.82V50.3877Z"
                        fill="#734F3F"
                      />
                      <path
                        d="M55.5105 54.04H53.6089V55.9358H55.5105V54.04Z"
                        fill="#734F3F"
                      />
                      <path
                        d="M36.9882 54.04H35.0864V55.9358H36.9882V54.04Z"
                        fill="#734F3F"
                      />
                      <path
                        d="M46.2932 50.3877H44.3916V52.2835H46.2932V50.3877Z"
                        fill="#734F3F"
                      />
                      <path
                        d="M72.6613 39.9248L72.0038 44.7764H54.5273C54.5273 46.1562 53.406 47.2742 52.0219 47.2742C50.6396 47.2742 49.5164 46.1562 49.5164 44.7764H30.1463C30.1463 46.1562 29.0251 47.2742 27.6409 47.2742C26.2568 47.2742 25.1354 46.1562 25.1354 44.7764H18.5976L17.9717 39.9248H72.6613Z"
                        fill="#FFC67B"
                      />
                      <path
                        d="M69.7781 61.2109L68.1648 73.1359H22.2538L20.7163 61.2109H69.7781Z"
                        fill="#734F3F"
                      />
                      <path
                        d="M27.7475 64.3994H25.8457V66.2952H27.7475V64.3994Z"
                        fill="#FFD4A1"
                      />
                      <path
                        d="M64.8344 64.3994H62.9326V66.2952H64.8344V64.3994Z"
                        fill="#FFD4A1"
                      />
                      <path
                        d="M55.5246 68.0518H53.623V69.9476H55.5246V68.0518Z"
                        fill="#FFD4A1"
                      />
                      <path
                        d="M37.0023 68.0518H35.1006V69.9476H37.0023V68.0518Z"
                        fill="#FFD4A1"
                      />
                      <path
                        d="M46.3068 64.3994H44.4053V66.2952H46.3068V64.3994Z"
                        fill="#FFD4A1"
                      />
                      <path
                        d="M65.1606 27.3781C65.1606 28.4434 64.7376 29.4066 64.0515 30.1045C63.3657 30.8023 62.4188 31.2348 61.3735 31.2348H29.0406C26.9495 31.2348 25.2549 29.5068 25.2549 27.3781C25.2549 26.3129 25.678 25.3496 26.3639 24.65C27.048 23.9539 27.9948 23.5215 29.0406 23.5215H61.3735C63.4646 23.5217 65.1606 25.2477 65.1606 27.3781Z"
                        fill="#FFD4A1"
                      />
                      <path
                        d="M68.7682 35.4961C68.7682 36.7195 68.2711 37.827 67.467 38.6285C66.663 39.4301 65.5523 39.9258 64.325 39.9258H26.387C23.9346 39.9258 21.9458 37.943 21.9458 35.4961C21.9458 34.2727 22.443 33.1652 23.247 32.3637C24.051 31.5621 25.1618 31.0664 26.3872 31.0664H64.3252C66.7793 31.0664 68.7682 33.0512 68.7682 35.4961Z"
                        fill="#FFD4A1"
                      />
                      <path
                        d="M64.3251 30.986H62.3875C63.0256 30.8081 63.5963 30.4678 64.0518 30.011C64.7378 29.323 65.1608 28.3734 65.1608 27.3233C65.1608 25.223 63.4648 23.5215 61.3737 23.5215H33.2107C32.1651 23.5215 31.2183 23.9478 30.5342 24.634C29.8483 25.3236 29.4252 26.2733 29.4252 27.3233C29.4252 29.0691 30.5982 30.5404 32.1965 30.986H30.2752C29.048 30.986 27.9372 31.4863 27.1332 32.2951C26.3292 33.1038 25.832 34.2213 25.832 35.4558C25.832 37.9246 27.8209 39.9254 30.2752 39.9254H64.3252C65.5526 39.9254 66.6634 39.4251 67.4672 38.6163C68.2714 37.8076 68.7684 36.6901 68.7684 35.4558C68.7684 32.9885 66.7796 30.986 64.3251 30.986Z"
                        fill="#734F3F"
                      />
                      <path
                        d="M46.1619 24.4265L40.4492 14.3916L42.6357 13.1773L51.9856 7.79492L59.8631 21.3992L52.5348 25.8188L48.5599 25.8187C47.5675 25.8185 46.6517 25.2869 46.1619 24.4265Z"
                        fill="#99CCB3"
                      />
                      <path
                        d="M45.9633 20.635C45.318 23.3016 43.1705 25.2141 40.6335 25.6975C39.7096 25.8751 38.7344 25.861 37.7613 25.6272C34.1133 24.7483 31.8705 21.0868 32.7539 17.4499C33.6092 13.9237 37.0877 11.7141 40.6247 12.3856C40.7359 12.4049 40.845 12.4295 40.9563 12.4559C44.6039 13.3366 46.8449 16.9979 45.9633 20.635Z"
                        fill="white"
                      />
                      <path
                        d="M45.9713 20.6352C45.353 23.3018 43.2953 25.2143 40.8646 25.6977C40.7582 25.6783 40.6534 25.6537 40.5469 25.6273C37.0518 24.7484 34.903 21.0869 35.7476 17.45C36.3659 14.7834 38.4253 12.8691 40.856 12.3857C40.9625 12.4051 41.0672 12.4297 41.1737 12.4561C44.6688 13.3367 46.8159 16.9981 45.9713 20.6352Z"
                        fill="#FF96B1"
                      />
                      <path
                        d="M52.1676 48.3299C53.7645 48.3299 55.1192 47.2777 55.5707 45.832H62.6865C63.2706 45.832 63.7444 45.3597 63.7444 44.7773C63.7444 44.1948 63.2706 43.7227 62.6865 43.7227H53.6154V44.7264C53.6154 45.4944 53.0353 46.1658 52.2667 46.217C51.4239 46.2732 50.7202 45.6054 50.7202 44.7773V43.7227H44.722C44.1376 43.7227 43.6641 44.1948 43.6641 44.7773C43.6641 45.3597 44.1376 45.832 44.722 45.832H48.7647C49.2164 47.2777 50.5713 48.3299 52.1676 48.3299Z"
                        fill="#191010"
                      />
                      <path
                        d="M23.571 79.1965V79.5377C23.571 82.4664 25.9525 84.8408 28.8902 84.8408H61.7621C64.6997 84.8408 67.0814 82.4664 67.0814 79.5377V78.9992C67.9831 78.3749 68.6259 77.3935 68.7813 76.246L75.2142 28.7344C75.2921 28.1572 74.8862 27.6259 74.3072 27.5481C73.7282 27.4702 73.1954 27.8749 73.1173 28.4523L71.7066 38.8701H68.5177C69.2492 37.9389 69.6872 36.7678 69.6872 35.4958C69.6872 32.8505 67.7987 30.6367 65.2955 30.124C65.9223 29.2635 66.2725 28.1906 66.2115 27.0351C66.0752 24.454 63.8601 22.4664 61.2676 22.4664H60.2492L61.4335 21.7851L52.4981 6.35378L42.7362 11.9733C42.2547 11.7448 41.7428 11.5615 41.2044 11.4316C41.1668 11.4226 41.1289 11.4157 41.0913 11.4073C41.1633 11.1751 41.2403 10.944 41.3237 10.7144C41.8301 9.32167 42.5332 8.02053 43.4194 6.83524C43.7505 6.39245 43.673 5.76807 43.2507 5.41053C42.7856 5.01643 42.0815 5.09466 41.7171 5.5828C40.7101 6.93104 39.9107 8.41112 39.3347 9.99561C39.1873 10.4006 39.0561 10.8091 38.9403 11.2208C37.5433 11.2932 36.1807 11.7399 34.9779 12.5432C33.4956 13.5334 32.3887 15.0128 31.8605 16.7119C31.2393 18.7094 31.4583 20.7459 32.2997 22.4664H29.1674C26.5749 22.4664 24.3598 24.454 24.2235 27.0351C24.1625 28.1907 24.513 29.2637 25.1396 30.124C22.6361 30.6367 20.748 32.8505 20.748 35.4958C20.748 36.7678 21.1856 37.9389 21.9173 38.8701H18.8716L17.5293 28.4597C17.4547 27.8819 16.9245 27.4739 16.3452 27.5481C15.7656 27.6223 15.3562 28.151 15.4306 28.7286L21.5546 76.221C21.7209 77.51 22.4984 78.5913 23.571 79.1965ZM64.7965 77.6088H25.5425C24.5872 77.6088 23.775 76.8964 23.6531 75.9519L23.4258 74.19H66.9243L66.6842 75.964C66.5574 76.9015 65.7458 77.6088 64.7965 77.6088ZM64.9603 79.7182C64.8664 81.3957 63.4675 82.7316 61.762 82.7316H28.8902C27.1846 82.7316 25.786 81.3957 25.6917 79.7182H64.7965H64.9603ZM33.7813 17.6975C34.1416 16.2123 35.0604 14.9558 36.3685 14.1597C37.0251 13.76 37.7406 13.5026 38.4787 13.3885C38.3653 14.1667 38.3059 14.9533 38.3004 15.7459C38.2964 16.3541 38.8107 16.8391 39.4197 16.8045H39.4211C39.9761 16.7729 40.4125 16.3181 40.4171 15.7639C40.4233 14.9889 40.4892 14.2209 40.6118 13.4618C40.6128 13.4613 40.6132 13.461 40.6142 13.4603C43.7438 14.1611 45.6865 17.2897 44.9356 20.3862C44.192 23.452 41.0864 25.3434 38.0099 24.602C34.9347 23.8607 33.0377 20.7633 33.7813 17.6975ZM22.8662 35.3656C22.9355 33.5396 24.4987 32.1214 26.3315 32.1214H29.059H33.9498H49.2222C49.8063 32.1214 50.2801 31.6492 50.2801 31.0667C50.2801 30.4843 49.8063 30.012 49.2222 30.012H33.9498H29.138C27.6717 30.012 26.4082 28.891 26.3359 27.4308C26.2587 25.8701 27.5099 24.5756 29.0588 24.5756H33.8059C34.7933 25.5635 36.0561 26.3011 37.5125 26.6521C38.1305 26.801 38.7488 26.8722 39.3581 26.8722C42.9 26.8722 46.1236 24.4621 46.9919 20.8817C47.684 18.0276 46.703 15.1546 44.6813 13.2889L51.7234 9.23501L58.5429 21.0124L52.6933 24.3777C52.1875 24.6688 52.0138 25.3137 52.3059 25.818L52.3061 25.8184C52.5981 26.3229 53.245 26.4958 53.7508 26.2046L56.5827 24.5754H61.297C62.7633 24.5754 64.0267 25.6966 64.0992 27.1566C64.1764 28.7174 62.9251 30.0116 61.3764 30.0116H59.0146H57.5431C56.9589 30.0116 56.4852 30.484 56.4852 31.0663C56.4852 31.6489 56.9591 32.121 57.5431 32.121H59.0146H61.3764H64.1038C65.9368 32.121 67.4998 33.5392 67.5689 35.3652C67.6418 37.2849 66.0965 38.8698 64.1868 38.8698H26.2483C24.3386 38.8701 22.7934 37.2853 22.8662 35.3656ZM26.2483 40.9795H64.1867H71.4209L71.0494 43.7229H68.3458C67.7615 43.7229 67.2879 44.1951 67.2879 44.7776C67.2879 45.36 67.7615 45.8323 68.3458 45.8323H70.764L68.8245 60.1564H37.1101C36.5258 60.1564 36.0522 60.6287 36.0522 61.2111C36.0522 61.7934 36.5258 62.2657 37.1101 62.2657H68.5388L67.2099 72.0805H23.1541L21.8884 62.2657H25.9098C26.4939 62.2657 26.9677 61.7934 26.9677 61.2111C26.9677 60.6287 26.4939 60.1564 25.9098 60.1564H21.6165L19.7692 45.8323H24.3834C24.8353 47.2779 26.19 48.3302 27.7865 48.3302C29.3834 48.3302 30.738 47.2779 31.1898 45.8323H39.3819C39.9661 45.8323 40.4398 45.36 40.4398 44.7776C40.4398 44.1951 39.9661 43.7229 39.3819 43.7229H29.2342V44.7267C29.2342 45.4946 28.6542 46.1661 27.8858 46.2173C27.0428 46.2735 26.3393 45.6057 26.3393 44.7776V43.7229H19.4975L19.1437 40.9795H26.2483Z"
                        fill="#191010"
                      />
                      <path
                        d="M30.9124 62.2656H32.0782C32.6623 62.2656 33.1361 61.7933 33.1361 61.2109C33.1361 60.6286 32.6623 60.1562 32.0782 60.1562H30.9124C30.3281 60.1562 29.8545 60.6286 29.8545 61.2109C29.8545 61.7933 30.3279 62.2656 30.9124 62.2656Z"
                        fill="#191010"
                      />
                    </svg>