<svg width="21" height="21" viewBox="0 0 21 21" fill="none" xmlns="http://www.w3.org/2000/svg">
<path d="M7.60348 17.7189H3.9375C3.76345 17.7189 3.59653 17.6497 3.47346 17.5266C3.35039 17.4036 3.28125 17.2367 3.28125 17.0626V13.3966C3.28133 13.2228 3.35036 13.0561 3.4732 12.9332L13.5893 2.81706C13.7124 2.69408 13.8792 2.625 14.0532 2.625C14.2272 2.625 14.394 2.69408 14.5171 2.81706L18.183 6.48057C18.306 6.60363 18.3751 6.77049 18.3751 6.94446C18.3751 7.11843 18.306 7.28529 18.183 7.40835L8.06695 17.5269C7.94398 17.6497 7.77729 17.7188 7.60348 17.7189Z" stroke="#0F4DA2" stroke-width="1.5" stroke-linecap="round" stroke-linejoin="round"/>
<path d="M11.1562 5.25L15.75 9.84375" stroke="#0F4DA2" stroke-width="1.5" stroke-linecap="round" stroke-linejoin="round"/>
</svg>
