<svg width="" height="" viewBox="0 0 90 90" fill="none" xmlns="http://www.w3.org/2000/svg">
<path d="M65.8378 76.4211L66.6585 80.434C52.291 82.4739 37.7074 82.4739 23.3398 80.434L24.1584 76.4319L65.8378 76.4211Z" fill="url(#paint0_linear_3657_1474)"/>
<path d="M84.1644 52.9502C84.1644 52.9502 75.6506 72.0756 73.1023 73.7965C68.4445 76.942 58.702 77.3438 44.9992 77.3438C31.2963 77.3438 21.5538 76.942 16.896 73.7965C14.3478 72.0756 5.83398 52.9502 5.83398 52.9502H84.1644Z" fill="url(#paint1_linear_3657_1474)"/>
<path d="M15.4316 72.02C15.8199 72.6882 16.3149 73.2883 16.897 73.7965C21.5548 76.9419 31.2973 77.3437 45.0002 77.3437C58.703 77.3437 68.4455 76.9419 73.1033 73.7965C73.6854 73.2883 74.1805 72.6882 74.5687 72.02H15.4316Z" fill="url(#paint2_linear_3657_1474)"/>
<path d="M13.9301 69.5216C21.135 70.4302 32.3659 71.0157 45 71.0157C57.6352 71.0157 68.8654 70.43 76.0702 69.5212C76.9562 67.9446 77.9179 66.0915 78.8616 64.2002C71.9969 65.3338 59.4043 66.0938 45 66.0938C30.5958 66.0938 18.0033 65.3339 11.1387 64.2003C12.0823 66.0916 13.0443 67.945 13.9301 69.5216Z" fill="url(#paint3_linear_3657_1474)"/>
<path d="M69.7968 49.3057C78.691 50.0147 84.375 51.0971 84.375 52.3098C84.375 54.4456 66.7462 56.177 45 56.177C23.2538 56.177 5.625 54.4456 5.625 52.3098C5.625 51.4645 8.38687 50.6825 13.0728 50.0458L69.7968 49.3057Z" fill="url(#paint4_linear_3657_1474)"/>
<path d="M5.625 52.3098C5.625 54.4456 23.2537 56.1769 45 56.1769C66.7463 56.1769 84.375 54.4456 84.375 52.3098C84.3633 52.1864 84.3087 52.071 84.2207 51.9836H5.76562C5.68106 52.0719 5.63114 52.1877 5.625 52.3098Z" fill="url(#paint5_linear_3657_1474)"/>
<path d="M30.4708 21.8577C30.2189 22.8304 29.6976 23.7123 28.9668 24.4019C28.236 25.0916 27.3255 25.561 26.3398 25.7562L24.5896 26.1018L24.0449 23.3424L25.7957 22.9969C26.1859 22.9196 26.5522 22.7512 26.8649 22.5054C27.1776 22.2596 27.4278 21.9434 27.5951 21.5825L27.7744 21.1948L30.4708 21.8577Z" fill="url(#paint6_linear_3657_1474)"/>
<path d="M32.0295 20.1896L30.1528 26.9408C29.7104 28.6539 28.6591 30.1472 27.1956 31.1413L25.9386 32.0005L24.3516 29.6788L25.6086 28.8192C26.0997 28.4855 26.5197 28.0577 26.8444 27.5606C27.1691 27.0635 27.3919 26.5069 27.5 25.9231L28.6628 19.7363L32.0295 20.1896Z" fill="url(#paint7_linear_3657_1474)"/>
<path d="M37.1585 20.4429C37.0363 21.598 37.2946 22.7615 37.894 23.7565C38.4935 24.7515 39.4014 25.5236 40.4798 25.9554L42.136 26.6183L43.1811 24.007L41.5241 23.3438C41.155 23.1957 40.826 22.9624 40.5641 22.6631C40.3022 22.3637 40.1147 22.0067 40.017 21.6211L39.9365 21.3022L37.1585 20.4429Z" fill="url(#paint8_linear_3657_1474)"/>
<path d="M84.375 18.9844V21.7969C24.2289 21.1272 36.3379 21.2631 21.0938 21.0938V18.9844H84.375Z" fill="url(#paint9_linear_3657_1474)"/>
<path d="M61.4629 49.2431C62.1805 46.0333 62.5254 42.7515 62.4909 39.4626C66.9904 41.2926 71.2818 42.5526 75.09 42.4895C75.2197 46.3236 74.0353 50.1224 71.8662 53.8948L61.4629 49.2431Z" fill="url(#paint10_linear_3657_1474)"/>
<path d="M61.858 47.2131C61.7394 47.897 61.6077 48.5736 61.4629 49.2431L71.8659 53.8944C73.0938 51.8114 74.012 49.5607 74.5918 47.2132L61.858 47.2131Z" fill="url(#paint11_linear_3657_1474)"/>
<path d="M40.9961 46.8759C44.0617 44.7958 49.4412 42.0838 55.4996 43.2311C61.4361 44.3554 67.2347 50.4146 69.6033 53.1623C59.6252 54.4922 49.4974 52.2666 40.9961 46.8759Z" fill="url(#paint12_linear_3657_1474)"/>
<path d="M63.0353 50.5426C60.5823 48.4333 57.6916 46.5087 54.9763 45.9946C52.2545 45.5257 49.4555 45.8359 46.9023 46.8893C52.2043 51.2462 57.5872 52.2508 63.0353 50.5426Z" fill="url(#paint13_linear_3657_1474)"/>
<path d="M40.0781 50.1788V42.9398C40.0781 40.5954 39.5323 38.2831 38.4838 36.1861L36.9461 33.1106C36.2314 31.6815 35.8594 30.1055 35.8594 28.5076V15.4688H38.6719V28.5074C38.6734 29.6686 38.9437 30.8136 39.4615 31.8528L40.9996 34.9286C42.2401 37.4172 42.8874 40.1592 42.8906 42.9398V45.5501L40.0781 50.1788Z" fill="url(#paint14_linear_3657_1474)"/>
<path d="M38.6719 27.6202V15.4688H35.8594V19.1313L38.6719 27.6202Z" fill="url(#paint15_linear_3657_1474)"/>
<path d="M39.0697 46.4577C41.1048 45.7082 43.2686 45.3705 45.4354 45.4643C49.486 45.6585 53.7835 48.063 56.9962 50.3466C48.8174 56.4015 38.58 59.8551 39.0697 46.4577Z" fill="url(#paint16_linear_3657_1474)"/>
<path d="M53.7578 51.651C47.1911 46.5852 41.1941 48.0616 37.0723 50.4846C42.5351 53.8186 48.1033 54.0178 53.7578 51.651Z" fill="url(#paint17_linear_3657_1474)"/>
<path d="M26.2762 54.341C17.8247 54.2711 14.6459 46.0186 18.4926 40.7364C19.1449 39.8407 19.9672 39.0823 20.9126 38.5043C21.858 37.9264 22.908 37.5404 24.0026 37.3683C25.0972 37.1962 26.215 37.2413 27.2921 37.5012C28.3692 37.7611 29.3846 38.2305 30.2803 38.8828C32.9869 40.8538 35.9377 45.4154 36.3669 49.2245L26.2762 54.341Z" fill="url(#paint18_linear_3657_1474)"/>
<path d="M26.2759 54.3409L36.3664 49.2245C36.2672 48.4187 36.0836 47.6256 35.8188 46.8582H16.957C17.4981 50.7701 20.7652 54.2952 26.2759 54.3409Z" fill="url(#paint19_linear_3657_1474)"/>
<path d="M24.5754 49.8875C23.64 49.7293 22.7846 49.2618 22.1463 48.5599C21.5079 47.858 21.1234 46.9624 21.0542 46.0161C20.9851 45.0699 21.2353 44.1278 21.7649 43.3406C22.2945 42.5534 23.0728 41.9665 23.9753 41.6739C24.8778 41.3814 25.8523 41.3999 26.7431 41.7267C27.6338 42.0534 28.3891 42.6695 28.8883 43.4763C29.3875 44.2831 29.6017 45.2341 29.4965 46.177C29.3914 47.1199 28.9731 48.0003 28.3084 48.6773L24.5754 49.8875Z" fill="url(#paint20_linear_3657_1474)"/>
<path d="M37.2656 48.7188V42.9398C37.2635 41.0322 36.8193 39.151 35.9679 37.4439L34.4305 34.3681C33.5229 32.5476 33.0494 30.5416 33.0469 28.5074V15.4688L30.2344 15.52V28.5074C30.2374 30.9782 30.8126 33.4147 31.9148 35.6259L33.4529 38.7027C34.1092 40.0189 34.4516 41.4692 34.4531 42.9398V47.7056L37.2656 48.7188Z" fill="url(#paint21_linear_3657_1474)"/>
<path d="M40.0781 50.1788V42.9398C40.0781 40.5954 39.5323 38.2831 38.4838 36.1861L36.9461 33.1106C36.2314 31.6815 35.8594 30.1055 35.8594 28.5076V15.4688H33.0469V28.5074C33.0493 30.5417 33.5229 32.5477 34.4305 34.3683L35.9679 37.4441C36.8193 39.1512 37.2635 41.0323 37.2656 42.9398V48.7188L40.0781 50.1788Z" fill="url(#paint22_linear_3657_1474)"/>
<path d="M35.8601 19.1313V15.4688H34.6465L35.8601 19.1313Z" fill="url(#paint23_linear_3657_1474)"/>
<path d="M84.3098 12.301L84.4039 15.1119L21.1582 17.2301L21.0879 15.1219C22.3828 15.0641 19.9907 15.1723 84.3098 12.301Z" fill="url(#paint24_linear_3657_1474)"/>
<path d="M43.1727 55.7578C43.1169 55.9043 43.0438 56.0436 42.9547 56.1726C42.4484 56.1726 41.9492 56.1656 41.45 56.1586C40.6062 56.1586 39.7766 56.1445 38.9539 56.1375C33.2234 56.0461 27.8938 55.8351 23.2602 55.5328C21.8398 55.4414 20.4852 55.3429 19.1961 55.2375C17.9305 55.125 16.7352 55.0054 15.6172 54.8859C17.3453 52.9436 19.358 51.2746 21.5867 49.9359C24.6397 48.0275 28.1991 47.0886 31.7961 47.2429C34.4278 47.5213 36.9692 48.3604 39.2492 49.7039C40.2125 50.2383 41.1406 50.8148 42.0125 51.3984C42.4414 51.6937 42.8562 51.989 43.257 52.2843C43.5614 53.4264 43.5321 54.6318 43.1727 55.7578Z" fill="url(#paint25_linear_3657_1474)"/>
<path d="M43.1719 55.7577C43.3477 55.8983 43.5164 56.039 43.6781 56.1726C43.432 56.1796 43.193 56.1726 42.9539 56.1726C42.4477 56.1726 41.9484 56.1655 41.4492 56.1585C40.6055 56.1585 39.7758 56.1444 38.9531 56.1374C33.2227 56.046 27.893 55.8351 23.2594 55.5327C21.8391 55.4413 20.4844 55.3429 19.1953 55.2374C21.4594 53.114 26.0227 49.6898 31.6195 50.0554C34.8328 50.2523 38.5102 52.3265 41.4633 54.464C42.068 54.8929 42.6375 55.3358 43.1719 55.7577Z" fill="url(#paint26_linear_3657_1474)"/>
<path d="M38.9535 56.1375C33.223 56.0461 27.8934 55.8352 23.2598 55.5328C25.4366 53.8833 28.068 52.9432 30.7973 52.8398C31.0082 52.8398 31.2262 52.8469 31.4441 52.8609C33.6941 53.0016 36.4785 54.45 38.9535 56.1375Z" fill="url(#paint27_linear_3657_1474)"/>
<path d="M73.5055 54.9842C72.0852 55.1249 70.5547 55.2585 68.9141 55.385H68.907C67.1492 55.5186 65.2859 55.6311 63.3172 55.7366C61.7141 55.821 60.0336 55.8913 58.3039 55.9475H58.2969C57.2625 55.6633 56.2459 55.3182 55.2523 54.9139C55.1398 54.8717 55.0203 54.8225 54.9078 54.7733L54.9008 54.7663C54.6406 54.6608 54.3875 54.5483 54.1344 54.4358C52.9482 53.8907 51.8079 53.2511 50.7242 52.5233C50.2531 52.2139 49.7891 51.8835 49.332 51.5319C49.3531 51.5178 49.3812 51.5038 49.4023 51.4897H49.4094C49.9801 51.1311 50.5692 50.8025 51.1742 50.5053C51.9854 50.1081 52.8272 49.7765 53.6914 49.5139C56.4242 48.6461 59.3528 48.6069 62.1078 49.4014H62.1148C66.8187 50.6249 71.3609 53.5006 73.5055 54.9842Z" fill="url(#paint28_linear_3657_1474)"/>
<path d="M68.9078 55.385C67.15 55.5186 65.2867 55.6311 63.318 55.7365C61.7148 55.8209 60.0344 55.8912 58.3047 55.9475H58.2977C57.8125 55.9686 57.3203 55.9826 56.8281 56.0037C56.8211 56.0108 56.8211 56.0037 56.8211 56.0037C56.2656 55.7365 55.7242 55.4342 55.1898 55.1108V55.1037C55.1222 55.0742 55.0584 55.0364 55 54.9912C54.7117 54.8154 54.4164 54.6326 54.1352 54.4358C53.5094 54.0079 52.9063 53.5479 52.3281 53.0576C52.743 52.8537 53.1648 52.6709 53.6078 52.5022C54.8227 52.0371 56.0999 51.7551 57.3977 51.6654C61.0047 51.4123 65.5188 53.4233 68.9078 55.385Z" fill="url(#paint29_linear_3657_1474)"/>
<path d="M63.3176 55.7366C61.7145 55.821 60.034 55.8913 58.3043 55.9475H58.2973C57.8121 55.9686 57.3199 55.9827 56.8277 56.0038H56.8207C56.1035 56.0249 55.3793 56.046 54.648 56.0671C54.5074 56.0671 54.3668 56.0671 54.2262 56.0741C53.9941 55.9264 53.7621 55.7717 53.5371 55.603C54.0109 55.3678 54.4995 55.1635 54.9996 54.9913C55.0277 54.9842 55.0629 54.9702 55.098 54.9631C55.1482 54.9425 55.1999 54.9261 55.2527 54.9139C55.8073 54.7362 56.3768 54.6092 56.9543 54.5342C57.1582 54.5061 57.3762 54.485 57.5941 54.471C59.5717 54.4683 61.5256 54.9004 63.3176 55.7366Z" fill="url(#paint30_linear_3657_1474)"/>
<path d="M55.2438 55.3219C55.2438 55.6031 54.9766 55.8422 54.6461 56.0672C54.5055 56.0672 54.3648 56.0672 54.2242 56.0742C53.0359 56.1023 51.8336 56.1234 50.6102 56.1445C50.0195 56.1516 49.4219 56.1586 48.8172 56.1586C48.4938 56.1656 48.1633 56.1656 47.8328 56.1656C47.2633 56.1726 46.6937 56.1797 46.1242 56.1726C45.9203 56.1797 45.7164 56.1797 45.5055 56.1797H44.0148C43.9023 56.1797 43.7898 56.1797 43.6773 56.1726C43.4312 56.1797 43.1922 56.1726 42.9531 56.1726C42.4469 56.1726 41.9477 56.1656 41.4484 56.1586C41.0477 55.9055 40.7031 55.6453 40.7031 55.3219C40.7031 54.9914 41.0617 54.7242 41.4625 54.4641C41.9195 54.1687 42.4328 53.8875 42.5453 53.55C42.7211 53.0086 42.0391 52.0312 42.0109 51.3984C41.9976 51.275 42.0274 51.1508 42.0953 51.0469C42.4961 50.4914 44.0711 51.0961 44.6195 50.6953C44.8782 50.3923 45.0442 50.0213 45.0977 49.6266C45.2383 49.0781 45.3719 48.5156 45.7305 48.4031C46.3281 48.2133 47.1719 49.4437 47.8469 49.5914C47.9302 49.6101 48.0167 49.6101 48.1 49.5914H48.1141C48.7961 49.4297 49.6328 48.2133 50.2234 48.4031C50.568 48.5156 50.7016 49.0289 50.8422 49.5492C50.9004 49.8836 51.012 50.2065 51.1727 50.5055C51.2129 50.5792 51.268 50.6438 51.3344 50.6953C51.8828 51.0961 53.4578 50.4914 53.8586 51.0469C54.0906 51.3633 53.8234 51.9398 53.6055 52.5023C53.4354 52.8236 53.3668 53.1889 53.4086 53.55C53.5562 54 54.4141 54.3516 54.8992 54.7664L54.9062 54.7734C54.978 54.8276 55.0419 54.8915 55.0961 54.9633C55.1338 55.005 55.1646 55.0525 55.1875 55.1039V55.1109C55.2232 55.1756 55.2426 55.248 55.2438 55.3219Z" fill="url(#paint31_linear_3657_1474)"/>
<path d="M41.4625 54.4641C41.0617 54.7242 40.7031 54.9914 40.7031 55.3219C40.7031 55.6453 41.0477 55.9055 41.4484 56.1586C43.1641 56.1828 46.0403 56.1878 47.8328 56.1656C50.4708 56.1656 54.6353 56.0672 54.6461 56.0672C54.9766 55.8422 55.2438 55.6031 55.2438 55.3219C55.2426 55.248 55.2232 55.1756 55.1875 55.1109V55.1039C55.1646 55.0525 55.1338 55.005 55.0961 54.9633C55.0419 54.8915 54.978 54.8276 54.9062 54.7734L54.8992 54.7664C54.5445 54.4631 53.9928 54.1933 53.6629 53.8945H42.2786C42.0207 54.1038 41.7479 54.2941 41.4625 54.4641Z" fill="url(#paint32_linear_3657_1474)"/>
<path d="M49.1899 54.7101C49.1197 54.7702 49.0384 54.8158 48.9506 54.8444C48.8628 54.873 48.7703 54.884 48.6782 54.8768C48.5861 54.8696 48.4964 54.8444 48.4141 54.8025C48.3318 54.7606 48.2585 54.703 48.1985 54.6328C48.1179 54.5402 48.0041 54.4831 47.8817 54.4739C47.7593 54.4647 47.6381 54.5041 47.5446 54.5836C47.4689 54.6482 47.4066 54.7271 47.3614 54.8158C47.3162 54.9045 47.2889 55.0012 47.281 55.1005C47.2732 55.1997 47.285 55.2995 47.3157 55.3942C47.3465 55.4889 47.3956 55.5766 47.4602 55.6523C47.5017 55.7043 47.5489 55.7515 47.6009 55.793C47.7161 55.8891 47.7974 56.0198 47.8329 56.1656C47.2634 56.1726 46.6938 56.1797 46.1243 56.1726C45.8958 55.7376 45.8214 55.238 45.9134 54.7554C46.0053 54.2727 46.2581 53.8354 46.6305 53.5148C47.008 53.1941 47.497 53.0355 47.9909 53.0737C48.4848 53.1119 48.9436 53.3438 49.2673 53.7187C49.3274 53.7889 49.373 53.8702 49.4017 53.958C49.4303 54.0458 49.4414 54.1384 49.4342 54.2305C49.427 54.3226 49.4017 54.4123 49.3598 54.4946C49.3179 54.5769 49.2602 54.6502 49.1899 54.7101Z" fill="#FF47B8"/>
<path d="M50.6098 56.1444C50.0192 56.1514 49.4215 56.1585 48.8169 56.1585C48.8539 56.0113 48.9348 55.8789 49.0489 55.7788C49.5692 55.3288 50.3356 54.2389 49.527 53.2757C49.364 53.0845 49.1643 52.9281 48.9396 52.8158C48.7149 52.7034 48.4699 52.6374 48.2192 52.6218C47.4765 52.583 46.7471 52.8295 46.1801 53.3108C45.7547 53.6219 45.4519 54.0724 45.3247 54.5838C45.1975 55.0953 45.2539 55.6351 45.484 56.1093C45.4953 56.1312 45.5024 56.1551 45.5051 56.1796H44.0145C43.7985 55.4738 43.8026 54.719 44.0262 54.0156C44.2498 53.3122 44.6822 52.6936 45.2661 52.2421C46.1158 51.5154 47.216 51.1495 48.3317 51.2225C48.7003 51.2514 49.0616 51.3417 49.4004 51.4897H49.4075C49.8699 51.6839 50.2796 51.9851 50.6028 52.3686C50.6465 52.4171 50.6865 52.4688 50.7223 52.5233C51.1053 53.0549 51.3019 53.6981 51.2816 54.353C51.2612 55.0079 51.0251 55.6376 50.6098 56.1444Z" fill="url(#paint33_linear_3657_1474)"/>
<path d="M84.4286 15.8147C84.5209 15.8117 84.6116 15.7905 84.6957 15.7523C84.7798 15.7142 84.8555 15.6598 84.9186 15.5924C84.9816 15.525 85.0308 15.4458 85.0632 15.3593C85.0957 15.2729 85.1108 15.1809 85.1077 15.0886L85.0136 12.2774C85.0105 12.1845 84.9891 12.093 84.9504 12.0084C84.9118 11.9238 84.8567 11.8477 84.7884 11.7846C84.7202 11.7214 84.64 11.6724 84.5527 11.6405C84.4653 11.6085 84.3725 11.5942 84.2796 11.5984C26.4249 14.1812 22.546 14.3536 21.4083 14.4038L21.0574 14.4193C20.8726 14.4277 20.6985 14.5086 20.5729 14.6444C20.4474 14.7803 20.3804 14.9602 20.3865 15.1451L20.4569 17.2535C20.4598 17.3457 20.481 17.4365 20.5191 17.5206C20.5572 17.6047 20.6115 17.6805 20.6789 17.7436C20.7463 17.8067 20.8255 17.8559 20.9119 17.8884C20.9984 17.9209 21.0903 17.936 21.1826 17.9329L29.5319 17.6534V18.2811H21.0944C20.908 18.2811 20.7291 18.3552 20.5973 18.4871C20.4654 18.6189 20.3913 18.7978 20.3913 18.9843V21.0936C20.3914 21.2788 20.4645 21.4564 20.5947 21.5881C20.7249 21.7197 20.9018 21.7947 21.0869 21.7968L26.5278 21.8568C26.2856 22.0837 25.9856 22.2394 25.6606 22.3068L23.9098 22.6525C23.8192 22.6704 23.733 22.7059 23.6561 22.757C23.5793 22.8082 23.5132 22.8739 23.4618 22.9506C23.4103 23.0273 23.3744 23.1133 23.3562 23.2039C23.3381 23.2944 23.3379 23.3876 23.3557 23.4782L23.9002 26.2379C23.9319 26.3976 24.0181 26.5413 24.1439 26.6447C24.2697 26.748 24.4275 26.8046 24.5903 26.8047C24.6359 26.8047 24.6815 26.8002 24.7262 26.7913L26.4765 26.4459C26.529 26.4356 26.5797 26.4178 26.632 26.4058C26.3625 27.1502 25.8662 27.7911 25.2131 28.2384L23.9558 29.0981C23.8796 29.1502 23.8144 29.2169 23.764 29.2942C23.7135 29.3715 23.6788 29.458 23.6617 29.5488C23.6447 29.6396 23.6457 29.7328 23.6647 29.8231C23.6838 29.9135 23.7204 29.9992 23.7725 30.0754L25.3593 32.397C25.4114 32.4733 25.478 32.5385 25.5554 32.589C25.6327 32.6395 25.7192 32.6742 25.81 32.6913C25.9007 32.7083 25.9939 32.7073 26.0843 32.6884C26.1747 32.6694 26.2604 32.6328 26.3367 32.5807L27.5939 31.7213C28.3669 31.1922 29.0415 30.5321 29.5871 29.7708C29.7511 31.9175 30.3282 34.0123 31.2867 35.9401L32.8248 39.0169C33.1701 39.7179 33.4203 40.4618 33.5686 41.229C32.7522 40.1274 31.7846 39.1463 30.6944 38.3147C29.0683 37.1311 27.0973 36.5167 25.0866 36.5666C23.0759 36.6166 21.1378 37.3281 19.5725 38.591C18.0071 39.8539 16.9018 41.5977 16.4278 43.5523C15.9538 45.507 16.1375 47.5634 16.9505 49.403C4.92672 50.5926 4.92257 52.0918 4.92257 52.8229C4.90816 53.0332 4.95276 53.2434 5.05136 53.4297C5.14996 53.6161 5.29864 53.7712 5.48064 53.8776C6.64783 56.4764 10.3867 64.6838 13.3659 69.9369C13.3706 69.9434 13.3729 69.951 13.3777 69.9574C14.6443 72.1892 15.7726 73.8849 16.5042 74.379C18.6066 75.6389 20.9358 76.4739 23.3597 76.8368L22.6528 80.293C22.6335 80.3872 22.6338 80.4844 22.6536 80.5785C22.6733 80.6726 22.7122 80.7616 22.7677 80.8401C22.8233 80.9185 22.8943 80.9848 22.9765 81.0347C23.0586 81.0847 23.1501 81.1172 23.2454 81.1304C30.5368 82.1425 37.889 82.6531 45.2503 82.6586C52.4478 82.6644 59.6365 82.1535 66.7609 81.1298C66.8557 81.1162 66.9468 81.0833 67.0284 81.0332C67.1101 80.9831 67.1807 80.9168 67.2358 80.8385C67.2909 80.7601 67.3294 80.6713 67.3489 80.5775C67.3684 80.4837 67.3686 80.3869 67.3493 80.293L66.6426 76.8368C69.0664 76.4739 71.3953 75.6388 73.4975 74.379C75.9509 72.722 82.8556 57.5853 84.5211 53.8773C84.7031 53.7709 84.8518 53.6158 84.9504 53.4294C85.049 53.2431 85.0936 53.0329 85.0792 52.8226C85.0792 52.0887 85.0714 50.7332 74.6465 49.571C75.4706 47.2951 75.8597 44.8847 75.7936 42.4652C75.7876 42.2829 75.7109 42.1102 75.5799 41.9834C75.4488 41.8566 75.2736 41.7857 75.0912 41.7858H75.0795C71.8152 41.8527 67.8821 40.8948 62.7577 38.8106C62.6502 38.7668 62.5336 38.7504 62.4182 38.7626C62.3028 38.7749 62.1922 38.8156 62.0964 38.881C62.0005 38.9464 61.9223 39.0345 61.8688 39.1375C61.8153 39.2404 61.788 39.355 61.7896 39.4711C61.8113 41.3165 61.7063 43.1611 61.4751 44.9921C59.6949 43.8215 57.7136 42.9902 55.631 42.5401C50.8894 41.6426 46.5768 43.0446 43.5944 44.5367V42.9397C43.591 40.05 42.9183 37.2003 41.6293 34.614L40.0912 31.5386C39.6219 30.5969 39.377 29.5594 39.3757 28.5073V26.1855C39.6452 26.3482 39.9272 26.4894 40.2189 26.6078L41.8751 27.2707C41.9608 27.3051 42.0525 27.3223 42.1449 27.3212C42.2373 27.3202 42.3286 27.3009 42.4135 27.2646C42.4985 27.2282 42.5754 27.1755 42.64 27.1094C42.7045 27.0433 42.7554 26.9651 42.7897 26.8793L43.8348 24.268C43.9039 24.0948 43.9014 23.9012 43.8279 23.7298C43.7544 23.5584 43.6158 23.4232 43.4427 23.3539L41.7858 22.6907C41.4519 22.5529 41.167 22.3182 40.9679 22.0169L84.3682 22.4999H84.3757C84.5622 22.4999 84.741 22.4258 84.8729 22.294C85.0047 22.1621 85.0788 21.9833 85.0788 21.7968V18.9843C85.0788 18.7978 85.0047 18.6189 84.8729 18.4871C84.741 18.3552 84.5622 18.2811 84.3757 18.2811H39.3757V17.3236L84.4286 15.8147ZM21.8147 15.7936C23.5451 15.7167 30.9694 15.3858 83.6321 13.0351L83.6788 14.4331L21.8381 16.5041L21.8147 15.7936ZM36.3181 33.4253L37.8555 36.5008C38.8525 38.501 39.3728 40.7048 39.3757 42.9397V48.9779C38.9008 48.7217 38.432 48.4858 37.9694 48.2702V42.9397C37.9672 40.9229 37.4976 38.9341 36.5975 37.1293L35.0601 34.0535C34.2011 32.3307 33.7529 30.4324 33.7507 28.5073V17.5121L35.1569 17.465V28.5073C35.159 30.2143 35.5565 31.8977 36.3181 33.4253ZM43.2805 46.2233L43.2904 46.2227C43.9922 46.1542 44.698 46.1356 45.4024 46.1671C47.7538 46.2796 50.4432 47.197 53.4047 48.8834C52.7803 49.0771 52.167 49.305 51.5677 49.5663C51.5545 49.5155 51.541 49.4638 51.53 49.4207C51.3659 48.7738 51.162 47.9692 50.4417 47.735C49.7331 47.505 49.1384 48.0045 48.6097 48.4433C48.4191 48.6138 48.215 48.7685 47.9992 48.9058C47.7609 48.7819 47.5405 48.6262 47.3442 48.443C46.9936 48.0994 46.5648 47.8461 46.0948 47.7047C46.0044 47.6478 45.9021 47.6128 45.7959 47.6023C44.1067 47.4725 42.4081 47.6494 40.7819 48.1246V46.6621C41.6016 46.4486 42.4372 46.3019 43.2805 46.2233ZM72.1649 54.9254C71.4143 54.9957 70.6262 55.0642 69.807 55.13C69.7754 55.0945 69.74 55.0624 69.7015 55.0344C66.9261 53.3858 61.6156 50.6625 57.3481 50.9633C56.4345 51.0285 55.5298 51.1849 54.6474 51.4303C54.6706 51.1463 54.5923 50.8632 54.4264 50.6314C54.2824 50.437 54.0822 50.2915 53.8529 50.2146C54.9562 49.8674 56.0957 49.6478 57.249 49.5602C62.5846 49.1886 68.8991 52.775 72.1649 54.9254ZM50.7424 55.9476C51.1213 55.421 51.3133 54.783 51.2879 54.1348C51.2625 53.4866 51.0212 52.8656 50.6024 52.3703C50.3212 52.0361 49.9755 51.7623 49.5859 51.5652C49.1962 51.3681 48.7708 51.2518 48.3351 51.2233C47.2185 51.1499 46.1176 51.5169 45.2685 52.2457C44.7144 52.6773 44.2966 53.2597 44.0653 53.9229C43.834 54.5862 43.799 55.3021 43.9646 55.9847C43.4578 55.9835 42.9533 55.9818 42.4557 55.9789C42.323 55.8853 42.1782 55.7929 42.0316 55.7005C41.839 55.5852 41.6539 55.4577 41.4775 55.3187C41.6541 55.18 41.8391 55.0525 42.0316 54.937C42.5485 54.6962 42.9659 54.2837 43.2129 53.7698C43.3183 53.196 43.2226 52.6035 42.9417 52.0922C42.8617 51.9005 42.7918 51.7048 42.7322 51.5058C42.943 51.5003 43.1539 51.5063 43.364 51.5237C43.9337 51.6325 44.5235 51.5415 45.0339 51.2659C45.4509 50.8684 45.7171 50.3387 45.7871 49.7669C45.8358 49.5595 45.8958 49.3549 45.967 49.1541C46.1333 49.2697 46.2935 49.3938 46.447 49.5259C46.8512 49.9564 47.392 50.2336 47.9775 50.3104C48.5628 50.2337 49.1034 49.9566 49.5074 49.5263C49.6612 49.3942 49.8217 49.27 49.988 49.1541C50.0589 49.3548 50.1188 49.5593 50.1673 49.7666C50.2377 50.3382 50.5039 50.8678 50.9204 51.2655C51.4303 51.5425 52.0206 51.6338 52.5904 51.5237C52.8005 51.506 53.0114 51.5 53.2221 51.5058C53.1628 51.7049 53.0929 51.9007 53.0127 52.0922C52.7317 52.6037 52.6361 53.1966 52.7422 53.7704C52.9893 54.2841 53.4067 54.6963 53.9234 54.937C54.1156 55.0528 54.3004 55.1803 54.4769 55.3188C54.3008 55.4574 54.1162 55.5847 53.9241 55.6999C53.8203 55.7654 53.7251 55.8315 53.6264 55.8973C52.6848 55.9172 51.7234 55.9339 50.7424 55.9476ZM47.7495 55.9774C47.7107 55.9072 47.66 55.8443 47.5997 55.7915C47.5499 55.7503 47.5037 55.7049 47.4616 55.6559C47.3308 55.5029 47.266 55.3043 47.2813 55.1036C47.2966 54.9029 47.3908 54.7164 47.5433 54.585C47.6376 54.5047 47.7599 54.465 47.8834 54.4745C48.0069 54.484 48.1216 54.542 48.2025 54.6359C48.324 54.7774 48.4967 54.8648 48.6826 54.879C48.8686 54.8932 49.0525 54.8329 49.194 54.7114C49.3355 54.59 49.423 54.4173 49.4372 54.2313C49.4513 54.0454 49.391 53.8614 49.2696 53.7199C48.9459 53.3435 48.4861 53.1107 47.991 53.0728C47.496 53.0348 47.0061 53.1947 46.6287 53.5173C46.2841 53.8148 46.0422 54.2135 45.9376 54.6566C45.833 55.0997 45.8709 55.5644 46.046 55.9847C45.8435 55.9852 45.6429 55.9859 45.4391 55.9862C45.2449 55.5218 45.2127 55.0056 45.3477 54.5208C45.4827 54.0359 45.7769 53.6106 46.1831 53.3134C46.7492 52.8307 47.4793 52.5841 48.2221 52.6247C48.4727 52.6385 48.7178 52.7035 48.9423 52.8157C49.1668 52.9279 49.366 53.0849 49.5274 53.277C50.336 54.2366 49.5679 55.3321 49.0482 55.7774C48.9873 55.8319 48.9366 55.8968 48.8983 55.9689C48.5188 55.9721 48.1344 55.975 47.7495 55.9774ZM39.8749 55.9549C39.8431 55.9125 39.8064 55.8739 39.7656 55.84C37.5045 54.2559 34.2333 52.3314 31.4874 52.1586C31.2546 52.1434 31.0259 52.1365 30.8007 52.1365C27.8195 52.2453 24.9496 53.2973 22.6043 55.141C22.5486 55.1855 22.5003 55.2385 22.461 55.2979C21.7353 55.2478 21.0258 55.1963 20.346 55.1423C22.6837 53.1179 26.7286 50.4384 31.5753 50.7548C34.5104 50.9397 37.8383 52.8028 40.317 54.5104C40.1195 54.7336 40.0087 55.0202 40.0045 55.3182C40.0063 55.5458 40.0735 55.7681 40.1981 55.9587C40.09 55.9577 39.9828 55.9563 39.8749 55.9549ZM37.3256 55.9159C32.6198 55.8277 28.394 55.6617 24.6921 55.442C26.5187 54.2672 28.6302 53.6108 30.8009 53.5429C30.9959 53.5429 31.1946 53.5491 31.3985 53.5621C33.247 53.6784 35.4468 54.7546 37.3256 55.9159ZM31.7519 47.948C34.544 48.1238 37.7785 49.4325 41.3646 51.8223C41.4363 52.0908 41.5263 52.3542 41.6341 52.6105C41.7261 52.8425 41.8806 53.2315 41.8895 53.3023C41.7713 53.4243 41.6366 53.5292 41.4893 53.6139C38.828 51.736 35.0689 49.5661 31.6647 49.3513C25.7485 48.9743 20.9661 52.5909 18.6438 54.783C18.5845 54.8413 18.5362 54.9097 18.5012 54.985C17.8599 54.9274 17.2356 54.8685 16.6423 54.8078C18.5101 52.8291 24.2866 47.4776 31.7519 47.948ZM22.4719 43.6334C22.9561 42.966 23.6599 42.4904 24.4598 42.2902C25.2597 42.09 26.1045 42.1778 26.8461 42.5384C27.5876 42.899 28.1785 43.5092 28.515 44.262C28.8515 45.0148 28.9121 45.862 28.6862 46.6551C26.7228 46.9188 24.8138 47.4926 23.0304 48.3549C22.3563 47.7851 21.9237 46.9807 21.8201 46.1043C21.7164 45.2278 21.9494 44.3447 22.4719 43.6334ZM40.7819 49.573C40.7945 49.5698 40.8072 49.5711 40.8197 49.5671C42.0263 49.1851 43.2825 48.9823 44.5481 48.9653C44.5013 49.1196 44.461 49.2743 44.4239 49.4209C44.3642 49.657 44.2639 50.0522 44.2317 50.1134C43.974 50.1496 43.7127 50.1519 43.4544 50.1204C42.8727 50.0117 42.2713 50.1115 41.756 50.4024C41.4295 50.1904 41.1033 49.9791 40.7819 49.7842V49.573ZM55.9338 55.4524C56.2996 55.3571 56.6707 55.2833 57.0452 55.2316C57.2388 55.2062 57.4358 55.1856 57.6398 55.1719C58.7827 55.1394 59.9227 55.3048 61.0092 55.661C59.3634 55.7325 57.6356 55.7933 55.826 55.8433C55.8841 55.7201 55.9205 55.5879 55.9338 55.4524ZM64.3371 55.4968C64.2693 55.4106 64.1818 55.3419 64.0819 55.2965C61.4651 54.1628 59.2603 53.6511 57.5437 53.7691C57.3109 53.7848 57.0836 53.8082 56.8597 53.8377C56.3759 53.9029 55.897 54 55.426 54.1285C55.3854 54.1441 55.3464 54.1637 55.3096 54.1869C55.1061 54.0276 54.8933 53.8807 54.6721 53.7471C54.4702 53.6197 54.1324 53.4065 54.0857 53.3603C54.0925 53.256 54.1156 53.1534 54.1541 53.0562C55.215 52.6792 56.3218 52.4471 57.4447 52.3661C60.6383 52.1464 64.5659 53.8339 67.3316 55.3122C66.3725 55.3775 65.3744 55.439 64.3371 55.4968ZM57.1516 48.1574C56.5276 48.2051 55.9068 48.2888 55.2925 48.408C55.2536 48.3604 55.2085 48.3182 55.1582 48.2827C54.0911 47.6232 52.9852 47.0287 51.8465 46.5023C52.8499 46.4417 53.857 46.5032 54.8455 46.6856C56.1384 46.9657 57.3763 47.4568 58.5096 48.139C58.0569 48.1211 57.6036 48.1273 57.1516 48.1574ZM21.7976 19.6874H29.5319V20.4836L21.7976 20.398V19.6874ZM26.2045 25.0663L25.1436 25.2758L24.8717 23.8962L25.9326 23.6865C26.4442 23.5848 26.9234 23.3604 27.3291 23.0326L26.9916 24.8288C26.7369 24.9314 26.4735 25.0109 26.2045 25.0663ZM26.7998 30.5605L26.1234 31.0233L25.3296 29.8625L26.0067 29.3997C26.5742 29.0141 27.0595 28.5198 27.4346 27.9453C27.8096 27.3708 28.067 26.7275 28.1917 26.0529L28.9753 21.8841L29.5319 21.89V26.644C29.5085 26.6819 29.489 26.7221 29.4736 26.764C29.0704 28.311 28.1205 29.6597 26.7998 30.5605ZM32.5443 35.3114C31.4907 33.1978 30.941 30.8689 30.9382 28.5073V21.209L30.9396 21.2025L30.9382 21.1955V17.6061L32.3444 17.559V28.5073C32.347 30.6507 32.8459 32.7644 33.8022 34.6827L35.3398 37.7586C36.1425 39.3679 36.5613 41.1413 36.5632 42.9397V47.6686C36.0868 47.4831 35.6185 47.3226 35.1569 47.1823V42.9397C35.1553 41.3598 34.7875 39.8018 34.0824 38.388L32.5443 35.3114ZM19.0613 41.1502C19.6588 40.3286 20.4123 39.6329 21.2789 39.1028C22.1455 38.5727 23.1081 38.2186 24.1117 38.0608C25.1152 37.9031 26.14 37.9447 27.1274 38.1833C28.1149 38.4219 29.0456 38.8528 29.8664 39.4515C31.4324 40.6909 32.741 42.2246 33.7184 43.9663C33.7269 43.9809 33.7413 43.9887 33.7507 44.0024V46.8223C33.1211 46.6844 32.4825 46.5916 31.8397 46.5447C31.2802 46.5107 30.7193 46.5053 30.1593 46.5286C30.2994 45.7044 30.2271 44.8581 29.9494 44.0696C29.6716 43.281 29.1974 42.5763 28.5717 42.0219C27.9459 41.4676 27.1892 41.0818 26.373 40.9011C25.5567 40.7203 24.7079 40.7506 23.9066 40.989C23.1053 41.2275 22.378 41.6662 21.7933 42.2637C21.2086 42.8613 20.7859 43.598 20.565 44.4043C20.3441 45.2106 20.3323 46.0599 20.5308 46.872C20.7293 47.6841 21.1315 48.4322 21.6993 49.0457C20.8744 49.5109 20.0772 50.0236 19.3119 50.5813C18.2332 49.2583 17.6234 47.615 17.5781 45.9085C17.5328 44.202 18.0544 42.5287 19.0613 41.1502ZM18.196 51.4405C17.0068 52.3934 15.9117 53.4581 14.9256 54.6199C10.3806 54.0912 7.54115 53.4821 6.59678 52.9306L6.53069 52.7829C7.17166 52.4132 9.51468 51.5231 17.6847 50.746C17.8426 50.9837 18.013 51.2152 18.196 51.4405ZM75.6278 68.87C68.132 69.7865 56.9923 70.3124 45.0007 70.3124C32.9936 70.3124 21.8679 69.7865 14.3726 68.8687C13.7502 67.7441 13.0776 66.4658 12.3845 65.1041C19.7733 66.1684 31.7864 66.7968 45.0007 66.7968C58.215 66.7968 70.2281 66.1684 77.6166 65.1041C76.9233 66.4663 76.2505 67.7452 75.6278 68.87ZM65.8218 79.8427C52.0052 81.7242 37.9971 81.7227 24.1809 79.8383L24.7445 77.0804C30.2146 77.9395 37.2727 78.0468 45.0007 78.0468C52.7287 78.0468 59.7869 77.9395 65.257 77.0804L65.8218 79.8427ZM72.7103 73.2138C68.0178 76.3827 57.385 76.6405 45.0007 76.6405C32.6163 76.6405 21.9836 76.3827 17.2911 73.2138C16.4611 72.3873 15.7686 71.4332 15.2399 70.3879C25.1303 71.3488 35.0641 71.793 45.0007 71.7186C54.9375 71.7925 64.8714 71.3481 74.7619 70.3871C74.2331 71.4327 73.5405 72.387 72.7103 73.2138ZM78.393 63.5618C71.2835 64.6908 58.558 65.3905 45.0007 65.3905C31.4434 65.3905 18.7179 64.6908 11.6084 63.5618C10.153 60.639 8.66067 57.4787 7.40088 54.7127C9.13429 55.2283 12.0786 55.7649 17.0899 56.2571C24.549 56.9897 34.4613 57.3932 45.0007 57.3932C48.0123 57.3932 50.9692 57.3591 53.8357 57.2947L53.8461 57.2971C53.8526 57.2971 53.859 57.2943 53.8656 57.2941C61.0194 57.1335 67.5912 56.7795 72.9115 56.2569C73.3248 56.2163 73.7212 56.1754 74.1068 56.1342C74.122 56.1352 74.1368 56.1413 74.1521 56.1413C74.1846 56.136 74.2166 56.1284 74.248 56.1187C77.0667 55.8856 79.8607 55.4151 82.6004 54.7124C81.3407 57.4787 79.8486 60.639 78.393 63.5618ZM83.4734 52.7765C83.4508 52.8272 83.4273 52.8795 83.4045 52.9308C82.4088 53.5117 79.3136 54.1567 74.3337 54.7041C73.9351 54.4202 73.4202 54.0643 72.7948 53.6565C73.2843 52.7708 73.727 51.86 74.121 50.9279C80.8697 51.6603 82.8855 52.4288 83.4734 52.7765ZM63.1961 40.4999C67.6909 42.2543 71.2917 43.1191 74.3974 43.1902C74.2915 46.6109 73.3313 49.9508 71.6042 52.9053C70.7899 52.4066 69.8723 51.8774 68.875 51.3563C68.8479 51.293 68.8115 51.2341 68.7669 51.1817C66.9503 49.2172 64.9454 47.4357 62.781 45.8626C63.0339 44.0857 63.1726 42.2945 63.1961 40.4999ZM55.3683 43.9219C58.9863 44.6069 62.6044 47.2758 65.266 49.703C64.1118 49.2478 62.926 48.8772 61.7181 48.5939C61.7034 48.5811 61.6959 48.5634 61.68 48.5517C59.7577 46.9947 57.5127 45.8854 55.1081 45.3042C53.138 44.9432 51.1142 44.9963 49.1657 45.4602C48.2632 45.1734 47.3367 44.9683 46.3975 44.8475C49.2469 43.7248 52.3497 43.4046 55.3683 43.9219ZM41.2637 23.9964L42.2676 24.3985L41.7452 25.7041L40.7414 25.3021C40.2394 25.0997 39.777 24.8102 39.3757 24.4469V21.9993H39.4013C39.5467 22.4482 39.7889 22.8597 40.1108 23.2047C40.4326 23.5498 40.826 23.8201 41.2637 23.9964ZM83.6726 19.6874V21.0858L39.3757 20.5929V19.6874H83.6726ZM38.8332 32.1672L40.3713 35.243C41.5632 37.6338 42.1851 40.2683 42.1882 42.9397V44.9474C41.7184 45.0193 41.2497 45.1097 40.7819 45.2216V42.9397C40.7791 40.4864 40.208 38.0671 39.1134 35.8714L37.5757 32.7962C36.9114 31.4639 36.5649 29.9958 36.5632 28.5071V17.4179L37.9694 17.3708V28.5073C37.9711 29.7776 38.2668 31.0302 38.8332 32.1672Z" fill="url(#paint34_linear_3657_1474)"/>
<defs>
<linearGradient id="paint0_linear_3657_1474" x1="23.3401" y1="79.1923" x2="66.6582" y2="79.1923" gradientUnits="userSpaceOnUse">
<stop stop-color="#DCE2E1"/>
<stop offset="1" stop-color="#C0CCCE"/>
</linearGradient>
<linearGradient id="paint1_linear_3657_1474" x1="5.8337" y1="65.1467" x2="84.1646" y2="65.1467" gradientUnits="userSpaceOnUse">
<stop stop-color="#DAE4E8"/>
<stop offset="1" stop-color="#B0C4CC"/>
</linearGradient>
<linearGradient id="paint2_linear_3657_1474" x1="45.0002" y1="72.0197" x2="45.0002" y2="77.3437" gradientUnits="userSpaceOnUse">
<stop stop-color="#B0C4CC" stop-opacity="0"/>
<stop offset="0.987" stop-color="#B0C4CC"/>
</linearGradient>
<linearGradient id="paint3_linear_3657_1474" x1="11.139" y1="67.6076" x2="78.8618" y2="67.6076" gradientUnits="userSpaceOnUse">
<stop stop-color="#EC606C"/>
<stop offset="1" stop-color="#BF2640"/>
</linearGradient>
<linearGradient id="paint4_linear_3657_1474" x1="5.625" y1="52.7413" x2="84.375" y2="52.7413" gradientUnits="userSpaceOnUse">
<stop stop-color="#DCE2E1"/>
<stop offset="1" stop-color="#C0CCCE"/>
</linearGradient>
<linearGradient id="paint5_linear_3657_1474" x1="45" y1="51.9834" x2="45" y2="56.1768" gradientUnits="userSpaceOnUse">
<stop stop-color="#92A6AD" stop-opacity="0"/>
<stop offset="0.412" stop-color="#92A6AD"/>
</linearGradient>
<linearGradient id="paint6_linear_3657_1474" x1="24.0447" y1="23.6482" x2="30.4706" y2="23.6482" gradientUnits="userSpaceOnUse">
<stop offset="0.218" stop-color="#FFDD50"/>
<stop offset="1" stop-color="#EA9024"/>
</linearGradient>
<linearGradient id="paint7_linear_3657_1474" x1="24.3517" y1="25.8686" x2="32.0298" y2="25.8686" gradientUnits="userSpaceOnUse">
<stop offset="0.218" stop-color="#FFDD50"/>
<stop offset="1" stop-color="#EA9024"/>
</linearGradient>
<linearGradient id="paint8_linear_3657_1474" x1="37.1285" y1="23.5308" x2="43.181" y2="23.5308" gradientUnits="userSpaceOnUse">
<stop stop-color="#EA9024"/>
<stop offset="0.782" stop-color="#FFDD50"/>
</linearGradient>
<linearGradient id="paint9_linear_3657_1474" x1="52.7344" y1="18.9844" x2="52.7344" y2="21.7969" gradientUnits="userSpaceOnUse">
<stop stop-color="#753D3B"/>
<stop offset="1" stop-color="#6D221B"/>
</linearGradient>
<linearGradient id="paint10_linear_3657_1474" x1="61.4632" y1="46.6783" x2="75.0996" y2="46.6783" gradientUnits="userSpaceOnUse">
<stop stop-color="#3A915D"/>
<stop offset="1" stop-color="#1D5B36"/>
</linearGradient>
<linearGradient id="paint11_linear_3657_1474" x1="68.0275" y1="47.2133" x2="68.0275" y2="53.8944" gradientUnits="userSpaceOnUse">
<stop stop-color="#1D5B36" stop-opacity="0"/>
<stop offset="0.971" stop-color="#1D5B36"/>
</linearGradient>
<linearGradient id="paint12_linear_3657_1474" x1="56.467" y1="43.4004" x2="54.8456" y2="52.593" gradientUnits="userSpaceOnUse">
<stop offset="0.218" stop-color="#FFDD50"/>
<stop offset="0.612" stop-color="#EA9024"/>
</linearGradient>
<linearGradient id="paint13_linear_3657_1474" x1="55.4346" y1="46.0742" x2="54.576" y2="50.9419" gradientUnits="userSpaceOnUse">
<stop offset="0.218" stop-color="#FFDD50"/>
<stop offset="0.761" stop-color="#EA9024"/>
</linearGradient>
<linearGradient id="paint14_linear_3657_1474" x1="35.8594" y1="32.824" x2="42.8906" y2="32.824" gradientUnits="userSpaceOnUse">
<stop offset="0.218" stop-color="#FFDD50"/>
<stop offset="1" stop-color="#EA9024"/>
</linearGradient>
<linearGradient id="paint15_linear_3657_1474" x1="37.2656" y1="27.6202" x2="37.2656" y2="15.4688" gradientUnits="userSpaceOnUse">
<stop stop-color="#EA9024" stop-opacity="0"/>
<stop offset="1" stop-color="#EA9024"/>
</linearGradient>
<linearGradient id="paint16_linear_3657_1474" x1="48.0244" y1="45.4463" x2="48.0244" y2="55.6979" gradientUnits="userSpaceOnUse">
<stop offset="0.037" stop-color="#FFDD50"/>
<stop offset="0.415" stop-color="#EA9024"/>
</linearGradient>
<linearGradient id="paint17_linear_3657_1474" x1="45.4153" y1="48.2581" x2="45.4153" y2="53.2362" gradientUnits="userSpaceOnUse">
<stop offset="0.218" stop-color="#FFDD50"/>
<stop offset="0.692" stop-color="#EA9024"/>
</linearGradient>
<linearGradient id="paint18_linear_3657_1474" x1="16.8755" y1="45.803" x2="36.3668" y2="45.803" gradientUnits="userSpaceOnUse">
<stop stop-color="#DAE4E8"/>
<stop offset="1" stop-color="#B0C4CC"/>
</linearGradient>
<linearGradient id="paint19_linear_3657_1474" x1="26.6619" y1="46.8583" x2="26.6619" y2="54.3409" gradientUnits="userSpaceOnUse">
<stop stop-color="#B0C4CC" stop-opacity="0"/>
<stop offset="0.487" stop-color="#B0C4CC"/>
</linearGradient>
<linearGradient id="paint20_linear_3657_1474" x1="21.0943" y1="45.6862" x2="29.5325" y2="45.6862" gradientUnits="userSpaceOnUse">
<stop stop-color="#FFAB31"/>
<stop offset="1" stop-color="#D86612"/>
</linearGradient>
<linearGradient id="paint21_linear_3657_1474" x1="30.2344" y1="32.0941" x2="37.2656" y2="32.0941" gradientUnits="userSpaceOnUse">
<stop offset="0.218" stop-color="#FFDD50"/>
<stop offset="1" stop-color="#EA9024"/>
</linearGradient>
<linearGradient id="paint22_linear_3657_1474" x1="33.0469" y1="32.824" x2="40.0781" y2="32.824" gradientUnits="userSpaceOnUse">
<stop offset="0.218" stop-color="#FFDD50"/>
<stop offset="1" stop-color="#EA9024"/>
</linearGradient>
<linearGradient id="paint23_linear_3657_1474" x1="35.2533" y1="19.1313" x2="35.2533" y2="1.29186e-06" gradientUnits="userSpaceOnUse">
<stop stop-color="#EA9024" stop-opacity="0"/>
<stop offset="1" stop-color="#EA9024"/>
</linearGradient>
<linearGradient id="paint24_linear_3657_1474" x1="52.746" y1="12.3011" x2="52.746" y2="17.23" gradientUnits="userSpaceOnUse">
<stop stop-color="#753D3B"/>
<stop offset="1" stop-color="#6D221B"/>
</linearGradient>
<linearGradient id="paint25_linear_3657_1474" x1="29.537" y1="47.2134" x2="29.537" y2="56.1726" gradientUnits="userSpaceOnUse">
<stop offset="0.218" stop-color="#FFDD50"/>
<stop offset="0.612" stop-color="#EA9024"/>
</linearGradient>
<linearGradient id="paint26_linear_3657_1474" x1="31.4367" y1="50.028" x2="31.4367" y2="56.1754" gradientUnits="userSpaceOnUse">
<stop offset="0.218" stop-color="#FFDD50"/>
<stop offset="0.761" stop-color="#EA9024"/>
</linearGradient>
<linearGradient id="paint27_linear_3657_1474" x1="31.1066" y1="52.8398" x2="31.1066" y2="56.1375" gradientUnits="userSpaceOnUse">
<stop offset="0.218" stop-color="#FFDD50"/>
<stop offset="1" stop-color="#EA9024"/>
</linearGradient>
<linearGradient id="paint28_linear_3657_1474" x1="61.4187" y1="48.8312" x2="61.4187" y2="55.9475" gradientUnits="userSpaceOnUse">
<stop offset="0.218" stop-color="#FFDD50"/>
<stop offset="0.612" stop-color="#EA9024"/>
</linearGradient>
<linearGradient id="paint29_linear_3657_1474" x1="60.618" y1="51.6436" x2="60.618" y2="56.0065" gradientUnits="userSpaceOnUse">
<stop offset="0.218" stop-color="#FFDD50"/>
<stop offset="0.761" stop-color="#EA9024"/>
</linearGradient>
<linearGradient id="paint30_linear_3657_1474" x1="58.4273" y1="54.4548" x2="58.4273" y2="56.0741" gradientUnits="userSpaceOnUse">
<stop offset="0.218" stop-color="#FFDD50"/>
<stop offset="1" stop-color="#EA9024"/>
</linearGradient>
<linearGradient id="paint31_linear_3657_1474" x1="40.7031" y1="52.2816" x2="55.2438" y2="52.2816" gradientUnits="userSpaceOnUse">
<stop stop-color="#DAE4E8"/>
<stop offset="1" stop-color="#B0C4CC"/>
</linearGradient>
<linearGradient id="paint32_linear_3657_1474" x1="47.9734" y1="53.8945" x2="47.9734" y2="56.1797" gradientUnits="userSpaceOnUse">
<stop stop-color="#B0C4CC" stop-opacity="0"/>
<stop offset="0.971" stop-color="#B0C4CC"/>
</linearGradient>
<linearGradient id="paint33_linear_3657_1474" x1="43.8479" y1="53.6947" x2="51.2869" y2="53.6947" gradientUnits="userSpaceOnUse">
<stop stop-color="#F76FF7"/>
<stop offset="1" stop-color="#E038DC"/>
</linearGradient>
<linearGradient id="paint34_linear_3657_1474" x1="45.0155" y1="82.6586" x2="45.0155" y2="11.5979" gradientUnits="userSpaceOnUse">
<stop stop-color="#2D2D2D"/>
<stop offset="0.987" stop-color="#141414"/>
</linearGradient>
</defs>
</svg>
