 <svg
          width="21"
          height="22"
          viewBox="0 0 21 22"
          fill="none"
          xmlns="http://www.w3.org/2000/svg"
        >
          <g clipPath="url(#clip0_1_141)">
            <path
              d="M20.9766 10.8895C20.9766 10.0137 20.9052 9.3745 20.7507 8.71167H10.7029V12.665H16.6007C16.4819 13.6474 15.8398 15.127 14.4128 16.1212L14.3928 16.2535L17.5698 18.7033L17.7899 18.7252C19.8113 16.8669 20.9766 14.1327 20.9766 10.8895Z"
              fill="white"
            />
            <path
              d="M10.7029 21.3053C13.5924 21.3053 16.0181 20.3584 17.7899 18.725L14.4129 16.121C13.5092 16.7483 12.2963 17.1862 10.7029 17.1862C7.87289 17.1862 5.47094 15.328 4.61471 12.7595L4.48921 12.7701L1.18578 15.3149L1.14258 15.4345C2.90242 18.9143 6.51727 21.3053 10.7029 21.3053Z"
              fill="white"
            />
            <path
              d="M4.61473 12.7595C4.38881 12.0966 4.25806 11.3864 4.25806 10.6526C4.25806 9.91869 4.38881 9.20854 4.60285 8.54571L4.59686 8.40455L1.25204 5.81885L1.1426 5.87066C0.417286 7.31471 0.00109863 8.93632 0.00109863 10.6526C0.00109863 12.3689 0.417286 13.9904 1.1426 15.4344L4.61473 12.7595Z"
              fill="white"
            />
            <path
              d="M10.7029 4.11902C12.7124 4.11902 14.068 4.98306 14.8409 5.70513L17.8612 2.7697C16.0063 1.05344 13.5924 0 10.7029 0C6.51727 0 2.90242 2.39092 1.14258 5.87078L4.60282 8.54582C5.47094 5.97734 7.87289 4.11902 10.7029 4.11902Z"
              fill="white"
            />
          </g>
          <defs>
            <clipPath id="clip0_1_141">
              <rect width="20.9878" height="21.3788" fill="white" />
            </clipPath>
          </defs>
        </svg>