 <svg
    width="23"
    height="33"
    viewBox="0 0 23 33"
    fill="none"
    xmlns="http://www.w3.org/2000/svg"
>
    <path
    d="M4.41339 33V17.9025C3.16293 17.5175 2.11475 16.7475 1.26885 15.5925C0.42295 14.4375 0 13.09 0 11.55V0H2.94226V11.55H4.41339V0H7.35566V11.55H8.82679V0H11.7691V11.55C11.7691 13.09 11.3461 14.4375 10.5002 15.5925C9.6543 16.7475 8.60612 17.5175 7.35566 17.9025V33H4.41339ZM19.1247 33V19.8H14.7113V8.25C14.7113 5.9675 15.4285 4.02188 16.8628 2.41313C18.2972 0.804375 20.0319 0 22.067 0V33H19.1247Z"
    fill="#0F4DA2"
    />
</svg>