<svg width="30" height="17" viewBox="0 0 30 17" fill="none" xmlns="http://www.w3.org/2000/svg">
<path d="M1.5 2.83333H28.5C28.8978 2.83333 29.2794 2.68408 29.5607 2.4184C29.842 2.15272 30 1.79239 30 1.41667C30 1.04094 29.842 0.680609 29.5607 0.414932C29.2794 0.149256 28.8978 0 28.5 0H1.5C1.10218 0 0.720644 0.149256 0.43934 0.414932C0.158035 0.680609 0 1.04094 0 1.41667C0 1.79239 0.158035 2.15272 0.43934 2.4184C0.720644 2.68408 1.10218 2.83333 1.5 2.83333ZM28.5 14.1667H1.5C1.10218 14.1667 0.720644 14.3159 0.43934 14.5816C0.158035 14.8473 0 15.2076 0 15.5833C0 15.9591 0.158035 16.3194 0.43934 16.5851C0.720644 16.8507 1.10218 17 1.5 17H28.5C28.8978 17 29.2794 16.8507 29.5607 16.5851C29.842 16.3194 30 15.9591 30 15.5833C30 15.2076 29.842 14.8473 29.5607 14.5816C29.2794 14.3159 28.8978 14.1667 28.5 14.1667ZM28.5 7.08333H1.5C1.10218 7.08333 0.720644 7.23259 0.43934 7.49827C0.158035 7.76394 0 8.12428 0 8.5C0 8.87572 0.158035 9.23606 0.43934 9.50173C0.720644 9.76741 1.10218 9.91667 1.5 9.91667H28.5C28.8978 9.91667 29.2794 9.76741 29.5607 9.50173C29.842 9.23606 30 8.87572 30 8.5C30 8.12428 29.842 7.76394 29.5607 7.49827C29.2794 7.23259 28.8978 7.08333 28.5 7.08333Z" fill="white"/>
</svg>
