 <svg
                        width="23"
                        height="23"
                        viewBox="0 0 23 23"
                        fill="none"
                        xmlns="http://www.w3.org/2000/svg"
                      >
                        <path
                          d="M11.709 6.81424C9.33072 6.81424 7.43553 8.74876 7.43553 11.0925C7.43553 13.4735 9.33072 15.3708 11.709 15.3708C14.0501 15.3708 15.9825 13.4735 15.9825 11.0925C15.9825 8.74876 14.0501 6.81424 11.709 6.81424ZM11.709 13.8827C10.1854 13.8827 8.92196 12.655 8.92196 11.0925C8.92196 9.56721 10.1483 8.33954 11.709 8.33954C13.2326 8.33954 14.4589 9.56721 14.4589 11.0925C14.4589 12.655 13.2326 13.8827 11.709 13.8827ZM17.1344 6.66543C17.1344 6.10739 16.6885 5.66096 16.1311 5.66096C15.5737 5.66096 15.1278 6.10739 15.1278 6.66543C15.1278 7.22346 15.5737 7.66989 16.1311 7.66989C16.6885 7.66989 17.1344 7.22346 17.1344 6.66543ZM19.9586 7.66989C19.8843 6.33061 19.587 5.14013 18.6209 4.17287C17.6547 3.20561 16.4655 2.90799 15.1278 2.83358C13.7528 2.75918 9.62801 2.75918 8.25307 2.83358C6.91529 2.90799 5.76331 3.20561 4.75998 4.17287C3.7938 5.14013 3.49652 6.33061 3.4222 7.66989C3.34787 9.04638 3.34787 13.1758 3.4222 14.5523C3.49652 15.8916 3.7938 17.0449 4.75998 18.0494C5.76331 19.0166 6.91529 19.3142 8.25307 19.3886C9.62801 19.463 13.7528 19.463 15.1278 19.3886C16.4655 19.3142 17.6547 19.0166 18.6209 18.0494C19.587 17.0449 19.8843 15.8916 19.9586 14.5523C20.033 13.1758 20.033 9.04638 19.9586 7.66989ZM18.1749 16.0032C17.9148 16.7473 17.3202 17.3053 16.6142 17.6029C15.4994 18.0494 12.8981 17.9377 11.709 17.9377C10.4827 17.9377 7.88146 18.0494 6.8038 17.6029C6.06059 17.3053 5.50319 16.7473 5.2059 16.0032C4.75998 14.9244 4.87146 12.3202 4.87146 11.0925C4.87146 9.90203 4.75998 7.29787 5.2059 6.1818C5.50319 5.47495 6.06059 4.91692 6.8038 4.6193C7.88146 4.17287 10.4827 4.28448 11.709 4.28448C12.8981 4.28448 15.4994 4.17287 16.6142 4.6193C17.3202 4.87971 17.8776 5.47495 18.1749 6.1818C18.6209 7.29787 18.5094 9.90203 18.5094 11.0925C18.5094 12.3202 18.6209 14.9244 18.1749 16.0032Z"
                          fill="#0F4DA2"
                        />
                      </svg>