<svg width="34" height="34" viewBox="0 0 34 34" fill="none" xmlns="http://www.w3.org/2000/svg">
<path d="M29.1028 23.9673C28.958 23.9672 28.8192 23.8974 28.7169 23.7733L23.0883 16.9417C22.6841 17.4402 22.3658 18.0313 22.152 18.6806C21.9381 19.3298 21.8329 20.0243 21.8426 20.7233C21.8436 20.8107 21.8305 20.8974 21.8038 20.9786C21.7771 21.0597 21.7375 21.1336 21.6871 21.1961C21.6368 21.2586 21.5768 21.3084 21.5105 21.3426C21.4442 21.3768 21.3731 21.3947 21.301 21.3954H21.2967C21.1531 21.3954 21.0153 21.3269 20.9132 21.2045C20.811 21.0822 20.7527 20.916 20.7508 20.7419C20.7384 19.8564 20.8734 18.977 21.1477 18.1563C21.4221 17.3356 21.8301 16.5905 22.3475 15.9657L22.7018 15.5353C22.7525 15.4737 22.8127 15.4249 22.8789 15.3915C22.9452 15.3582 23.0163 15.3411 23.088 15.3411C23.1597 15.3411 23.2308 15.3582 23.297 15.3915C23.3633 15.4249 23.4235 15.4737 23.4742 15.5353L29.4849 22.837C29.561 22.9293 29.6129 23.0468 29.6341 23.1748C29.6553 23.3028 29.6448 23.4356 29.604 23.5564C29.5631 23.6771 29.4938 23.7806 29.4046 23.8537C29.3154 23.9268 29.2104 23.9663 29.1028 23.9673Z" fill="#525252"/>
<path d="M25.1192 23.9673C25.0011 23.9673 24.8862 23.9209 24.7917 23.8349C24.3824 23.4652 24.0503 22.9841 23.8222 22.4304C23.5941 21.8766 23.4763 21.2656 23.4783 20.6466C23.4789 20.0969 23.5729 19.5532 23.7544 19.0495C23.936 18.5458 24.2012 18.093 24.5335 17.7192C24.5859 17.6587 24.6477 17.6114 24.7153 17.5801C24.7829 17.5488 24.8549 17.5342 24.9272 17.537C24.9995 17.5397 25.0706 17.5599 25.1365 17.5964C25.2023 17.6328 25.2615 17.6847 25.3106 17.7491C25.3597 17.8135 25.3978 17.8892 25.4226 17.9716C25.4474 18.054 25.4585 18.1416 25.4552 18.2293C25.4518 18.3169 25.4342 18.4029 25.4032 18.4822C25.3723 18.5615 25.3286 18.6326 25.2748 18.6912C25.0385 18.9561 24.8531 19.2807 24.7317 19.6421C24.6104 20.0034 24.5559 20.3928 24.5723 20.7825C24.5887 21.1722 24.6756 21.5528 24.8267 21.8973C24.9778 22.2418 25.1895 22.5418 25.4468 22.7761C25.5384 22.8595 25.6061 22.9758 25.6403 23.1084C25.6744 23.2411 25.6733 23.3834 25.6371 23.5152C25.6009 23.6471 25.5314 23.7618 25.4384 23.843C25.3455 23.9243 25.2338 23.968 25.1192 23.968V23.9673ZM21.8439 23.9673C21.6992 23.9673 21.5603 23.8976 21.4579 23.7734C21.3556 23.6492 21.298 23.4808 21.298 23.3052C21.3041 22.6899 21.2094 22.0792 21.0195 21.5086C20.8295 20.938 20.5481 20.4188 20.1916 19.9811C19.835 19.5433 19.4103 19.1958 18.9422 18.9586C18.4741 18.7214 17.9719 18.5993 17.4646 18.5993C16.9573 18.5993 16.455 18.7214 15.9869 18.9586C15.5188 19.1958 15.0942 19.5433 14.7376 19.9811C14.381 20.4188 14.0996 20.938 13.9097 21.5086C13.7197 22.0792 13.6251 22.6899 13.6311 23.3052C13.6311 23.4808 13.5736 23.6492 13.4712 23.7734C13.3688 23.8976 13.23 23.9673 13.0852 23.9673C12.9404 23.9673 12.8016 23.8976 12.6992 23.7734C12.5968 23.6492 12.5393 23.4808 12.5393 23.3052C12.5325 22.5153 12.6548 21.7317 12.8993 20.9995C13.1437 20.2674 13.5054 19.6013 13.9634 19.0398C14.4215 18.4783 14.9667 18.0326 15.5677 17.7284C16.1687 17.4242 16.8134 17.2676 17.4646 17.2676C18.1158 17.2676 18.7605 17.4242 19.3615 17.7284C19.9624 18.0326 20.5077 18.4783 20.9657 19.0398C21.4238 19.6013 21.7855 20.2674 22.0299 20.9995C22.2743 21.7317 22.3967 22.5153 22.3898 23.3052C22.3898 23.4808 22.3323 23.6492 22.2299 23.7734C22.1276 23.8976 21.9887 23.9673 21.8439 23.9673Z" fill="#525252"/>
<path d="M19.6534 23.9673C19.5087 23.9673 19.3698 23.8976 19.2674 23.7734C19.1651 23.6492 19.1075 23.4808 19.1075 23.3052C19.1115 23.0403 19.0719 22.777 18.9911 22.5309C18.9103 22.2847 18.7898 22.0605 18.6368 21.8715C18.4837 21.6824 18.3012 21.5322 18.0997 21.4297C17.8983 21.3272 17.6821 21.2744 17.4636 21.2744C17.2452 21.2744 17.0289 21.3272 16.8275 21.4297C16.6261 21.5322 16.4435 21.6824 16.2904 21.8715C16.1374 22.0605 16.0169 22.2847 15.9361 22.5309C15.8553 22.777 15.8157 23.0403 15.8197 23.3052C15.8197 23.4808 15.7622 23.6492 15.6598 23.7734C15.5574 23.8976 15.4186 23.9673 15.2738 23.9673C15.129 23.9673 14.9902 23.8976 14.8878 23.7734C14.7854 23.6492 14.7279 23.4808 14.7279 23.3052C14.7228 22.8655 14.7898 22.4289 14.925 22.0208C15.0601 21.6128 15.2608 21.2414 15.5154 20.9282C15.7699 20.6151 16.0732 20.3664 16.4077 20.1967C16.7421 20.0269 17.1011 19.9395 17.4636 19.9395C17.8262 19.9395 18.1851 20.0269 18.5195 20.1967C18.854 20.3664 19.1573 20.6151 19.4119 20.9282C19.6664 21.2414 19.8671 21.6128 20.0023 22.0208C20.1375 22.4289 20.2044 22.8655 20.1993 23.3052C20.1993 23.4808 20.1418 23.6492 20.0394 23.7734C19.9371 23.8976 19.7982 23.9673 19.6534 23.9673ZM13.1389 23.9673C12.9941 23.9673 12.8552 23.8976 12.7529 23.7734C12.6505 23.6492 12.593 23.4808 12.593 23.3052C12.599 22.6899 12.5043 22.0792 12.3144 21.5086C12.1245 20.938 11.8431 20.4188 11.4865 19.9811C11.1299 19.5433 10.7053 19.1958 10.2372 18.9586C9.76906 18.7214 9.2668 18.5993 8.7595 18.5993C8.25219 18.5993 7.74993 18.7214 7.28183 18.9586C6.81372 19.1958 6.38908 19.5433 6.0325 19.9811C5.67593 20.4188 5.39453 20.938 5.20459 21.5086C5.01466 22.0792 4.91997 22.6899 4.92603 23.3052C4.92603 23.4808 4.86851 23.6492 4.76614 23.7734C4.66377 23.8976 4.52492 23.9673 4.38014 23.9673C4.23536 23.9673 4.09652 23.8976 3.99414 23.7734C3.89177 23.6492 3.83426 23.4808 3.83426 23.3052C3.8274 22.5153 3.94973 21.7317 4.19418 20.9995C4.43862 20.2674 4.80032 19.6013 5.25835 19.0398C5.71638 18.4783 6.26165 18.0326 6.86261 17.7284C7.46358 17.4242 8.10831 17.2676 8.7595 17.2676C9.41069 17.2676 10.0554 17.4242 10.6564 17.7284C11.2573 18.0326 11.8026 18.4783 12.2606 19.0398C12.7187 19.6013 13.0804 20.2674 13.3248 20.9995C13.5693 21.7317 13.6916 22.5153 13.6847 23.3052C13.6847 23.4808 13.6272 23.6492 13.5248 23.7734C13.4225 23.8976 13.2836 23.9673 13.1389 23.9673Z" fill="#525252"/>
<path d="M10.9489 23.9673C10.8041 23.9673 10.6653 23.8975 10.5629 23.7733C10.4605 23.6492 10.403 23.4807 10.403 23.3051C10.407 23.0402 10.3674 22.777 10.2866 22.5308C10.2057 22.2846 10.0853 22.0605 9.93224 21.8714C9.7792 21.6823 9.59663 21.5322 9.3952 21.4297C9.19377 21.3271 8.97751 21.2743 8.75907 21.2743C8.54063 21.2743 8.32438 21.3271 8.12295 21.4297C7.92152 21.5322 7.73895 21.6823 7.5859 21.8714C7.43286 22.0605 7.3124 22.2846 7.23157 22.5308C7.15074 22.777 7.11116 23.0402 7.11514 23.3051C7.11514 23.4807 7.05763 23.6492 6.95526 23.7733C6.85288 23.8975 6.71404 23.9673 6.56926 23.9673C6.42448 23.9673 6.28563 23.8975 6.18326 23.7733C6.08089 23.6492 6.02338 23.4807 6.02338 23.3051C6.01825 22.8654 6.08523 22.4288 6.22042 22.0208C6.3556 21.6127 6.55629 21.2413 6.81083 20.9281C7.06538 20.615 7.36869 20.3663 7.70314 20.1966C8.0376 20.0269 8.39653 19.9395 8.75907 19.9395C9.12162 19.9395 9.48055 20.0269 9.815 20.1966C10.1495 20.3663 10.4528 20.615 10.7073 20.9281C10.9619 21.2413 11.1625 21.6127 11.2977 22.0208C11.4329 22.4288 11.4999 22.8654 11.4948 23.3051C11.4948 23.3921 11.4807 23.4782 11.4532 23.5585C11.4258 23.6389 11.3856 23.7118 11.3349 23.7733C11.2842 23.8348 11.224 23.8836 11.1578 23.9169C11.0916 23.9502 11.0206 23.9673 10.9489 23.9673ZM4.69797 22.2629C4.61455 22.2629 4.53224 22.2397 4.45735 22.1952C4.38246 22.1506 4.31699 22.0858 4.26596 22.0057C4.21494 21.9257 4.17972 21.8325 4.163 21.7334C4.14629 21.6342 4.14853 21.5318 4.16955 21.4338C4.22231 21.1991 4.28778 20.9688 4.36553 20.7445C4.49163 20.3618 4.60026 20.032 4.60026 19.3282C4.60026 18.6243 4.49108 18.2939 4.36553 17.9111C4.21868 17.4662 4.05273 16.9616 4.05273 16.0034C4.05273 15.0453 4.2165 14.5407 4.36553 14.0957C4.49163 13.7137 4.60026 13.3839 4.60026 12.6807C4.60026 11.9775 4.49108 11.6471 4.36553 11.2643C4.21868 10.8193 4.05273 10.3154 4.05273 9.35662C4.05273 8.39781 4.2165 7.89457 4.36553 7.44959C4.49163 7.06686 4.60026 6.73644 4.60026 6.03322C4.60026 5.8576 4.65777 5.68918 4.76014 5.565C4.86251 5.44082 5.00136 5.37106 5.14614 5.37106C5.29092 5.37106 5.42977 5.44082 5.53214 5.565C5.63451 5.68918 5.69202 5.8576 5.69202 6.03322C5.69202 6.99137 5.52826 7.49594 5.37923 7.94092C5.25313 8.32299 5.1445 8.65341 5.1445 9.35662C5.1445 10.0598 5.25368 10.3909 5.37923 10.773C5.52608 11.218 5.69202 11.7225 5.69202 12.6807C5.69202 13.6388 5.52826 14.1427 5.37923 14.5877C5.25313 14.9698 5.1445 15.3002 5.1445 16.0034C5.1445 16.7066 5.25368 17.0377 5.37923 17.4198C5.52608 17.8648 5.69202 18.3693 5.69202 19.3282C5.69202 20.287 5.52826 20.7909 5.37978 21.2352C5.31898 21.4075 5.26756 21.5845 5.22584 21.7649C5.19582 21.9072 5.12767 22.0333 5.03212 22.1234C4.93656 22.2136 4.81902 22.2626 4.69797 22.2629ZM7.53602 19.0732C7.41109 19.0729 7.29003 19.0205 7.19307 18.925C7.0961 18.8294 7.0291 18.6964 7.00324 18.5481C6.96085 18.3288 6.90239 18.1145 6.82855 17.9078C6.68226 17.4628 6.51631 16.9589 6.51631 16.0008C6.51631 15.0426 6.68007 14.5381 6.8291 14.0931C6.95465 13.711 7.06383 13.3813 7.06383 12.678C7.06383 11.9748 6.95465 11.6444 6.8291 11.2617C6.68226 10.8167 6.51631 10.3128 6.51631 9.35398C6.51631 8.39516 6.68007 7.89192 6.8291 7.44694C6.95465 7.06421 7.06383 6.73379 7.06383 6.03057C7.06383 5.85496 7.12134 5.68653 7.22372 5.56235C7.32609 5.43817 7.46494 5.36841 7.60971 5.36841C7.75449 5.36841 7.89334 5.43817 7.99571 5.56235C8.09809 5.68653 8.1556 5.85496 8.1556 6.03057C8.1556 6.98872 7.99183 7.49329 7.84281 7.93827C7.71671 8.32034 7.60808 8.65076 7.60808 9.35398C7.60808 10.0572 7.71725 10.3883 7.84281 10.7703C7.9891 11.2153 8.1556 11.7199 8.1556 12.678C8.1556 13.6362 7.99183 14.1401 7.84281 14.5851C7.71671 14.9724 7.60808 15.3035 7.60808 16.0034C7.60808 16.7033 7.71725 17.0371 7.84226 17.4191C7.93896 17.6942 8.01532 17.9792 8.07044 18.2707C8.0856 18.3557 8.0868 18.4436 8.07396 18.5292C8.06112 18.6148 8.0345 18.6965 7.99561 18.7696C7.95673 18.8427 7.90634 18.9058 7.84734 18.9553C7.78834 19.0048 7.72187 19.0397 7.65175 19.058C7.61371 19.0679 7.57492 19.073 7.53602 19.0732ZM9.63276 18.6693C9.51925 18.6693 9.40857 18.6264 9.31611 18.5465C9.22365 18.4666 9.15402 18.3538 9.1169 18.2237C9.08688 18.119 9.05358 18.0177 9.01864 17.9111C8.8718 17.4662 8.70585 16.9616 8.70585 16.0034C8.70585 15.0453 8.86962 14.5407 9.01864 14.0957C9.14474 13.7137 9.25337 13.3839 9.25337 12.6807C9.25337 12.1265 9.1835 11.808 9.11472 11.5689C9.06694 11.4031 9.07541 11.2211 9.13827 11.0629C9.20113 10.9047 9.31322 10.7833 9.44989 10.7253C9.58656 10.6674 9.73661 10.6776 9.86703 10.7539C9.99746 10.8301 10.0976 10.9661 10.1453 11.1319C10.2387 11.455 10.3451 11.9265 10.3451 12.6794C10.3451 13.6375 10.1814 14.1414 10.0323 14.5864C9.90679 14.9685 9.79762 15.2989 9.79762 16.0021C9.79762 16.7053 9.90679 17.0357 10.0323 17.4185C10.0706 17.535 10.1104 17.6555 10.1486 17.7893C10.196 17.9552 10.187 18.1372 10.1237 18.2952C10.0605 18.4531 9.94808 18.5741 9.81126 18.6316C9.75396 18.6563 9.6936 18.6691 9.63276 18.6693ZM11.9866 19.8142C11.8446 19.8143 11.7082 19.7472 11.6063 19.6273C11.5044 19.5074 11.445 19.344 11.4407 19.1719C11.4254 18.5759 11.3245 18.266 11.2076 17.9138C11.0613 17.4688 10.8954 16.9642 10.8954 16.0061C10.8954 15.0479 11.0592 14.5434 11.2076 14.0984C11.3337 13.7163 11.4424 13.3866 11.4424 12.6833C11.4424 12.1291 11.3725 11.8106 11.3037 11.5716C11.2556 11.4056 11.2639 11.2233 11.3267 11.0647C11.3894 10.9061 11.5015 10.7843 11.6383 10.726C11.7752 10.6677 11.9255 10.6777 12.0562 10.7538C12.1869 10.8299 12.2874 10.9659 12.3354 11.1319C12.4282 11.455 12.5347 11.9265 12.5347 12.6794C12.5347 13.6375 12.3709 14.1414 12.2224 14.5864C12.0963 14.9685 11.9877 15.2989 11.9877 16.0021C11.9877 16.7053 12.0969 17.0364 12.2224 17.4185C12.3578 17.8303 12.5118 18.2978 12.5325 19.1302C12.5369 19.3057 12.4837 19.4762 12.3845 19.6041C12.2853 19.732 12.1482 19.8068 12.0035 19.8122L11.9866 19.8142Z" fill="#525252"/>
<path d="M26.2194 28.6314H7.06377C5.90252 28.63 4.78916 28.0698 3.96799 27.0738C3.14681 26.0779 2.68489 24.7274 2.68359 23.3188C2.68359 23.1432 2.74111 22.9748 2.84348 22.8506C2.94585 22.7264 3.0847 22.6566 3.22948 22.6566H30.0537C30.1985 22.6566 30.3373 22.7264 30.4397 22.8506C30.542 22.9748 30.5996 23.1432 30.5996 23.3188C30.5981 24.7274 30.1361 26.0777 29.315 27.0736C28.4939 28.0696 27.3806 28.6298 26.2194 28.6314ZM3.82067 23.9777C3.95022 24.9077 4.3469 25.7521 4.94048 26.3613C5.53405 26.9705 6.28621 27.3053 7.06377 27.3064H26.2194C26.997 27.3052 27.7492 26.9704 28.3428 26.3612C28.9364 25.752 29.3333 24.9077 29.463 23.9777H3.82067ZM10.8937 12.013H4.97631C4.83153 12.013 4.69268 11.9433 4.59031 11.8191C4.48794 11.6949 4.43042 11.5265 4.43042 11.3509C4.43042 11.1752 4.48794 11.0068 4.59031 10.8826C4.69268 10.7585 4.83153 10.6887 4.97631 10.6887H10.3478V6.69518H5.14553C5.00075 6.69518 4.86191 6.62541 4.75953 6.50123C4.65716 6.37705 4.59965 6.20863 4.59965 6.03301C4.59965 5.8574 4.65716 5.68897 4.75953 5.56479C4.86191 5.44061 5.00075 5.37085 5.14553 5.37085H10.8937C10.9654 5.37085 11.0364 5.38798 11.1026 5.42125C11.1688 5.45453 11.229 5.50331 11.2797 5.56479C11.3304 5.62628 11.3706 5.69928 11.398 5.77961C11.4255 5.85995 11.4396 5.94606 11.4396 6.03301V11.3509C11.4396 11.4378 11.4255 11.5239 11.398 11.6043C11.3706 11.6846 11.3304 11.7576 11.2797 11.8191C11.229 11.8806 11.1688 11.9293 11.1026 11.9626C11.0364 11.9959 10.9654 12.013 10.8937 12.013Z" fill="#525252"/>
<path d="M10.8942 9.3546H4.87206C4.72728 9.3546 4.58843 9.28484 4.48606 9.16066C4.38368 9.03648 4.32617 8.86805 4.32617 8.69244C4.32617 8.51682 4.38368 8.3484 4.48606 8.22422C4.58843 8.10004 4.72728 8.03027 4.87206 8.03027H10.8942C11.039 8.03027 11.1779 8.10004 11.2802 8.22422C11.3826 8.3484 11.4401 8.51682 11.4401 8.69244C11.4401 8.86805 11.3826 9.03648 11.2802 9.16066C11.1779 9.28484 11.039 9.3546 10.8942 9.3546Z" fill="#525252"/>
<path d="M12.5336 12.0133H10.8916C10.7468 12.0133 10.608 11.9435 10.5056 11.8193C10.4032 11.6951 10.3457 11.5267 10.3457 11.3511V6.03326C10.3457 5.85764 10.4032 5.68922 10.5056 5.56504C10.608 5.44086 10.7468 5.3711 10.8916 5.3711H12.5336C12.8151 5.37074 13.095 5.42323 13.3634 5.5267C15.3788 6.30541 17.3483 6.70072 19.212 6.70072H28.9565C29.3868 6.71024 29.7967 6.92424 30.0982 7.29667C30.3997 7.66911 30.5686 8.17021 30.5686 8.69218C30.5686 9.21415 30.3997 9.71526 30.0982 10.0877C29.7967 10.4601 29.3868 10.6741 28.9565 10.6836H19.212C17.3467 10.6836 15.3788 11.0809 13.3634 11.8577C13.095 11.9611 12.8151 12.0136 12.5336 12.0133ZM11.4375 10.6889H12.5336C12.7027 10.6893 12.8709 10.6578 13.032 10.5956C15.1549 9.77515 17.2353 9.35931 19.212 9.35931H28.9565C29.0994 9.35385 29.2349 9.28117 29.3344 9.15666C29.4338 9.03214 29.4895 8.86556 29.4895 8.69218C29.4895 8.5188 29.4338 8.35222 29.3344 8.22771C29.2349 8.10319 29.0994 8.03051 28.9565 8.02505H19.212C17.2342 8.02505 15.1549 7.60921 13.032 6.78879C12.8709 6.72651 12.7027 6.69502 12.5336 6.69542H11.4375V10.6889Z" fill="#525252"/>
</svg>
