 <svg
            width="35"
            height="35"
            viewBox="0 0 34 34"
            fill="none"
            xmlns="http://www.w3.org/2000/svg"
          >
            <path
              d="M27.2886 1.2057C27.118 1.10017 26.9146 1.0701 26.723 1.12207C26.5314 1.17403 26.3671 1.3038 26.2661 1.48297L20.9185 11.0207C20.8911 11.0701 20.8689 11.1227 20.8525 11.1772C20.2541 11.4108 19.6957 11.7448 19.1987 12.1663C17.5784 9.26819 14.6095 7.44333 11.3661 7.44333C6.36141 7.44333 2.29044 11.7232 2.27648 16.9886H1.09677L1.20225 17.873C1.8161 23.0138 4.82748 27.5039 9.15741 29.8683V32.9036H20.3298C21.746 32.9036 22.8982 31.6896 22.8982 30.1982V29.8686C27.2294 27.5032 30.2395 23.013 30.8547 17.873L30.9601 16.9878H28.8297C28.8199 14.3003 27.1828 12.0155 24.9057 11.1529L31.5777 4.39329C31.8745 4.09273 31.884 3.59478 31.5975 3.2824C31.5296 3.20803 31.4484 3.14846 31.3587 3.10711C31.2689 3.06576 31.1723 3.04343 31.0744 3.04141C30.9764 3.03938 30.879 3.05768 30.7878 3.09529C30.6966 3.13289 30.6133 3.18904 30.5426 3.26055L23.1105 10.7914C23.0438 10.7885 22.9774 10.7807 22.9097 10.7807C22.8668 10.7807 22.8257 10.7871 22.7835 10.7878L27.552 2.2822C27.6019 2.19331 27.6346 2.09496 27.6483 1.99275C27.6621 1.89054 27.6566 1.78648 27.6321 1.68651C27.6077 1.58655 27.5647 1.49264 27.5058 1.41014C27.4469 1.32764 27.3731 1.25817 27.2886 1.2057ZM11.3658 9.01563C14.223 9.01563 16.8274 10.709 18.1228 13.3621C17.6505 14.046 17.3157 14.824 17.1388 15.6488C16.545 12.866 14.1842 10.7799 11.3658 10.7799C8.1104 10.7799 5.46208 13.5627 5.44813 16.9882H3.76993C3.78354 12.5901 7.18487 9.01563 11.3658 9.01563ZM11.3658 14.1209C9.85836 14.1209 8.63169 15.4052 8.61774 16.9882H6.94191C6.95586 14.4297 8.93385 12.3526 11.3658 12.3526C13.7983 12.3526 15.7784 14.4297 15.791 16.9882H14.1131C14.0998 15.4052 12.8731 14.1209 11.3658 14.1209ZM12.6186 16.9886H10.1129C10.1196 16.643 10.2545 16.3139 10.4888 16.0718C10.7231 15.8297 11.0381 15.6938 11.3664 15.6932C11.6946 15.6939 12.0094 15.8298 12.2435 16.072C12.4776 16.3141 12.6122 16.6431 12.6186 16.9886ZM29.2394 18.5609C28.4095 23.1298 25.4665 27.0249 21.3877 28.8906H18.9973V30.4633H21.3717C21.3158 30.7101 21.1827 30.9298 20.9938 31.0873C20.8048 31.2447 20.5711 31.3307 20.3301 31.3313H10.6512V30.4633H13.4513V28.8906H10.6692C6.59042 27.026 3.64709 23.1298 2.81649 18.5609H29.2394ZM21.6572 16.9886C21.6638 16.6431 21.7985 16.3142 22.0326 16.0721C22.2667 15.8299 22.5816 15.6939 22.9097 15.6932C23.2382 15.6935 23.5534 15.8293 23.7879 16.0714C24.0224 16.3136 24.1574 16.6428 24.164 16.9886H21.6572ZM22.9097 12.353C25.3433 12.353 27.324 14.43 27.337 16.9886H25.6581C25.6445 15.4055 24.4175 14.1212 22.9097 14.1212C21.4023 14.1212 20.1767 15.4055 20.1631 16.9886H18.4859C18.4995 14.43 20.4775 12.353 22.9097 12.353Z"
              fill="#525252"
            />
            <path
              d="M19.3242 23.1206C19.4328 23.1206 19.5426 23.0937 19.6438 23.0362C20.4729 22.5708 21.2004 21.9293 21.7802 21.1527C22.3599 20.3761 22.779 19.4814 23.0109 18.5256C23.0332 18.4348 23.0381 18.3404 23.0254 18.2476C23.0128 18.1549 22.9828 18.0657 22.9371 17.9851C22.8915 17.9045 22.8312 17.8342 22.7596 17.7782C22.688 17.7221 22.6066 17.6814 22.52 17.6585C22.4334 17.6355 22.3433 17.6307 22.2549 17.6443C22.1665 17.6579 22.0816 17.6897 22.0049 17.7378C21.9283 17.7859 21.8615 17.8495 21.8083 17.9247C21.7551 18 21.7166 18.0856 21.695 18.1765C21.5099 18.9404 21.175 19.6555 20.7118 20.2762C20.2486 20.8969 19.6672 21.4096 19.0047 21.7816C18.8711 21.8562 18.7651 21.9755 18.7036 22.1206C18.6421 22.2657 18.6287 22.4281 18.6655 22.5821C18.7022 22.7361 18.787 22.8728 18.9064 22.9703C19.0258 23.0679 19.1729 23.1208 19.3242 23.1206Z"
              fill="#525252"
            />
            <path
              d="M18.0968 24.2174C18.3997 24.2174 18.6452 23.9719 18.6452 23.669C18.6452 23.3661 18.3997 23.1206 18.0968 23.1206C17.7939 23.1206 17.5484 23.3661 17.5484 23.669C17.5484 23.9719 17.7939 24.2174 18.0968 24.2174Z"
              fill="#525252"
            />
          </svg>