 <svg
            width="34"
            height="35"
            viewBox="0 0 34 35"
            fill="none"
            xmlns="http://www.w3.org/2000/svg"
          >
            <path
              d="M17 33C14.0333 33 11.1332 32.1203 8.66645 30.472C6.19972 28.8238 4.27713 26.4811 3.14181 23.7403C2.0065 20.9994 1.70945 17.9834 2.28823 15.0736C2.86701 12.1639 4.29562 9.49119 6.3934 7.3934C8.49119 5.29562 11.1639 3.86701 14.0736 3.28823C16.9834 2.70945 19.9994 3.0065 22.7403 4.14181C25.4811 5.27713 27.8238 7.19972 29.472 9.66645C31.1203 12.1332 32 15.0333 32 18C31.995 21.9767 30.413 25.7891 27.6011 28.6011C24.7891 31.413 20.9767 32.995 17 33ZM17 3.94459C14.2201 3.94459 11.5026 4.76893 9.19123 6.31336C6.87983 7.85778 5.07832 10.0529 4.0145 12.6212C2.95067 15.1895 2.67233 18.0156 3.21466 20.7421C3.75699 23.4686 5.09564 25.973 7.06133 27.9387C9.02701 29.9044 11.5314 31.243 14.2579 31.7853C16.9844 32.3277 19.8105 32.0493 22.3788 30.9855C24.9471 29.9217 27.1422 28.1202 28.6867 25.8088C30.2311 23.4974 31.0554 20.7799 31.0554 18C31.0517 14.2734 29.5696 10.7006 26.9345 8.06547C24.2994 5.43038 20.7266 3.94834 17 3.94459Z"
              fill="#525252"
            />
            <path
              d="M6.48432 16.2256C6.35681 16.2256 6.23451 16.1747 6.14434 16.084C6.05418 15.9934 6.00352 15.8704 6.00352 15.7421C5.99883 15.7068 5.99883 15.6711 6.00352 15.6358C6.51213 13.3076 7.75934 11.2087 9.55723 9.65534C11.3551 8.10195 13.6063 7.1782 15.9716 7.02326C18.337 6.86832 20.6883 7.49059 22.6714 8.7963C24.6545 10.102 26.1619 12.0205 26.9665 14.2626C26.9901 14.3227 27.0014 14.387 26.9999 14.4517C26.9983 14.5163 26.9838 14.5799 26.9574 14.6389C26.9309 14.6978 26.893 14.7508 26.8458 14.7947C26.7986 14.8386 26.7432 14.8725 26.6827 14.8945C26.6223 14.9165 26.5581 14.9261 26.4939 14.9227C26.4297 14.9193 26.3668 14.903 26.309 14.8747C26.2512 14.8464 26.1996 14.8068 26.1573 14.7581C26.1149 14.7095 26.0828 14.6528 26.0626 14.5914C25.3274 12.5483 23.9526 10.8005 22.1448 9.61062C20.337 8.42078 18.194 7.85325 16.0379 7.99336C13.8819 8.13347 11.8293 8.97366 10.1888 10.3876C8.54838 11.8015 7.40867 13.7128 6.94109 15.834C6.92042 15.9417 6.86395 16.0391 6.78094 16.1103C6.69794 16.1815 6.59334 16.2222 6.48432 16.2256ZM16.6966 29C14.5569 29.0037 12.4633 28.3757 10.6752 27.1939C8.88721 26.012 7.4835 24.3284 6.63818 22.3517C6.6112 22.2926 6.59804 22.2281 6.59972 22.1631C6.59985 22.0495 6.6398 21.9395 6.71254 21.8525C6.78529 21.7655 6.88619 21.7071 6.99752 21.6875C7.10885 21.6678 7.22349 21.6883 7.32132 21.7452C7.41915 21.8021 7.49391 21.8919 7.53247 21.9988C8.30711 23.8029 9.59134 25.3388 11.2259 26.4158C12.8605 27.4928 14.7735 28.0636 16.7276 28.0575C18.6818 28.0513 20.5912 27.4684 22.219 26.3811C23.8468 25.2937 25.1214 23.7498 25.8847 21.9407C25.9376 21.8276 26.032 21.7395 26.1481 21.6949C26.2642 21.6503 26.393 21.6526 26.5074 21.7014C26.6219 21.7502 26.7131 21.8416 26.7619 21.9566C26.8108 22.0715 26.8134 22.201 26.7694 22.3179C25.9287 24.3035 24.5251 25.9962 22.7337 27.1845C20.9424 28.3729 18.8426 29.0043 16.6966 29Z"
              fill="#525252"
            />
            <path
              d="M17.869 14.5531C17.8079 14.5535 17.7474 14.5403 17.6911 14.5142C17.6349 14.4882 17.5841 14.4498 17.5419 14.4016C17.4584 14.31 17.4116 14.1861 17.4116 14.057C17.4116 13.9278 17.4584 13.8039 17.5419 13.7123C17.633 13.6194 17.7198 13.5216 17.8018 13.4191C18.008 13.16 18.1155 12.896 18.0572 12.7787C17.999 12.6614 17.766 12.5783 17.6539 12.5343C17.4489 12.477 17.2382 12.4474 17.0266 12.4463C16.7464 12.4424 16.4678 12.3997 16.1975 12.3192C15.8529 12.152 15.5468 11.9032 15.3013 11.5909C15.1444 11.3968 14.9598 11.2317 14.7546 11.1021C14.6124 11.037 14.4606 11.0006 14.3064 10.9945C14.0883 11.0744 13.8946 11.2181 13.7463 11.41C13.2651 11.9384 12.8244 12.509 12.4288 13.116C12.2227 13.4239 12.0165 13.7319 11.8014 14.0252C11.7272 14.127 11.6189 14.1924 11.5004 14.207C11.3819 14.2217 11.2629 14.1844 11.1696 14.1034C11.0763 14.0224 11.0163 13.9042 11.0029 13.775C10.9894 13.6457 11.0236 13.5159 11.0979 13.4142C11.3085 13.1306 11.5102 12.8325 11.7073 12.5392C12.1311 11.8765 12.6047 11.2535 13.1234 10.6768C13.4054 10.3307 13.7829 10.094 14.1989 10.0022C14.489 9.98716 14.7781 10.0492 15.0414 10.1831C15.3876 10.3473 15.6943 10.5966 15.9376 10.9114C16.0945 11.1055 16.2791 11.2706 16.4843 11.4002C16.6815 11.4485 16.8827 11.4747 17.0848 11.4784C17.3885 11.4802 17.6903 11.5295 17.9811 11.6251C18.3515 11.7256 18.6724 11.9776 18.8773 12.329C19.1283 12.8178 18.9893 13.4728 18.5054 14.0741C18.4068 14.1963 18.3037 14.3185 18.1962 14.4309C18.1518 14.4739 18.1 14.5068 18.0438 14.5278C17.9877 14.5488 17.9283 14.5574 17.869 14.5531ZM14.2661 25.9964C14.2154 26.0012 14.1644 26.0012 14.1138 25.9964C13.6968 25.9126 13.317 25.6806 13.0338 25.3364C12.549 24.8034 12.0998 24.2333 11.6894 23.6305C11.5102 23.3812 11.3309 23.1417 11.1472 22.8924C11.1044 22.8441 11.0712 22.7867 11.0496 22.7238C11.028 22.6609 11.0186 22.5938 11.0218 22.5268C11.025 22.4597 11.0409 22.3941 11.0684 22.334C11.096 22.274 11.1345 22.2207 11.1818 22.1776C11.229 22.1345 11.2838 22.1025 11.3429 22.0836C11.402 22.0646 11.464 22.0592 11.5251 22.0675C11.5861 22.0759 11.645 22.0979 11.6979 22.1321C11.7509 22.1664 11.7968 22.2122 11.8328 22.2667C12.0255 22.516 12.2092 22.7555 12.393 23.0243C12.7775 23.5828 13.1983 24.1105 13.6522 24.6032C13.8002 24.7976 13.9961 24.9418 14.2168 25.0187C14.3706 25.0138 14.5223 24.979 14.6649 24.9161C14.9015 24.8043 15.1256 24.6632 15.3327 24.4957C15.6026 24.2806 15.8962 24.1033 16.2065 23.9678C16.4779 23.8852 16.7582 23.8425 17.04 23.8407C17.2516 23.8396 17.4624 23.81 17.6674 23.7527C17.7794 23.7087 18.0169 23.6158 18.0752 23.5034C18.1334 23.391 18.0214 23.1221 17.8153 22.8679C17.7332 22.7654 17.6465 22.6675 17.5553 22.5746C17.5127 22.53 17.4785 22.4767 17.4547 22.4176C17.431 22.3586 17.4181 22.2951 17.4168 22.2306C17.4156 22.1661 17.426 22.1021 17.4474 22.042C17.4689 21.9819 17.501 21.927 17.5419 21.8805C17.5828 21.834 17.6317 21.7967 17.6858 21.7707C17.7399 21.7448 17.7982 21.7308 17.8573 21.7294C17.9164 21.728 17.9751 21.7394 18.0302 21.7628C18.0853 21.7862 18.1356 21.8212 18.1782 21.8658C18.2858 21.9783 18.3889 22.1005 18.4874 22.2227C18.9759 22.819 19.1103 23.4545 18.8639 23.9629C18.6559 24.312 18.3365 24.5646 17.9676 24.6717C17.6772 24.7681 17.375 24.8159 17.0714 24.8134C16.869 24.8161 16.6675 24.844 16.4709 24.8965C16.2398 25.0071 16.0204 25.1448 15.8166 25.3071C15.5411 25.529 15.2397 25.7098 14.9204 25.8448C14.7107 25.9315 14.49 25.9826 14.2661 25.9964Z"
              fill="#525252"
            />
            <path
              d="M13.5844 23C11.84 23.0007 10.1178 22.6041 8.54582 21.8396C6.81314 21.0106 5.28965 19.7941 4.09061 18.2821C4.03173 18.2007 4 18.1024 4 18.0015C4 17.9007 4.03173 17.8024 4.09061 17.721C5.30242 16.1947 6.84423 14.9696 8.59757 14.1398C10.156 13.3921 11.8594 13.0039 13.5844 13.0031C16.6706 12.9433 19.7127 13.75 22.3725 15.3335C23.5628 14.7152 26.7807 13.7783 28.2109 13.4074C28.2878 13.3874 28.3684 13.3875 28.4453 13.4075C28.5222 13.4276 28.5928 13.467 28.6505 13.522C28.7083 13.5771 28.7513 13.6461 28.7756 13.7225C28.7999 13.7989 28.8047 13.8803 28.7895 13.959L28.0415 17.9683L28.9824 21.2974C29.0037 21.3738 29.0057 21.4544 28.9883 21.5318C28.9708 21.6093 28.9345 21.681 28.8826 21.7406C28.8306 21.8002 28.7648 21.8457 28.691 21.8729C28.6172 21.9002 28.5379 21.9083 28.4602 21.8966C28.3049 21.8966 24.8424 21.3212 22.7677 20.4033C21.8832 21.0311 18.6982 23 13.5844 23ZM5.07856 18.0015C6.16197 19.2488 7.48381 20.2615 8.96453 20.9787C10.4101 21.6827 11.994 22.0484 13.5985 22.0488C19.1828 22.0488 22.3913 19.5187 22.4196 19.4949C22.4889 19.4388 22.5725 19.4036 22.6607 19.3935C22.749 19.3834 22.8383 19.3988 22.9182 19.4378C24.3296 20.1179 26.6819 20.622 27.8768 20.8646L27.1241 18.1442C27.1054 18.0725 27.1054 17.9971 27.1241 17.9255L27.7263 14.5393C25.7692 15.0814 23.1582 15.9185 22.6313 16.2989C22.553 16.3531 22.4603 16.3821 22.3655 16.3821C22.2706 16.3821 22.1779 16.3531 22.0996 16.2989C21.0552 15.5951 18.1384 13.9638 13.5844 13.9638C11.9971 13.9646 10.43 14.3236 8.99746 15.0148C7.50498 15.7325 6.17185 16.7486 5.07856 18.0015Z"
              fill="#525252"
            />
            <path
              d="M8.80378 21.9998C8.73447 21.9987 8.66625 21.982 8.60387 21.951C6.84899 21.1015 5.3059 19.8534 4.09167 18.3015C4.0321 18.2179 4 18.1171 4 18.0136C4 17.9101 4.0321 17.8093 4.09167 17.7257C5.31769 16.1599 6.87758 14.903 8.65147 14.0517C8.72631 14.0133 8.80972 13.9957 8.89329 14.0009C8.97686 14.006 9.05762 14.0337 9.12744 14.081C9.7483 14.5113 10.2546 15.0937 10.6003 15.7753C10.9461 16.4569 11.1204 17.2162 11.1075 17.9843C11.1226 18.7635 10.9439 19.5338 10.5883 20.2226C10.2328 20.9115 9.71201 21.4962 9.07508 21.9218C8.99441 21.9753 8.89983 22.0025 8.80378 21.9998ZM5.09121 18.0136C6.12502 19.2202 7.37373 20.2137 8.77046 20.9411C9.19433 20.5845 9.53644 20.1367 9.77252 19.6294C10.0086 19.1221 10.1329 18.5677 10.1365 18.0057C10.1401 17.4436 10.0231 16.8876 9.79355 16.3771C9.56405 15.8667 9.22776 15.4142 8.80854 15.052C7.39552 15.7855 6.13345 16.791 5.09121 18.0136ZM13.3065 17.4769C13.1802 17.4769 13.0592 17.4255 12.9699 17.334C12.8806 17.2425 12.8305 17.1184 12.8305 16.989C12.8305 16.8596 12.8806 16.7355 12.9699 16.644C13.0592 16.5525 13.1802 16.5011 13.3065 16.5011C13.3428 16.5062 13.3798 16.5032 13.415 16.4925C13.4502 16.4817 13.4827 16.4633 13.5103 16.4386C13.538 16.4138 13.5601 16.3833 13.5753 16.3491C13.5905 16.3148 13.5984 16.2776 13.5984 16.24C13.5984 16.2024 13.5905 16.1652 13.5753 16.131C13.5601 16.0967 13.538 16.0662 13.5103 16.0415C13.4827 16.0167 13.4502 15.9984 13.415 15.9876C13.3798 15.9768 13.3428 15.9739 13.3065 15.979C13.1802 15.979 13.0592 15.9276 12.9699 15.8361C12.8806 15.7446 12.8305 15.6205 12.8305 15.4911C12.8305 15.3617 12.8806 15.2376 12.9699 15.1461C13.0592 15.0546 13.1802 15.0032 13.3065 15.0032C13.4713 14.9926 13.6365 15.0167 13.7919 15.074C13.9473 15.1314 14.0895 15.2208 14.2099 15.3367C14.3303 15.4525 14.4262 15.5925 14.4918 15.7479C14.5574 15.9032 14.5913 16.0707 14.5913 16.24C14.5913 16.4093 14.5574 16.5768 14.4918 16.7322C14.4262 16.8876 14.3303 17.0275 14.2099 17.1434C14.0895 17.2593 13.9473 17.3487 13.7919 17.406C13.6365 17.4634 13.4713 17.4875 13.3065 17.4769ZM13.4302 20.7508C13.304 20.7508 13.1829 20.6994 13.0937 20.6079C13.0044 20.5164 12.9542 20.3923 12.9542 20.2629C12.9542 20.1335 13.0044 20.0094 13.0937 19.9179C13.1829 19.8264 13.304 19.7749 13.4302 19.7749C13.4666 19.7801 13.5036 19.7771 13.5387 19.7663C13.5739 19.7556 13.6064 19.7372 13.6341 19.7125C13.6617 19.6877 13.6839 19.6572 13.6991 19.623C13.7143 19.5887 13.7221 19.5515 13.7221 19.5139C13.7221 19.4763 13.7143 19.4391 13.6991 19.4049C13.6839 19.3706 13.6617 19.3401 13.6341 19.3154C13.6064 19.2906 13.5739 19.2723 13.5387 19.2615C13.5036 19.2507 13.4666 19.2478 13.4302 19.2529C13.304 19.2529 13.1829 19.2015 13.0937 19.11C13.0044 19.0185 12.9542 18.8944 12.9542 18.765C12.9542 18.6356 13.0044 18.5115 13.0937 18.42C13.1829 18.3285 13.304 18.2771 13.4302 18.2771C13.595 18.2664 13.7602 18.2906 13.9156 18.3479C14.071 18.4053 14.2133 18.4946 14.3337 18.6105C14.4541 18.7264 14.55 18.8664 14.6156 19.0218C14.6812 19.1771 14.715 19.3446 14.715 19.5139C14.715 19.6832 14.6812 19.8507 14.6156 20.0061C14.55 20.1614 14.4541 20.3014 14.3337 20.4173C14.2133 20.5332 14.071 20.6226 13.9156 20.6799C13.7602 20.7373 13.595 20.7614 13.4302 20.7508ZM15.7958 19.1114C15.6696 19.1114 15.5485 19.06 15.4592 18.9685C15.37 18.877 15.3198 18.7529 15.3198 18.6235C15.3198 18.4941 15.37 18.37 15.4592 18.2785C15.5485 18.187 15.6696 18.1356 15.7958 18.1356C15.8289 18.1356 15.8617 18.1289 15.8923 18.1159C15.9229 18.1029 15.9507 18.0838 15.9742 18.0598C15.9976 18.0358 16.0162 18.0073 16.0289 17.9759C16.0415 17.9446 16.0481 17.9109 16.0481 17.877C16.0481 17.843 16.0415 17.8094 16.0289 17.778C16.0162 17.7466 15.9976 17.7181 15.9742 17.6941C15.9507 17.6701 15.9229 17.6511 15.8923 17.6381C15.8617 17.6251 15.8289 17.6184 15.7958 17.6184C15.6696 17.6184 15.5485 17.567 15.4592 17.4755C15.37 17.384 15.3198 17.2599 15.3198 17.1305C15.3198 17.0011 15.37 16.877 15.4592 16.7855C15.5485 16.694 15.6696 16.6426 15.7958 16.6426C16.1152 16.6426 16.4215 16.7726 16.6473 17.0041C16.8731 17.2356 17 17.5496 17 17.877C17 18.2044 16.8731 18.5183 16.6473 18.7498C16.4215 18.9813 16.1152 19.1114 15.7958 19.1114Z"
              fill="#525252"
            />
            <path
              d="M7.67838 22C7.61386 22.0001 7.55081 21.9734 7.49739 21.9233C7.44397 21.8732 7.40265 21.802 7.37877 21.7191C7.23479 21.2333 7.11215 20.736 7.01151 20.2298C7.0003 20.1733 6.99724 20.1143 7.0025 20.0561C7.00777 19.998 7.02126 19.9418 7.0422 19.8909C7.06314 19.84 7.09112 19.7953 7.12455 19.7593C7.15798 19.7233 7.1962 19.6968 7.23702 19.6813C7.27785 19.6658 7.32048 19.6616 7.36249 19.6689C7.4045 19.6761 7.44506 19.6948 7.48186 19.7238C7.51865 19.7528 7.55096 19.7915 7.57695 19.8378C7.60293 19.8841 7.62207 19.9369 7.63328 19.9935C7.72728 20.4661 7.84131 20.9306 7.97477 21.3847C7.99482 21.4522 8.00258 21.5255 7.99736 21.5982C7.99214 21.6709 7.9741 21.7407 7.94483 21.8014C7.91556 21.8622 7.87596 21.9121 7.8295 21.9467C7.78304 21.9813 7.73115 21.9996 7.67838 22ZM7.57529 18.0137C7.5293 18.013 7.48395 17.9988 7.44227 17.9719C7.40059 17.9449 7.36356 17.906 7.33367 17.8576C7.27774 17.7683 7.24972 17.6519 7.25576 17.534C7.2618 17.4161 7.30141 17.3064 7.36589 17.2289L7.46576 17.1085C7.49791 17.0701 7.53521 17.0409 7.57552 17.0225C7.61583 17.0041 7.65836 16.9969 7.70069 17.0012C7.74302 17.0056 7.78432 17.0214 7.82223 17.0479C7.86013 17.0743 7.8939 17.1108 7.92162 17.1553C7.94933 17.1998 7.97043 17.2514 7.98373 17.3072C7.99703 17.363 8.00225 17.4219 7.99911 17.4805C7.99597 17.5391 7.98452 17.5962 7.96542 17.6487C7.94632 17.7012 7.91994 17.7479 7.88779 17.7863L7.78792 17.9066C7.72872 17.9767 7.65318 18.0147 7.57529 18.0137Z"
              fill="#525252"
            />
          </svg>