 <svg
                      width="24"
                      height="23"
                      viewBox="0 0 24 23"
                      fill="none"
                      xmlns="http://www.w3.org/2000/svg"
                    >
                      <path
                        d="M12 22.1602L10.26 20.6016C8.24 18.7832 6.57 17.2147 5.25 15.8959C3.93 14.577 2.88 13.3931 2.1 12.3441C1.32 11.295 0.775 10.3309 0.465 9.45171C0.155 8.57251 0 7.67333 0 6.75416C0 4.87587 0.63 3.3073 1.89 2.04844C3.15 0.789584 4.72 0.160156 6.6 0.160156C7.64 0.160156 8.63 0.379956 9.57 0.819557C10.51 1.25916 11.32 1.87859 12 2.67787C12.68 1.87859 13.49 1.25916 14.43 0.819557C15.37 0.379956 16.36 0.160156 17.4 0.160156C19.28 0.160156 20.85 0.789584 22.11 2.04844C23.37 3.3073 24 4.87587 24 6.75416C24 7.67333 23.845 8.57251 23.535 9.45171C23.225 10.3309 22.68 11.295 21.9 12.3441C21.12 13.3931 20.07 14.577 18.75 15.8959C17.43 17.2147 15.76 18.7832 13.74 20.6016L12 22.1602ZM12 18.9231C13.92 17.2047 15.5 15.731 16.74 14.5021C17.98 13.2732 18.96 12.2042 19.68 11.295C20.4 10.3859 20.9 9.5766 21.18 8.86724C21.46 8.15789 21.6 7.45353 21.6 6.75416C21.6 5.55525 21.2 4.55616 20.4 3.75689C19.6 2.95761 18.6 2.55798 17.4 2.55798C16.46 2.55798 15.59 2.82274 14.79 3.35225C13.99 3.88177 13.44 4.55616 13.14 5.37542H10.86C10.56 4.55616 10.01 3.88177 9.21 3.35225C8.41 2.82274 7.54 2.55798 6.6 2.55798C5.4 2.55798 4.4 2.95761 3.6 3.75689C2.8 4.55616 2.4 5.55525 2.4 6.75416C2.4 7.45353 2.54 8.15789 2.82 8.86724C3.1 9.5766 3.6 10.3859 4.32 11.295C5.04 12.2042 6.02 13.2732 7.26 14.5021C8.5 15.731 10.08 17.2047 12 18.9231Z"
                        fill="#525252"
                      />
                    </svg>