<svg width="124" height="34" viewBox="0 0 124 34" fill="none" xmlns="http://www.w3.org/2000/svg">
<path d="M25.549 15.6852C25.5512 16.1652 25.307 16.3218 24.9216 16.1283C24.2361 15.7842 23.5529 15.4346 22.8844 15.0595C22.5783 14.8877 22.3309 14.8638 22.0122 15.0475C21.3602 15.4237 20.6857 15.7624 20.0084 16.0935C19.8611 16.1652 19.6022 16.2147 19.5075 16.1375C19.3892 16.0413 19.3235 15.7945 19.3465 15.6281C19.4582 14.8214 19.6208 14.0217 19.7319 13.2149C19.7538 13.0567 19.6728 12.8328 19.5589 12.7159C19.0153 12.1576 18.4349 11.6346 17.8902 11.0774C17.7588 10.9431 17.6022 10.6751 17.6558 10.5593C17.7287 10.4027 17.9816 10.2717 18.1765 10.2374C18.9452 10.1021 19.7243 10.0232 20.4929 9.88951C20.6544 9.86124 20.8494 9.72044 20.9271 9.57692C21.2917 8.90662 21.6065 8.20968 21.9712 7.53938C22.0724 7.35291 22.2898 7.09903 22.4436 7.1061C22.6095 7.11317 22.8116 7.36433 22.9139 7.55406C23.2709 8.21403 23.5994 8.88922 23.9208 9.56714C24.0232 9.78405 24.1567 9.8781 24.3976 9.90691C25.1729 9.99987 25.947 10.1059 26.7163 10.2385C26.9024 10.2706 27.1614 10.3897 27.2145 10.5321C27.2643 10.6658 27.1302 10.9251 27.0021 11.0572C26.4392 11.634 25.8419 12.1771 25.2764 12.7512C25.1789 12.8502 25.1154 13.048 25.1357 13.1856C25.261 14.0418 25.4154 14.8958 25.549 15.6852Z" fill="url(#paint0_linear_36_6632)"/>
<path d="M33.4206 9.3666C32.3109 3.35943 26.4461 -0.618892 20.3772 0.492298C15.1098 1.4529 11.2549 6.07108 11.2456 11.8809C11.2648 13.7641 11.9426 15.9016 13.3031 17.8082C16.0624 21.6827 18.8316 25.5528 21.5954 29.4273C22.0788 30.1003 22.7807 30.1003 23.2641 29.4322C26.029 25.5571 28.8075 21.6919 31.5526 17.8125C33.3588 15.2612 33.9895 12.4267 33.4206 9.3666ZM22.4347 19.2885C18.2431 19.2885 14.8448 15.9147 14.8448 11.7526C14.8448 7.59054 18.2425 4.2162 22.4347 4.2162C26.6263 4.2162 30.0245 7.59 30.0245 11.7526C30.024 15.9141 26.6263 19.2885 22.4347 19.2885Z" fill="url(#paint1_linear_36_6632)"/>
<path d="M3.73259 29.9507C3.21576 29.468 2.74985 28.8939 2.37482 28.2502C2.06056 27.737 1.39152 27.5658 0.864836 27.8681C0.348004 28.1698 0.175545 28.8444 0.47995 29.3576C0.966122 30.1828 1.56453 30.9276 2.23302 31.5512C2.44599 31.7425 2.71919 31.8431 2.98308 31.8431C3.27708 31.8431 3.57108 31.7224 3.78351 31.4908C4.19851 31.0478 4.17825 30.3633 3.73259 29.9507Z" fill="url(#paint2_linear_36_6632)"/>
<path d="M19.6129 30.5546C18.9439 30.3132 18.3258 30.1724 17.7175 30.1219C17.4136 30.1018 17.1092 30.0817 16.7955 30.0817C16.1977 30.0615 15.6907 30.5448 15.6808 31.1483C15.6704 31.7523 16.1571 32.2453 16.7654 32.2551C17.0189 32.2649 17.2822 32.2752 17.5357 32.2953C17.9513 32.3356 18.3871 32.4361 18.8634 32.6074C18.9953 32.6476 19.1169 32.6677 19.2384 32.6677C19.6945 32.6677 20.11 32.3959 20.2721 31.9534C20.4741 31.3799 20.1801 30.7558 19.6129 30.5546Z" fill="url(#paint3_linear_36_6632)"/>
<path d="M13.4715 30.3736C12.6809 30.5248 11.9007 30.6955 11.1408 30.877L10.9585 30.9173C10.3705 31.0581 10.0059 31.6419 10.1378 32.2252C10.2594 32.7286 10.7154 33.0706 11.212 33.0706C11.293 33.0706 11.374 33.0603 11.4655 33.0402L11.6478 32.9999C12.4077 32.8189 13.1277 32.658 13.8569 32.527C14.4548 32.4161 14.8501 31.8425 14.7389 31.2592C14.6371 30.6656 14.0595 30.273 13.4715 30.3736Z" fill="url(#paint4_linear_36_6632)"/>
<path d="M8.02943 31.4904C7.33028 31.561 6.64099 31.4904 5.98236 31.2892C5.40475 31.1082 4.78664 31.43 4.61418 32.0036C4.43186 32.5771 4.74612 33.1811 5.33358 33.3621C6.03273 33.5834 6.77239 33.6943 7.51259 33.6943C7.75568 33.6943 7.99877 33.6839 8.2424 33.6638C8.84026 33.6035 9.28646 33.0702 9.22569 32.4662C9.16492 31.8731 8.63769 31.43 8.02943 31.4904Z" fill="url(#paint5_linear_36_6632)"/>
<path d="M45.2581 23.5524C43.7992 23.5524 42.0277 23.1644 40.2822 22.259L41.9365 19.0643C42.8613 19.711 43.7601 20.0603 44.7891 20.0603C46.3261 20.0603 47.1077 19.1419 47.1077 16.956V4.604H51.0155V17.6802C51.0155 21.5087 48.6709 23.5524 45.2581 23.5524ZM67.6879 16.4517L67.6488 17.3441H57.7232C57.8795 19.5558 59.3645 20.6164 61.149 20.6164C62.4907 20.6164 63.5327 19.9956 64.0408 18.8186L67.4795 19.3231C66.5938 22.0134 64.184 23.5525 61.175 23.5525C56.8505 23.5525 54.0239 21.0174 54.0239 16.6458C54.0239 12.2742 56.9286 9.71316 61.0578 9.71316C64.8483 9.71316 67.6748 11.7955 67.6879 16.4517ZM61.0845 12.3516C59.3781 12.3516 58.1927 13.1406 57.828 14.9125H63.9762C63.7808 13.2182 62.6216 12.3516 61.0845 12.3516ZM74.1362 12.1058C74.8136 10.9288 76.5721 9.84231 78.513 9.84231V13.1664C75.6733 13.1664 74.3187 13.9942 74.3187 16.8138V23.2938H70.5413V9.99767H74.1364L74.1362 12.1058ZM92.1251 4.60453V8.01908H87.6573V23.2939H83.7886V8.01908H79.2948V4.60453H92.1251ZM105.567 19.6852C105.567 21.3149 105.724 22.3496 105.893 22.9317V23.2938H102.389L102.089 21.8451C101.086 23.048 99.354 23.5525 97.7909 23.5525C95.6807 23.5525 93.6226 22.6212 93.6226 19.8533C93.6226 17.0983 95.6937 16.1671 98.4942 15.5592L100.696 15.0677C101.646 14.8478 101.985 14.5245 101.985 13.9813C101.985 12.6749 100.787 12.3127 99.7316 12.3127C98.377 12.3127 97.3479 12.843 97.1134 14.3434L93.7919 13.7484C94.352 10.9934 96.3841 9.7389 99.9401 9.7389C102.623 9.7389 105.567 10.5279 105.567 14.5374L105.567 19.6852ZM98.9633 21.0303C100.748 21.0303 102.181 19.8533 102.181 17.2147L99.0024 18.1071C97.9603 18.3529 97.2047 18.715 97.2047 19.6075C97.2047 20.5646 97.9993 21.0303 98.9633 21.0303ZM117.069 9.7394C120.599 9.7394 123.517 12.3133 123.517 16.6721C123.517 21.0308 120.599 23.6047 117.069 23.6047C115.324 23.6047 113.761 22.9322 112.966 21.7163V29.7613H109.215V9.99793H112.771L112.875 11.7829C113.617 10.4636 115.246 9.7394 117.069 9.7394ZM116.222 20.513C118.189 20.513 119.766 19.0902 119.766 16.6715C119.766 14.2528 118.189 12.8301 116.222 12.8301C114.216 12.8301 112.653 14.3434 112.653 16.6715C112.653 18.9996 114.216 20.513 116.222 20.513Z" fill="black"/>
<defs>
<linearGradient id="paint0_linear_36_6632" x1="17.645" y1="7.10596" x2="27.2251" y2="7.10596" gradientUnits="userSpaceOnUse">
<stop stop-color="#7D141D"/>
<stop offset="1" stop-color="#FF1E27"/>
</linearGradient>
<linearGradient id="paint1_linear_36_6632" x1="11.2456" y1="0.306152" x2="33.6233" y2="0.306152" gradientUnits="userSpaceOnUse">
<stop stop-color="#7D141D"/>
<stop offset="1" stop-color="#FF1E27"/>
</linearGradient>
<linearGradient id="paint2_linear_36_6632" x1="0.32959" y1="27.7188" x2="4.08135" y2="27.7188" gradientUnits="userSpaceOnUse">
<stop stop-color="#7D141D"/>
<stop offset="1" stop-color="#FF1E27"/>
</linearGradient>
<linearGradient id="paint3_linear_36_6632" x1="15.6807" y1="30.0811" x2="20.3358" y2="30.0811" gradientUnits="userSpaceOnUse">
<stop stop-color="#7D141D"/>
<stop offset="1" stop-color="#FF1E27"/>
</linearGradient>
<linearGradient id="paint4_linear_36_6632" x1="10.1108" y1="30.3579" x2="14.7576" y2="30.3579" gradientUnits="userSpaceOnUse">
<stop stop-color="#7D141D"/>
<stop offset="1" stop-color="#FF1E27"/>
</linearGradient>
<linearGradient id="paint5_linear_36_6632" x1="4.5625" y1="31.2388" x2="9.23124" y2="31.2388" gradientUnits="userSpaceOnUse">
<stop stop-color="#7D141D"/>
<stop offset="1" stop-color="#FF1E27"/>
</linearGradient>
</defs>
</svg>
