<svg
        width="20"
        height="20"
        viewBox="0 0 20 20"
        fill="none"
        xmlns="http://www.w3.org/2000/svg"
      >
        <g clipPath="url(#clip0_2455_261)">
          <mask
            id="path-1-outside-1_2455_261"
            maskUnits="userSpaceOnUse"
            x="-0.600037"
            y="-0.599609"
            width="21"
            height="21"
            fill="black"
          >
            <rect
              fill="white"
              x="-0.600037"
              y="-0.599609"
              width="21"
              height="21"
            />
            <path d="M19.2925 8.11347L16.7796 7.51602C16.7046 7.31133 16.6175 7.10527 16.516 6.89355L17.857 4.71953C17.9539 4.56191 17.9304 4.3582 17.7996 4.22695L15.7289 2.15175C15.5976 2.0205 15.3929 1.99629 15.2355 2.09394L13.0386 3.45058C12.8304 3.35234 12.6199 3.26582 12.4089 3.1916L11.8238 0.708591C11.7812 0.527931 11.6199 0.400391 11.4343 0.400391H8.50075C8.3152 0.400391 8.15426 0.527735 8.11168 0.708203L7.51754 3.21777C7.31325 3.29258 7.107 3.37988 6.89567 3.48105L4.71832 2.13984C4.56051 2.04277 4.35622 2.06621 4.22574 2.19765L2.15465 4.26894C2.02379 4.4 1.99957 4.60371 2.09684 4.76152L3.44996 6.95918C3.35153 7.16758 3.26481 7.37832 3.19059 7.58945L0.707775 8.17851C0.527307 8.22129 0.399963 8.38242 0.399963 8.56777V11.4982C0.399963 11.6836 0.527307 11.8447 0.707775 11.8875L3.21598 12.4811C3.29332 12.6918 3.38239 12.9006 3.48239 13.1057L2.13942 15.2811C2.04176 15.4389 2.06559 15.643 2.19684 15.774L4.27184 17.8492C4.4027 17.9803 4.60699 18.0043 4.7648 17.9066L6.96207 16.5498C7.16168 16.6432 7.37066 16.7293 7.58707 16.807L8.17691 19.2928C8.2195 19.473 8.38082 19.6004 8.56598 19.6004H11.4957C11.6808 19.6004 11.8418 19.4732 11.8847 19.293L12.4824 16.7814C12.6972 16.702 12.9035 16.6143 13.1058 16.5166L15.2816 17.8605C15.4386 17.9582 15.6437 17.9348 15.7746 17.8031L17.8453 15.7318C17.9765 15.6008 18.0004 15.3967 17.9027 15.2389L16.5449 13.0391C16.6449 12.8272 16.7312 12.6195 16.805 12.4115L19.2922 11.8223C19.4726 11.7795 19.6 11.6184 19.6 11.433V8.50255C19.6 8.31719 19.4726 8.15625 19.2925 8.11347ZM18.8 11.1168L16.4043 11.6844C16.2672 11.717 16.1574 11.8191 16.1148 11.9535C16.0191 12.258 15.8941 12.5607 15.7332 12.8785C15.7093 12.9254 15.6949 12.9791 15.691 13.0322C15.6902 13.0418 15.6898 13.0516 15.6898 13.0615C15.6898 13.0623 15.6898 13.0635 15.6898 13.0639C15.6902 13.1172 15.7007 13.1684 15.7195 13.2145C15.7277 13.2348 15.7379 13.2545 15.7496 13.2732L17.0558 15.3898L15.4328 17.0137L13.3359 15.7186C13.216 15.6439 13.0652 15.6389 12.9402 15.7045C12.6453 15.859 12.3429 15.9877 12.016 16.0978C11.8851 16.142 11.7867 16.2502 11.7546 16.3844L11.1797 18.8004H8.882L8.31442 16.4076C8.28238 16.2721 8.182 16.1629 8.04918 16.1197C7.7191 16.0119 7.40699 15.8834 7.12223 15.7373C6.99762 15.6734 6.8484 15.6791 6.72965 15.7531L4.61363 17.0598L2.98629 15.4322L4.28121 13.3348C4.35582 13.2139 4.3609 13.0627 4.29449 12.9371C4.14097 12.6482 4.01246 12.3492 3.91168 12.0477C3.90894 12.0359 3.90542 12.0244 3.90152 12.0133C3.85816 11.8859 3.75191 11.7857 3.61519 11.7533L1.19996 11.1818V8.88399L3.59214 8.31641C3.72964 8.28379 3.8398 8.18086 3.88199 8.0459C3.97808 7.73633 4.10621 7.42461 4.26246 7.11973C4.32613 6.99531 4.32027 6.84687 4.24683 6.72773L2.94371 4.61114L4.56793 2.98691L6.6648 4.27851C6.78356 4.35176 6.93238 4.35761 7.05699 4.29394C7.37848 4.12929 7.68043 4.00175 7.98043 3.9039C8.11285 3.86054 8.21324 3.75136 8.24527 3.61582L8.81715 1.20039H11.1175L11.6816 3.59258C11.7144 3.73027 11.8172 3.84063 11.9523 3.88281C12.2617 3.97891 12.573 4.10684 12.8781 4.26328C13.0023 4.32637 13.1515 4.32109 13.2707 4.24766L15.3863 2.94121L17.0101 4.56856L15.7187 6.66231C15.6457 6.78126 15.6394 6.92989 15.7031 7.0545C15.8679 7.37598 15.9953 7.67833 16.0929 7.97833C16.1363 8.11075 16.2453 8.21114 16.3808 8.24337L18.8 8.81856L18.8 11.1168Z" />
          </mask>
          <path
            d="M19.2925 8.11347L16.7796 7.51602C16.7046 7.31133 16.6175 7.10527 16.516 6.89355L17.857 4.71953C17.9539 4.56191 17.9304 4.3582 17.7996 4.22695L15.7289 2.15175C15.5976 2.0205 15.3929 1.99629 15.2355 2.09394L13.0386 3.45058C12.8304 3.35234 12.6199 3.26582 12.4089 3.1916L11.8238 0.708591C11.7812 0.527931 11.6199 0.400391 11.4343 0.400391H8.50075C8.3152 0.400391 8.15426 0.527735 8.11168 0.708203L7.51754 3.21777C7.31325 3.29258 7.107 3.37988 6.89567 3.48105L4.71832 2.13984C4.56051 2.04277 4.35622 2.06621 4.22574 2.19765L2.15465 4.26894C2.02379 4.4 1.99957 4.60371 2.09684 4.76152L3.44996 6.95918C3.35153 7.16758 3.26481 7.37832 3.19059 7.58945L0.707775 8.17851C0.527307 8.22129 0.399963 8.38242 0.399963 8.56777V11.4982C0.399963 11.6836 0.527307 11.8447 0.707775 11.8875L3.21598 12.4811C3.29332 12.6918 3.38239 12.9006 3.48239 13.1057L2.13942 15.2811C2.04176 15.4389 2.06559 15.643 2.19684 15.774L4.27184 17.8492C4.4027 17.9803 4.60699 18.0043 4.7648 17.9066L6.96207 16.5498C7.16168 16.6432 7.37066 16.7293 7.58707 16.807L8.17691 19.2928C8.2195 19.473 8.38082 19.6004 8.56598 19.6004H11.4957C11.6808 19.6004 11.8418 19.4732 11.8847 19.293L12.4824 16.7814C12.6972 16.702 12.9035 16.6143 13.1058 16.5166L15.2816 17.8605C15.4386 17.9582 15.6437 17.9348 15.7746 17.8031L17.8453 15.7318C17.9765 15.6008 18.0004 15.3967 17.9027 15.2389L16.5449 13.0391C16.6449 12.8272 16.7312 12.6195 16.805 12.4115L19.2922 11.8223C19.4726 11.7795 19.6 11.6184 19.6 11.433V8.50255C19.6 8.31719 19.4726 8.15625 19.2925 8.11347ZM18.8 11.1168L16.4043 11.6844C16.2672 11.717 16.1574 11.8191 16.1148 11.9535C16.0191 12.258 15.8941 12.5607 15.7332 12.8785C15.7093 12.9254 15.6949 12.9791 15.691 13.0322C15.6902 13.0418 15.6898 13.0516 15.6898 13.0615C15.6898 13.0623 15.6898 13.0635 15.6898 13.0639C15.6902 13.1172 15.7007 13.1684 15.7195 13.2145C15.7277 13.2348 15.7379 13.2545 15.7496 13.2732L17.0558 15.3898L15.4328 17.0137L13.3359 15.7186C13.216 15.6439 13.0652 15.6389 12.9402 15.7045C12.6453 15.859 12.3429 15.9877 12.016 16.0978C11.8851 16.142 11.7867 16.2502 11.7546 16.3844L11.1797 18.8004H8.882L8.31442 16.4076C8.28238 16.2721 8.182 16.1629 8.04918 16.1197C7.7191 16.0119 7.40699 15.8834 7.12223 15.7373C6.99762 15.6734 6.8484 15.6791 6.72965 15.7531L4.61363 17.0598L2.98629 15.4322L4.28121 13.3348C4.35582 13.2139 4.3609 13.0627 4.29449 12.9371C4.14097 12.6482 4.01246 12.3492 3.91168 12.0477C3.90894 12.0359 3.90542 12.0244 3.90152 12.0133C3.85816 11.8859 3.75191 11.7857 3.61519 11.7533L1.19996 11.1818V8.88399L3.59214 8.31641C3.72964 8.28379 3.8398 8.18086 3.88199 8.0459C3.97808 7.73633 4.10621 7.42461 4.26246 7.11973C4.32613 6.99531 4.32027 6.84687 4.24683 6.72773L2.94371 4.61114L4.56793 2.98691L6.6648 4.27851C6.78356 4.35176 6.93238 4.35761 7.05699 4.29394C7.37848 4.12929 7.68043 4.00175 7.98043 3.9039C8.11285 3.86054 8.21324 3.75136 8.24527 3.61582L8.81715 1.20039H11.1175L11.6816 3.59258C11.7144 3.73027 11.8172 3.84063 11.9523 3.88281C12.2617 3.97891 12.573 4.10684 12.8781 4.26328C13.0023 4.32637 13.1515 4.32109 13.2707 4.24766L15.3863 2.94121L17.0101 4.56856L15.7187 6.66231C15.6457 6.78126 15.6394 6.92989 15.7031 7.0545C15.8679 7.37598 15.9953 7.67833 16.0929 7.97833C16.1363 8.11075 16.2453 8.21114 16.3808 8.24337L18.8 8.81856L18.8 11.1168Z"
            fill="#525252"
          />
          <path
            d="M19.2925 8.11347L16.7796 7.51602C16.7046 7.31133 16.6175 7.10527 16.516 6.89355L17.857 4.71953C17.9539 4.56191 17.9304 4.3582 17.7996 4.22695L15.7289 2.15175C15.5976 2.0205 15.3929 1.99629 15.2355 2.09394L13.0386 3.45058C12.8304 3.35234 12.6199 3.26582 12.4089 3.1916L11.8238 0.708591C11.7812 0.527931 11.6199 0.400391 11.4343 0.400391H8.50075C8.3152 0.400391 8.15426 0.527735 8.11168 0.708203L7.51754 3.21777C7.31325 3.29258 7.107 3.37988 6.89567 3.48105L4.71832 2.13984C4.56051 2.04277 4.35622 2.06621 4.22574 2.19765L2.15465 4.26894C2.02379 4.4 1.99957 4.60371 2.09684 4.76152L3.44996 6.95918C3.35153 7.16758 3.26481 7.37832 3.19059 7.58945L0.707775 8.17851C0.527307 8.22129 0.399963 8.38242 0.399963 8.56777V11.4982C0.399963 11.6836 0.527307 11.8447 0.707775 11.8875L3.21598 12.4811C3.29332 12.6918 3.38239 12.9006 3.48239 13.1057L2.13942 15.2811C2.04176 15.4389 2.06559 15.643 2.19684 15.774L4.27184 17.8492C4.4027 17.9803 4.60699 18.0043 4.7648 17.9066L6.96207 16.5498C7.16168 16.6432 7.37066 16.7293 7.58707 16.807L8.17691 19.2928C8.2195 19.473 8.38082 19.6004 8.56598 19.6004H11.4957C11.6808 19.6004 11.8418 19.4732 11.8847 19.293L12.4824 16.7814C12.6972 16.702 12.9035 16.6143 13.1058 16.5166L15.2816 17.8605C15.4386 17.9582 15.6437 17.9348 15.7746 17.8031L17.8453 15.7318C17.9765 15.6008 18.0004 15.3967 17.9027 15.2389L16.5449 13.0391C16.6449 12.8272 16.7312 12.6195 16.805 12.4115L19.2922 11.8223C19.4726 11.7795 19.6 11.6184 19.6 11.433V8.50255C19.6 8.31719 19.4726 8.15625 19.2925 8.11347ZM18.8 11.1168L16.4043 11.6844C16.2672 11.717 16.1574 11.8191 16.1148 11.9535C16.0191 12.258 15.8941 12.5607 15.7332 12.8785C15.7093 12.9254 15.6949 12.9791 15.691 13.0322C15.6902 13.0418 15.6898 13.0516 15.6898 13.0615C15.6898 13.0623 15.6898 13.0635 15.6898 13.0639C15.6902 13.1172 15.7007 13.1684 15.7195 13.2145C15.7277 13.2348 15.7379 13.2545 15.7496 13.2732L17.0558 15.3898L15.4328 17.0137L13.3359 15.7186C13.216 15.6439 13.0652 15.6389 12.9402 15.7045C12.6453 15.859 12.3429 15.9877 12.016 16.0978C11.8851 16.142 11.7867 16.2502 11.7546 16.3844L11.1797 18.8004H8.882L8.31442 16.4076C8.28238 16.2721 8.182 16.1629 8.04918 16.1197C7.7191 16.0119 7.40699 15.8834 7.12223 15.7373C6.99762 15.6734 6.8484 15.6791 6.72965 15.7531L4.61363 17.0598L2.98629 15.4322L4.28121 13.3348C4.35582 13.2139 4.3609 13.0627 4.29449 12.9371C4.14097 12.6482 4.01246 12.3492 3.91168 12.0477C3.90894 12.0359 3.90542 12.0244 3.90152 12.0133C3.85816 11.8859 3.75191 11.7857 3.61519 11.7533L1.19996 11.1818V8.88399L3.59214 8.31641C3.72964 8.28379 3.8398 8.18086 3.88199 8.0459C3.97808 7.73633 4.10621 7.42461 4.26246 7.11973C4.32613 6.99531 4.32027 6.84687 4.24683 6.72773L2.94371 4.61114L4.56793 2.98691L6.6648 4.27851C6.78356 4.35176 6.93238 4.35761 7.05699 4.29394C7.37848 4.12929 7.68043 4.00175 7.98043 3.9039C8.11285 3.86054 8.21324 3.75136 8.24527 3.61582L8.81715 1.20039H11.1175L11.6816 3.59258C11.7144 3.73027 11.8172 3.84063 11.9523 3.88281C12.2617 3.97891 12.573 4.10684 12.8781 4.26328C13.0023 4.32637 13.1515 4.32109 13.2707 4.24766L15.3863 2.94121L17.0101 4.56856L15.7187 6.66231C15.6457 6.78126 15.6394 6.92989 15.7031 7.0545C15.8679 7.37598 15.9953 7.67833 16.0929 7.97833C16.1363 8.11075 16.2453 8.21114 16.3808 8.24337L18.8 8.81856L18.8 11.1168Z"
            stroke="#525252"
            strokeWidth="0.4"
            mask="url(#path-1-outside-1_2455_261)"
          />
          <path
            d="M10.0008 5C7.23417 5 4.99926 7.23817 5 10.0004C5 12.8151 7.29213 15 10.004 15C11.9608 15 13.705 13.8629 14.5196 12.1406C15.4232 10.2364 15.0281 7.95535 13.5368 6.46411C12.5923 5.51983 11.3364 5 10.0008 5ZM10.004 14.2643C9.25528 14.2643 8.51608 14.0608 7.86963 13.6885L7.86927 13.658C7.8993 12.7579 8.63902 12.0161 9.58093 12.0161H10.4228C11.3654 12.0161 12.1172 12.7526 12.1341 13.6862V13.6884L12.1377 13.6883C11.4547 14.0842 10.7267 14.2643 10.004 14.2643ZM13.8558 11.8252C13.5989 12.3681 13.2361 12.837 12.8145 13.2047C12.5794 12.0944 11.6068 11.2804 10.4228 11.2804H9.58092C8.41327 11.2804 7.42792 12.0894 7.18918 13.207C6.26218 12.3966 5.7349 11.2395 5.7349 10.0002C5.73417 7.66842 7.61868 5.73573 10.0008 5.73573C11.1404 5.73573 12.2116 6.17923 13.0172 6.98466C14.2892 8.25639 14.6262 10.2014 13.8558 11.8252Z"
            fill="#525252"
            stroke="#525252"
            strokeWidth="0.3"
          />
          <path
            d="M10 7C8.897 7 8 7.80497 8 8.79454C8 9.79354 8.89216 11 10 11C11.1078 11 12 9.79354 12 8.79454C12 7.80497 11.103 7 10 7ZM10 10.2566C9.40617 10.2566 8.82564 9.41946 8.82564 8.79453C8.82564 8.21499 9.35255 7.74344 10 7.74344C10.6475 7.74344 11.1744 8.21499 11.1744 8.79453C11.1744 9.41946 10.5938 10.2566 10 10.2566Z"
            fill="#525252"
          />
        </g>
        <defs>
          <clipPath id="clip0_2455_261">
            <rect width="20" height="20" fill="white" />
          </clipPath>
        </defs>
      </svg>