       <svg
                              width="7"
                              height="24"
                              viewBox="0 0 6 23"
                              fill="none"
                              xmlns="http://www.w3.org/2000/svg"
                            >
                              <path
                                d="M8.28004e-07 2.875C8.62563e-07 2.08437 0.293751 1.40755 0.881251 0.844531C1.46875 0.28151 2.175 -1.67196e-07 3 -1.31134e-07C3.825 -9.50723e-08 4.53125 0.28151 5.11875 0.844531C5.70625 1.40755 6 2.08437 6 2.875C6 3.66563 5.70625 4.34245 5.11875 4.90547C4.53125 5.46849 3.825 5.75 3 5.75C2.175 5.75 1.46875 5.46849 0.881251 4.90547C0.293751 4.34245 7.93445e-07 3.66562 8.28004e-07 2.875ZM4.50993e-07 11.5C4.85553e-07 10.7094 0.293751 10.0326 0.88125 9.46953C1.46875 8.90651 2.175 8.625 3 8.625C3.825 8.625 4.53125 8.90651 5.11875 9.46953C5.70625 10.0326 6 10.7094 6 11.5C6 12.2906 5.70625 12.9674 5.11875 13.5305C4.53125 14.0935 3.825 14.375 3 14.375C2.175 14.375 1.46875 14.0935 0.88125 13.5305C0.293751 12.9674 4.16434e-07 12.2906 4.50993e-07 11.5ZM7.39825e-08 20.125C1.08542e-07 19.3344 0.29375 18.6576 0.88125 18.0945C1.46875 17.5315 2.175 17.25 3 17.25C3.825 17.25 4.53125 17.5315 5.11875 18.0945C5.70625 18.6576 6 19.3344 6 20.125C6 20.9156 5.70625 21.5924 5.11875 22.1555C4.53125 22.7185 3.825 23 3 23C2.175 23 1.46875 22.7185 0.88125 22.1555C0.29375 21.5924 3.94232e-08 20.9156 7.39825e-08 20.125Z"
                                fill="#525252"
                              />
                            </svg>