<svg
                      width="76"
                      height="76"
                      viewBox="0 0 75 75"
                      fill="none"
                      xmlns="http://www.w3.org/2000/svg"
                    >
                      <path
                        d="M46.2958 49.8015H44.1621V67.9377H46.2958V49.8015Z"
                        fill="#B5B5B5"
                      />
                      <path
                        d="M39.8944 70.0714H22.8251C22.2592 70.0714 21.7165 69.8466 21.3163 69.4465C20.9162 69.0463 20.6914 68.5036 20.6914 67.9377V33.7991C20.6908 31.8131 21.3061 29.8757 22.4525 28.254C23.5989 26.6322 25.22 25.4058 27.0924 24.7438V9.26196H33.4934V24.7449C35.1935 25.3471 36.6899 26.4154 37.8114 27.8279C38.933 29.2404 39.6345 30.9399 39.8357 32.7323L39.8944 70.0714Z"
                        fill="#5A8B1C"
                      />
                      <path
                        d="M39.836 32.7323C39.6349 30.9397 38.9335 29.24 37.812 27.8273C36.6904 26.4146 35.1939 25.3461 33.4936 24.7438V9.26196H31.36V24.7449C29.4877 25.4069 27.8667 26.633 26.7204 28.2546C25.574 29.8761 24.9586 31.8133 24.959 33.7991V64.7949C24.9588 65.4878 25.0952 66.174 25.3604 66.8143C25.6255 67.4545 26.0141 68.0362 26.5041 68.5263C26.9941 69.0163 27.5759 69.4049 28.2161 69.67C28.8564 69.9352 29.5426 70.0715 30.2355 70.0714H39.8946L39.836 32.7323Z"
                        fill="#78B22A"
                      />
                      <path
                        d="M39.8944 35.9329H20.6914V59.4032H39.8944V35.9329Z"
                        fill="#B5B1A5"
                      />
                      <path
                        d="M24.959 59.4032H39.8776L39.8413 35.9329H24.959V59.4032Z"
                        fill="#D9D5CA"
                      />
                      <path
                        d="M27.0869 6.06152H33.4996C33.781 6.06181 34.0507 6.17377 34.2495 6.37281C34.4484 6.57184 34.56 6.84168 34.56 7.12302V8.24106C34.56 8.51184 34.4525 8.77152 34.261 8.96299C34.0696 9.15446 33.8099 9.26202 33.5391 9.26202H27.0463C26.9123 9.26202 26.7795 9.23561 26.6556 9.1843C26.5318 9.133 26.4192 9.05779 26.3244 8.96299C26.2296 8.86818 26.1544 8.75563 26.1031 8.63177C26.0518 8.5079 26.0254 8.37514 26.0254 8.24106V7.12302C26.0254 6.84149 26.1372 6.5715 26.3363 6.37243C26.5354 6.17336 26.8054 6.06152 27.0869 6.06152Z"
                        fill="#5A8B1C"
                      />
                      <path
                        d="M33.4947 17.7966H27.0938V9.26196H33.5406L33.4947 17.7966Z"
                        fill="#B5B1A5"
                      />
                      <path
                        d="M45.2288 50.8686C39.2598 50.8686 34.7386 45.8438 35.7756 40.3624L37.7609 32.7324H52.6966L54.682 40.3624C55.7189 45.8438 51.203 50.8686 45.2288 50.8686ZM40.9614 66.8711H49.4961C50.3449 66.8711 51.159 67.2083 51.7592 67.8085C52.3594 68.4087 52.6966 69.2227 52.6966 70.0716H37.7609C37.7609 69.2227 38.0981 68.4087 38.6984 67.8085C39.2986 67.2083 40.1126 66.8711 40.9614 66.8711Z"
                        fill="#F2F2F2"
                      />
                      <path
                        d="M45.2279 47.6679C44.3042 47.7073 43.3836 47.5364 42.5355 47.168C41.6875 46.7996 40.9342 46.2434 40.3326 45.5414C39.7309 44.8394 39.2966 44.0098 39.0624 43.1154C38.8282 42.221 38.8002 41.285 38.9806 40.3782L39.5289 38.0664H50.9259L51.4742 40.3782C51.6546 41.285 51.6266 42.2208 51.3924 43.1151C51.1583 44.0095 50.7241 44.8389 50.1225 45.541C49.521 46.243 48.7679 46.7992 47.92 47.1676C47.0721 47.5361 46.1516 47.7071 45.2279 47.6679Z"
                        fill="#B73329"
                      />
                      <path
                        d="M33.493 9.26196H31.3594V17.7966H33.493V9.26196Z"
                        fill="#D9D5CA"
                      />
                      <path
                        d="M34.5612 8.24106V7.12836C34.5612 6.84541 34.4488 6.57406 34.2487 6.37399C34.0486 6.17392 33.7773 6.06152 33.4943 6.06152H29.2195C28.9379 6.0635 28.6684 6.17676 28.47 6.37662C28.2715 6.57648 28.1601 6.8467 28.1602 7.12836V8.24106C28.1604 8.51175 28.2681 8.77127 28.4595 8.96268C28.6509 9.15408 28.9104 9.26174 29.1811 9.26202H33.5413C33.8118 9.26174 34.0713 9.15405 34.2625 8.96261C34.4537 8.77118 34.5612 8.51165 34.5612 8.24106Z"
                        fill="#78B22A"
                      />
                      <path
                        d="M53.6495 48.068C54.5637 46.9752 55.2232 45.6927 55.5803 44.3134C55.9373 42.9341 55.9829 41.4926 55.7138 40.0934L53.7295 32.4635C53.67 32.2349 53.5363 32.0326 53.3494 31.8881C53.1625 31.7437 52.933 31.6654 52.6968 31.6655H40.7259C40.3818 29.992 39.6427 28.425 38.5703 27.095C37.4979 25.765 36.1231 24.7105 34.5607 24.0195V10.0515C34.8836 9.87119 35.1526 9.60814 35.3401 9.28938C35.5276 8.97062 35.6268 8.60766 35.6275 8.23784V7.12833C35.6261 6.56337 35.4007 6.02204 35.0007 5.62305C34.6007 5.22406 34.0588 5 33.4938 5H27.0928C26.5269 5 25.9842 5.2248 25.5841 5.62494C25.184 6.02508 24.9592 6.56778 24.9592 7.13366V8.23997C24.9596 8.60983 25.0587 8.97289 25.2462 9.29169C25.4338 9.61048 25.7029 9.87349 26.026 10.0536V24.0184C24.1248 24.8514 22.5072 26.2198 21.3706 27.9566C20.2339 29.6934 19.6274 31.7235 19.625 33.7991V67.9378C19.625 68.7866 19.9622 69.6007 20.5624 70.2009C21.1626 70.8011 21.9767 71.1383 22.8255 71.1383H52.6968C52.9797 71.1383 53.2511 71.0259 53.4512 70.8258C53.6512 70.6257 53.7636 70.3544 53.7636 70.0714C53.7636 68.9397 53.314 67.8543 52.5138 67.054C51.7135 66.2537 50.6281 65.8041 49.4963 65.8041H46.2958V51.8787C47.7122 51.7597 49.0912 51.3618 50.3532 50.7078C51.6153 50.0538 52.7355 49.1566 53.6495 48.068ZM53.6335 40.5607C53.8397 41.6418 53.8006 42.7553 53.519 43.8193C53.2374 44.8832 52.7206 45.8703 52.0066 46.7078C51.1646 47.6792 50.1237 48.4583 48.9543 48.9923C47.785 49.5262 46.5145 49.8026 45.229 49.8026C43.9435 49.8026 42.673 49.5262 41.5036 48.9923C40.3342 48.4583 39.2933 47.6792 38.4514 46.7078C37.7434 45.8807 37.2286 44.9063 36.9445 43.8554C36.6603 42.8044 36.6138 41.7033 36.8085 40.6322L38.5858 33.7991H51.8732L53.6335 40.5607ZM38.828 58.3363H21.7587V36.9996H35.5507L34.7281 40.1649C34.4705 41.5541 34.5234 42.9831 34.8831 44.3495C35.2428 45.7158 35.9003 46.9857 36.8085 48.068C37.3971 48.7716 38.0762 49.3943 38.828 49.92V58.3363ZM32.427 16.7298H28.1597V10.3288H32.427V16.7298ZM33.4938 7.12833V8.19516L27.0928 8.23997V7.12833H33.4938ZM27.4481 25.751C27.6562 25.6775 27.8364 25.5412 27.9638 25.3611C28.0912 25.1809 28.1597 24.9656 28.1597 24.7449V18.8635H32.427V24.7439C32.427 24.9646 32.4954 25.1798 32.6228 25.36C32.7503 25.5402 32.9305 25.6764 33.1386 25.7499C34.4552 26.2201 35.637 27.0048 36.5814 28.0358C37.5257 29.0667 38.2039 30.3127 38.557 31.6655H37.7611C37.525 31.6654 37.2954 31.7437 37.1085 31.8881C36.9217 32.0326 36.788 32.2349 36.7285 32.4635L36.1044 34.866H21.7587V33.7991C21.7603 32.0345 22.3081 30.3135 23.3267 28.8726C24.3454 27.4316 25.785 26.3412 27.4481 25.751ZM36.8458 69.0046H22.8255C22.5426 69.0046 22.2712 68.8922 22.0711 68.6921C21.8711 68.4921 21.7587 68.2207 21.7587 67.9378V60.4699H38.828V66.3973C38.3422 66.6799 37.917 67.0557 37.5768 67.5032C37.2366 67.9506 36.9882 68.4609 36.8458 69.0046ZM51.343 69.0046H39.115C39.3021 68.6804 39.5713 68.4112 39.8954 68.2239C40.2196 68.0366 40.5873 67.938 40.9616 67.9378H49.4963C49.8707 67.938 50.2384 68.0366 50.5625 68.2239C50.8866 68.4112 51.1558 68.6804 51.343 69.0046ZM40.9616 65.8041V51.0904C41.9835 51.5103 43.0621 51.776 44.1621 51.8787V65.8041H40.9616Z"
                        fill="black"
                      />
                      <path
                        d="M37.9456 40.133C37.7105 41.1303 37.7057 42.1681 37.9314 43.1675C38.1571 44.167 38.6074 45.1019 39.2482 45.9014C39.9733 46.7872 40.886 47.5008 41.9205 47.9909C42.9549 48.4809 44.0853 48.7351 45.23 48.7351C46.3746 48.7351 47.505 48.4809 48.5395 47.9909C49.5739 47.5008 50.4866 46.7872 51.2117 45.9014C51.8525 45.1019 52.3028 44.167 52.5283 43.1675C52.7539 42.168 52.7487 41.1302 52.5132 40.133L51.9649 37.8212C51.9097 37.5876 51.7773 37.3794 51.5891 37.2304C51.4009 37.0813 51.168 37 50.9279 36.9998H39.5309C39.2909 37 39.0579 37.0813 38.8698 37.2304C38.6816 37.3794 38.5492 37.5876 38.494 37.8212L37.9456 40.133ZM40.0206 40.6238L40.3748 39.1302H50.083L50.4372 40.6238C50.6016 41.3076 50.6059 42.0202 50.4497 42.706C50.2935 43.3918 49.9811 44.0322 49.5368 44.5775C49.0116 45.2107 48.3533 45.7204 47.6087 46.0702C46.8641 46.42 46.0516 46.6014 45.2289 46.6014C44.4062 46.6014 43.5937 46.42 42.8491 46.0702C42.1045 45.7204 41.4462 45.2107 40.921 44.5775C40.4772 44.0326 40.165 43.3927 40.0089 42.7075C39.8527 42.0223 39.8567 41.3104 40.0206 40.627V40.6238Z"
                        fill="black"
                      />
                    </svg>