 <svg
                          width="19"
                          height="14"
                          viewBox="0 0 19 14"
                          fill="none"
                          xmlns="http://www.w3.org/2000/svg"
                        >
                          <path
                            d="M9.16372 0C3.41081 0 0 6.82163 0 6.82163C0 6.82163 3.41081 13.6433 9.16372 13.6433C14.7802 13.6433 18.191 6.82163 18.191 6.82163C18.191 6.82163 14.7802 0 9.16372 0ZM9.0955 2.27388C11.6195 2.27388 13.6433 4.32036 13.6433 6.82163C13.6433 9.34563 11.6195 11.3694 9.0955 11.3694C6.59424 11.3694 4.54775 9.34563 4.54775 6.82163C4.54775 4.32036 6.59424 2.27388 9.0955 2.27388ZM9.0955 4.54775C7.84487 4.54775 6.82163 5.571 6.82163 6.82163C6.82163 8.07226 7.84487 9.0955 9.0955 9.0955C10.3461 9.0955 11.3694 8.07226 11.3694 6.82163C11.3694 6.59424 11.2784 6.38959 11.2329 6.18494C11.051 6.54876 10.6872 6.82163 10.2324 6.82163C9.59576 6.82163 9.0955 6.32137 9.0955 5.68469C9.0955 5.22991 9.36837 4.86609 9.73219 4.68418C9.52754 4.61597 9.32289 4.54775 9.0955 4.54775Z"
                            fill="black"
                          />
                        </svg>