  <svg
                      width="76"
                      height="76"
                      viewBox="0 0 75 75"
                      fill="none"
                      xmlns="http://www.w3.org/2000/svg"
                    >
                      <path
                        opacity="0.15"
                        d="M37.2174 64.9531C47.6614 64.9531 56.1281 64.0124 56.1281 62.8519C56.1281 61.6915 47.6614 60.7507 37.2174 60.7507C26.7733 60.7507 18.3066 61.6915 18.3066 62.8519C18.3066 64.0124 26.7733 64.9531 37.2174 64.9531Z"
                        fill="#45413C"
                      />
                      <path
                        d="M60.4702 31.6142L60.8905 33.5753C60.8905 33.5753 45.6218 39.0384 38.1976 40.5793C29.7929 42.4003 16.3452 43.5209 12.0028 44.2213C9.76152 44.5015 7.52025 43.3809 6.53969 41.4197L5.69922 40.2991L60.05 29.6531L60.4702 31.6142Z"
                        fill="#DEBB7E"
                        stroke="#45413C"
                        strokeMiterlimit="10"
                        strokeLinecap="round"
                        strokeLinejoin="round"
                      />
                      <path
                        d="M60.4704 31.6143L59.77 28.2524C58.7895 23.0695 47.1629 16.906 33.155 18.3068C33.155 18.3068 30.4935 13.5441 34.5558 11.8631C38.6181 10.1822 68.0347 4.57899 69.1554 26.9917C69.2954 28.6726 68.0347 30.2135 66.3538 30.4937L60.4704 31.6143Z"
                        fill="#F0D5A8"
                      />
                      <path
                        d="M34.6956 11.8631C32.0341 12.9837 32.1742 15.3651 32.7345 16.9059C33.1548 16.4857 33.575 16.0655 34.4155 15.7853C38.3377 14.2444 66.2135 8.92143 68.875 29.0929C69.2952 28.5325 69.4353 27.8321 69.4353 27.1317C68.1746 4.57897 38.7579 10.1821 34.6956 11.8631Z"
                        fill="#F7E5C6"
                      />
                      <path
                        d="M60.4708 31.6141L66.4942 30.4935C68.1752 30.2134 69.4359 28.6725 69.2958 26.9915C69.1557 24.8903 68.8756 23.0693 68.3152 21.3884C67.1946 20.9681 65.9339 20.9681 64.6732 21.1082C61.4513 21.6685 59.07 24.33 59.6303 26.8514L59.4902 26.9915C59.6303 27.4118 59.7704 27.6919 59.9105 28.1122L60.4708 31.6141Z"
                        fill="#DEBB7E"
                      />
                      <path
                        d="M60.4704 31.6143L59.77 28.2524C58.7895 23.0695 47.1629 16.906 33.155 18.3068C33.155 18.3068 30.4935 13.5441 34.5558 11.8631C38.6181 10.1822 68.0347 4.57899 69.1554 26.9917C69.2954 28.6726 68.0347 30.2135 66.3538 30.4937L60.4704 31.6143Z"
                        stroke="#45413C"
                        strokeMiterlimit="10"
                        strokeLinecap="round"
                        strokeLinejoin="round"
                      />
                      <path
                        d="M68.1731 21.3884C67.0525 20.9681 65.7918 20.9681 64.5311 21.1082C61.3092 21.6685 58.9279 24.33 59.4882 26.8514"
                        stroke="#45413C"
                        strokeMiterlimit="10"
                        strokeLinecap="round"
                        strokeLinejoin="round"
                      />
                      <path
                        d="M59.4902 26.5713L59.7706 28.2522"
                        stroke="#45413C"
                        strokeMiterlimit="10"
                        strokeLinecap="round"
                        strokeLinejoin="round"
                      />
                      <path
                        d="M33.2948 18.3069L6.25953 37.918C5.69921 38.3383 5.41906 39.0387 5.55913 39.599L5.69921 40.2994L6.39961 43.6613C6.53969 44.6418 7.52025 45.2021 8.36072 45.0621C9.34128 44.922 9.90159 43.9414 9.76151 43.101L9.48136 41.42L14.5242 40.2994L14.9445 42.8208C15.2246 44.2216 16.6254 45.2021 18.0262 44.922C19.427 44.6418 20.4075 43.241 20.1274 41.8402L19.7071 39.3188L43.5206 34.8363L43.8008 36.5172C43.9409 37.4978 44.9214 38.0581 45.7619 37.918C46.7425 37.7779 47.3028 36.7974 47.1627 35.9569L46.8825 34.276L55.4274 32.7351L55.8476 35.2565C56.1278 36.6573 57.5286 37.6379 58.9294 37.3577C60.3302 37.0775 61.3107 35.6768 61.0306 34.276L59.9099 28.2525C58.7893 23.0696 47.1627 16.9061 33.2948 18.3069Z"
                        fill="#FFE500"
                      />
                      <path
                        d="M55.2867 32.595L55.7069 35.1164C55.9871 36.5172 57.3879 37.4977 58.7887 37.2176C60.1895 36.9374 61.17 35.5366 60.8899 34.1358L59.7692 28.1124C58.7887 22.9295 47.1621 16.766 33.1542 18.1668L31.6133 19.2874C43.0998 19.7077 52.0649 24.8906 52.9053 29.3731L53.6057 32.735L55.2867 32.595Z"
                        fill="#EBCB00"
                      />
                      <path
                        d="M12.9824 37.0775L55.5665 29.093"
                        stroke="#EBCB00"
                        strokeMiterlimit="10"
                        strokeLinecap="round"
                        strokeLinejoin="round"
                      />
                      <path
                        d="M46.8815 34.2761L46.4609 32.4551"
                        stroke="#45413C"
                        strokeMiterlimit="10"
                        strokeLinecap="round"
                        strokeLinejoin="round"
                      />
                      <path
                        d="M55.2873 32.5951L54.7266 29.2332"
                        stroke="#45413C"
                        strokeMiterlimit="10"
                        strokeLinecap="round"
                        strokeLinejoin="round"
                      />
                      <path
                        d="M33.2948 18.3069L6.25953 37.918C5.69921 38.3383 5.41906 39.0387 5.55913 39.599L5.69921 40.2994L6.39961 43.6613C6.53969 44.6418 7.52025 45.2021 8.36072 45.0621C9.34128 44.922 9.90159 43.9414 9.76151 43.101L9.48136 41.42L14.5242 40.2994L14.9445 42.8208C15.2246 44.2216 16.6254 45.2021 18.0262 44.922C19.427 44.6418 20.4075 43.241 20.1274 41.8402L19.7071 39.3188L43.5206 34.8363L43.8008 36.5172C43.9409 37.4978 44.9214 38.0581 45.7619 37.918C46.7425 37.7779 47.3028 36.7974 47.1627 35.9569L46.8825 34.276L55.4274 32.7351L55.8476 35.2565C56.1278 36.6573 57.5286 37.6379 58.9294 37.3577C60.3302 37.0775 61.3107 35.6768 61.0306 34.276L59.9099 28.2525C58.7893 23.0696 47.1627 16.9061 33.2948 18.3069Z"
                        stroke="#45413C"
                        strokeMiterlimit="10"
                        strokeLinecap="round"
                        strokeLinejoin="round"
                      />
                      <path
                        d="M14.5241 40.2994L14.1035 38.6184"
                        stroke="#45413C"
                        strokeMiterlimit="10"
                        strokeLinecap="round"
                        strokeLinejoin="round"
                      />
                      <path
                        d="M29.5131 26.8517C32.7349 26.2914 35.1163 24.1902 34.8361 22.3691C34.556 20.9683 33.0151 20.1279 30.9139 19.9878L23.3496 25.4509C24.3302 26.8517 26.8516 27.412 29.5131 26.8517Z"
                        fill="#FF6242"
                        stroke="#45413C"
                        strokeMiterlimit="10"
                        strokeLinecap="round"
                        strokeLinejoin="round"
                      />
                      <path
                        d="M52.2048 29.6532C52.625 29.0929 52.7651 28.3925 52.7651 27.8322C52.3448 26.0112 49.4032 24.8905 46.1813 25.5909C42.9595 26.1513 40.5782 28.2524 40.8583 30.0735C40.9984 30.6338 41.4186 31.1941 41.979 31.6144L52.2048 29.6532Z"
                        fill="#FF6242"
                        stroke="#45413C"
                        strokeMiterlimit="10"
                        strokeLinecap="round"
                        strokeLinejoin="round"
                      />
                      <path
                        d="M18.1659 36.0969C18.5861 35.5366 18.7262 34.8362 18.7262 34.2759C18.446 32.8751 16.7651 32.0346 14.6639 31.8945L7.09961 37.3576C7.23969 37.6378 7.51985 37.9179 7.94009 38.058L18.1659 36.0969Z"
                        fill="#FF6242"
                        stroke="#45413C"
                        strokeMiterlimit="10"
                        strokeLinecap="round"
                        strokeLinejoin="round"
                      />
                      <path
                        d="M37.497 32.4548C36.5164 30.6338 33.4347 29.6532 30.2129 30.3536C26.991 31.054 24.4696 33.0151 24.1895 34.9762L37.497 32.4548Z"
                        fill="#FF6242"
                        stroke="#45413C"
                        strokeMiterlimit="10"
                        strokeLinecap="round"
                        strokeLinejoin="round"
                      />
                    </svg>