<svg
        width="20"
        height="20"
        viewBox="0 0 20 20"
        fill="none"
        xmlns="http://www.w3.org/2000/svg"
      >
        <path
          d="M10 20C8.61667 20 7.31667 19.7375 6.1 19.2125C4.88333 18.6875 3.825 17.975 2.925 17.075C2.025 16.175 1.3125 15.1167 0.7875 13.9C0.2625 12.6833 0 11.3833 0 10C0 8.61667 0.2625 7.31667 0.7875 6.1C1.3125 4.88333 2.025 3.825 2.925 2.925C3.825 2.025 4.88333 1.3125 6.1 0.7875C7.31667 0.2625 8.61667 0 10 0C11.3833 0 12.6833 0.2625 13.9 0.7875C15.1167 1.3125 16.175 2.025 17.075 2.925C17.975 3.825 18.6875 4.88333 19.2125 6.1C19.7375 7.31667 20 8.61667 20 10C20 10.45 19.975 10.8917 19.925 11.325C19.875 11.7583 19.7917 12.1833 19.675 12.6C19.4417 12.3333 19.1708 12.1083 18.8625 11.925C18.5542 11.7417 18.2167 11.6167 17.85 11.55C17.9 11.3 17.9375 11.0458 17.9625 10.7875C17.9875 10.5292 18 10.2667 18 10C18 7.76667 17.225 5.875 15.675 4.325C14.125 2.775 12.2333 2 10 2C7.76667 2 5.875 2.775 4.325 4.325C2.775 5.875 2 7.76667 2 10C2 12.2333 2.775 14.125 4.325 15.675C5.875 17.225 7.76667 18 10 18C10.85 18 11.6625 17.875 12.4375 17.625C13.2125 17.375 13.925 17.025 14.575 16.575C14.775 16.8583 15.0208 17.1083 15.3125 17.325C15.6042 17.5417 15.9167 17.7083 16.25 17.825C15.4 18.5083 14.4458 19.0417 13.3875 19.425C12.3292 19.8083 11.2 20 10 20ZM17.25 16C16.9 16 16.6042 15.8792 16.3625 15.6375C16.1208 15.3958 16 15.1 16 14.75C16 14.4 16.1208 14.1042 16.3625 13.8625C16.6042 13.6208 16.9 13.5 17.25 13.5C17.6 13.5 17.8958 13.6208 18.1375 13.8625C18.3792 14.1042 18.5 14.4 18.5 14.75C18.5 15.1 18.3792 15.3958 18.1375 15.6375C17.8958 15.8792 17.6 16 17.25 16ZM11 9.6L14 12.6C14.1833 12.7833 14.275 13.0167 14.275 13.3C14.275 13.5833 14.1833 13.8167 14 14C13.8167 14.1833 13.5833 14.275 13.3 14.275C13.0167 14.275 12.7833 14.1833 12.6 14L9.3 10.7C9.2 10.6 9.125 10.4875 9.075 10.3625C9.025 10.2375 9 10.1083 9 9.975V6C9 5.71667 9.09583 5.47917 9.2875 5.2875C9.47917 5.09583 9.71667 5 10 5C10.2833 5 10.5208 5.09583 10.7125 5.2875C10.9042 5.47917 11 5.71667 11 6V9.6Z"
          fill="#525252"
        />
      </svg>