 <svg
                    xmlns="http://www.w3.org/2000/svg"
                    width="31"
                    height="30"
                    fill="none"
                  >
                    <path
                      fill="#fff"
                      d="m27.194 24.453-4.26-4.237a9.885 9.885 0 0 0 2.117-6.125 9.983 9.983 0 0 0-1.689-5.556 10.02 10.02 0 0 0-4.5-3.683A10.048 10.048 0 0 0 7.939 7.02a9.977 9.977 0 0 0-2.173 10.898 10.005 10.005 0 0 0 3.692 4.488 10.043 10.043 0 0 0 5.57 1.685 9.94 9.94 0 0 0 6.14-2.113l4.248 4.25a1.252 1.252 0 0 0 1.372.274c.152-.063.29-.156.407-.274a1.248 1.248 0 0 0 0-1.775M7.508 14.091c0-1.483.44-2.934 1.267-4.167a7.515 7.515 0 0 1 3.374-2.762 7.536 7.536 0 0 1 8.194 1.626 7.482 7.482 0 0 1 1.63 8.173 7.504 7.504 0 0 1-2.77 3.366 7.532 7.532 0 0 1-9.493-.933 7.49 7.49 0 0 1-2.202-5.303Z"
                    ></path>
                  </svg>