<svg
                  width="31"
                  height="30"
                  viewBox="0 0 31 30"
                  fill="none"
                  xmlns="http://www.w3.org/2000/svg"
                >
                  <path
                    d="M27.1943 24.4533L22.9337 20.2158C24.3083 18.4689 25.0542 16.3116 25.0515 14.0908C25.0515 12.113 24.4635 10.1796 23.362 8.53512C22.2604 6.89063 20.6947 5.60891 18.8629 4.85203C17.031 4.09515 15.0153 3.89712 13.0707 4.28297C11.126 4.66882 9.33975 5.62123 7.93772 7.01976C6.5357 8.41828 5.58091 10.2001 5.1941 12.1399C4.80728 14.0797 5.00581 16.0904 5.76458 17.9177C6.52335 19.7449 7.80827 21.3067 9.45688 22.4055C11.1055 23.5043 13.0437 24.0908 15.0265 24.0908C17.2528 24.0936 19.4155 23.3496 21.1668 21.9783L25.4149 26.2283C25.5314 26.3455 25.67 26.4385 25.8227 26.5019C25.9754 26.5654 26.1392 26.5981 26.3046 26.5981C26.47 26.5981 26.6338 26.5654 26.7865 26.5019C26.9392 26.4385 27.0778 26.3455 27.1943 26.2283C27.3118 26.1121 27.405 25.9739 27.4686 25.8215C27.5322 25.6692 27.565 25.5058 27.565 25.3408C27.565 25.1758 27.5322 25.0124 27.4686 24.8601C27.405 24.7078 27.3118 24.5695 27.1943 24.4533ZM7.50772 14.0908C7.50772 12.6075 7.94869 11.1574 8.77486 9.92405C9.60103 8.69068 10.7753 7.72939 12.1492 7.16173C13.523 6.59407 15.0348 6.44555 16.4933 6.73494C17.9518 7.02432 19.2915 7.73863 20.343 8.78752C21.3945 9.83642 22.1106 11.1728 22.4007 12.6276C22.6909 14.0825 22.542 15.5905 21.9729 16.961C21.4038 18.3314 20.4401 19.5027 19.2037 20.3268C17.9672 21.151 16.5135 21.5908 15.0265 21.5908C13.0324 21.5908 11.1199 20.8006 9.70991 19.3941C8.29987 17.9876 7.50772 16.0799 7.50772 14.0908Z"
                    fill="white"
                  />
                </svg>