<svg
                width="13"
                height="15"
                viewBox="0 0 13 15"
                fill="none"
                xmlns="http://www.w3.org/2000/svg"
              >
                <path
                  d="M5.74167 12.2625L3.17778 9.6L4.225 8.5125L5.74167 10.0875L8.775 6.9375L9.82222 8.025L5.74167 12.2625ZM1.44444 15C1.04722 15 0.707176 14.8531 0.424306 14.5594C0.141435 14.2656 0 13.9125 0 13.5V3C0 2.5875 0.141435 2.23438 0.424306 1.94063C0.707176 1.64688 1.04722 1.5 1.44444 1.5H2.16667V0H3.61111V1.5H9.38889V0H10.8333V1.5H11.5556C11.9528 1.5 12.2928 1.64688 12.5757 1.94063C12.8586 2.23438 13 2.5875 13 3V13.5C13 13.9125 12.8586 14.2656 12.5757 14.5594C12.2928 14.8531 11.9528 15 11.5556 15H1.44444ZM1.44444 13.5H11.5556V6H1.44444V13.5ZM1.44444 4.5H11.5556V3H1.44444V4.5Z"
                  fill="#525252"
                />
              </svg>