
<svg width="20" height="20" viewBox="0 0 20 20" fill="none" xmlns="http://www.w3.org/2000/svg">
<path d="M16.2857 2H3.71429C2.76914 2 2 2.76914 2 3.71429V12.8571C2 13.8023 2.76914 14.5714 3.71429 14.5714H7.38229L8.97772 17.368C9.17257 17.7577 9.564 18 10 18C10.436 18 10.8274 17.7577 11.008 17.3954L12.6177 14.5714H16.2857C17.2309 14.5714 18 13.8023 18 12.8571V3.71429C18 2.76914 17.2309 2 16.2857 2ZM16.8571 12.8571C16.8571 13.172 16.6011 13.4286 16.2857 13.4286H12.2857C12.0806 13.4286 11.8914 13.5389 11.7891 13.7171L9.98571 16.8297L8.21143 13.7171C8.10914 13.5389 7.92 13.4286 7.71486 13.4286H3.71429C3.39886 13.4286 3.14286 13.172 3.14286 12.8571V3.71429C3.14286 3.39943 3.39886 3.14286 3.71429 3.14286H16.2857C16.6011 3.14286 16.8571 3.39943 16.8571 3.71429V12.8571ZM12.9114 7.068L11.1617 6.81371L10.3789 5.228C10.1869 4.83771 9.54629 4.83771 9.35429 5.228L8.57143 6.81371L6.82171 7.068C6.60629 7.09943 6.428 7.25029 6.36 7.45714C6.29314 7.664 6.34857 7.89086 6.50457 8.04286L7.77143 9.27714L7.47257 11.0206C7.436 11.2349 7.524 11.4514 7.69943 11.5794C7.87657 11.7074 8.10914 11.724 8.30171 11.6229L9.86686 10.8L11.432 11.6229C11.5154 11.6669 11.6074 11.6886 11.6983 11.6886C11.8166 11.6886 11.9349 11.652 12.0343 11.5794C12.2103 11.4514 12.2983 11.2349 12.2611 11.0206L11.9623 9.27714L13.2291 8.04286C13.3846 7.89086 13.4406 7.664 13.3737 7.45714C13.3063 7.25029 13.1274 7.09943 12.912 7.068H12.9114ZM10.9486 8.66857C10.8143 8.8 10.7526 8.98914 10.7846 9.17429L10.9389 10.0726L10.1326 9.64857C10.0491 9.60457 9.95771 9.58286 9.86629 9.58286C9.77486 9.58286 9.684 9.60457 9.6 9.64857L8.79371 10.0726L8.948 9.17429C8.98 8.98914 8.91829 8.8 8.784 8.66857L8.13086 8.03257L9.03257 7.90171C9.21886 7.87486 9.37943 7.75771 9.46286 7.58914L9.86629 6.772L10.2697 7.58914C10.3531 7.75771 10.5137 7.87486 10.7 7.90171L11.6017 8.03257L10.9486 8.66857Z" fill="#525252"/>
</svg>
