
<svg width="20" height="20" viewBox="0 0 20 20" fill="none" xmlns="http://www.w3.org/2000/svg">
<path d="M18.5628 9.72263C18.3044 9.47612 17.3331 8.79896 15.6842 10.4357L12.7309 13.3671C12.5551 13.5416 12.3594 13.6779 12.1407 13.7772C12.2048 13.6255 12.2402 13.4592 12.2402 13.2848C12.2402 12.601 11.6733 12.0365 10.9496 11.9996C10.9369 11.999 10.9242 11.9992 10.9116 12.0002C9.85365 12.0873 8.76278 11.9956 7.88625 11.9219C7.58289 11.8964 7.2964 11.8723 7.05529 11.86C6.09587 11.8109 5.392 12.3731 4.82904 12.9292L3.72853 14.0165H1.28125C1.12593 14.0165 1 14.1406 1 14.2936V17.7229C1 17.7964 1.02964 17.8669 1.08237 17.9189C1.13514 17.9708 1.20665 18 1.28125 18L11.3596 17.9999C12.1604 17.9999 12.8396 17.7152 13.3785 17.1535L18.6813 11.6252C19.1504 11.1362 19.094 10.2293 18.5628 9.72263ZM18.2724 11.2446L12.9697 16.7729C12.5413 17.2194 11.9996 17.4458 11.3596 17.4458L1.5625 17.4459V14.5706H3.84529C3.92003 14.5706 3.99168 14.5413 4.04445 14.4891L5.22736 13.3204C5.72676 12.8272 6.29039 12.3765 7.02618 12.4134C7.2579 12.4252 7.52692 12.4478 7.83844 12.474C8.73054 12.549 9.83962 12.6422 10.9381 12.554C11.361 12.5836 11.6777 12.895 11.6777 13.2848C11.6777 13.4808 11.5902 13.6747 11.4501 13.8125C11.2992 13.961 11.1249 13.9956 10.921 14.0165L7.12845 14.0165C6.97313 14.0165 6.8472 14.1406 6.8472 14.2936C6.8472 14.4466 6.97313 14.5706 7.12845 14.5706C7.12845 14.5706 10.9344 14.5706 10.9351 14.5706C11.1137 14.5706 11.2946 14.5354 11.4723 14.5173C12.1415 14.449 12.6837 14.2005 13.1301 13.7575L16.0834 10.826C16.9511 9.96475 17.7317 9.70113 18.1715 10.1207C18.4822 10.4171 18.5322 10.9738 18.2724 11.2446ZM12.3937 10.3098H14.0098C14.1651 10.3098 14.291 10.1857 14.291 10.0327V2.27706C14.291 2.12405 14.1651 2 14.0098 2H12.3937C12.2384 2 12.1124 2.12405 12.1124 2.27706V10.0327C12.1124 10.1857 12.2384 10.3098 12.3937 10.3098ZM12.6749 2.55411H13.7285V9.75567H12.6749V2.55411ZM3.39124 10.3098H5.00735C5.16268 10.3098 5.28861 10.1857 5.28861 10.0327V6.84848C5.28861 6.69548 5.16268 6.57143 5.00735 6.57143H3.39124C3.23592 6.57143 3.10999 6.69548 3.10999 6.84848V10.0327C3.10999 10.1857 3.23592 10.3098 3.39124 10.3098ZM3.6725 7.12554H4.7261V9.75567H3.6725V7.12554ZM6.39207 10.3098H8.00814C8.16346 10.3098 8.28939 10.1858 8.28939 10.0327V3.94161C8.28939 3.78861 8.16346 3.66455 8.00814 3.66455H6.39207C6.23674 3.66455 6.11081 3.78861 6.11081 3.94161V10.0327C6.11081 10.1858 6.23674 10.3098 6.39207 10.3098ZM6.67332 4.21867H7.72689V9.75567H6.67332V4.21867ZM9.39289 10.3098H11.009C11.1644 10.3098 11.2903 10.1858 11.2903 10.0328V5.02736C11.2903 4.87436 11.1644 4.7503 11.009 4.7503H9.39289C9.23757 4.7503 9.11164 4.87436 9.11164 5.02736V10.0328C9.11164 10.1858 9.23757 10.3098 9.39289 10.3098ZM9.67414 5.30442H10.7278V9.75574H9.67414V5.30442Z" fill="#525252" stroke="#525252" stroke-width="0.4"/>
</svg>
