
<svg width="20" height="20" viewBox="0 0 20 20" fill="none" xmlns="http://www.w3.org/2000/svg">
<path d="M11.3889 7.33333C11.1127 7.33333 10.8889 7.10948 10.8889 6.83333V2.5C10.8889 2.22386 11.1127 2 11.3889 2H17.5C17.7761 2 18 2.22386 18 2.5V6.83333C18 7.10948 17.7761 7.33333 17.5 7.33333H11.3889ZM2.5 10.8889C2.22386 10.8889 2 10.665 2 10.3889V2.5C2 2.22386 2.22386 2 2.5 2H8.61111C8.88725 2 9.11111 2.22386 9.11111 2.5V10.3889C9.11111 10.665 8.88725 10.8889 8.61111 10.8889H2.5ZM11.3889 18C11.1127 18 10.8889 17.7761 10.8889 17.5V9.61111C10.8889 9.33497 11.1127 9.11111 11.3889 9.11111H17.5C17.7761 9.11111 18 9.33497 18 9.61111V17.5C18 17.7761 17.7761 18 17.5 18H11.3889ZM2.5 18C2.22386 18 2 17.7761 2 17.5V13.1667C2 12.8905 2.22386 12.6667 2.5 12.6667H8.61111C8.88725 12.6667 9.11111 12.8905 9.11111 13.1667V17.5C9.11111 17.7761 8.88725 18 8.61111 18H2.5ZM3.77778 8.61111C3.77778 8.88725 4.00164 9.11111 4.27778 9.11111H6.83333C7.10948 9.11111 7.33333 8.88725 7.33333 8.61111V4.27778C7.33333 4.00164 7.10948 3.77778 6.83333 3.77778H4.27778C4.00164 3.77778 3.77778 4.00164 3.77778 4.27778V8.61111ZM12.6667 15.7222C12.6667 15.9984 12.8905 16.2222 13.1667 16.2222H15.7222C15.9984 16.2222 16.2222 15.9984 16.2222 15.7222V11.3889C16.2222 11.1127 15.9984 10.8889 15.7222 10.8889H13.1667C12.8905 10.8889 12.6667 11.1127 12.6667 11.3889V15.7222ZM12.6667 5.05556C12.6667 5.3317 12.8905 5.55556 13.1667 5.55556H15.7222C15.9984 5.55556 16.2222 5.3317 16.2222 5.05556V4.27778C16.2222 4.00164 15.9984 3.77778 15.7222 3.77778H13.1667C12.8905 3.77778 12.6667 4.00164 12.6667 4.27778V5.05556ZM3.77778 15.7222C3.77778 15.9984 4.00164 16.2222 4.27778 16.2222H6.83333C7.10948 16.2222 7.33333 15.9984 7.33333 15.7222V14.9444C7.33333 14.6683 7.10948 14.4444 6.83333 14.4444H4.27778C4.00164 14.4444 3.77778 14.6683 3.77778 14.9444V15.7222Z" fill="#525252"/>
</svg>
