<svg width="20" height="20" viewBox="0 0 20 20" fill="none" xmlns="http://www.w3.org/2000/svg">
<g clip-path="url(#clip0_4695_608)">
<path d="M10.9053 4.99616L10.2744 3.7786C10.254 3.73926 10.2255 3.7047 10.1907 3.67722C10.156 3.64974 10.1158 3.62996 10.0728 3.61921C10.0298 3.60846 9.98507 3.60697 9.94148 3.61485C9.89788 3.62273 9.85646 3.63979 9.81996 3.66491L1.90493 9.1085C1.84212 9.1516 1.79724 9.21617 1.77874 9.29006C1.76025 9.36396 1.76942 9.44206 1.80453 9.50966L2.11618 10.1111L0.760527 11.0435C0.697716 11.0866 0.652833 11.1511 0.634339 11.225C0.615844 11.2989 0.625014 11.377 0.660121 11.4446L2.63368 15.2532C2.66873 15.3208 2.72727 15.3733 2.79831 15.4008C2.86934 15.4283 2.94798 15.429 3.01943 15.4026L4.563 14.8326L4.87459 15.4338C4.90963 15.5015 4.96818 15.554 5.03921 15.5815C5.11025 15.609 5.18888 15.6096 5.26034 15.5832L6.61934 15.0813L8.76681 18.8009C8.80703 18.8706 8.87255 18.922 8.94974 18.9446C9.02693 18.9671 9.10985 18.9591 9.18125 18.9221L11.2969 17.8256C11.3344 17.8062 11.3676 17.7793 11.3944 17.7467C11.4213 17.7141 11.4413 17.6764 11.4531 17.6359C11.465 17.5954 11.4685 17.5528 11.4635 17.5109C11.4584 17.469 11.4449 17.4285 11.4238 17.3919L9.48053 14.0251L14.2719 12.2556C14.3135 12.2403 14.3513 12.2163 14.3829 12.1852C14.4145 12.1541 14.4391 12.1167 14.455 12.0754C14.471 12.034 14.4781 11.9898 14.4756 11.9455C14.4732 11.9013 14.4614 11.8581 14.441 11.8188L13.8102 10.6016C14.4701 10.1723 14.9467 9.51303 15.1475 8.75187C15.3483 7.99071 15.2589 7.18208 14.8967 6.48316C14.5345 5.78423 13.9254 5.24495 13.1877 4.97013C12.4501 4.69531 11.6365 4.70459 10.9053 4.99616ZM4.27309 14.2734L3.06156 14.7207L1.34187 11.4019L2.406 10.6702L2.97115 11.7608L4.27309 14.2734ZM8.88584 14.2448L10.719 17.4213L9.15897 18.2299L7.21421 14.8618L8.10172 14.534L8.88584 14.2448ZM7.16928 14.212L6.65012 14.4036L6.64962 14.4039L5.30246 14.9013L2.48631 9.46697L9.88253 4.38041L10.4871 5.54694L10.7793 6.11097L13.7231 11.7919L7.16928 14.212ZM14.5084 8.71313C14.3381 9.25492 13.9903 9.72358 13.5212 10.0436L11.1945 5.55397C11.6419 5.38817 12.1269 5.35134 12.5942 5.44768C13.0615 5.54402 13.4924 5.76966 13.8378 6.0989C14.1832 6.42813 14.4291 6.84774 14.5477 7.30992C14.6662 7.77211 14.6526 8.2583 14.5084 8.71313ZM19.3399 4.1805C19.3018 4.10696 19.236 4.05158 19.157 4.02653C19.078 4.00149 18.9923 4.00883 18.9188 4.04694L15.745 5.69144C15.7077 5.70983 15.6745 5.73547 15.6472 5.76685C15.62 5.79824 15.5993 5.83474 15.5863 5.87422C15.5734 5.91371 15.5684 5.95538 15.5718 5.9968C15.5751 6.03822 15.5867 6.07856 15.6058 6.11546C15.6249 6.15236 15.6512 6.18507 15.6831 6.21169C15.715 6.2383 15.7519 6.25828 15.7917 6.27046C15.8314 6.28264 15.8732 6.28677 15.9145 6.28262C15.9558 6.27846 15.996 6.2661 16.0325 6.24625L19.2063 4.60166C19.2798 4.56352 19.3352 4.49773 19.3603 4.41876C19.3854 4.33978 19.378 4.25408 19.3399 4.1805ZM18.7619 9.73503L16.2635 8.94204C16.2244 8.92961 16.1832 8.92501 16.1423 8.9285C16.1014 8.93199 16.0616 8.9435 16.0251 8.96237C15.9887 8.98125 15.9563 9.00711 15.9299 9.03849C15.9034 9.06987 15.8834 9.10616 15.871 9.14527C15.8586 9.18438 15.854 9.22556 15.8575 9.26645C15.861 9.30734 15.8725 9.34715 15.8913 9.38359C15.9102 9.42003 15.9361 9.4524 15.9675 9.47885C15.9988 9.50529 16.0351 9.5253 16.0742 9.53772L18.5727 10.3307C18.6033 10.3404 18.6352 10.3454 18.6673 10.3455C18.742 10.3457 18.8143 10.319 18.871 10.2705C18.9277 10.2219 18.9652 10.1547 18.9767 10.0809C18.9881 10.0071 18.9727 9.93164 18.9333 9.8682C18.8939 9.80476 18.8331 9.75752 18.7619 9.73503ZM13.2831 4.15182C13.3222 4.16432 13.3634 4.16898 13.4043 4.16553C13.4452 4.16208 13.4851 4.1506 13.5215 4.13173C13.558 4.11285 13.5903 4.08697 13.6168 4.05556C13.6432 4.02415 13.6632 3.98784 13.6756 3.94869L14.4688 1.45007C14.4939 1.37107 14.4865 1.28535 14.4484 1.21175C14.4103 1.13816 14.3445 1.08272 14.2655 1.05763C14.1865 1.03254 14.1008 1.03986 14.0272 1.07798C13.9536 1.11609 13.8982 1.18189 13.8731 1.26088L13.0799 3.75944C13.0548 3.83843 13.0621 3.92414 13.1002 3.99772C13.1384 4.0713 13.2041 4.12673 13.2831 4.15182Z" fill="#525252" stroke="#525252" stroke-width="0.5"/>
</g>
<defs>
<clipPath id="clip0_4695_608">
<rect width="20" height="20" fill="white"/>
</clipPath>
</defs>
</svg>
