
<svg width="20" height="20" viewBox="0 0 20 20" fill="none" xmlns="http://www.w3.org/2000/svg">
<path d="M4.43333 13.2V2.1H15.9V15.6C15.9 16.2413 15.6828 16.7828 15.2477 17.2303C14.8128 17.6777 14.2877 17.9 13.6667 17.9H4.33333C3.71232 17.9 3.18722 17.6777 2.75225 17.2303C2.31718 16.7828 2.1 16.2413 2.1 15.6V13.3H4.33333H4.43333V13.2ZM14.5444 3.6V3.5H14.4444H5.88889H5.78889V3.6V13.2V13.3H5.88889H12.7889V15.6C12.7889 15.851 12.8724 16.0665 13.0408 16.2397C13.2093 16.4131 13.4202 16.5 13.6667 16.5C13.9131 16.5 14.124 16.4131 14.2925 16.2397C14.4609 16.0665 14.5444 15.851 14.5444 15.6V3.6ZM11.3333 16.5H11.4333V16.4V14.8V14.7H11.3333H3.55556H3.45556V14.8V15.6C3.45556 15.851 3.53908 16.0665 3.70747 16.2397C3.72829 16.2611 3.74976 16.2812 3.77186 16.3H3.55556V16.4V16.5H4.33333H11.3333ZM6.76667 7.5V6.1H13.5667V7.5H6.76667ZM6.76667 9.9V8.5H13.5667V9.9H6.76667Z" fill="#525252" stroke="white" stroke-width="0.2"/>
</svg>
