    <svg
                          width="17"
                          height="17"
                          viewBox="0 0 16 16"
                          fill="none"
                          xmlns="http://www.w3.org/2000/svg"
                        >
                          <path
                            d="M7.52447 1.68507C7.67415 1.22442 8.32585 1.22442 8.47553 1.68507L9.5451 4.97687C9.74591 5.59491 10.3218 6.01335 10.9717 6.01335H14.4329C14.9172 6.01335 15.1186 6.63315 14.7268 6.91785L11.9266 8.9523C11.4009 9.33426 11.1809 10.0113 11.3817 10.6293L12.4513 13.9211C12.6009 14.3818 12.0737 14.7649 11.6818 14.4802L8.88168 12.4457C8.35595 12.0638 7.64405 12.0638 7.11832 12.4457L4.31815 14.4802C3.9263 14.7649 3.39906 14.3818 3.54873 13.9211L4.6183 10.6293C4.81911 10.0113 4.59913 9.33426 4.07339 8.9523L1.27323 6.91785C0.881369 6.63315 1.08276 6.01335 1.56712 6.01335H5.02832C5.67816 6.01335 6.25409 5.5949 6.4549 4.97687L7.52447 1.68507Z"
                            stroke="#0F4DA2"
                          />
                        </svg>