 <svg
                                  width="22"
                                  height="19"
                                  viewBox="0 0 21 20"
                                  fill="none"
                                  xmlns="http://www.w3.org/2000/svg"
                                >
                                  <path
                                    d="M15.9775 20H4.99296V7L11.9831 0L13.2313 1.25C13.3478 1.36667 13.4435 1.525 13.5184 1.725C13.5933 1.925 13.6308 2.11667 13.6308 2.3V2.65L12.5323 7H18.9732C19.5058 7 19.9718 7.2 20.3713 7.6C20.7707 8 20.9704 8.46667 20.9704 9V11C20.9704 11.1167 20.9538 11.2417 20.9205 11.375C20.8872 11.5083 20.8539 11.6333 20.8206 11.75L17.8249 18.8C17.6751 19.1333 17.4254 19.4167 17.0759 19.65C16.7264 19.8833 16.3603 20 15.9775 20ZM6.99014 18H15.9775L18.9732 11V9H9.98592L11.334 3.5L6.99014 7.85V18ZM4.99296 7V9H1.99718V18H4.99296V20H0V7H4.99296Z"
                                    fill="black"
                                  />
                                </svg>