<svg
                              width="23"
                              height="23"
                              viewBox="0 0 22 22"
                              fill="none"
                              xmlns="http://www.w3.org/2000/svg"
                            >
                              <g clipPath="url(#clip0_193_433)">
                                <path
                                  d="M11 22C17.0751 22 22 17.0751 22 11C22 4.92487 17.0751 0 11 0C4.92487 0 0 4.92487 0 11C0 17.0751 4.92487 22 11 22Z"
                                  fill="#50B748"
                                />
                                <path
                                  d="M13.3148 21.7407C13.5258 21.6998 13.7355 21.6527 13.9437 21.5995C14.2967 21.5008 14.6445 21.3846 14.9859 21.2512C15.3277 21.1189 15.6627 20.9696 15.9897 20.8038C16.3167 20.6375 16.6351 20.4548 16.9439 20.2566C17.2523 20.0583 17.5506 19.8448 17.8377 19.6168C18.1252 19.3884 18.4012 19.1458 18.6645 18.8898C18.9274 18.6345 19.1773 18.3662 19.4134 18.0859C19.6497 17.8054 19.8718 17.5132 20.0789 17.2105C20.286 16.9083 20.4778 16.5959 20.6537 16.2746C20.8296 15.9528 20.9893 15.6224 21.1322 15.2846C21.2752 14.9467 21.4012 14.602 21.5098 14.2515C21.6028 13.9447 21.6823 13.6339 21.7482 13.3202L15.2123 6.78526C14.6604 6.23086 14.0042 5.79109 13.2817 5.49124C12.5591 5.19139 11.7844 5.03739 11.0021 5.03809C10.2191 5.03723 9.4436 5.19115 8.72027 5.49099C7.99694 5.79083 7.34001 6.23068 6.78724 6.78526C6.23308 7.3382 5.79343 7.99501 5.49345 8.7181C5.19347 9.44118 5.03906 10.2163 5.03906 10.9992C5.03906 11.782 5.19347 12.5572 5.49345 13.2802C5.79343 14.0033 6.23308 14.6601 6.78724 15.2131L13.3148 21.7407Z"
                                  fill="#10A711"
                                />
                                <path
                                  d="M11.0011 5.03907C12.5246 5.03907 14.0481 5.62115 15.2141 6.78623C15.7683 7.33917 16.2079 7.99599 16.5079 8.71907C16.8079 9.44216 16.9623 10.2173 16.9623 11.0001C16.9623 11.783 16.8079 12.5581 16.5079 13.2812C16.2079 14.0043 15.7683 14.6611 15.2141 15.2141C14.6612 15.7682 14.0043 16.2079 13.2813 16.5079C12.5582 16.8078 11.783 16.9622 11.0002 16.9622C10.2173 16.9622 9.44219 16.8078 8.7191 16.5079C7.99602 16.2079 7.33921 15.7682 6.78626 15.2141C6.2321 14.6611 5.79245 14.0043 5.49247 13.2812C5.19249 12.5581 5.03809 11.783 5.03809 11.0001C5.03809 10.2173 5.19249 9.44216 5.49247 8.71907C5.79245 7.99599 6.2321 7.33917 6.78626 6.78623C7.33903 6.23166 7.99597 5.79181 8.7193 5.49197C9.44262 5.19213 10.2181 5.03821 11.0011 5.03907ZM13.7144 9.1659C13.6277 9.17421 13.545 9.20695 13.4761 9.26032L10.1266 11.772L8.57468 10.221C8.23826 9.87082 7.57551 10.5326 7.9266 10.8691L9.75993 12.7024C9.83941 12.7776 9.94243 12.8229 10.0515 12.8308C10.1606 12.8386 10.2691 12.8085 10.3585 12.7455L14.0252 9.99548C14.3332 9.7709 14.1434 9.17232 13.7621 9.16682C13.7465 9.16602 13.73 9.1651 13.7144 9.1659Z"
                                  fill="white"
                                />
                              </g>
                              <defs>
                                <clipPath id="clip0_193_433">
                                  <rect width="22" height="22" fill="white" />
                                </clipPath>
                              </defs>
                            </svg>