<svg
      width="23"
      height="23"
      viewBox="0 0 22 22"
      fill="none"
      xmlns="http://www.w3.org/2000/svg"
    >
      <g clipPath="url(#clip0_1_4971)">
        <path
          d="M11 22C17.0751 22 22 17.0751 22 11C22 4.92487 17.0751 0 11 0C4.92487 0 0 4.92487 0 11C0 17.0751 4.92487 22 11 22Z"
          fill="#0F4DA2"
        />
        <path
          d="M11.0011 5.03882C12.5246 5.03882 14.0481 5.62091 15.2141 6.78599C15.7683 7.33893 16.2079 7.99575 16.5079 8.71883C16.8079 9.44191 16.9623 10.2171 16.9623 10.9999C16.9623 11.7827 16.8079 12.5579 16.5079 13.281C16.2079 14.0041 15.7683 14.6609 15.2141 15.2138C14.6612 15.768 14.0043 16.2076 13.2813 16.5076C12.5582 16.8076 11.783 16.962 11.0002 16.962C10.2173 16.962 9.44219 16.8076 8.7191 16.5076C7.99602 16.2076 7.33921 15.768 6.78626 15.2138C6.2321 14.6609 5.79245 14.0041 5.49247 13.281C5.19249 12.5579 5.03809 11.7827 5.03809 10.9999C5.03809 10.2171 5.19249 9.44191 5.49247 8.71883C5.79245 7.99575 6.2321 7.33893 6.78626 6.78599C7.33903 6.23141 7.99597 5.79156 8.7193 5.49172C9.44262 5.19188 10.2181 5.03797 11.0011 5.03882ZM13.7144 9.16566C13.6277 9.17397 13.545 9.2067 13.4761 9.26007L10.1266 11.7717L8.57468 10.2207C8.23826 9.87057 7.57551 10.5324 7.9266 10.8688L9.75993 12.7022C9.83941 12.7773 9.94243 12.8227 10.0515 12.8305C10.1606 12.8384 10.2691 12.8082 10.3585 12.7452L14.0252 9.99524C14.3332 9.77066 14.1434 9.17207 13.7621 9.16657C13.7465 9.16578 13.73 9.16486 13.7144 9.16566Z"
          fill="white"
        />
      </g>
      <defs>
        <clipPath id="clip0_1_4971">
          <rect width="22" height="22" fill="white" />
        </clipPath>
      </defs>
</svg>