<svg width="129" height="60" viewBox="0 0 129 40" fill="none" xmlns="http://www.w3.org/2000/svg">
<g clip-path="url(#clip0_1_3188)">
<path d="M28.3627 18.6847C28.3649 19.1648 28.1223 19.3213 27.7394 19.1278C27.0584 18.7837 26.3796 18.4341 25.7155 18.059C25.4114 17.8872 25.1656 17.8633 24.849 18.047C24.2012 18.4232 23.5311 18.7619 22.8582 19.093C22.7119 19.1648 22.4547 19.2142 22.3606 19.137C22.2431 19.0408 22.1778 18.794 22.2006 18.6276C22.3116 17.8209 22.4731 17.0212 22.5836 16.2144C22.6053 16.0562 22.5248 15.8323 22.4117 15.7154C21.8716 15.1571 21.295 14.6341 20.7538 14.0769C20.6233 13.9426 20.4677 13.6746 20.521 13.5588C20.5933 13.4022 20.8446 13.2712 21.0383 13.237C21.8019 13.1016 22.5759 13.0228 23.3396 12.889C23.5001 12.8608 23.6937 12.72 23.7709 12.5764C24.1332 11.9061 24.446 11.2092 24.8082 10.5389C24.9088 10.3524 25.1248 10.0985 25.2776 10.1056C25.4424 10.1127 25.6431 10.3638 25.7448 10.5536C26.0995 11.2135 26.4258 11.8887 26.7451 12.5666C26.8468 12.7836 26.9795 12.8776 27.2189 12.9064C27.9891 12.9994 28.7582 13.1054 29.5224 13.238C29.7073 13.2701 29.9646 13.3892 30.0174 13.5316C30.0669 13.6653 29.9336 13.9247 29.8063 14.0568C29.2472 14.6336 28.6537 15.1766 28.0919 15.7507C27.9951 15.8497 27.932 16.0475 27.9521 16.1851C28.0766 17.0413 28.23 17.8954 28.3627 18.6847Z" fill="url(#paint0_linear_1_3188)"/>
<path d="M36.1831 12.3661C35.0806 6.35894 29.2541 2.38062 23.2247 3.49181C17.9916 4.45241 14.1618 9.07059 14.1526 14.8804C14.1716 16.7636 14.845 18.9011 16.1967 20.8077C18.938 24.6822 21.6892 28.5523 24.4349 32.4268C24.9152 33.0998 25.6125 33.0998 26.0928 32.4317C28.8396 28.5567 31.6 24.6914 34.3272 20.812C36.1216 18.2607 36.7482 15.4262 36.1831 12.3661ZM25.2687 22.288C21.1045 22.288 17.7283 18.9142 17.7283 14.7521C17.7283 10.5901 21.1039 7.21571 25.2687 7.21571C29.433 7.21571 32.8092 10.5895 32.8092 14.7521C32.8086 18.9137 29.433 22.288 25.2687 22.288Z" fill="url(#paint1_linear_1_3188)"/>
<path d="M6.68845 32.9507C6.17498 32.468 5.7121 31.8939 5.33952 31.2502C5.0273 30.737 4.36263 30.5658 3.83938 30.8681C3.32591 31.1698 3.15458 31.8444 3.457 32.3576C3.94 33.1828 4.53451 33.9276 5.19864 34.5512C5.41023 34.7425 5.68164 34.8431 5.94381 34.8431C6.2359 34.8431 6.52799 34.7224 6.73903 34.4908C7.15132 34.0478 7.1312 33.3633 6.68845 32.9507Z" fill="url(#paint2_linear_1_3188)"/>
<path d="M22.4655 33.5546C21.8008 33.3132 21.1867 33.1724 20.5824 33.1219C20.2805 33.1018 19.9781 33.0817 19.6664 33.0817C19.0725 33.0615 18.5688 33.5448 18.559 34.1483C18.5487 34.7523 19.0322 35.2453 19.6365 35.2551C19.8883 35.2649 20.15 35.2752 20.4018 35.2953C20.8146 35.3356 21.2476 35.4361 21.7208 35.6074C21.8519 35.6476 21.9727 35.6677 22.0934 35.6677C22.5465 35.6677 22.9593 35.3959 23.1203 34.9534C23.321 34.3799 23.029 33.7558 22.4655 33.5546Z" fill="url(#paint3_linear_1_3188)"/>
<path d="M16.3636 33.3731C15.5782 33.5243 14.8031 33.695 14.0482 33.8765L13.867 33.9168C13.2829 34.0576 12.9206 34.6414 13.0517 35.2248C13.1725 35.7282 13.6255 36.0701 14.1189 36.0701C14.1994 36.0701 14.2799 36.0598 14.3707 36.0397L14.5518 35.9994C15.3068 35.8184 16.0221 35.6575 16.7466 35.5265C17.3405 35.4156 17.7332 34.842 17.6228 34.2587C17.5217 33.6651 16.9478 33.2726 16.3636 33.3731Z" fill="url(#paint4_linear_1_3188)"/>
<path d="M10.957 34.4899C10.2624 34.5605 9.57764 34.4899 8.9233 34.2887C8.34946 34.1077 7.73537 34.4295 7.56404 35.0031C7.38291 35.5766 7.69512 36.1806 8.27875 36.3616C8.97334 36.5829 9.70818 36.6938 10.4436 36.6938C10.6851 36.6938 10.9266 36.6834 11.1686 36.6633C11.7626 36.603 12.2059 36.0697 12.1455 35.4657C12.0851 34.8726 11.5613 34.4295 10.957 34.4899Z" fill="url(#paint5_linear_1_3188)"/>
<path d="M47.9435 26.5519C46.494 26.5519 44.7341 26.1639 43 25.2585L44.6434 22.0639C45.5622 22.7106 46.4552 23.0598 47.4775 23.0598C49.0045 23.0598 49.781 22.1415 49.781 19.9555V7.60352H53.6633V20.6797C53.6633 24.5082 51.334 26.5519 47.9435 26.5519ZM70.2271 19.4512L70.1882 20.3436H60.3273C60.4826 22.5553 61.9579 23.6159 63.7308 23.6159C65.0638 23.6159 66.099 22.9951 66.6037 21.8181L70.0201 22.3226C69.1401 25.0129 66.746 26.552 63.7567 26.552C59.4603 26.552 56.6522 24.0169 56.6522 19.6453C56.6522 15.2738 59.5379 12.7127 63.6402 12.7127C67.406 12.7127 70.2141 14.795 70.2271 19.4512ZM63.6667 15.3511C61.9714 15.3511 60.7938 16.1401 60.4315 17.9121H66.5396C66.3455 16.2177 65.1938 15.3511 63.6667 15.3511ZM76.6334 15.1053C77.3063 13.9283 79.0534 12.8418 80.9816 12.8418V16.1659C78.1605 16.1659 76.8147 16.9937 76.8147 19.8133V26.2933H73.0619V12.9972H76.6335L76.6334 15.1053ZM94.505 7.60405V11.0186H90.0663V26.2934H86.2229V11.0186H81.7583V7.60405H94.505ZM107.86 22.6847C107.86 24.3144 108.015 25.3491 108.183 25.9312V26.2933H104.702L104.404 24.8446C103.408 26.0475 101.687 26.552 100.134 26.552C98.0375 26.552 95.9928 25.6207 95.9928 22.8528C95.9928 20.0978 98.0504 19.1666 100.833 18.5587L103.02 18.0672C103.964 17.8473 104.301 17.524 104.301 16.9808C104.301 15.6744 103.11 15.3122 102.062 15.3122C100.716 15.3122 99.6938 15.8425 99.4608 17.3429L96.161 16.7479C96.7174 13.9929 98.7362 12.7384 102.269 12.7384C104.935 12.7384 107.86 13.5274 107.86 17.5369L107.86 22.6847ZM101.299 24.0298C103.072 24.0298 104.495 22.8528 104.495 20.2142L101.337 21.1067C100.302 21.3524 99.5516 21.7145 99.5516 22.607C99.5516 23.5641 100.341 24.0298 101.299 24.0298ZM119.287 12.7389C122.794 12.7389 125.692 15.3128 125.692 19.6716C125.692 24.0303 122.794 26.6042 119.287 26.6042C117.552 26.6042 116 25.9317 115.21 24.7159V32.7608H111.483V12.9974H115.016L115.12 14.7824C115.857 13.4631 117.475 12.7389 119.287 12.7389ZM118.445 23.5125C120.399 23.5125 121.965 22.0897 121.965 19.671C121.965 17.2524 120.4 15.8296 118.445 15.8296C116.452 15.8296 114.9 17.3429 114.9 19.671C114.9 21.9992 116.452 23.5125 118.445 23.5125Z" fill="black"/>
<path d="M28.2513 18.6847C28.2534 19.1647 28.0118 19.3213 27.6304 19.1278C26.9521 18.7837 26.2759 18.4341 25.6144 18.059C25.3116 17.8872 25.0667 17.8633 24.7514 18.047C24.1061 18.4232 23.4386 18.7619 22.7684 19.093C22.6227 19.1648 22.3664 19.2142 22.2727 19.137C22.1557 19.0408 22.0907 18.794 22.1134 18.6276C22.2239 17.8209 22.3849 17.0212 22.4948 16.2144C22.5165 16.0562 22.4363 15.8323 22.3236 15.7154C21.7856 15.1571 21.2114 14.6341 20.6723 14.0769C20.5422 13.9426 20.3873 13.6746 20.4404 13.5588C20.5125 13.4022 20.7628 13.2712 20.9556 13.237C21.7163 13.1016 22.4873 13.0228 23.2479 12.889C23.4077 12.8608 23.6006 12.72 23.6775 12.5764C24.0384 11.9061 24.3499 11.2092 24.7107 10.5389C24.811 10.3524 25.026 10.0985 25.1783 10.1056C25.3424 10.1127 25.5424 10.3638 25.6437 10.5536C25.9969 11.2135 26.322 11.8887 26.64 12.5666C26.7413 12.7836 26.8735 12.8776 27.1119 12.9064C27.8791 12.9994 28.6452 13.1054 29.4064 13.238C29.5906 13.2701 29.8468 13.3892 29.8994 13.5316C29.9487 13.6653 29.816 13.9247 29.6892 14.0568C29.1322 14.6336 28.5411 15.1766 27.9815 15.7507C27.885 15.8497 27.8222 16.0475 27.8422 16.1851C27.9663 17.0413 28.1191 17.8954 28.2513 18.6847Z" fill="url(#paint6_linear_1_3188)"/>
<path d="M36.041 12.3661C34.9428 6.35894 29.1392 2.38062 23.1336 3.49181C17.9211 4.45241 14.1064 9.07059 14.0972 14.8804C14.1161 16.7636 14.7869 18.9011 16.1332 20.8077C18.8638 24.6822 21.6041 28.5523 24.339 32.4268C24.8174 33.0998 25.512 33.0998 25.9904 32.4317C28.7264 28.5567 31.4759 24.6914 34.1924 20.812C35.9798 18.2607 36.6039 15.4262 36.041 12.3661ZM25.1696 22.288C21.0217 22.288 17.6589 18.9142 17.6589 14.7521C17.6589 10.5901 21.0212 7.21571 25.1696 7.21571C29.3175 7.21571 32.6803 10.5895 32.6803 14.7521C32.6798 18.9137 29.3175 22.288 25.1696 22.288Z" fill="url(#paint7_linear_1_3188)"/>
<path d="M6.6622 32.9507C6.15076 32.468 5.6897 31.8939 5.31858 31.2502C5.0076 30.737 4.34554 30.5658 3.82434 30.8681C3.3129 31.1698 3.14224 31.8444 3.44347 32.3576C3.92457 33.1828 4.51674 33.9276 5.17826 34.5512C5.38901 34.7425 5.65936 34.8431 5.9205 34.8431C6.21144 34.8431 6.50238 34.7224 6.71259 34.4908C7.12326 34.0478 7.10321 33.3633 6.6622 32.9507Z" fill="url(#paint8_linear_1_3188)"/>
<path d="M22.3771 33.5546C21.715 33.3132 21.1034 33.1724 20.5014 33.1219C20.2007 33.1018 19.8995 33.0817 19.5891 33.0817C18.9974 33.0615 18.4958 33.5448 18.486 34.1483C18.4757 34.7523 18.9574 35.2453 19.5593 35.2551C19.8101 35.2649 20.0707 35.2752 20.3216 35.2953C20.7328 35.3356 21.164 35.4361 21.6354 35.6074C21.766 35.6476 21.8862 35.6677 22.0065 35.6677C22.4578 35.6677 22.869 35.3959 23.0294 34.9534C23.2293 34.3799 22.9384 33.7558 22.3771 33.5546Z" fill="url(#paint9_linear_1_3188)"/>
<path d="M16.2995 33.3731C15.5172 33.5243 14.7451 33.695 13.9931 33.8765L13.8127 33.9168C13.2308 34.0576 12.87 34.6414 13.0006 35.2248C13.1208 35.7282 13.5721 36.0701 14.0635 36.0701C14.1437 36.0701 14.2239 36.0598 14.3144 36.0397L14.4948 35.9994C15.2468 35.8184 15.9592 35.6575 16.6809 35.5265C17.2725 35.4156 17.6637 34.842 17.5537 34.2587C17.4529 33.6651 16.8814 33.2726 16.2995 33.3731Z" fill="url(#paint10_linear_1_3188)"/>
<path d="M10.9142 34.4899C10.2223 34.5605 9.54022 34.4899 8.88845 34.2887C8.31687 34.1077 7.7052 34.4295 7.53454 35.0031C7.35412 35.5766 7.66511 36.1806 8.24644 36.3616C8.9383 36.5829 9.67025 36.6938 10.4027 36.6938C10.6433 36.6938 10.8838 36.6834 11.1249 36.6633C11.7166 36.603 12.1581 36.0697 12.098 35.4657C12.0378 34.8726 11.5161 34.4295 10.9142 34.4899Z" fill="url(#paint11_linear_1_3188)"/>
<path d="M47.7548 26.5519C46.3111 26.5519 44.5581 26.1639 42.8308 25.2585L44.4678 22.0639C45.383 22.7106 46.2724 23.0598 47.2907 23.0598C48.8117 23.0598 49.5852 22.1415 49.5852 19.9555V7.60352H53.4522V20.6797C53.4522 24.5082 51.132 26.5519 47.7548 26.5519ZM69.9508 19.4512L69.9121 20.3436H60.0899C60.2446 22.5553 61.7141 23.6159 63.4801 23.6159C64.8078 23.6159 65.8389 22.9951 66.3417 21.8181L69.7446 22.3226C68.8681 25.0129 66.4834 26.5521 63.5058 26.5521C59.2263 26.5521 56.4292 24.0169 56.4292 19.6453C56.4292 15.2738 59.3037 12.7127 63.3898 12.7127C67.1408 12.7127 69.9378 14.795 69.9508 19.4512ZM63.4162 15.3511C61.7276 15.3511 60.5546 16.1401 60.1937 17.9121H66.2778C66.0844 16.2177 64.9373 15.3511 63.4162 15.3511ZM76.3319 15.1053C77.0021 13.9283 78.7423 12.8418 80.663 12.8418V16.1659C77.853 16.1659 76.5124 16.9937 76.5124 19.8133V26.2933H72.7744V12.9972H76.332L76.3319 15.1053ZM94.1332 7.60405V11.0186H89.712V26.2934H85.8836V11.0186H81.4366V7.60405H94.1332ZM107.435 22.6847C107.435 24.3144 107.59 25.3491 107.758 25.9312V26.2933H104.29L103.994 24.8446C103.001 26.0475 101.287 26.552 99.7399 26.552C97.6518 26.552 95.6151 25.6207 95.6151 22.8528C95.6151 20.0978 97.6646 19.1666 100.436 18.5587L102.614 18.0672C103.555 17.8473 103.89 17.524 103.89 16.9808C103.89 15.6744 102.705 15.3122 101.66 15.3122C100.32 15.3122 99.3015 15.8425 99.0695 17.3429L95.7826 16.7479C96.3369 13.9929 98.3478 12.7384 101.867 12.7384C104.522 12.7384 107.435 13.5274 107.435 17.5369L107.435 22.6847ZM100.9 24.0298C102.666 24.0298 104.084 22.8528 104.084 20.2142L100.939 21.1067C99.9076 21.3524 99.1599 21.7145 99.1599 22.607C99.1599 23.5641 99.9462 24.0298 100.9 24.0298ZM118.817 12.7389C122.31 12.7389 125.198 15.3128 125.198 19.6716C125.198 24.0303 122.31 26.6042 118.817 26.6042C117.09 26.6042 115.543 25.9317 114.757 24.7159V32.7608H111.045V12.9974H114.563L114.667 14.7824C115.401 13.4631 117.013 12.7389 118.817 12.7389ZM117.979 23.5125C119.926 23.5125 121.485 22.0898 121.485 19.6711C121.485 17.2524 119.926 15.8296 117.979 15.8296C115.994 15.8296 114.447 17.3429 114.447 19.6711C114.447 21.9992 115.994 23.5125 117.979 23.5125Z" fill="black"/>
</g>
<defs>
<linearGradient id="paint0_linear_1_3188" x1="20.5103" y1="10.1055" x2="30.0279" y2="10.1055" gradientUnits="userSpaceOnUse">
<stop stop-color="#7D141D"/>
<stop offset="1" stop-color="#FF1E27"/>
</linearGradient>
<linearGradient id="paint1_linear_1_3188" x1="14.1526" y1="3.30566" x2="36.3844" y2="3.30566" gradientUnits="userSpaceOnUse">
<stop stop-color="#7D141D"/>
<stop offset="1" stop-color="#FF1E27"/>
</linearGradient>
<linearGradient id="paint2_linear_1_3188" x1="3.30762" y1="30.7188" x2="7.03493" y2="30.7188" gradientUnits="userSpaceOnUse">
<stop stop-color="#7D141D"/>
<stop offset="1" stop-color="#FF1E27"/>
</linearGradient>
<linearGradient id="paint3_linear_1_3188" x1="18.5588" y1="33.0811" x2="23.1837" y2="33.0811" gradientUnits="userSpaceOnUse">
<stop stop-color="#7D141D"/>
<stop offset="1" stop-color="#FF1E27"/>
</linearGradient>
<linearGradient id="paint4_linear_1_3188" x1="13.0249" y1="33.3574" x2="17.6414" y2="33.3574" gradientUnits="userSpaceOnUse">
<stop stop-color="#7D141D"/>
<stop offset="1" stop-color="#FF1E27"/>
</linearGradient>
<linearGradient id="paint5_linear_1_3188" x1="7.5127" y1="34.2383" x2="12.151" y2="34.2383" gradientUnits="userSpaceOnUse">
<stop stop-color="#7D141D"/>
<stop offset="1" stop-color="#FF1E27"/>
</linearGradient>
<linearGradient id="paint6_linear_1_3188" x1="20.4297" y1="10.1055" x2="29.9099" y2="10.1055" gradientUnits="userSpaceOnUse">
<stop stop-color="#7D141D"/>
<stop offset="1" stop-color="#FF1E27"/>
</linearGradient>
<linearGradient id="paint7_linear_1_3188" x1="14.0972" y1="3.30566" x2="36.2415" y2="3.30566" gradientUnits="userSpaceOnUse">
<stop stop-color="#7D141D"/>
<stop offset="1" stop-color="#FF1E27"/>
</linearGradient>
<linearGradient id="paint8_linear_1_3188" x1="3.29468" y1="30.7188" x2="7.00732" y2="30.7188" gradientUnits="userSpaceOnUse">
<stop stop-color="#7D141D"/>
<stop offset="1" stop-color="#FF1E27"/>
</linearGradient>
<linearGradient id="paint9_linear_1_3188" x1="18.4858" y1="33.0811" x2="23.0925" y2="33.0811" gradientUnits="userSpaceOnUse">
<stop stop-color="#7D141D"/>
<stop offset="1" stop-color="#FF1E27"/>
</linearGradient>
<linearGradient id="paint10_linear_1_3188" x1="12.9739" y1="33.3574" x2="17.5722" y2="33.3574" gradientUnits="userSpaceOnUse">
<stop stop-color="#7D141D"/>
<stop offset="1" stop-color="#FF1E27"/>
</linearGradient>
<linearGradient id="paint11_linear_1_3188" x1="7.4834" y1="34.2383" x2="12.1035" y2="34.2383" gradientUnits="userSpaceOnUse">
<stop stop-color="#7D141D"/>
<stop offset="1" stop-color="#FF1E27"/>
</linearGradient>
<clipPath id="clip0_1_3188">
<rect width="129" height="40" fill="white"/>
</clipPath>
</defs>
</svg>
