<svg width="25" height="25" viewBox="0 0 25 25" fill="none" xmlns="http://www.w3.org/2000/svg">
<path d="M12.5 0C5.625 0 0 5.625 0 12.5C0 19.375 5.625 25 12.5 25C19.375 25 25 19.375 25 12.5C25 5.625 19.375 0 12.5 0ZM12.5 3.125C17.6875 3.125 21.875 7.3125 21.875 12.5C21.875 17.6875 17.6875 21.875 12.5 21.875C7.3125 21.875 3.125 17.6875 3.125 12.5C3.125 7.3125 7.3125 3.125 12.5 3.125ZM10.9375 6.25V13.1875L11.4375 13.5938L13 15.1563L14.0625 16.3438L16.3125 14.0938L15.125 13.0312L14.0625 11.9688V6.3125H10.9375V6.25Z" fill="#0F4DA2"/>
</svg>
