 <svg
                          width="24"
                          height="24"
                          viewBox="0 0 23 23"
                          fill="none"
                          xmlns="http://www.w3.org/2000/svg"
                        >
                          <path
                            d="M14.8935 12.2179L14.8914 12.2176C14.6555 12.1889 14.5327 12.1819 14.4207 12.2292C14.2961 12.2822 14.128 12.4265 13.9962 12.6C13.8838 12.7532 13.6812 12.8063 13.5082 12.7323C13.5081 12.7323 13.5079 12.7322 13.5078 12.7321L13.5472 12.6402C13.1003 12.4527 12.7066 12.2434 12.3847 12.0121C12.0628 11.784 11.8003 11.5309 11.6066 11.2652L14.8935 12.2179ZM14.8935 12.2179C14.9195 12.2205 14.9498 12.2259 14.9802 12.2319C15.1251 12.2627 15.2945 12.3238 15.4431 12.4146C15.5926 12.506 15.7135 12.6227 15.7743 12.7615C15.8011 12.8229 15.8067 12.9147 15.795 13.0306C15.7842 13.1372 15.7606 13.2502 15.7381 13.3581C15.737 13.3633 15.736 13.3684 15.7349 13.3735L15.7336 13.3774L15.733 13.3772L15.7306 13.3886C15.7024 13.5238 15.643 13.6541 15.5578 13.7677C15.4561 13.9034 15.317 14.0115 15.1604 14.0798C15.0058 14.1473 14.8332 14.1703 14.6619 14.1503L14.6619 14.1503C14.057 14.08 13.4893 13.8877 12.9765 13.5824C12.0654 13.0401 11.3886 12.4698 10.8984 11.8324L10.899 11.8319L10.895 11.8278L10.8929 11.8249C10.8914 11.8227 10.8885 11.8189 10.8846 11.8146C10.2138 11.0235 9.84707 10.0799 9.6295 9.43334L9.62938 9.433C9.43722 8.8687 9.36989 8.27342 9.42494 7.66487L9.425 7.66416C9.43915 7.49431 9.49861 7.33033 9.59734 7.19211C9.69718 7.05233 9.83062 6.93916 9.98548 6.86877L9.98548 6.86878L9.98638 6.86835C10.1139 6.80885 10.2526 6.77773 10.3941 6.77773H10.4066H10.4066H10.4066H10.4067H10.4067H10.4067H10.4067H10.4067H10.4067H10.4068H10.4068H10.4068H10.4068H10.4068H10.4069H10.4069H10.4069H10.4069H10.4069H10.4069H10.407H10.407H10.407H10.407H10.407H10.4071H10.4071H10.4071H10.4071H10.4071H10.4071H10.4072H10.4072H10.4072H10.4072H10.4072H10.4073H10.4073H10.4073H10.4073H10.4073H10.4073H10.4074H10.4074H10.4074H10.4074H10.4074H10.4075H10.4075H10.4075H10.4075H10.4075H10.4075H10.4076H10.4076H10.4076H10.4076H10.4076H10.4077H10.4077H10.4077H10.4077H10.4077H10.4077H10.4078H10.4078H10.4078H10.4078H10.4078H10.4079H10.4079H10.4079H10.4079H10.4079H10.408H10.408H10.408H10.408H10.408H10.408H10.4081H10.4081H10.4081H10.4081H10.4081H10.4082H10.4082H10.4082H10.4082H10.4082H10.4082H10.4083H10.4083H10.4083H10.4083H10.4083H10.4084H10.4084H10.4084H10.4084H10.4084H10.4084H10.4085H10.4085H10.4085H10.4085H10.4085H10.4086H10.4086H10.4086H10.4086H10.4086H10.4086H10.4087H10.4087H10.4087H10.4087H10.4087H10.4088H10.4088H10.4088H10.4088H10.4088H10.4088H10.4089H10.4089H10.4089H10.4089H10.4089H10.409H10.409H10.409H10.409H10.409H10.409H10.4091H10.4091H10.4091H10.4091H10.4091H10.4092H10.4092H10.4092H10.4092H10.4092H10.4093H10.4093H10.4093H10.4093H10.4093H10.4093H10.4094H10.4094H10.4094H10.4094H10.4094H10.4095H10.4095H10.4095H10.4095H10.4095H10.4095H10.4096H10.4096H10.4096H10.4096H10.4096H10.4097H10.4097H10.4097H10.4097H10.4097H10.4097H10.4098H10.4098H10.4098H10.4098H10.4098H10.4099H10.4099H10.4099H10.4099H10.4099H10.4099H10.41H10.41H10.41H10.41H10.41H10.4101H10.4101H10.4101H10.4101H10.4101H10.4101H10.4102H10.4102H10.4102H10.4102H10.4102H10.4103H10.4103H10.4103H10.4103H10.4103H10.4103H10.4104H10.4104H10.4104H10.4104H10.4104H10.4105H10.4105H10.4105H10.4105H10.4105H10.4106H10.4106H10.4106H10.4106H10.4106H10.4106H10.4107H10.4107H10.4107H10.4107H10.4107H10.4108H10.4108H10.4108H10.4108H10.4108H10.4108H10.4109H10.4109H10.4109H10.4109H10.4109H10.411H10.411H10.411H10.411H10.411H10.411H10.4111H10.4111H10.4111H10.4111H10.4111H10.4112H10.4112H10.4112H10.4112H10.4112H10.4112H10.4113H10.4113H10.4113H10.4113H10.4113H10.4114H10.4114H10.4114H10.4114H10.4114H10.4114H10.4115H10.4115H10.4115H10.4115H10.4115H10.4116H10.4116H10.4116H10.4116H10.4116H10.4116H10.4117H10.4117H10.4117H10.4117H10.4117H10.4118H10.4118H10.4118H10.4118H10.4118H10.4119H10.4119H10.4119H10.4119H10.4119H10.4119H10.412H10.412H10.412H10.412H10.412H10.4121H10.4121H10.4121H10.4121H10.4121H10.4121H10.4122H10.4122H10.4122H10.4122H10.4122H10.4123H10.4123H10.4123H10.4123H10.4123H10.4123H10.4124H10.4124H10.4124H10.4124H10.4124H10.4125H10.4125H10.4125H10.4125H10.4125H10.4125H10.4126H10.4126H10.4126H10.4126H10.4126H10.4127H10.4127H10.4127H10.4127H10.4127H10.4127H10.4128H10.4128H10.4128H10.4128H10.4128H10.4129H10.4129H10.4129H10.4129H10.4129H10.4129H10.413H10.413H10.413H10.413H10.413H10.4131H10.4131H10.4131H10.4131H10.4131H10.4132H10.4132H10.4132H10.4132H10.4132H10.4132H10.4133H10.4133H10.4133H10.4133H10.4133H10.4134H10.4134H10.4134H10.4134H10.4134H10.4134H10.4135H10.4135H10.4135H10.4135H10.4135H10.4136H10.4136H10.4136H10.4136H10.4136H10.4136H10.4137H10.4137H10.4137H10.4137H10.4137H10.4138H10.4138H10.4138H10.4138H10.4138H10.4138H10.4139H10.4139H10.4139H10.4139H10.4139H10.414H10.414H10.414H10.414H10.414H10.414H10.4141H10.4141H10.4141H10.4141H10.4141H10.4142H10.4142H10.4142H10.4142H10.4142H10.4142H10.4143H10.4143H10.4143H10.4143H10.4143H10.4144H10.4144H10.4144H10.4144H10.4144H10.4145H10.4145H10.4145H10.4145H10.4145H10.4145H10.4146H10.4146H10.4146H10.4146H10.4146H10.4147H10.4147H10.4147H10.4147H10.4147H10.4147H10.4148H10.4148H10.4148H10.4148H10.4148H10.4149H10.4149H10.4149H10.4149H10.4149H10.4149H10.415H10.415H10.415H10.415H10.415H10.4151H10.4151H10.4151H10.4151H10.4151H10.4151H10.4152H10.4152H10.4152H10.4152H10.4152H10.4153H10.4153H10.4153H10.4153H10.4153H10.4153H10.4154H10.4154H10.4154H10.4154H10.4154H10.4155H10.4155H10.4155H10.4155H10.4155H10.4155H10.4156H10.4156H10.4156H10.4156H10.4156H10.4157H10.4157H10.4157H10.4157H10.4157H10.4158H10.4158H10.4158H10.4158H10.4158H10.4158H10.4159H10.4159H10.4159H10.4159H10.4159H10.416H10.416C10.5306 6.77773 10.6514 6.77861 10.7619 6.79187C10.8742 6.80534 10.9619 6.83026 11.018 6.86904C11.1385 6.95435 11.2264 7.09483 11.2841 7.25963C11.3416 7.42372 11.366 7.60298 11.366 7.75273C11.366 7.78504 11.3659 7.81427 11.3633 7.83966L11.3633 7.84019C11.3409 8.07656 11.3226 8.19854 11.2531 8.29812C11.1727 8.41045 10.9987 8.54458 10.799 8.63698L10.7989 8.637C10.6286 8.71592 10.5348 8.90161 10.5675 9.08586L10.5675 9.08586L10.5677 9.08681C10.7503 10.0599 11.0701 10.8159 11.5288 11.3283M14.8935 12.2179L11.5288 11.3283M11.5288 11.3283C11.7296 11.6024 11.9992 11.8614 12.3266 12.0935L11.5288 11.3283ZM10.8982 11.8326C10.8982 11.8326 10.8982 11.8326 10.8982 11.8325L10.8982 11.8326Z"
                            stroke="#0F4DA2"
                            strokeWidth="0.2"
                          />
                          <path
                            d="M7.03474 14.4594C6.17849 13.3062 5.72537 11.9312 5.72537 10.4906C5.72537 6.80937 8.71912 3.8125 12.4035 3.8125C16.0847 3.8125 19.0785 6.80625 19.0785 10.4875C19.0785 14.1687 16.0816 17.1656 12.4004 17.1656C11.2816 17.1656 10.1754 16.8844 9.20349 16.35C9.11599 16.3031 9.01287 16.3 8.92224 16.3406L5.7811 17.7915L5.84588 17.6515M7.03474 14.4594C7.10349 14.55 7.11599 14.6719 7.06599 14.775M7.03474 14.4594L7.11503 14.3998C7.11494 14.3996 7.11484 14.3995 7.11475 14.3994M7.03474 14.4594L7.11441 14.3989C7.11452 14.3991 7.11464 14.3992 7.11475 14.3994M7.06599 14.775L5.70577 17.7162L5.84588 17.6515M7.06599 14.775L7.15597 14.8186C7.15611 14.8183 7.15625 14.818 7.15639 14.8178M7.06599 14.775L7.15675 14.817L7.15639 14.8178M5.84588 17.6515L7.15639 14.8178M5.84588 17.6515L8.88031 16.2498L8.88133 16.2494C8.99987 16.1962 9.13555 16.2002 9.25071 16.2619L9.25168 16.2624C10.2086 16.7885 11.2982 17.0656 12.4004 17.0656C16.0264 17.0656 18.9785 14.1135 18.9785 10.4875C18.9785 6.86148 16.0295 3.9125 12.4035 3.9125C8.77438 3.9125 5.82537 6.86457 5.82537 10.4906C5.82537 11.9097 6.27155 13.2637 7.11475 14.3994M7.15639 14.8178C7.2223 14.681 7.20567 14.5196 7.11475 14.3994M16.5334 13.5631L16.5327 13.5629L16.5314 13.5668C16.4778 13.8204 16.3656 14.0598 16.2118 14.266L16.2116 14.2662C16.0228 14.518 15.7682 14.7162 15.481 14.8416L15.4802 14.842C15.2556 14.9378 15.0173 14.9875 14.7754 14.9875C14.704 14.9875 14.6307 14.9843 14.5564 14.9742C14.5562 14.9742 14.5559 14.9741 14.5556 14.9741L14.5691 14.875C13.8629 14.7906 13.2004 14.5656 12.6004 14.2094L16.5334 13.5631ZM16.5334 13.5631L16.5357 13.5519M16.5334 13.5631L16.5357 13.5519M16.5357 13.5519C16.537 13.5456 16.5384 13.5392 16.5397 13.5328M16.5357 13.5519L16.5397 13.5328M16.5397 13.5328C16.601 13.2425 16.6907 12.8174 16.5267 12.4327L16.5397 13.5328Z"
                            stroke="#0F4DA2"
                            strokeWidth="0.2"
                          />
                          <path
                            d="M6.53727 14.6677L6.51311 14.7201L4.80998 18.4076L4.80958 18.4084C4.77169 18.4884 4.7881 18.5837 4.85241 18.648C4.89198 18.6876 4.94732 18.7094 5.00358 18.7094C5.03228 18.7094 5.06228 18.7034 5.09425 18.6898L9.00541 16.8842L9.04986 16.8637L9.09333 16.8862C10.1103 17.4132 11.2507 17.6906 12.4067 17.6906C14.3302 17.6906 16.1391 16.9418 17.4985 15.5824C18.8578 14.2231 19.6067 12.4141 19.6067 10.4906C19.6067 8.56715 18.8579 6.75821 17.4954 5.39571C16.136 4.03636 14.3271 3.2875 12.4036 3.2875C10.4801 3.2875 8.67118 4.03632 7.30866 5.39571C7.30863 5.39574 7.30861 5.39576 7.30858 5.39579M6.53727 14.6677L7.30858 5.39579M6.53727 14.6677L6.50413 14.6206C5.6504 13.4063 5.20045 11.9826 5.20045 10.4875C5.20045 8.56404 5.94928 6.75514 7.30858 5.39579M6.53727 14.6677L7.30858 5.39579M5.43931 18.0642L5.55344 17.8174L6.97816 14.7367C6.97821 14.7366 6.97825 14.7365 6.9783 14.7364C7.01009 14.6662 7.00144 14.5829 6.95727 14.5216C6.08848 13.3482 5.62858 11.9556 5.62858 10.4937M5.43931 18.0642L9.15852 16.4408C9.1587 16.4409 9.15888 16.4409 9.15906 16.441M5.43931 18.0642L5.68613 17.9502L8.96636 16.435C8.9665 16.4349 8.96664 16.4349 8.96679 16.4348M5.43931 18.0642L8.96679 16.4348M5.62858 10.4937H5.72858L5.62858 10.4938C5.62858 10.4938 5.62858 10.4938 5.62858 10.4937ZM5.62858 10.4937C5.62545 6.75416 8.66396 3.7125 12.4036 3.7125C16.1401 3.7125 19.1817 6.75415 19.1817 10.4906C19.1817 14.2271 16.1401 17.2687 12.4036 17.2687C11.2684 17.2687 10.1458 16.9835 9.15906 16.441M9.15906 16.441C9.09945 16.4093 9.02925 16.407 8.96679 16.4348M9.15906 16.441C9.1592 16.4411 9.15934 16.4412 9.15948 16.4413L8.96679 16.4348"
                            fill="#0F4DA2"
                            stroke="#0F4DA2"
                            strokeWidth="0.2"
                          />
                          <path
                            d="M9.67536 6.21875L9.71702 6.30966C9.92912 6.21245 10.1555 6.1625 10.3879 6.1625H10.3972C10.7034 6.1625 11.0855 6.16548 11.371 6.36618L11.371 6.36621C11.7467 6.63008 11.9847 7.14799 11.9847 7.75938C11.9847 7.80548 11.9819 7.85527 11.9787 7.90514C11.9568 8.16175 11.9293 8.42368 11.759 8.66776C11.6536 8.8187 11.478 8.97247 11.2702 9.09895L11.2091 9.13616L11.2246 9.20602C11.3915 9.95846 11.6486 10.5416 12.0005 10.9286C12.0051 10.9347 12.0094 10.9399 12.0119 10.9429L12.0126 10.9437C12.0156 10.9473 12.0168 10.9488 12.0171 10.9492L12.0171 10.9493L12.0194 10.9524C12.1834 11.1787 12.4075 11.3923 12.6861 11.5908L12.6864 11.591C12.9264 11.7607 13.2102 11.9231 13.5342 12.0693L13.599 12.0985L13.6479 12.047C13.8166 11.8692 14.0057 11.7289 14.1737 11.6577L14.1745 11.6574C14.4497 11.5382 14.7117 11.5678 14.9662 11.5992L14.9668 11.5993C15.0156 11.6051 15.062 11.6137 15.112 11.6231C15.7073 11.7496 16.1618 12.0895 16.3426 12.5171L16.3429 12.5176C16.4805 12.8379 16.4048 13.2091 16.3412 13.5081L16.3399 13.5121L16.3392 13.5119L16.3368 13.5234C16.2899 13.7493 16.1899 13.9669 16.0519 14.149L16.0516 14.1494C15.8836 14.3734 15.66 14.5526 15.4022 14.6609L15.4013 14.6614C15.2045 14.7465 14.9899 14.7906 14.7754 14.7906C14.7095 14.7906 14.6456 14.7876 14.5826 14.779L14.581 14.7788C13.8917 14.6961 13.2424 14.4756 12.6513 14.1264C11.6749 13.5468 10.9387 12.9234 10.4014 12.2264L10.4015 12.2264L10.3985 12.2228C9.6579 11.3501 9.26275 10.3335 9.02952 9.64L8.93473 9.67188L9.02956 9.64012C8.81211 8.99085 8.73246 8.31106 8.79681 7.61546L8.79688 7.61464C8.82034 7.33608 8.9201 7.0686 9.08208 6.83888L9.08209 6.83888L9.08258 6.83817C9.24079 6.60965 9.46098 6.42738 9.71713 6.30961L9.67536 6.21875ZM9.67536 6.21875C9.90036 6.11563 10.141 6.0625 10.3879 6.0625H10.3972C10.6972 6.0625 11.1129 6.0625 11.4285 6.28437C11.8379 6.57187 12.0847 7.125 12.0847 7.75938C12.0847 7.80938 12.0816 7.8625 12.0785 7.9125M9.67536 6.21875L12.0785 7.9125M12.0785 7.9125C12.0566 8.16875 12.0285 8.45625 11.841 8.725C11.7254 8.89062 11.5379 9.05312 11.3222 9.18437L12.0785 7.9125ZM13.9097 12.5406L13.8297 12.4806C13.7723 12.5573 13.6681 12.5863 13.5804 12.5487L13.5794 12.5483C13.135 12.3631 12.7511 12.154 12.4363 11.9309C12.1214 11.7077 11.8675 11.4652 11.6815 11.2071L11.6819 11.2068L11.6747 11.1988C11.2478 10.7237 10.9374 10.006 10.758 9.0503L10.758 9.0503L10.7578 9.04914C10.7388 8.9541 10.7872 8.85941 10.8759 8.81924L10.876 8.81924L10.8767 8.81888C11.0952 8.71779 11.3055 8.56164 11.4098 8.41446C11.5184 8.26437 11.5347 8.08898 11.5557 7.86426L11.5561 7.85995C11.5561 7.85984 11.5561 7.85973 11.5561 7.85962C11.5597 7.82346 11.5597 7.78505 11.5597 7.75523V7.75313C11.5597 7.58444 11.5334 7.38246 11.4678 7.19408C11.4026 7.00658 11.2952 6.82361 11.1267 6.70572C11.0307 6.63787 10.9024 6.60825 10.7806 6.59368C10.6563 6.57881 10.5233 6.57812 10.4097 6.57812H10.4097H10.4097H10.4097H10.4097H10.4096H10.4096H10.4096H10.4096H10.4096H10.4095H10.4095H10.4095H10.4095H10.4095H10.4095H10.4094H10.4094H10.4094H10.4094H10.4094H10.4093H10.4093H10.4093H10.4093H10.4093H10.4093H10.4092H10.4092H10.4092H10.4092H10.4092H10.4091H10.4091H10.4091H10.4091H10.4091H10.4091H10.409H10.409H10.409H10.409H10.409H10.4089H10.4089H10.4089H10.4089H10.4089H10.4089H10.4088H10.4088H10.4088H10.4088H10.4088H10.4087H10.4087H10.4087H10.4087H10.4087H10.4087H10.4086H10.4086H10.4086H10.4086H10.4086H10.4085H10.4085H10.4085H10.4085H10.4085H10.4085H10.4084H10.4084H10.4084H10.4084H10.4084H10.4083H10.4083H10.4083H10.4083H10.4083H10.4082H10.4082H10.4082H10.4082H10.4082H10.4082H10.4081H10.4081H10.4081H10.4081H10.4081H10.408H10.408H10.408H10.408H10.408H10.408H10.4079H10.4079H10.4079H10.4079H10.4079H10.4078H10.4078H10.4078H10.4078H10.4078H10.4078H10.4077H10.4077H10.4077H10.4077H10.4077H10.4076H10.4076H10.4076H10.4076H10.4076H10.4076H10.4075H10.4075H10.4075H10.4075H10.4075H10.4074H10.4074H10.4074H10.4074H10.4074H10.4074H10.4073H10.4073H10.4073H10.4073H10.4073H10.4072H10.4072H10.4072H10.4072H10.4072H10.4072H10.4071H10.4071H10.4071H10.4071H10.4071H10.407H10.407H10.407H10.407H10.407H10.4069H10.4069H10.4069H10.4069H10.4069H10.4069H10.4068H10.4068H10.4068H10.4068H10.4068H10.4067H10.4067H10.4067H10.4067H10.4067H10.4067H10.4066H10.4066H10.4066H10.4066H10.4066H10.4065H10.4065H10.4065H10.4065H10.4065H10.4065H10.4064H10.4064H10.4064H10.4064H10.4064H10.4063H10.4063H10.4063H10.4063H10.4063H10.4063H10.4062H10.4062H10.4062H10.4062H10.4062H10.4061H10.4061H10.4061H10.4061H10.4061H10.4061H10.406H10.406H10.406H10.406H10.406H10.4059H10.4059H10.4059H10.4059H10.4059H10.4059H10.4058H10.4058H10.4058H10.4058H10.4058H10.4057H10.4057H10.4057H10.4057H10.4057H10.4056H10.4056H10.4056H10.4056H10.4056H10.4056H10.4055H10.4055H10.4055H10.4055H10.4055H10.4054H10.4054H10.4054H10.4054H10.4054H10.4054H10.4053H10.4053H10.4053H10.4053H10.4053H10.4052H10.4052H10.4052H10.4052H10.4052H10.4052H10.4051H10.4051H10.4051H10.4051H10.4051H10.405H10.405H10.405H10.405H10.405H10.405H10.4049H10.4049H10.4049H10.4049H10.4049H10.4048H10.4048H10.4048H10.4048H10.4048H10.4048H10.4047H10.4047H10.4047H10.4047H10.4047H10.4046H10.4046H10.4046H10.4046H10.4046H10.4046H10.4045H10.4045H10.4045H10.4045H10.4045H10.4044H10.4044H10.4044H10.4044H10.4044H10.4043H10.4043H10.4043H10.4043H10.4043H10.4043H10.4042H10.4042H10.4042H10.4042H10.4042H10.4041H10.4041H10.4041H10.4041H10.4041H10.4041H10.404H10.404H10.404H10.404H10.404H10.4039H10.4039H10.4039H10.4039H10.4039H10.4039H10.4038H10.4038H10.4038H10.4038H10.4038H10.4037H10.4037H10.4037H10.4037H10.4037H10.4037H10.4036H10.4036H10.4036H10.4036H10.4036H10.4035H10.4035H10.4035H10.4035H10.4035H10.4035H10.4034H10.4034H10.4034H10.4034H10.4034H10.4033H10.4033H10.4033H10.4033H10.4033H10.4033H10.4032H10.4032H10.4032H10.4032H10.4032H10.4031H10.4031H10.4031H10.4031H10.4031H10.403H10.403H10.403H10.403H10.403H10.403H10.4029H10.4029H10.4029H10.4029H10.4029H10.4028H10.4028H10.4028H10.4028H10.4028H10.4028H10.4027H10.4027H10.4027H10.4027H10.4027H10.4026H10.4026H10.4026H10.4026H10.4026H10.4026H10.4025H10.4025H10.4025H10.4025H10.4025H10.4024H10.4024H10.4024H10.4024H10.4024H10.4024H10.4023H10.4023H10.4023H10.4023H10.4023H10.4022H10.4022H10.4022H10.4022H10.4022H10.4022H10.4021H10.4021H10.4021H10.4021H10.4021H10.402H10.402H10.402H10.402H10.402H10.402H10.4019H10.4019H10.4019H10.4019H10.4019H10.4018H10.4018H10.4018H10.4018H10.4018H10.4017H10.4017H10.4017H10.4017H10.4017H10.4017H10.4016H10.4016H10.4016H10.4016H10.4016H10.4015H10.4015H10.4015H10.4015H10.4015H10.4015H10.4014H10.4014H10.4014H10.4014H10.4014H10.4013H10.4013H10.4013H10.4013H10.4013H10.4013H10.4012H10.4012H10.4012H10.4012H10.4012H10.4011H10.4011H10.4011H10.4011H10.4011H10.4011H10.401H10.401H10.401H10.401H10.401H10.4009H10.4009H10.4009H10.4009H10.4009H10.4009H10.4008H10.4008H10.4008H10.4008H10.4008H10.4007H10.4007H10.4007H10.4007H10.4007H10.4007H10.4006H10.4006H10.4006H10.4006H10.4006H10.4005H10.4005H10.4005H10.4005H10.4005H10.4004H10.4004H10.4004H10.4004H10.4004H10.4004H10.3879C10.2164 6.57812 10.0523 6.61594 9.89633 6.68716L9.89632 6.68715L9.89512 6.68772C9.70812 6.77612 9.54784 6.90898 9.42836 7.07625L9.42835 7.07625L9.42757 7.07737C9.31207 7.24383 9.23672 7.44157 9.21948 7.64759C9.16208 8.28268 9.23229 8.90277 9.43371 9.49752C9.65327 10.1499 10.0266 11.1236 10.7261 11.9447L10.7272 11.9463L10.7272 11.9463L10.7276 11.9468L10.7296 11.9497C10.7309 11.9515 10.7329 11.9542 10.7357 11.9575C11.2452 12.6189 11.9427 13.2071 12.8682 13.7548L12.8683 13.7549C13.4053 14.0714 13.9998 14.2726 14.6321 14.3493L14.6325 14.3493C14.8363 14.3731 15.0449 14.3461 15.2341 14.2635C15.421 14.182 15.588 14.0528 15.7112 13.8886C15.8132 13.7559 15.8843 13.5974 15.9189 13.4356L15.9202 13.4316L15.9207 13.4318L15.923 13.4217C15.9478 13.3098 15.9766 13.1774 15.9886 13.05C16.0004 12.925 15.9977 12.79 15.9482 12.6785C15.8667 12.4906 15.7101 12.3473 15.5407 12.2439C15.3704 12.14 15.1791 12.0714 15.0149 12.0365L15.0137 12.0363L15.012 12.036C14.9821 12.03 14.947 12.023 14.9079 12.0193M13.9097 12.5406L13.8296 12.4808C13.9734 12.2879 14.1676 12.1172 14.3362 12.0455L14.3365 12.0454C14.5052 11.9741 14.6821 11.9919 14.9079 12.0193M13.9097 12.5406C14.0472 12.3562 14.2285 12.2 14.3754 12.1375L13.541 12.6406C13.6722 12.6969 13.8254 12.6531 13.9097 12.5406ZM14.9079 12.0193C14.9073 12.0193 14.9068 12.0192 14.9063 12.0192L14.8972 12.1187L14.9093 12.0195C14.9088 12.0194 14.9083 12.0194 14.9079 12.0193Z"
                            fill="#0F4DA2"
                            stroke="#0F4DA2"
                            strokeWidth="0.2"
                          />
                        </svg>