<svg width="124" height="36" viewBox="0 0 124 36" fill="none" xmlns="http://www.w3.org/2000/svg">
<path d="M25.5828 16.5667C25.585 17.0599 25.3405 17.2208 24.9546 17.0219C24.2684 16.6684 23.5843 16.3093 22.915 15.9239C22.6086 15.7474 22.3608 15.7228 22.0418 15.9116C21.389 16.2981 20.7137 16.6461 20.0356 16.9862C19.8882 17.0599 19.6289 17.1107 19.5341 17.0314C19.4157 16.9326 19.3499 16.679 19.3729 16.5081C19.4847 15.6792 19.6475 14.8576 19.7588 14.0288C19.7807 13.8663 19.6996 13.6361 19.5856 13.5161C19.0413 12.9424 18.4603 12.4051 17.9149 11.8326C17.7833 11.6947 17.6265 11.4193 17.6803 11.3004C17.7532 11.1395 18.0064 11.0049 18.2015 10.9697C18.9711 10.8306 19.7511 10.7497 20.5207 10.6123C20.6824 10.5832 20.8776 10.4386 20.9554 10.2911C21.3205 9.60244 21.6356 8.8864 22.0007 8.19774C22.1021 8.00616 22.3197 7.74533 22.4737 7.75259C22.6398 7.75985 22.8421 8.01789 22.9446 8.21282C23.302 8.89087 23.6309 9.58457 23.9526 10.2811C24.0551 10.5039 24.1889 10.6005 24.4301 10.6301C25.2062 10.7256 25.9813 10.8346 26.7514 10.9708C26.9378 11.0038 27.1971 11.1261 27.2502 11.2724C27.3001 11.4098 27.1658 11.6763 27.0376 11.812C26.4741 12.4046 25.876 12.9626 25.3098 13.5524C25.2123 13.654 25.1487 13.8573 25.169 13.9986C25.2945 14.8783 25.449 15.7558 25.5828 16.5667Z" fill="white"/>
<path d="M33.464 10.0748C32.3529 3.90304 26.4812 -0.184275 20.4051 0.957359C15.1315 1.94428 11.272 6.68899 11.2627 12.658C11.2819 14.5927 11.9605 16.7889 13.3226 18.7476C16.0852 22.7283 18.8577 26.7044 21.6247 30.6851C22.1087 31.3765 22.8115 31.3765 23.2955 30.6901C26.0636 26.7089 28.8454 22.7378 31.5937 18.7521C33.4021 16.1309 34.0335 13.2188 33.464 10.0748ZM22.465 20.2685C18.2685 20.2685 14.8662 16.8023 14.8662 12.5262C14.8662 8.25008 18.2679 4.78329 22.465 4.78329C26.6616 4.78329 30.0639 8.24952 30.0639 12.5262C30.0633 16.8017 26.6616 20.2685 22.465 20.2685Z" fill="white"/>
<path d="M3.74053 31.2228C3.22309 30.7268 2.75662 30.137 2.38115 29.4757C2.06651 28.9485 1.39669 28.7725 0.869376 29.0831C0.351932 29.3931 0.179268 30.0862 0.484034 30.6134C0.970782 31.4613 1.5699 32.2265 2.23918 32.8671C2.4524 33.0637 2.72593 33.167 2.99013 33.167C3.28448 33.167 3.57883 33.0431 3.79151 32.8051C4.207 32.3499 4.18672 31.6467 3.74053 31.2228Z" fill="white"/>
<path d="M19.64 31.8435C18.9702 31.5955 18.3514 31.4508 17.7424 31.3989C17.4382 31.3782 17.1334 31.3576 16.8193 31.3576C16.2207 31.3369 15.7132 31.8334 15.7033 32.4534C15.6929 33.0739 16.1802 33.5805 16.7892 33.5906C17.0429 33.6006 17.3066 33.6112 17.5604 33.6319C17.9764 33.6732 18.4127 33.7765 18.8896 33.9525C19.0217 33.9938 19.1434 34.0145 19.2651 34.0145C19.7217 34.0145 20.1377 33.7352 20.3 33.2806C20.5023 32.6913 20.2079 32.0501 19.64 31.8435Z" fill="white"/>
<path d="M13.4906 31.6573C12.6991 31.8125 11.918 31.9879 11.1572 32.1745L10.9746 32.2158C10.3859 32.3604 10.0209 32.9603 10.153 33.5596C10.2747 34.0768 10.7313 34.4281 11.2284 34.4281C11.3096 34.4281 11.3907 34.4175 11.4822 34.3968L11.6648 34.3555C12.4256 34.1695 13.1464 34.0042 13.8765 33.8696C14.4751 33.7556 14.8708 33.1664 14.7595 32.5671C14.6576 31.9572 14.0793 31.5539 13.4906 31.6573Z" fill="white"/>
<path d="M8.04232 32.8049C7.34235 32.8775 6.65224 32.8049 5.99283 32.5982C5.41454 32.4122 4.79569 32.7429 4.62303 33.3321C4.4405 33.9214 4.75513 34.5419 5.34328 34.7279C6.04326 34.9552 6.78379 35.0692 7.52488 35.0692C7.76825 35.0692 8.01163 35.0585 8.25555 35.0379C8.85412 34.9759 9.30085 34.428 9.24001 33.8074C9.17916 33.1981 8.6513 32.7429 8.04232 32.8049Z" fill="white"/>
<path d="M45.3153 24.6492C43.8546 24.6492 42.081 24.2506 40.3335 23.3204L41.9897 20.0382C42.9156 20.7026 43.8155 21.0614 44.8457 21.0614C46.3845 21.0614 47.1671 20.1179 47.1671 17.8721V5.18164H51.0795V18.6161C51.0795 22.5495 48.7321 24.6492 45.3153 24.6492ZM67.7716 17.3539L67.7325 18.2708H57.7951C57.9516 20.5431 59.4384 21.6328 61.225 21.6328C62.5683 21.6328 63.6115 20.9949 64.1202 19.7857L67.563 20.304C66.6762 23.068 64.2636 24.6493 61.2511 24.6493C56.9214 24.6493 54.0915 22.0447 54.0915 17.5534C54.0915 13.062 56.9996 10.4308 61.1337 10.4308C64.9287 10.4308 67.7585 12.5701 67.7716 17.3539ZM61.1604 13.1415C59.452 13.1415 58.2652 13.9521 57.9001 15.7726H64.0556C63.8599 14.0318 62.6993 13.1415 61.1604 13.1415ZM74.2276 12.889C74.9057 11.6797 76.6663 10.5635 78.6095 10.5635V13.9786C75.7665 13.9786 74.4103 14.8291 74.4103 17.7259V24.3834H70.6284V10.7231H74.2277L74.2276 12.889ZM92.2378 5.18219V8.69028H87.7647V24.3836H83.8914V8.69028H79.3923V5.18219H92.2378ZM105.696 20.676C105.696 22.3504 105.852 23.4134 106.022 24.0114V24.3835H102.514L102.214 22.8951C101.21 24.1309 99.4752 24.6493 97.9103 24.6493C95.7976 24.6493 93.7371 23.6925 93.7371 20.8487C93.7371 18.0183 95.8106 17.0615 98.6144 16.437L100.818 15.932C101.77 15.7061 102.109 15.3739 102.109 14.8158C102.109 13.4737 100.91 13.1016 99.8533 13.1016C98.497 13.1016 97.4668 13.6464 97.232 15.1878L93.9066 14.5766C94.4673 11.7461 96.5018 10.4572 100.062 10.4572C102.748 10.4572 105.696 11.2678 105.696 15.3871L105.696 20.676ZM99.0841 22.058C100.871 22.058 102.305 20.8487 102.305 18.1378L99.1232 19.0547C98.0799 19.3072 97.3234 19.6793 97.3234 20.5962C97.3234 21.5795 98.119 22.058 99.0841 22.058ZM117.211 10.4577C120.746 10.4577 123.667 13.1022 123.667 17.5803C123.667 22.0585 120.746 24.7029 117.211 24.7029C115.464 24.7029 113.899 24.012 113.103 22.7628V31.0282H109.348V10.7233H112.908L113.012 12.5572C113.755 11.2018 115.386 10.4577 117.211 10.4577ZM116.364 21.5265C118.333 21.5265 119.911 20.0648 119.911 17.5798C119.911 15.0948 118.333 13.6331 116.364 13.6331C114.355 13.6331 112.79 15.1879 112.79 17.5798C112.79 19.9717 114.355 21.5265 116.364 21.5265Z" fill="white"/>
</svg>
