<svg
                        width="27"
                        height="28"
                        viewBox="0 0 27 28"
                        fill="none"
                        xmlns="http://www.w3.org/2000/svg"
                      >
                        <path
                          d="M22.8235 7.98633C22.6041 7.04883 21.9094 6.30664 21.0684 6.07227C19.4962 5.60352 13.2805 5.60352 13.2805 5.60352C13.2805 5.60352 7.0282 5.60352 5.45599 6.07227C4.61504 6.30664 3.92034 7.04883 3.70096 7.98633C3.26221 9.62695 3.26221 13.1426 3.26221 13.1426C3.26221 13.1426 3.26221 16.6191 3.70096 18.2988C3.92034 19.2363 4.61504 19.9395 5.45599 20.1738C7.0282 20.6035 13.2805 20.6035 13.2805 20.6035C13.2805 20.6035 19.4962 20.6035 21.0684 20.1738C21.9094 19.9395 22.6041 19.2363 22.8235 18.2988C23.2622 16.6191 23.2622 13.1426 23.2622 13.1426C23.2622 13.1426 23.2622 9.62695 22.8235 7.98633ZM11.233 16.3066V9.97852L16.4249 13.1426L11.233 16.3066Z"
                          fill="white"
                        />
                      </svg>